<?xml version="1.0" standalone="no"?>
<!DOCTYPE svg PUBLIC "-//W3C//DTD SVG 20010904//EN"
 "http://www.w3.org/TR/2001/REC-SVG-20010904/DTD/svg10.dtd">
<svg version="1.0" xmlns="http://www.w3.org/2000/svg"
 width="2048.000000pt" height="2048.000000pt" viewBox="0 0 2048.000000 2048.000000"
 preserveAspectRatio="xMidYMid meet">

<g transform="translate(0.000000,2048.000000) scale(0.100000,-0.100000)"
fill="#000000" stroke="none">
<path d="M13975 20420 c-16 -5 -60 -10 -97 -11 -39 -1 -76 -8 -86 -15 -9 -7
-25 -14 -34 -14 -10 0 -18 -6 -18 -12 0 -9 -3 -8 -10 2 -8 12 -11 12 -28 -3
-10 -9 -26 -17 -34 -17 -26 0 -48 -11 -42 -21 3 -5 -9 -9 -25 -9 -17 0 -31 -4
-31 -9 0 -4 -21 -19 -47 -32 -27 -13 -50 -27 -51 -32 -2 -4 -17 -14 -33 -22
-16 -9 -29 -22 -29 -30 0 -8 -5 -15 -11 -15 -5 0 -7 5 -4 10 3 6 2 10 -4 10
-5 0 -13 -9 -16 -20 -3 -11 -10 -20 -15 -20 -5 0 -23 -16 -42 -36 -18 -20 -40
-44 -50 -52 -9 -8 -14 -21 -11 -28 3 -8 0 -14 -6 -14 -7 0 -19 -16 -27 -35 -8
-19 -18 -35 -23 -35 -4 0 -19 -21 -32 -47 -13 -27 -31 -59 -40 -73 -10 -14
-23 -49 -29 -78 -7 -28 -16 -55 -21 -58 -5 -3 -9 -18 -9 -34 0 -17 -9 -53 -20
-82 -18 -47 -20 -72 -17 -218 2 -134 6 -170 19 -190 9 -14 20 -44 24 -68 5
-31 11 -42 20 -38 8 3 14 -1 14 -10 0 -9 -5 -12 -11 -8 -14 8 -1 -38 14 -47 5
-4 7 -11 3 -17 -3 -6 0 -17 8 -24 8 -8 22 -38 32 -66 10 -29 25 -52 32 -52 8
0 12 -6 9 -14 -4 -10 -1 -13 9 -9 8 3 14 -1 14 -11 0 -9 5 -16 10 -16 6 0 10
-7 10 -16 0 -22 43 -71 58 -66 7 2 12 -3 12 -12 0 -9 5 -16 10 -16 6 0 10 -4
10 -10 0 -12 48 -60 60 -60 6 0 15 -9 22 -20 7 -11 21 -20 31 -20 10 0 20 -7
23 -15 4 -8 12 -15 20 -15 8 0 14 -4 14 -8 0 -5 35 -26 78 -47 42 -21 90 -44
105 -52 15 -8 52 -17 83 -20 30 -3 57 -10 60 -14 3 -5 14 -9 24 -9 10 0 20 -5
22 -12 6 -16 366 -18 376 -2 4 6 14 11 22 12 36 2 205 52 208 62 2 5 12 10 22
10 9 0 23 7 30 15 7 8 19 15 27 15 25 0 73 30 73 45 0 8 7 15 15 15 8 0 15 5
15 10 0 6 6 10 14 10 23 0 83 43 95 68 6 12 15 22 21 22 5 0 10 9 10 20 0 11
3 19 8 18 19 -4 41 17 57 52 10 22 22 37 26 34 5 -3 12 3 16 13 3 10 12 25 19
33 7 8 14 26 16 40 2 14 9 24 15 23 7 -2 10 3 7 11 -3 8 3 20 13 27 20 16 43
73 43 110 0 14 4 29 9 35 24 25 51 139 56 236 5 117 -3 230 -16 222 -9 -5 -12
19 -12 84 0 17 -4 32 -10 32 -5 0 -7 6 -4 14 3 7 0 22 -7 32 -7 11 -19 43 -26
72 -6 28 -16 52 -21 52 -4 0 -6 7 -2 16 4 10 0 22 -9 28 -8 6 -15 13 -16 16
-4 24 -17 40 -28 36 -10 -4 -14 3 -14 19 0 14 -9 34 -20 45 -11 11 -20 22 -20
25 -2 18 -39 66 -72 90 -21 16 -48 44 -61 62 -15 24 -35 37 -64 46 -29 7 -43
17 -43 28 0 9 -12 22 -27 28 -51 21 -113 58 -107 64 3 3 -10 8 -28 12 -52 11
-121 35 -137 48 -23 20 -320 42 -366 27z m256 -571 c13 -9 28 -17 32 -17 5 0
14 -8 21 -18 7 -9 18 -14 24 -10 8 5 10 2 6 -9 -4 -10 -2 -14 7 -10 21 8 116
-87 139 -139 12 -25 24 -46 29 -46 6 0 31 -77 36 -115 1 -5 3 -14 4 -20 1 -5
6 -3 11 5 7 10 10 -9 10 -63 0 -47 -4 -76 -9 -72 -6 3 -13 -11 -17 -32 -3 -21
-18 -60 -32 -88 -14 -27 -30 -60 -36 -72 -6 -13 -14 -23 -18 -23 -5 0 -8 -7
-8 -15 0 -8 -10 -20 -22 -26 -13 -7 -38 -29 -56 -50 -19 -22 -40 -39 -49 -39
-8 0 -29 -10 -45 -22 -59 -42 -324 -47 -380 -7 -15 11 -39 24 -53 29 -14 5
-25 14 -25 20 0 6 -8 9 -18 6 -14 -5 -22 2 -32 30 -8 20 -16 31 -18 25 -6 -19
-22 -12 -22 9 0 11 -9 25 -20 32 -11 7 -20 18 -20 24 0 6 -9 19 -20 29 -11 10
-20 26 -20 36 0 10 -6 22 -13 26 -42 25 -49 246 -10 318 12 22 35 66 51 98 15
31 32 54 36 50 4 -4 9 2 12 14 3 12 15 24 27 27 12 3 18 8 14 12 -7 7 19 29
72 58 19 11 43 26 53 35 27 23 77 30 214 27 90 -1 127 -6 145 -17z"/>
<path d="M18226 19449 c-38 -6 -64 -15 -76 -29 -9 -11 -24 -20 -32 -20 -22 0
-68 -60 -68 -88 0 -13 -6 -30 -12 -37 -7 -8 -19 -21 -26 -30 -10 -12 -13 -103
-15 -408 -2 -410 -6 -447 -46 -447 -9 0 -203 -1 -431 -3 -377 -4 -418 -6 -443
-22 -15 -9 -27 -21 -27 -26 0 -5 -7 -9 -15 -9 -8 0 -15 -6 -15 -14 0 -8 -7
-16 -15 -20 -8 -3 -15 -12 -15 -20 0 -8 -6 -19 -14 -23 -8 -4 -16 -21 -18 -38
-2 -16 -6 -32 -10 -35 -14 -11 -11 -150 3 -168 8 -9 23 -32 33 -51 28 -50 48
-71 68 -71 9 0 21 -6 25 -14 21 -35 48 -37 467 -37 406 0 414 0 432 -20 18
-20 19 -44 21 -363 1 -187 2 -371 2 -407 1 -57 5 -70 26 -90 16 -16 22 -31 19
-45 -8 -33 84 -124 126 -124 17 0 29 -4 26 -9 -16 -25 173 -30 198 -6 8 8 21
15 29 15 15 0 74 69 69 83 -1 4 7 7 18 7 12 0 20 7 20 18 0 9 7 30 15 46 13
24 15 90 15 405 0 387 4 435 41 472 18 18 37 19 447 19 l427 1 38 35 c21 19
35 40 31 45 -4 7 1 7 15 0 17 -9 21 -9 21 3 0 8 11 33 24 57 23 40 24 51 21
147 -5 106 -9 127 -26 117 -5 -4 -9 5 -9 19 0 18 -11 33 -37 51 -21 14 -44 25
-51 25 -8 0 -12 6 -9 14 4 10 -2 18 -16 22 -12 4 -204 8 -427 9 -223 1 -417 6
-432 10 -16 4 -29 16 -32 31 -4 14 -10 22 -15 20 -5 -3 -9 181 -9 409 -1 361
-3 417 -17 431 -8 8 -15 23 -15 32 0 10 -9 23 -20 30 -11 7 -20 17 -20 23 0
14 -41 48 -57 49 -7 0 -13 4 -13 8 0 9 -91 33 -118 31 -9 -1 -43 -5 -76 -10z
m201 -2641 c-3 -8 -6 -5 -6 6 -1 11 2 17 5 13 3 -3 4 -12 1 -19z"/>
<path d="M4583 19343 c-24 -2 -43 -8 -43 -14 0 -5 -6 -9 -14 -9 -8 0 -21 -6
-28 -12 -7 -7 -19 -13 -25 -14 -7 -1 -19 -2 -27 -2 -7 -1 -16 -11 -19 -22 -3
-13 -17 -22 -36 -26 -21 -5 -31 -12 -31 -25 0 -12 -5 -16 -14 -13 -9 4 -21 -6
-31 -27 -18 -33 -27 -46 -57 -80 -10 -10 -18 -29 -18 -42 0 -13 -5 -28 -12
-35 -9 -9 -9 -12 1 -12 11 0 11 -3 0 -17 -11 -12 -11 -17 -2 -20 10 -4 10 -8
-1 -18 -9 -10 -14 -42 -14 -102 -1 -100 8 -151 34 -191 10 -15 19 -33 20 -40
2 -8 9 -21 17 -30 8 -10 18 -27 21 -39 4 -13 11 -23 16 -23 4 0 24 -16 43 -35
19 -19 37 -32 40 -28 4 3 10 -2 13 -11 5 -14 9 -15 15 -4 7 10 9 9 9 -4 0 -10
3 -18 8 -19 52 -5 85 -17 78 -28 -14 -21 92 -33 226 -25 83 5 97 9 101 25 5
17 28 24 64 20 6 -1 20 10 31 23 11 14 21 23 24 21 3 -3 21 10 40 29 20 19 38
32 42 29 3 -3 10 6 15 20 6 15 19 35 29 45 11 11 22 31 26 46 3 14 13 26 21
26 12 0 15 14 16 63 0 34 4 85 9 112 11 62 -8 225 -27 232 -7 3 -13 13 -13 22
0 24 -37 76 -42 59 -3 -7 -8 2 -12 20 -5 18 -15 36 -24 40 -19 7 -77 64 -75
73 1 3 -3 6 -10 7 -34 3 -110 30 -116 41 -8 13 -188 23 -268 14z"/>
<path d="M11705 18584 c-53 -5 -95 -21 -108 -41 -4 -7 -17 -13 -27 -13 -22 0
-106 -78 -141 -130 -13 -20 -28 -35 -34 -35 -5 0 -10 -13 -11 -30 -1 -16 -6
-31 -13 -33 -6 -2 -11 -12 -11 -22 0 -10 -4 -21 -8 -24 -5 -3 -8 -27 -8 -55 1
-27 -2 -47 -6 -44 -5 2 -8 -19 -8 -46 0 -28 5 -51 10 -51 6 0 10 -28 10 -65 0
-50 4 -66 17 -74 10 -5 15 -12 11 -16 -10 -11 13 -65 28 -65 8 0 14 -4 14 -8
0 -12 77 -92 89 -92 6 0 11 -9 11 -19 0 -13 9 -21 30 -26 17 -4 30 -11 30 -16
0 -6 4 -8 9 -4 5 3 16 -2 24 -10 12 -11 17 -12 20 -2 4 9 8 9 15 -2 6 -8 17
-11 27 -8 9 4 14 3 11 -2 -15 -23 177 -46 214 -25 14 7 42 13 62 14 20 0 39 4
43 9 3 5 30 21 60 35 30 14 55 29 55 33 0 5 23 26 50 48 28 22 50 44 50 50 0
6 8 20 19 31 10 11 21 37 25 59 5 26 10 34 16 25 15 -23 20 40 18 198 -2 87
-7 156 -13 160 -5 4 -19 25 -30 47 -28 58 -107 155 -126 155 -9 0 -19 9 -22
20 -3 11 -9 20 -14 19 -20 -3 -34 2 -55 24 -13 12 -28 23 -33 24 -31 5 -258
10 -300 7z m183 -951 c-10 -2 -26 -2 -35 0 -10 3 -2 5 17 5 19 0 27 -2 18 -5z"/>
<path d="M2084 18158 c-3 -4 -14 -8 -24 -8 -10 0 -23 -7 -28 -16 -5 -8 -19
-21 -32 -27 -13 -7 -37 -38 -53 -69 -16 -32 -33 -56 -37 -53 -17 10 -20 -54
-20 -435 0 -295 -3 -399 -12 -408 -7 -7 -8 -12 -3 -12 4 0 0 -9 -9 -19 -17
-18 -37 -19 -397 -21 -209 0 -391 -5 -404 -10 -14 -5 -25 -7 -25 -4 0 4 -6 2
-13 -5 -10 -8 -17 -7 -26 2 -10 9 -14 8 -22 -6 -6 -9 -14 -15 -20 -12 -5 4 -9
1 -9 -4 0 -6 -6 -11 -14 -11 -13 0 -61 -56 -61 -72 0 -3 -3 -10 -7 -14 -5 -4
-8 -15 -8 -25 0 -9 -7 -19 -15 -23 -12 -4 -15 -23 -15 -85 0 -44 5 -83 10 -86
6 -4 8 -11 5 -16 -3 -5 1 -6 10 -3 9 4 15 3 14 -2 -1 -5 1 -17 6 -27 4 -10 5
-21 1 -24 -8 -9 24 -43 41 -43 7 0 13 -5 13 -11 0 -6 6 -9 12 -7 7 3 26 -8 41
-24 l29 -28 406 -2 c224 0 412 -2 417 -3 6 -2 15 -3 21 -4 27 -3 34 -93 37
-471 1 -296 5 -384 14 -383 7 2 10 -3 7 -11 -3 -7 3 -21 12 -31 10 -9 18 -25
19 -35 2 -25 53 -90 71 -90 7 0 14 -4 14 -9 0 -20 101 -44 157 -37 73 9 133
28 133 43 0 7 11 13 25 13 17 0 29 8 37 25 6 14 17 25 25 25 8 0 13 11 13 28
0 15 7 50 16 77 13 42 15 106 12 420 -2 204 0 379 5 391 9 25 40 43 82 49 17
2 212 4 433 4 390 1 404 2 409 20 3 11 11 17 18 15 15 -6 57 35 49 48 -3 4 1
8 10 8 8 0 26 20 40 45 21 39 25 60 27 136 1 56 -3 95 -10 102 -6 6 -11 19
-11 28 0 10 -13 26 -29 35 -17 10 -28 20 -26 24 7 11 -9 25 -60 50 l-49 25
-417 5 c-230 3 -419 7 -421 10 -2 3 -13 17 -26 31 l-24 27 -2 418 c-2 463 1
434 -71 509 -68 70 -88 78 -193 80 -51 1 -95 -2 -98 -7z"/>
<path d="M6420 17200 c-19 -5 -111 -12 -205 -15 -192 -7 -245 -13 -226 -25 13
-8 -87 -26 -121 -22 -10 1 -18 -2 -18 -6 0 -4 -18 -8 -40 -9 -22 -2 -50 -9
-63 -17 -12 -8 -34 -16 -49 -18 -15 -2 -30 -7 -34 -11 -4 -4 -19 -4 -33 0 -14
3 -23 2 -18 -2 10 -11 -55 -34 -123 -43 -39 -5 -55 -11 -55 -22 0 -9 -11 -16
-27 -18 -16 -2 -28 -8 -28 -13 0 -5 -10 -9 -23 -9 -13 0 -32 -7 -43 -15 -10
-8 -32 -15 -47 -15 -15 0 -30 -7 -33 -15 -4 -8 -12 -15 -20 -15 -8 0 -14 -4
-14 -10 0 -5 -7 -7 -15 -4 -8 4 -15 1 -15 -5 0 -6 -9 -11 -21 -11 -11 0 -28
-8 -37 -19 -10 -10 -36 -23 -59 -30 -24 -6 -43 -16 -43 -20 0 -5 -11 -12 -25
-15 -14 -4 -25 -11 -25 -16 0 -6 -7 -10 -15 -10 -9 0 -18 -6 -21 -14 -3 -8
-19 -18 -35 -21 -16 -4 -29 -13 -29 -21 0 -8 -9 -14 -20 -14 -11 0 -20 -6 -20
-13 0 -14 -40 -37 -64 -37 -7 0 -19 -11 -26 -25 -7 -14 -21 -25 -31 -25 -10 0
-24 -9 -31 -19 -8 -10 -30 -29 -51 -41 -20 -12 -37 -26 -37 -31 0 -5 -4 -9
-10 -9 -5 0 -20 -10 -34 -22 -13 -13 -45 -41 -71 -63 -80 -67 -96 -85 -90 -95
3 -6 1 -10 -5 -10 -7 0 -34 -22 -61 -50 -27 -27 -53 -50 -59 -50 -5 0 -10 -12
-10 -26 0 -15 -4 -23 -10 -19 -12 7 -49 -33 -50 -52 0 -7 -6 -13 -14 -13 -7 0
-19 -13 -26 -30 -7 -16 -16 -30 -21 -30 -5 0 -9 -9 -9 -20 0 -11 -6 -20 -13
-20 -19 0 -47 -33 -47 -54 0 -9 -5 -14 -11 -11 -12 8 -51 -33 -44 -46 3 -4 -8
-22 -25 -40 -16 -19 -30 -39 -30 -46 0 -7 -4 -13 -10 -13 -5 0 -10 -9 -10 -20
0 -11 -4 -20 -10 -20 -5 0 -10 -6 -10 -13 0 -8 -9 -22 -20 -32 -11 -10 -20
-29 -20 -42 0 -13 -7 -26 -15 -29 -9 -4 -15 -20 -16 -43 -1 -31 -2 -33 -8 -11
-6 22 -8 23 -14 7 -4 -10 -7 -29 -7 -43 0 -16 -4 -22 -14 -18 -9 3 -15 -4 -19
-23 -10 -51 -32 -103 -43 -103 -6 0 -14 -18 -18 -39 -3 -22 -13 -41 -22 -45
-9 -4 -14 -13 -10 -21 3 -8 1 -15 -5 -15 -6 0 -7 -4 -4 -10 3 -5 -6 -31 -20
-57 -14 -26 -25 -54 -25 -61 0 -21 -32 -112 -41 -118 -5 -3 -9 -15 -9 -27 0
-34 -42 -202 -52 -205 -4 -2 -8 -21 -8 -43 0 -21 -4 -39 -8 -39 -12 0 -33
-154 -39 -285 -2 -60 -9 -112 -14 -116 -13 -8 -13 -345 0 -434 5 -38 11 -105
12 -147 2 -86 22 -207 36 -217 5 -3 10 -15 11 -26 4 -57 15 -131 22 -140 10
-14 30 -93 34 -133 1 -19 9 -37 15 -42 8 -4 15 -39 18 -86 8 -118 33 -112
-442 -114 -494 -3 -539 -6 -620 -37 -22 -9 -54 -15 -71 -15 -17 1 -40 -7 -50
-17 -11 -10 -35 -18 -54 -19 -25 -1 -30 2 -20 8 10 6 11 10 3 10 -7 0 -17 -8
-22 -17 -6 -11 -11 -13 -11 -5 0 16 -47 5 -78 -19 -13 -10 -51 -24 -84 -30
-33 -7 -65 -17 -71 -23 -7 -7 -36 -19 -65 -29 -29 -9 -60 -24 -69 -32 -8 -9
-21 -14 -29 -11 -11 4 -28 -17 -71 -88 -7 -12 -13 -31 -13 -43 0 -14 -6 -23
-15 -23 -21 0 -19 -18 3 -23 15 -4 15 -5 -2 -6 -16 -1 -18 -8 -14 -65 2 -35
10 -72 18 -81 8 -9 15 -23 16 -30 3 -21 52 -81 80 -100 29 -19 122 -45 162
-45 37 0 162 33 162 42 0 4 4 8 9 8 5 0 20 4 33 9 13 5 25 8 28 8 3 0 23 9 45
20 22 11 63 24 90 28 28 4 57 12 65 19 29 25 169 42 505 60 55 3 95 3 88 -2
-6 -4 167 -6 385 -5 1074 7 1771 7 1750 1 -16 -5 -14 -6 7 -2 17 3 64 8 105
10 53 3 78 8 86 19 9 13 13 13 17 3 4 -10 6 -10 6 0 1 6 0 14 -1 16 -2 3 13
15 32 28 24 17 38 36 47 68 7 24 17 48 23 54 22 22 4 206 -21 206 -4 0 -5 8
-2 18 3 12 -4 23 -21 32 -14 7 -26 17 -26 22 0 4 -7 8 -15 8 -8 0 -15 5 -15
10 0 6 -9 10 -20 10 -11 0 -28 8 -38 18 -10 10 -27 22 -37 26 -11 4 -242 7
-515 7 -272 -1 -514 2 -538 5 -33 5 -46 13 -59 35 -10 16 -23 29 -30 29 -17 0
-28 21 -14 30 9 5 8 10 -4 20 -8 7 -15 20 -15 30 0 9 -3 20 -7 24 -5 4 -8 11
-9 14 -1 11 -15 45 -25 64 -5 10 -9 25 -9 33 0 8 -4 23 -9 33 -15 27 -24 55
-28 87 -3 16 -8 32 -11 35 -4 3 -9 14 -10 25 -2 11 -8 24 -13 30 -5 5 -9 22
-9 38 0 15 -4 26 -9 23 -5 -3 -11 27 -15 67 -10 124 -42 351 -54 378 -15 36 2
376 17 350 4 -6 8 13 9 41 6 131 46 352 70 380 8 10 12 24 9 32 -3 8 -2 16 4
18 5 2 11 19 13 38 5 49 27 122 43 141 7 8 13 22 13 30 0 8 5 20 11 26 7 7 13
22 14 35 1 13 3 28 4 34 0 6 14 28 30 48 17 21 31 54 35 81 4 26 13 45 20 45
12 0 36 40 36 61 0 6 7 17 15 25 8 9 15 24 15 34 0 10 12 23 30 30 21 9 30 19
30 36 0 31 20 74 36 74 14 0 54 73 54 100 0 13 5 18 15 14 10 -4 15 0 15 12 0
16 2 16 10 4 7 -11 11 -9 19 13 6 16 11 33 11 38 0 5 7 9 15 9 8 0 15 5 15 12
0 6 20 30 44 52 23 23 46 49 49 59 4 9 13 17 22 17 8 0 15 6 15 13 0 6 19 28
42 47 23 19 63 56 90 83 27 26 52 47 57 47 5 0 23 14 41 30 18 17 39 30 47 30
11 0 14 7 10 21 -5 17 -2 20 14 16 10 -3 19 -1 19 3 0 5 9 12 21 15 11 4 18
10 15 13 -4 3 8 11 26 16 18 6 32 16 31 21 -1 6 13 18 32 28 19 9 35 22 35 27
0 6 6 10 14 10 8 0 21 6 28 13 17 16 85 47 103 47 8 0 18 6 22 13 10 16 58 37
83 37 11 0 20 4 20 10 0 5 11 12 25 16 14 3 25 9 25 13 0 13 119 53 175 58 23
3 44 12 52 23 8 12 31 21 61 25 26 4 57 13 69 21 12 8 29 14 38 14 8 0 15 5
15 11 0 7 10 9 25 5 14 -4 33 -2 42 3 10 5 65 16 123 25 131 21 826 24 832 4
2 -6 37 -13 86 -16 45 -2 82 -8 82 -13 0 -5 6 -9 14 -9 8 0 33 -9 57 -20 26
-11 66 -20 96 -20 37 0 52 -4 50 -12 -1 -7 6 -12 16 -11 12 0 16 -4 13 -12 -3
-10 11 -16 52 -21 31 -4 72 -14 92 -23 19 -8 40 -16 46 -16 6 0 27 -13 47 -28
20 -15 46 -27 58 -27 12 0 32 -11 45 -25 13 -14 30 -25 36 -24 19 3 51 -12 69
-33 9 -10 25 -18 35 -18 11 0 27 -8 36 -17 25 -27 46 -43 56 -43 5 0 15 -7 22
-15 7 -9 20 -13 28 -10 10 3 12 0 8 -10 -4 -10 1 -15 15 -15 11 0 22 -7 25
-15 4 -8 11 -15 18 -15 6 0 22 -14 35 -31 14 -17 30 -28 38 -25 8 3 18 -4 24
-18 6 -13 22 -29 35 -35 13 -6 24 -15 24 -21 0 -5 5 -10 11 -10 6 0 17 -7 25
-15 9 -8 12 -15 8 -15 -5 0 9 -16 29 -35 20 -19 43 -35 51 -35 8 0 16 -10 18
-22 2 -15 11 -24 26 -26 12 -2 22 -10 22 -18 0 -18 24 -44 39 -44 6 0 11 -7
11 -16 0 -10 6 -14 14 -11 10 4 13 1 9 -9 -3 -7 0 -14 5 -14 6 0 14 -10 17
-21 6 -17 9 -18 16 -8 6 10 11 6 18 -14 6 -16 11 -33 11 -39 0 -5 6 -8 13 -5
9 3 18 -8 27 -31 14 -38 32 -62 48 -62 6 0 14 -17 19 -37 5 -21 15 -37 21 -35
7 1 12 -9 12 -23 0 -26 15 -34 23 -12 3 6 6 0 6 -15 1 -16 5 -28 11 -28 5 0
12 -11 16 -25 3 -14 10 -25 15 -25 5 0 14 -11 19 -25 5 -14 14 -25 20 -25 5 0
10 -9 10 -19 0 -11 4 -22 9 -25 4 -3 11 -19 14 -35 3 -16 12 -35 19 -43 19
-20 38 -56 38 -70 0 -7 11 -35 25 -63 13 -27 25 -60 25 -71 0 -12 7 -25 16
-28 9 -4 14 -9 11 -13 -3 -3 0 -18 8 -34 8 -15 15 -37 15 -49 0 -13 7 -20 19
-20 11 0 26 -8 33 -17 12 -17 80 -60 86 -55 8 7 22 0 19 -10 -1 -9 19 -14 71
-16 45 -2 72 1 72 8 0 5 8 10 19 10 10 0 35 11 55 25 20 14 39 25 43 25 13 0
53 47 53 63 0 10 5 15 10 12 6 -3 10 4 10 17 0 13 9 34 20 48 12 15 19 39 19
60 -2 42 -16 105 -18 76 -1 -20 -1 -20 -15 -1 -8 11 -12 23 -9 28 2 4 -1 14
-7 22 -10 12 -10 15 1 15 12 0 12 2 0 9 -8 5 -11 16 -8 24 3 8 -5 30 -19 48
-13 18 -24 41 -24 51 0 10 -4 18 -9 18 -5 0 -12 18 -16 40 -4 22 -11 40 -16
40 -5 0 -9 11 -9 25 0 14 -7 28 -15 31 -8 4 -15 14 -15 24 0 10 -7 23 -15 30
-8 7 -15 18 -15 24 0 19 -37 91 -54 106 -9 7 -16 19 -16 26 0 8 -3 14 -8 14
-13 0 -47 73 -44 94 6 32 38 62 83 75 45 14 1322 15 1419 1 31 -4 59 -4 65 1
5 5 22 9 37 9 15 0 28 4 28 9 0 6 15 11 33 13 20 2 32 8 32 18 0 8 5 15 11 15
16 0 74 52 74 67 0 7 9 27 20 43 15 23 20 47 20 104 0 64 -4 79 -25 107 -14
18 -25 40 -25 49 0 9 -9 19 -20 22 -11 3 -17 9 -14 14 6 11 -55 49 -79 49 -10
0 -20 6 -22 13 -3 6 -24 14 -48 16 -35 4 -1562 6 -1957 3 -185 -2 -174 -5
-251 71 -15 15 -32 27 -38 27 -6 0 -16 9 -23 20 -7 11 -18 20 -25 20 -6 0 -18
8 -25 18 -7 9 -26 24 -42 32 -16 8 -35 25 -44 37 -8 13 -20 23 -27 23 -7 0
-18 7 -25 15 -7 8 -25 15 -41 15 -16 0 -29 5 -29 11 0 5 5 7 10 4 6 -3 10 -1
10 4 0 6 -7 11 -15 11 -8 0 -15 5 -15 11 0 5 -4 7 -10 4 -5 -3 -23 6 -39 21
-34 30 -77 54 -97 54 -8 0 -14 5 -14 10 0 6 -9 10 -20 10 -11 0 -20 5 -20 10
0 6 -5 10 -11 10 -6 0 -18 9 -28 21 -9 11 -29 22 -44 22 -15 1 -27 5 -27 9 0
4 -16 12 -35 19 -19 7 -35 17 -35 21 0 4 -13 8 -29 8 -16 0 -31 6 -34 14 -3 8
-24 17 -47 21 -46 8 -93 29 -84 38 7 6 -50 23 -114 33 -24 4 -46 13 -49 21 -3
8 -12 12 -21 8 -15 -6 -108 20 -128 36 -6 5 -40 10 -77 11 -37 2 -67 6 -67 11
0 4 -9 7 -20 7 -10 0 -23 7 -28 16 -8 15 -41 18 -223 25 -118 5 -242 13 -275
19 -72 12 -184 12 -234 0z m-713 -686 c-3 -3 -12 -4 -19 -1 -8 3 -5 6 6 6 11
1 17 -2 13 -5z m-350 -4050 c-3 -3 -12 -4 -19 -1 -8 3 -5 6 6 6 11 1 17 -2 13
-5z"/>
<path d="M11938 16391 c-26 -9 -53 -22 -60 -28 -6 -7 -22 -13 -35 -13 -14 0
-23 -6 -23 -16 0 -8 -13 -29 -30 -46 -16 -16 -30 -40 -30 -53 0 -13 -4 -26 -9
-29 -17 -11 -21 -84 -6 -132 8 -27 15 -59 15 -71 0 -13 12 -32 30 -45 17 -12
30 -28 30 -35 0 -7 7 -13 15 -13 8 0 15 -7 15 -15 0 -8 9 -15 19 -15 11 0 23
-4 26 -10 3 -5 11 -10 16 -10 6 0 8 4 4 10 -3 5 15 3 40 -5 56 -16 171 -2 195
24 8 9 20 16 25 16 19 0 82 80 90 113 3 18 11 30 16 26 5 -3 9 30 8 78 -1 57
-4 75 -9 58 -8 -24 -8 -24 -9 7 -1 45 -15 75 -50 110 -16 17 -28 33 -24 36 10
11 -126 67 -170 70 -23 2 -63 -3 -89 -12z"/>
<path d="M19886 16232 c-3 -6 -38 -13 -78 -17 -69 -7 -98 -20 -98 -45 0 -7 -7
-10 -15 -6 -8 3 -15 2 -15 -3 0 -5 -11 -12 -25 -15 -14 -4 -25 -13 -25 -21 0
-14 -12 -20 -34 -16 -5 1 -6 -5 -3 -12 3 -9 -4 -20 -19 -27 -26 -14 -32 -29
-11 -31 6 0 -1 -7 -18 -14 -24 -11 -26 -14 -10 -15 15 -1 16 -3 5 -7 -27 -11
-37 -28 -50 -83 -7 -30 -21 -73 -31 -94 -21 -44 -26 -150 -8 -161 14 -9 30
-52 40 -106 4 -29 17 -56 33 -72 14 -14 26 -33 26 -42 0 -8 7 -15 15 -15 8 0
15 -9 15 -20 0 -13 7 -20 20 -20 10 0 24 -8 29 -18 5 -10 28 -27 51 -37 24
-11 36 -21 30 -25 -26 -16 98 -43 215 -47 98 -3 132 0 185 15 36 11 64 25 63
31 -2 6 8 11 22 11 14 0 25 6 25 13 0 8 12 20 28 28 47 23 102 85 102 114 0
15 7 28 18 32 29 11 39 27 37 59 -1 17 2 39 6 50 4 10 8 13 8 6 1 -7 6 -10 11
-7 13 8 13 275 1 275 -5 0 -12 -8 -14 -17 -3 -10 -5 1 -6 25 -1 28 -7 48 -20
59 -11 9 -27 35 -36 58 -10 23 -30 50 -46 61 -15 10 -32 29 -38 41 -6 13 -18
23 -27 23 -9 0 -29 14 -44 30 -24 25 -43 34 -112 47 -108 21 -194 27 -202 15z
m541 -454 c-2 -13 -4 -3 -4 22 0 25 2 35 4 23 2 -13 2 -33 0 -45z m-670 -434
c-3 -3 -12 -4 -19 -1 -8 3 -5 6 6 6 11 1 17 -2 13 -5z"/>
<path d="M13450 14814 c0 -5 -136 -10 -302 -12 -196 -2 -306 -7 -315 -14 -7
-5 -65 -14 -130 -19 -64 -5 -119 -13 -122 -17 -12 -18 -47 -30 -106 -37 -33
-4 -67 -9 -75 -11 -8 -1 -17 -3 -20 -3 -3 -1 1 -5 9 -10 9 -6 -4 -11 -40 -16
-29 -4 -60 -11 -69 -15 -28 -14 -85 -32 -120 -39 -19 -4 -34 -13 -33 -19 2 -7
-7 -12 -20 -12 -12 0 -31 -7 -41 -15 -11 -8 -29 -15 -41 -15 -11 0 -26 -9 -33
-20 -7 -11 -21 -20 -32 -20 -11 0 -20 -5 -20 -11 0 -6 -7 -9 -15 -5 -8 3 -15
2 -15 -3 0 -5 -16 -12 -35 -15 -19 -4 -35 -11 -35 -16 0 -6 -7 -10 -15 -10 -8
0 -15 -7 -15 -15 0 -9 -9 -15 -25 -15 -14 0 -25 -5 -25 -11 0 -5 -5 -7 -11 -3
-6 3 -14 3 -18 -2 -3 -5 -19 -15 -34 -22 -15 -7 -25 -17 -22 -22 3 -6 -1 -10
-9 -10 -9 0 -16 -7 -16 -15 0 -8 -9 -15 -19 -15 -30 0 -51 -11 -51 -27 0 -7
-6 -13 -12 -11 -7 1 -29 -6 -48 -16 -32 -17 -33 -20 -15 -27 15 -6 9 -8 -21
-8 -42 -1 -62 -19 -47 -44 3 -7 3 -9 -1 -5 -12 10 -65 -12 -71 -30 -2 -10 -15
-22 -27 -27 -13 -6 -22 -17 -20 -24 1 -7 -2 -10 -7 -7 -5 4 -13 1 -16 -4 -4
-6 -18 -15 -31 -20 -14 -6 -24 -18 -24 -30 0 -13 -7 -20 -20 -20 -11 0 -23 -7
-26 -15 -4 -8 -11 -15 -18 -15 -6 0 -24 -13 -39 -30 -16 -16 -33 -30 -38 -30
-5 0 -9 -9 -9 -20 0 -11 -6 -20 -14 -20 -17 0 -26 -52 -26 -160 0 -93 9 -162
19 -155 4 2 15 -12 26 -31 10 -19 24 -34 32 -34 7 0 13 -5 13 -10 0 -6 11 -15
25 -20 14 -5 25 -14 25 -19 0 -5 44 -10 98 -10 93 0 152 11 152 30 0 5 5 9 11
9 7 0 20 10 30 22 11 12 29 26 42 33 12 6 21 19 21 28 -1 9 2 17 7 17 5 0 19
9 32 20 37 33 51 44 95 73 23 15 42 32 42 37 0 6 5 10 11 10 7 0 21 11 33 24
11 13 30 26 41 28 11 2 25 14 32 28 7 14 13 19 13 11 0 -10 7 -8 23 7 13 12
31 22 41 22 9 0 15 4 12 8 -8 13 32 42 58 42 16 0 27 7 31 19 3 11 12 18 19
15 7 -3 33 8 57 24 24 16 70 40 102 53 32 13 63 31 68 41 7 13 22 18 55 18 34
0 50 6 67 24 21 23 50 33 118 41 18 3 47 11 64 20 18 8 49 14 70 13 22 -1 41
4 43 10 2 7 11 12 20 12 10 0 29 6 44 14 16 8 59 14 109 14 119 1 189 11 189
28 0 12 42 14 240 14 140 0 240 -4 240 -9 0 -19 69 -32 170 -32 57 -1 111 -5
119 -9 22 -11 125 -40 142 -40 8 0 27 -7 42 -15 15 -8 34 -12 42 -8 8 3 15 0
15 -6 0 -7 6 -11 13 -9 28 5 91 -15 116 -38 23 -21 48 -30 75 -25 5 1 13 -4
18 -11 8 -10 11 -10 15 0 7 17 24 15 17 -2 -4 -9 6 -18 30 -26 20 -6 39 -17
43 -24 5 -7 31 -20 58 -30 28 -11 58 -27 68 -37 10 -11 24 -19 32 -19 8 0 15
-4 15 -10 0 -5 11 -10 25 -10 25 0 68 -33 58 -44 -4 -3 -1 -6 6 -6 7 0 26 -9
42 -21 21 -14 29 -17 30 -7 1 7 4 2 8 -12 5 -17 15 -26 34 -28 14 -2 35 -14
46 -28 10 -13 21 -24 24 -24 4 0 17 -10 30 -22 13 -13 33 -30 46 -38 12 -8 38
-30 58 -47 19 -18 39 -33 44 -33 5 0 9 -7 9 -15 0 -8 5 -15 10 -15 6 0 40 -29
75 -65 35 -36 68 -65 75 -65 6 0 9 -4 5 -9 -10 -17 57 -27 150 -25 108 4 135
10 135 29 0 9 13 18 30 21 33 7 54 27 48 45 -2 6 9 24 24 40 26 26 28 33 28
111 0 114 -8 155 -31 161 -11 3 -19 14 -19 26 0 11 -7 26 -15 33 -9 7 -42 39
-75 71 -33 31 -63 57 -66 57 -4 0 -12 7 -18 15 -6 9 -21 17 -34 18 -24 1 -29
12 -9 20 7 3 6 6 -5 6 -9 1 -20 10 -23 21 -3 11 -15 20 -26 20 -10 0 -19 7
-19 15 0 9 -7 18 -16 22 -9 3 -28 17 -42 29 -14 13 -30 24 -37 24 -7 0 -31 18
-53 40 -22 22 -44 40 -49 40 -6 0 -23 12 -38 28 -15 15 -32 27 -39 28 -27 2
-66 25 -66 39 0 8 -6 15 -14 15 -8 0 -16 6 -19 13 -3 7 -30 19 -61 27 -31 7
-56 19 -56 25 0 14 -43 35 -70 35 -11 0 -20 5 -20 11 0 6 -7 9 -15 5 -9 -3
-15 0 -15 8 0 15 -21 26 -51 26 -11 0 -22 7 -25 15 -4 8 -18 15 -34 15 -15 0
-33 7 -40 15 -7 8 -18 15 -25 15 -7 0 -18 7 -25 15 -7 8 -27 15 -44 15 -17 0
-40 6 -51 13 -23 16 -130 47 -166 48 -13 0 -18 3 -11 6 28 11 9 23 -37 23 -28
0 -52 4 -56 10 -3 5 -12 7 -20 3 -9 -3 -22 0 -30 7 -8 7 -15 9 -15 4 0 -4 -6
0 -12 9 -10 13 -40 19 -137 27 -68 6 -129 14 -136 20 -6 5 -57 11 -113 12 -56
2 -102 7 -102 12 0 4 -7 3 -15 -4 -12 -10 -18 -10 -30 0 -8 7 -15 9 -15 4z
m-2020 -1318 c0 -3 -4 -8 -10 -11 -5 -3 -10 -1 -10 4 0 6 5 11 10 11 6 0 10
-2 10 -4z"/>
<path d="M8545 12950 c-11 -5 -54 -9 -95 -9 -41 -1 -102 -8 -135 -16 -33 -8
-73 -14 -88 -15 -19 0 -26 -4 -21 -12 5 -8 -4 -9 -32 -5 -50 8 -125 -7 -136
-26 -4 -8 -27 -18 -51 -21 -54 -9 -131 -28 -137 -35 -10 -12 -76 -40 -132 -57
-32 -9 -58 -21 -58 -25 0 -5 -7 -9 -15 -9 -8 0 -15 -4 -15 -10 0 -5 -7 -10
-15 -10 -24 0 -54 -31 -47 -49 5 -14 3 -14 -10 -3 -11 9 -18 10 -23 2 -3 -6
-34 -24 -67 -41 -45 -23 -58 -33 -47 -40 11 -7 9 -9 -9 -9 -12 0 -36 -14 -54
-30 -17 -17 -37 -29 -44 -26 -6 2 -21 -9 -33 -25 -12 -16 -28 -29 -36 -29 -9
0 -15 -10 -15 -25 0 -18 -5 -25 -20 -25 -11 0 -23 -7 -26 -15 -4 -8 -12 -15
-18 -15 -7 0 -18 -12 -24 -26 -7 -14 -16 -23 -20 -20 -5 3 -16 -11 -27 -30
-10 -19 -22 -34 -26 -34 -4 0 -15 -8 -25 -17 -10 -10 -22 -18 -28 -18 -6 0
-12 -10 -14 -23 -2 -13 -14 -28 -27 -34 -14 -6 -27 -23 -30 -39 -3 -15 -13
-30 -21 -33 -8 -3 -14 -12 -14 -19 0 -8 -14 -24 -30 -37 -26 -20 -30 -28 -25
-52 4 -17 2 -28 -4 -28 -13 0 -51 -36 -51 -49 0 -17 -71 -146 -79 -144 -5 1
-12 -17 -15 -40 -4 -23 -15 -60 -25 -82 -46 -102 -52 -116 -46 -125 3 -6 1
-10 -4 -10 -6 0 -11 -8 -11 -17 0 -21 -26 -98 -43 -127 -6 -12 -15 -61 -19
-111 -12 -169 -26 -280 -37 -308 -6 -16 -11 -41 -11 -57 0 -46 50 -194 71
-209 11 -7 19 -18 19 -24 0 -12 31 -36 47 -37 7 0 26 -13 43 -30 27 -26 38
-30 87 -30 54 0 134 28 149 51 3 5 14 9 25 9 21 0 68 46 69 67 0 6 5 13 10 15
6 2 12 15 14 29 1 13 6 31 11 39 6 8 10 20 10 25 1 6 6 9 12 8 7 -1 13 59 17
175 7 178 13 225 25 218 3 -2 7 24 9 57 2 34 8 64 13 65 5 2 9 11 9 20 0 8 6
23 13 31 7 9 20 36 27 61 8 25 24 58 37 73 13 16 23 42 23 58 0 16 4 29 9 29
5 0 13 10 17 23 4 12 17 31 29 43 12 11 27 34 32 50 6 16 16 28 23 26 7 -2 10
3 7 12 -3 8 1 17 9 20 8 3 14 15 14 26 0 11 8 24 18 27 18 7 42 28 42 37 0 10
45 53 63 59 9 3 17 16 17 27 0 13 10 24 25 30 14 5 25 14 25 19 0 5 8 12 18
16 11 3 24 17 31 31 6 15 15 24 18 20 3 -3 12 -1 20 5 7 6 13 9 13 5 0 -3 17
12 38 34 20 22 43 40 50 40 6 0 12 5 12 10 0 6 9 10 19 10 11 0 23 5 26 10 4
6 11 7 17 4 7 -5 9 -1 5 9 -5 14 0 17 23 17 19 0 33 7 40 20 6 11 15 18 20 15
4 -3 10 0 12 6 2 5 22 13 46 16 26 3 42 11 42 19 0 8 11 14 25 14 14 0 25 4
25 8 0 4 16 6 35 4 22 -3 35 0 35 7 0 15 43 31 97 37 23 3 72 14 108 24 88 25
478 30 523 6 16 -8 53 -18 83 -22 30 -4 70 -14 89 -24 19 -9 58 -23 85 -29 28
-7 60 -19 73 -27 12 -8 28 -14 35 -13 19 3 51 -13 65 -33 7 -10 19 -18 26 -18
17 0 76 -30 76 -39 0 -3 12 -12 28 -19 15 -7 41 -19 57 -29 17 -9 37 -20 45
-24 8 -4 14 -12 12 -18 -1 -6 8 -15 20 -20 13 -5 41 -25 63 -45 28 -25 42 -32
47 -23 5 8 8 4 8 -10 0 -13 9 -28 20 -35 11 -7 20 -18 20 -25 0 -6 10 -12 23
-12 12 0 32 -1 44 -1 12 0 24 -4 28 -9 3 -5 15 -7 28 -4 16 3 18 2 9 -5 -21
-14 37 -22 84 -11 59 14 110 33 111 42 2 14 42 57 52 57 6 0 19 20 30 45 11
25 25 45 30 45 7 0 11 34 11 91 0 77 -2 90 -15 85 -10 -3 -15 1 -15 14 0 10
-4 22 -10 25 -5 3 -10 15 -10 27 0 13 -5 18 -14 15 -10 -4 -13 -1 -9 9 3 8 -1
14 -10 14 -9 0 -35 23 -58 50 -23 28 -46 50 -52 50 -5 0 -22 12 -37 28 -63 61
-76 70 -110 77 -30 7 -32 9 -15 15 18 7 18 9 3 15 -9 3 -23 7 -30 9 -7 1 -24
12 -36 24 -12 12 -31 22 -41 22 -11 0 -26 8 -33 18 -16 21 -52 42 -73 42 -8 0
-15 6 -15 14 0 8 -10 16 -23 20 -13 3 -45 15 -73 28 -27 12 -56 21 -66 20 -9
-2 -19 2 -23 8 -3 5 -16 10 -28 10 -16 0 -18 3 -8 9 13 8 -15 17 -116 36 -18
4 -37 14 -42 23 -6 11 -27 17 -72 19 -35 3 -73 8 -84 13 -30 13 -76 20 -217
32 -71 6 -128 15 -128 20 0 11 -149 9 -175 -2z m-1468 -1962 c-3 -7 -5 -2 -5
12 0 14 2 19 5 13 2 -7 2 -19 0 -25z"/>
<path d="M15884 12815 c-10 -8 -25 -15 -33 -15 -19 0 -91 -74 -91 -94 0 -9 -5
-15 -11 -13 -6 1 -18 -23 -26 -53 -11 -45 -12 -70 -3 -140 19 -140 21 -150 29
-150 13 0 21 -36 31 -138 4 -51 14 -99 20 -108 15 -16 18 -58 21 -279 2 -135
6 -164 21 -187 10 -14 18 -33 18 -42 0 -9 5 -16 10 -16 6 0 10 -11 10 -25 0
-15 7 -28 18 -32 9 -4 24 -15 33 -25 9 -10 24 -18 33 -18 9 0 21 -9 28 -20 12
-18 24 -20 123 -20 99 0 111 2 123 20 7 11 18 20 25 20 19 0 79 58 72 70 -3 5
1 13 9 16 9 3 13 11 10 16 -4 6 -1 14 6 18 8 5 12 44 13 126 1 170 -14 486
-24 506 -5 9 -9 26 -9 37 0 10 -5 21 -11 23 -6 2 -16 46 -22 98 -6 58 -16 98
-24 103 -7 4 -13 21 -13 37 0 22 -5 30 -17 31 -16 0 -16 1 1 8 17 7 17 8 2 23
-9 9 -16 30 -16 46 0 17 -6 32 -15 36 -9 3 -15 18 -15 37 0 22 -5 32 -20 36
-11 3 -20 12 -20 20 0 8 -4 12 -9 9 -5 -3 -14 1 -21 9 -7 8 -21 15 -32 15 -11
0 -26 7 -34 15 -21 21 -162 21 -190 0z"/>
<path d="M1125 11869 c-16 -5 -35 -7 -40 -5 -19 7 -100 -38 -110 -61 -5 -13
-17 -23 -26 -23 -21 0 -29 -20 -29 -68 0 -28 -3 -33 -10 -22 -5 8 -10 12 -11
8 -1 -5 -2 -11 -3 -15 -1 -5 -4 -12 -8 -18 -3 -5 -9 -32 -13 -59 -6 -35 -13
-50 -26 -53 -13 -4 -19 -14 -19 -32 0 -40 -16 -87 -37 -108 -14 -14 -19 -36
-21 -83 -1 -36 -12 -101 -24 -145 -18 -70 -21 -117 -25 -375 -5 -297 -2 -343
33 -450 8 -25 17 -79 20 -120 4 -56 10 -80 25 -96 11 -12 22 -39 25 -60 10
-72 14 -84 32 -85 10 0 12 -3 5 -6 -8 -3 -9 -10 -3 -21 22 -43 51 -116 57
-143 3 -16 12 -29 19 -29 8 0 14 -9 14 -20 0 -11 4 -20 8 -20 4 0 14 -17 21
-37 8 -21 20 -43 27 -51 8 -7 14 -22 14 -33 0 -11 5 -17 10 -14 6 3 10 0 10
-8 0 -8 7 -20 15 -27 8 -7 15 -19 15 -27 0 -8 11 -24 25 -37 14 -13 25 -29 25
-35 0 -6 6 -14 14 -17 8 -3 16 -18 20 -35 3 -19 12 -29 23 -29 10 0 24 -13 31
-30 8 -17 24 -33 38 -36 13 -3 24 -14 24 -23 0 -26 29 -61 45 -55 10 4 15 0
15 -13 0 -19 8 -28 73 -77 20 -16 37 -33 37 -38 0 -15 24 -35 38 -30 6 2 16
-8 22 -23 6 -15 15 -23 21 -20 6 4 13 -3 16 -15 3 -13 11 -19 19 -16 8 3 14 1
14 -4 0 -6 7 -10 15 -10 8 0 15 -6 15 -13 0 -13 43 -41 65 -42 11 0 15 -3 61
-40 18 -14 37 -25 43 -25 6 0 11 -4 11 -10 0 -5 9 -10 19 -10 11 0 27 -10 35
-22 9 -12 16 -17 16 -10 0 6 5 12 10 12 6 0 10 -6 10 -14 0 -16 53 -46 80 -46
10 0 20 -7 24 -15 3 -8 9 -15 13 -14 4 1 22 1 38 0 22 -1 26 -4 16 -10 -12 -8
-8 -11 15 -16 16 -3 40 -11 54 -18 14 -7 44 -13 68 -12 23 1 42 -3 42 -7 0 -5
9 -18 20 -30 11 -12 20 -33 20 -47 0 -14 1 -188 3 -386 4 -341 5 -362 24 -396
20 -35 32 -85 33 -141 0 -16 9 -37 20 -48 14 -14 22 -37 24 -73 2 -28 9 -53
15 -55 6 -2 11 -10 11 -18 0 -9 4 -13 9 -10 5 4 12 -7 15 -24 3 -16 9 -43 12
-60 3 -17 12 -30 20 -30 8 0 14 -9 14 -20 0 -11 5 -20 10 -20 6 0 10 -11 10
-24 0 -13 5 -26 11 -28 5 -2 12 -15 13 -28 6 -43 18 -64 27 -48 7 10 9 10 9
-3 0 -25 30 -79 51 -92 10 -6 19 -19 19 -27 0 -8 11 -27 24 -41 13 -14 26 -34
28 -45 2 -10 9 -19 16 -19 6 0 20 -14 29 -31 32 -56 165 -204 184 -204 5 0 9
-6 9 -13 0 -23 54 -56 73 -45 11 5 17 5 17 0 0 -6 -7 -13 -16 -16 -16 -6 -9
-14 51 -58 6 -4 26 -20 45 -36 19 -15 51 -39 70 -52 19 -14 44 -32 54 -42 11
-10 26 -18 33 -18 7 0 28 -16 47 -35 20 -19 43 -35 53 -35 10 0 29 -9 43 -20
14 -11 33 -20 43 -20 9 0 17 -7 17 -16 0 -8 4 -13 9 -10 4 3 25 -3 46 -14 21
-11 42 -17 47 -14 5 3 17 -3 27 -15 10 -11 41 -25 69 -32 29 -6 52 -14 52 -19
0 -8 57 -21 105 -25 23 -2 75 -23 60 -25 -29 -2 27 -20 63 -20 24 0 68 -7 98
-16 29 -8 57 -15 60 -14 4 1 10 -4 15 -12 12 -19 641 -18 684 1 17 8 36 13 43
12 8 -1 19 3 27 9 7 6 51 14 98 17 76 5 89 9 118 35 25 23 34 27 40 16 6 -8
12 -9 17 -3 4 6 25 11 47 13 22 2 42 8 43 13 2 5 21 12 43 15 21 4 39 11 39
16 0 5 5 6 11 3 5 -4 18 2 28 13 9 12 30 24 47 28 16 4 38 18 49 31 17 20 31
25 74 26 48 2 55 -1 82 -30 16 -18 32 -33 35 -33 3 0 29 -22 56 -50 27 -27 54
-50 60 -50 5 0 8 -6 5 -12 -4 -14 49 -58 70 -58 7 0 13 -4 13 -10 0 -5 17 -19
39 -29 21 -11 52 -34 69 -51 17 -16 38 -30 47 -30 9 0 31 -11 49 -25 18 -14
37 -25 41 -25 17 0 140 -64 148 -76 4 -7 24 -16 45 -19 20 -4 44 -9 52 -12 8
-3 23 -7 32 -8 10 -1 26 -9 36 -18 10 -9 33 -17 50 -17 17 0 33 -4 36 -9 4 -5
39 -15 79 -21 39 -7 83 -18 97 -26 47 -25 151 -31 598 -33 368 -2 451 -5 469
-16 24 -16 45 -92 31 -111 -4 -6 -6 -13 -3 -15 2 -3 5 -113 6 -245 2 -131 6
-255 11 -274 12 -49 26 -135 33 -199 5 -53 15 -83 15 -46 0 32 9 10 29 -69 11
-43 26 -85 34 -94 8 -10 20 -37 27 -62 7 -25 16 -49 20 -55 5 -5 11 -27 15
-47 4 -23 13 -38 21 -38 8 0 17 -8 20 -17 12 -36 50 -109 76 -147 16 -21 28
-45 28 -53 0 -7 6 -13 13 -13 20 0 39 -68 26 -92 -5 -10 -15 -15 -21 -12 -7 4
-8 3 -4 -4 3 -6 -22 -40 -58 -76 -36 -36 -68 -76 -72 -88 -4 -13 -13 -27 -21
-33 -7 -6 -20 -30 -28 -55 -7 -25 -14 -39 -14 -32 -1 6 -6 12 -12 12 -6 0 -8
-8 -4 -19 4 -12 -1 -24 -12 -33 -10 -7 -27 -30 -38 -50 -11 -21 -22 -38 -26
-38 -9 0 -29 -48 -29 -70 0 -10 -5 -20 -11 -22 -6 -2 -12 -17 -11 -33 0 -16
-8 -35 -17 -42 -12 -10 -13 -14 -3 -21 9 -6 6 -12 -13 -22 -19 -10 -25 -21
-25 -46 0 -22 -8 -42 -25 -58 -22 -22 -31 -24 -76 -19 -33 4 -53 2 -58 -5 -4
-6 -52 -13 -116 -16 -155 -7 -288 -25 -300 -41 -6 -7 -41 -16 -78 -20 -37 -4
-67 -11 -67 -16 0 -5 -7 -9 -15 -9 -8 0 -23 -4 -33 -9 -9 -5 -37 -15 -62 -21
-24 -7 -49 -19 -56 -28 -6 -8 -24 -16 -39 -18 -43 -5 -85 -25 -85 -40 0 -8 -6
-14 -12 -15 -30 -2 -51 -9 -84 -28 -19 -12 -42 -21 -51 -21 -9 0 -13 -6 -10
-14 4 -9 -2 -17 -14 -21 -10 -4 -19 -12 -19 -18 0 -9 -2 -9 -8 0 -6 9 -20 2
-51 -27 -23 -22 -49 -40 -57 -40 -8 0 -14 -4 -14 -10 0 -5 -7 -10 -15 -10 -8
0 -15 -7 -15 -15 0 -8 -18 -26 -40 -40 -22 -14 -40 -30 -40 -36 0 -5 -5 -7
-10 -4 -6 3 -13 -1 -16 -9 -3 -9 -10 -16 -15 -16 -13 0 -48 -37 -41 -44 3 -3
0 -6 -6 -6 -15 0 -62 -52 -56 -62 3 -4 -2 -8 -10 -8 -9 0 -16 -6 -16 -12 0 -7
-12 -24 -25 -37 -14 -13 -25 -29 -25 -37 0 -8 -3 -14 -8 -14 -4 0 -13 -13 -20
-30 -8 -16 -19 -30 -26 -30 -7 0 -21 -18 -33 -41 -11 -22 -24 -40 -29 -39 -5
0 -11 -10 -12 -22 -2 -13 -16 -34 -31 -48 -14 -14 -32 -44 -39 -67 -7 -23 -19
-49 -27 -57 -8 -8 -15 -22 -15 -32 0 -23 -32 -94 -42 -94 -4 0 -5 -7 -2 -15 4
-8 -1 -17 -10 -21 -11 -4 -14 -13 -11 -24 3 -10 1 -21 -5 -25 -5 -3 -10 -15
-10 -26 0 -10 -3 -19 -7 -19 -5 0 -14 -12 -20 -27 -10 -21 -10 -28 0 -35 9 -6
9 -10 1 -16 -7 -4 -17 -34 -23 -67 -26 -132 -45 -175 -88 -203 -31 -21 -44
-22 -254 -22 -205 0 -224 2 -254 20 -29 18 -75 91 -75 120 0 10 -3 16 -32 75
-9 17 -16 46 -16 65 -1 21 -8 41 -20 50 -10 8 -24 30 -30 48 -6 18 -18 40 -27
48 -8 9 -13 19 -10 24 3 5 -6 17 -20 28 -13 11 -22 22 -19 25 3 3 -4 8 -15 12
-12 3 -18 12 -15 20 3 8 -4 20 -15 27 -12 7 -21 17 -21 21 0 5 -14 22 -30 39
-17 16 -28 34 -24 39 3 5 0 9 -5 9 -6 0 -43 31 -82 70 -40 38 -77 70 -85 70
-7 0 -22 14 -34 30 -12 17 -29 30 -39 30 -10 0 -26 9 -36 20 -11 13 -25 18
-37 14 -11 -3 -18 0 -18 8 0 12 -67 48 -90 48 -5 0 -29 11 -52 24 -24 13 -68
29 -99 35 -31 7 -65 18 -75 26 -11 8 -41 15 -67 15 -27 0 -46 4 -43 8 7 12
-98 17 -337 17 -157 0 -199 -3 -206 -14 -5 -7 -13 -11 -19 -7 -6 3 -23 -5 -39
-19 -47 -42 -52 -45 -63 -45 -5 0 -10 -10 -10 -22 0 -12 -12 -33 -27 -45 -14
-13 -22 -23 -17 -23 5 0 3 -4 -5 -9 -10 -7 -13 -28 -12 -83 4 -104 4 -107 13
-102 4 3 16 -12 27 -33 27 -49 46 -73 59 -73 6 0 20 -14 32 -31 13 -17 28 -28
36 -25 7 3 16 1 19 -4 3 -5 20 -7 37 -3 19 4 29 2 25 -3 -3 -6 58 -11 161 -11
167 -2 286 -17 309 -39 7 -7 22 -10 34 -7 15 4 20 3 15 -5 -4 -7 -1 -12 7 -12
7 0 32 -9 55 -20 24 -12 46 -19 50 -16 5 3 16 -8 26 -25 11 -19 25 -29 42 -29
13 0 32 -8 41 -19 10 -10 55 -57 101 -103 53 -56 82 -93 82 -108 0 -16 4 -20
15 -16 19 7 20 -33 3 -80 -8 -24 -20 -35 -47 -43 -25 -8 -255 -12 -725 -14
-541 -1 -690 -5 -694 -14 -2 -7 -10 -13 -17 -13 -7 0 -31 -18 -53 -40 -54 -52
-81 -153 -64 -233 21 -101 26 -112 59 -144 18 -18 33 -38 33 -44 0 -7 3 -10 6
-6 4 3 21 -5 39 -19 l32 -24 2401 0 c2468 0 2441 0 2464 -36 5 -7 30 -15 58
-19 27 -4 50 -11 50 -16 0 -5 9 -9 19 -9 11 0 21 -4 23 -9 2 -5 29 -22 60 -39
32 -17 52 -33 45 -35 -8 -4 -7 -6 3 -6 8 -1 21 -10 28 -21 7 -11 18 -20 25
-20 6 0 23 -12 36 -25 12 -14 27 -22 32 -19 5 3 14 -7 19 -21 5 -14 14 -23 20
-20 5 3 10 -1 10 -9 0 -9 6 -16 13 -16 18 0 47 -114 38 -148 -4 -15 -17 -31
-29 -37 -12 -5 -22 -13 -22 -17 0 -5 -157 -8 -349 -8 -281 0 -363 -3 -417 -16
-69 -16 -113 -40 -114 -62 0 -7 -5 -10 -10 -7 -6 3 -14 -5 -20 -19 -5 -14 -14
-26 -20 -26 -5 0 -10 -7 -10 -16 0 -8 5 -12 10 -9 19 12 10 -7 -12 -25 -19
-15 -22 -27 -21 -86 0 -43 7 -81 17 -99 9 -16 16 -35 16 -40 0 -11 63 -80 98
-108 12 -9 34 -17 48 -17 14 0 23 -4 19 -9 -3 -6 3 -15 13 -20 29 -16 3330
-14 3371 2 38 14 41 26 4 19 -16 -2 -26 -2 -23 1 5 5 59 17 88 19 6 1 12 5 12
9 0 12 49 59 61 59 6 0 7 5 4 10 -3 6 -1 10 4 10 6 0 11 6 11 14 0 8 6 16 13
19 9 3 13 58 15 223 2 204 15 345 33 369 4 6 11 39 14 75 4 36 13 78 21 94 8
16 14 35 14 42 0 7 5 14 12 16 6 2 11 19 10 38 0 20 6 42 16 52 31 32 39 43
34 56 -2 6 4 15 12 18 12 5 14 10 6 19 -7 9 -3 20 15 39 14 15 25 31 25 37 0
5 7 9 15 9 9 0 18 13 22 31 3 17 14 36 24 42 11 7 19 17 19 22 0 6 16 28 35
49 19 22 41 51 48 65 7 14 19 25 26 23 7 -1 9 2 6 8 -4 7 2 14 14 17 12 3 21
11 21 19 0 7 12 21 28 31 15 10 33 25 39 35 7 9 30 27 50 39 21 13 47 34 59
46 12 13 24 20 27 16 4 -3 7 -1 7 5 0 7 7 12 15 12 8 0 15 5 15 11 0 6 7 9 15
5 9 -3 15 0 15 9 0 8 9 15 20 15 11 0 23 6 26 14 3 8 19 18 35 21 17 4 26 11
23 17 -5 7 1 9 17 5 17 -5 31 0 49 18 18 18 41 26 85 31 33 4 67 12 75 19 26
20 73 33 144 39 37 3 75 11 84 18 23 19 389 18 401 -1 6 -9 38 -15 104 -19 76
-4 100 -9 116 -24 18 -16 42 -23 137 -42 5 -1 23 -11 38 -23 20 -16 36 -21 59
-17 24 4 28 3 17 -5 -12 -8 -9 -12 18 -22 17 -6 32 -15 32 -19 0 -4 9 -6 20
-3 14 4 20 0 20 -11 0 -9 7 -16 15 -16 8 0 15 -4 15 -10 0 -5 10 -10 22 -10
12 0 36 -16 54 -36 18 -20 38 -33 44 -29 5 3 10 0 10 -8 0 -8 9 -17 20 -20 11
-3 24 -17 30 -31 5 -14 16 -26 24 -26 8 0 24 -13 36 -30 12 -16 27 -30 33 -30
21 0 57 -68 57 -108 0 -29 -6 -44 -25 -61 -14 -12 -30 -19 -36 -16 -5 4 -26
-3 -45 -14 -19 -12 -43 -21 -53 -21 -10 0 -37 -18 -62 -40 -24 -22 -53 -43
-64 -46 -10 -4 -27 -17 -37 -29 -10 -13 -29 -26 -43 -29 -14 -4 -25 -13 -25
-21 0 -8 -32 -47 -70 -87 -39 -40 -69 -77 -67 -82 2 -5 -7 -21 -20 -34 -13
-14 -26 -37 -29 -51 -4 -14 -11 -30 -18 -36 -22 -20 -48 -85 -50 -126 -2 -23
-9 -47 -17 -53 -22 -17 -38 -66 -38 -116 0 -25 -5 -70 -12 -100 -7 -30 -12
-73 -11 -95 2 -85 7 -135 13 -135 4 0 10 -15 13 -34 7 -34 37 -71 49 -59 4 3
7 0 7 -9 0 -22 47 -58 75 -58 14 0 25 -5 25 -10 0 -6 10 -9 23 -7 12 2 17 2
10 0 -6 -2 -13 -10 -16 -16 -3 -9 16 -12 67 -11 78 0 108 10 85 26 -10 6 -7 7
9 3 13 -4 22 -2 22 4 0 6 9 11 20 11 24 0 100 73 100 96 0 9 11 29 25 46 22
26 25 39 25 112 0 96 22 176 69 253 17 28 31 56 31 63 0 12 129 140 142 140 4
0 19 11 34 25 15 14 35 25 45 25 10 0 26 11 37 25 14 17 22 21 25 13 4 -9 8
-10 14 -3 4 6 18 12 30 12 12 1 42 9 67 17 40 14 123 16 590 16 474 0 545 2
550 15 3 8 10 15 16 15 18 0 79 67 86 94 3 14 12 26 19 26 17 0 25 71 19 161
-7 91 -14 114 -24 79 l-8 -25 -1 28 c-1 39 -19 70 -37 63 -9 -3 -16 4 -20 20
-4 16 -12 23 -20 20 -8 -3 -14 -1 -14 5 0 6 -8 18 -17 27 -15 15 -54 17 -367
20 -192 1 -352 4 -354 7 -3 3 -10 0 -17 -5 -8 -7 -18 -3 -33 10 -12 11 -25 20
-29 20 -11 0 -43 37 -37 43 9 9 -49 107 -64 107 -9 0 -13 7 -9 20 3 11 1 20
-4 20 -5 0 -9 4 -9 10 0 5 -15 24 -33 42 -18 18 -40 50 -50 71 -9 20 -22 37
-29 37 -20 1 -57 35 -68 64 -5 14 -16 26 -24 26 -15 0 -30 27 -27 47 1 6 -12
14 -28 18 -17 4 -33 15 -36 26 -4 10 -11 19 -16 19 -5 0 -17 8 -27 17 -9 10
-30 26 -45 36 -15 9 -27 24 -27 33 0 8 -4 13 -8 10 -5 -3 -24 6 -44 19 -19 13
-50 28 -69 33 -19 6 -26 11 -16 11 40 2 -1 31 -73 52 -16 4 -19 7 -7 8 27 2
20 21 -9 21 -14 0 -45 11 -69 25 -23 14 -47 24 -52 23 -4 -2 -19 7 -32 19 -13
12 -43 25 -67 29 -31 4 -45 12 -50 26 -5 16 -13 19 -40 16 -19 -2 -34 0 -34 4
0 4 -14 8 -30 8 -17 0 -33 6 -36 14 -3 8 -30 16 -76 20 -39 3 -76 9 -82 13 -6
4 -24 6 -40 4 -17 -2 -26 1 -22 7 14 22 -140 36 -409 36 -273 0 -381 -8 -354
-25 10 -6 1 -9 -28 -9 -24 0 -43 -4 -43 -10 0 -5 -24 -10 -52 -10 -29 -1 -71
-8 -93 -16 -22 -9 -62 -20 -89 -24 -27 -5 -57 -18 -66 -28 -11 -11 -39 -22
-69 -26 -34 -4 -51 -11 -51 -21 0 -8 -17 -19 -37 -25 -21 -6 -65 -26 -98 -45
-33 -19 -77 -42 -97 -52 -21 -10 -38 -24 -38 -30 0 -7 -5 -13 -11 -13 -10 0
-76 -47 -107 -77 -7 -7 -18 -13 -23 -13 -6 0 -7 -4 -4 -10 3 -6 -5 -10 -18
-10 -16 0 -26 -7 -30 -20 -3 -12 -14 -20 -26 -20 -12 0 -21 -6 -21 -15 0 -8
-14 -22 -31 -30 -19 -11 -29 -22 -25 -31 4 -9 -1 -14 -15 -14 -11 0 -24 -11
-31 -25 -6 -14 -15 -25 -20 -25 -5 0 -7 -4 -3 -9 3 -6 -3 -15 -14 -20 -11 -6
-23 -20 -26 -31 -3 -11 -13 -20 -22 -20 -9 0 -13 -6 -10 -15 4 -8 -4 -22 -18
-34 -14 -10 -25 -23 -25 -28 0 -12 -40 -49 -48 -45 -3 2 -13 -16 -22 -39 -9
-23 -24 -47 -33 -54 -10 -7 -17 -17 -17 -22 0 -19 -62 -123 -70 -118 -5 3 -8
-3 -7 -13 2 -26 -23 -82 -37 -82 -6 0 -12 -10 -13 -23 0 -12 -7 -35 -14 -52
-7 -16 -13 -34 -14 -40 -1 -5 -9 -27 -18 -49 -9 -21 -17 -47 -17 -57 0 -11 -3
-19 -7 -19 -13 0 -33 -52 -33 -83 0 -15 -4 -36 -9 -46 -9 -16 -21 -106 -40
-288 -3 -34 -9 -64 -11 -66 -3 -3 -27 -17 -54 -31 l-49 -26 -696 0 -696 1 -29
30 c-17 16 -36 27 -43 25 -8 -4 -13 3 -13 19 0 13 -6 28 -14 32 -8 5 -15 30
-17 63 -3 34 -11 62 -21 74 -10 11 -18 26 -18 33 0 7 -5 13 -11 13 -5 0 -7 5
-4 11 9 14 -15 69 -30 69 -7 0 -15 13 -18 30 -4 16 -16 38 -27 47 -11 10 -20
25 -20 35 0 10 -4 18 -10 18 -5 0 -10 5 -10 10 0 13 -14 32 -53 70 -15 16 -27
33 -27 39 0 6 -4 11 -9 11 -5 0 -13 9 -16 20 -3 11 -12 20 -18 20 -15 0 -57
44 -57 59 0 6 -8 11 -18 11 -10 0 -28 14 -40 30 -13 17 -30 30 -38 30 -9 0
-29 14 -44 30 -15 17 -33 30 -39 30 -6 0 -11 5 -11 11 0 6 -7 9 -15 5 -8 -3
-15 -1 -15 5 0 5 -16 17 -36 25 -21 9 -43 22 -50 29 -8 7 -39 21 -69 30 -31 9
-64 23 -73 33 -10 9 -36 18 -57 20 -22 2 -45 8 -51 13 -42 35 -89 37 -917 38
-807 1 -812 2 -829 22 -27 31 -37 81 -27 132 8 46 28 87 40 87 4 0 5 9 2 20
-3 11 0 20 6 20 6 0 11 9 11 19 0 11 5 23 10 26 6 4 8 10 5 15 -3 5 6 17 20
28 14 11 25 29 25 39 0 11 9 30 20 43 11 13 20 31 20 41 0 10 11 26 23 36 13
10 30 30 37 43 7 14 21 35 32 47 11 12 17 26 14 31 -3 5 1 9 10 8 10 0 25 15
36 37 11 20 26 37 33 37 8 0 17 9 20 20 3 11 13 20 21 20 8 0 17 7 20 15 4 8
10 15 16 15 5 0 21 11 36 25 15 14 32 25 39 25 7 0 13 7 13 15 0 8 4 15 10 15
5 0 21 10 36 23 14 12 28 20 31 19 3 -2 9 0 12 5 17 23 82 62 114 68 20 4 37
12 37 18 0 17 34 36 66 37 17 0 41 9 54 20 13 11 36 20 52 20 15 0 28 5 28 10
0 6 11 10 24 10 36 0 86 12 82 19 -2 3 32 7 76 9 44 1 90 8 102 14 25 14 229
12 234 -2 2 -6 47 -10 100 -10 69 -1 103 -5 116 -15 11 -8 38 -15 60 -15 26 0
60 -11 93 -29 28 -16 68 -32 87 -35 19 -4 49 -18 66 -32 16 -14 34 -23 39 -20
5 3 20 -5 32 -19 13 -13 29 -25 36 -25 7 0 29 -11 49 -25 38 -26 45 -27 186
-27 90 1 158 17 158 38 0 7 16 26 35 43 30 26 36 39 44 93 5 35 7 68 4 74 -2
6 1 23 7 38 6 17 7 33 1 40 -5 6 -12 25 -15 42 -4 17 -29 54 -56 82 -45 47
-55 54 -77 51 -4 0 -11 9 -15 21 -5 13 -15 20 -26 18 -9 -1 -27 7 -39 19 -13
13 -29 20 -36 17 -8 -3 -17 2 -21 11 -4 11 -12 14 -26 10 -14 -5 -18 -3 -15 8
7 15 -33 37 -69 37 -13 0 -31 9 -41 20 -10 11 -25 20 -34 20 -24 0 -62 30 -55
42 5 7 2 9 -7 6 -14 -5 -15 3 -11 85 1 15 7 26 14 25 6 -2 15 8 19 22 4 14 8
21 8 15 2 -9 28 54 34 80 1 6 7 13 12 17 6 4 11 13 11 20 1 7 3 22 4 33 1 11
4 15 7 8 8 -21 18 -15 42 27 12 22 27 40 32 40 6 0 8 4 5 8 -2 4 7 17 20 27
14 11 34 27 44 37 24 21 60 33 60 19 0 -6 7 -11 15 -11 8 0 15 -7 15 -15 0 -8
9 -15 20 -15 10 0 23 -7 28 -16 5 -8 15 -16 23 -18 8 -1 36 -17 63 -34 28 -18
56 -32 63 -32 7 0 13 -4 13 -10 0 -5 6 -10 14 -10 7 0 39 -13 71 -29 33 -17
62 -28 67 -25 4 3 8 1 8 -5 0 -5 10 -13 23 -17 12 -3 28 -11 36 -17 7 -6 18
-12 25 -13 55 -8 126 -27 126 -34 0 -9 75 -23 138 -25 24 -1 47 -8 52 -15 6
-9 9 -9 11 -1 3 7 19 13 37 13 17 1 32 5 32 11 0 5 7 6 16 3 23 -9 64 4 64 20
0 8 9 14 21 14 15 0 19 5 15 15 -3 8 -1 15 5 15 15 0 39 26 39 44 0 8 5 18 11
21 6 4 8 13 6 19 -3 7 -1 19 4 27 7 12 9 12 9 -1 0 -10 3 -11 11 -3 16 16 17
145 2 150 -7 3 -13 12 -13 22 0 24 -31 81 -60 111 -33 34 -80 63 -80 50 0 -5
-4 -10 -10 -10 -5 0 -7 6 -4 13 3 9 -18 16 -77 25 -45 6 -87 18 -93 26 -13 16
-92 37 -112 29 -10 -3 -12 0 -8 10 4 11 -5 17 -37 22 -40 7 -77 22 -89 36 -3
3 -20 14 -37 23 -18 9 -33 23 -33 31 0 8 -9 15 -19 15 -27 0 -79 29 -119 67
-19 18 -43 35 -53 38 -11 4 -19 12 -19 20 0 7 -12 21 -27 31 -32 20 -63 53
-63 66 0 5 -11 13 -25 18 -14 5 -29 20 -34 33 -5 13 -27 43 -49 66 -22 24 -42
56 -46 72 -4 20 -10 27 -21 23 -10 -4 -15 0 -15 14 0 11 -7 22 -15 26 -8 3
-15 11 -15 19 0 18 -23 67 -32 67 -5 0 -8 7 -8 15 0 8 -7 15 -16 15 -9 0 -14
6 -12 12 3 7 -4 35 -15 63 -10 27 -23 68 -27 90 -4 22 -13 41 -18 43 -6 2 -8
10 -5 18 3 8 0 14 -7 14 -7 0 -10 7 -6 16 4 9 2 22 -3 28 -5 6 -11 45 -15 86
-7 90 -11 124 -26 210 -6 36 -8 117 -6 180 3 63 5 128 6 143 0 19 4 26 12 21
7 -4 8 -3 4 5 -4 6 0 23 8 36 l16 25 250 0 250 0 31 35 c18 19 39 35 46 35 8
0 13 6 11 12 -5 13 41 55 54 51 13 -5 18 34 20 145 2 107 1 113 -24 139 -14
16 -27 35 -30 43 -3 9 -24 24 -46 35 -22 11 -36 23 -30 27 38 23 -119 27
-1030 28 -532 0 -985 3 -1007 7 -22 3 -49 12 -60 19 -11 7 -42 15 -70 18 -75
8 -106 17 -112 32 -3 8 -9 12 -13 9 -11 -7 -82 19 -80 30 1 5 -19 15 -43 21
-58 15 -217 101 -240 131 -10 12 -27 23 -37 23 -10 0 -20 9 -23 20 -3 13 -10
18 -21 14 -9 -3 -16 -2 -16 3 0 13 -35 53 -47 53 -5 0 -16 13 -25 28 -15 26
-16 32 -2 73 15 42 53 89 73 89 5 0 13 9 16 20 3 11 11 20 16 20 5 0 9 8 9 18
0 9 9 23 20 30 11 7 20 19 20 27 0 8 9 19 21 25 11 7 19 17 16 23 -2 7 9 23
24 37 16 13 29 32 29 42 0 10 5 18 10 18 6 0 10 7 10 15 0 9 7 18 15 21 8 3
20 21 27 40 7 21 19 34 29 34 10 0 21 5 24 10 4 6 11 8 16 5 5 -4 9 -1 9 4 0
6 7 11 15 11 8 0 15 -5 15 -11 0 -6 9 -8 20 -4 11 4 20 2 20 -4 0 -6 7 -11 15
-11 8 0 15 -6 15 -14 0 -13 27 -31 43 -28 4 1 7 -2 7 -7 0 -6 27 -22 60 -37
33 -14 57 -30 55 -35 -3 -4 16 -11 42 -14 27 -3 59 -12 73 -19 60 -33 223 -37
1130 -34 l895 3 50 29 c42 25 47 30 30 37 -16 6 -17 8 -3 8 9 1 33 18 55 38
l38 37 0 95 c0 67 -4 96 -12 98 -7 3 -13 9 -13 14 0 6 5 7 10 4 23 -14 8 26
-15 41 -14 9 -25 25 -25 35 0 11 -7 19 -15 19 -8 0 -15 5 -15 10 0 6 -6 10
-12 10 -7 1 -28 14 -46 29 l-33 28 -217 2 c-119 1 -221 6 -226 12 -6 5 -20 9
-33 9 -16 0 -23 6 -23 19 0 11 -4 23 -10 26 -5 3 -10 1 -10 -4 0 -6 -4 -11 -8
-11 -5 0 -9 155 -10 345 -2 307 2 370 21 338 2 -5 2 -2 0 5 -6 24 28 61 63 68
18 3 125 6 236 7 156 1 211 -2 236 -14 17 -7 32 -16 32 -20 0 -3 13 -21 30
-40 16 -19 34 -39 40 -46 5 -7 10 -15 10 -19 0 -17 44 -64 61 -64 12 0 19 -7
19 -20 0 -11 7 -23 15 -26 8 -4 15 -12 15 -19 0 -7 10 -19 23 -28 12 -8 48
-40 81 -71 32 -31 65 -56 72 -56 8 0 14 -6 14 -13 0 -22 34 -47 63 -47 17 0
27 -5 27 -15 0 -8 6 -15 14 -15 8 0 16 -3 18 -7 2 -5 16 -19 31 -33 24 -21 30
-22 37 -10 7 10 10 11 10 3 0 -23 40 -54 120 -94 43 -22 80 -44 82 -49 2 -6
17 -11 33 -13 29 -4 74 -23 85 -36 3 -3 22 -17 42 -31 23 -15 38 -35 42 -53 3
-16 6 -396 7 -845 0 -771 1 -820 19 -862 10 -25 23 -44 29 -42 6 1 11 -7 11
-18 0 -25 28 -70 44 -70 15 0 99 -42 108 -54 10 -15 140 -13 145 2 3 6 11 12
19 12 8 0 14 5 14 12 0 6 3 8 6 5 9 -9 49 20 49 36 0 6 8 11 18 9 9 -2 17 1
16 5 -4 15 13 43 26 43 16 0 28 72 26 158 -2 76 16 141 43 163 11 9 38 17 59
17 24 1 48 8 61 20 25 23 98 42 128 34 16 -4 20 -2 15 10 -4 12 3 17 25 22 39
8 148 55 170 74 10 8 15 19 12 23 -3 5 -1 9 5 9 5 0 12 -6 14 -12 4 -10 6 -10
6 0 1 6 9 12 19 12 11 0 27 9 37 20 10 11 24 20 32 20 7 0 13 4 13 9 0 5 16
16 36 26 20 9 38 25 41 34 2 9 20 25 39 36 19 10 34 22 34 27 0 11 50 58 61
58 4 0 10 8 13 18 3 9 20 25 36 34 17 9 34 27 39 40 5 13 28 40 50 61 23 20
41 46 41 57 0 11 9 24 20 30 12 6 20 21 20 35 0 14 4 25 10 25 5 0 16 16 24
35 8 19 20 35 25 35 6 0 11 9 11 20 0 10 11 39 25 64 14 25 25 50 25 56 0 15
31 83 41 90 4 3 12 34 17 70 9 59 29 127 42 140 3 3 6 14 8 25 2 11 17 32 35
48 l31 27 1088 0 c719 0 1088 -3 1088 -10 0 -5 7 -10 15 -10 9 0 26 -11 39
-25 20 -22 24 -37 25 -106 1 -44 6 -88 10 -97 5 -9 15 -37 22 -62 8 -25 26
-56 40 -70 46 -43 79 -69 79 -62 0 3 5 1 12 -6 15 -15 224 -17 233 -2 3 5 13
6 22 3 12 -5 15 -2 10 9 -4 11 2 18 19 22 16 4 37 30 69 83 41 70 45 84 45
143 0 114 10 170 31 170 10 0 21 5 24 10 4 6 115 10 300 10 330 0 349 -3 379
-67 9 -19 21 -31 26 -28 6 3 10 -3 10 -14 0 -12 5 -21 10 -21 6 0 10 -9 10
-21 0 -16 26 -74 48 -109 2 -2 6 1 11 8 4 7 7 -3 8 -23 1 -20 7 -42 14 -51 10
-12 9 -30 -7 -94 -10 -44 -22 -80 -26 -80 -5 0 -8 -7 -8 -16 0 -9 -8 -18 -18
-21 -10 -2 -19 -14 -19 -25 -1 -12 -9 -26 -18 -30 -8 -5 -16 -23 -16 -41 -1
-18 -3 -24 -6 -14 -5 19 -30 17 -26 -2 2 -6 -2 -11 -8 -11 -5 0 -8 -4 -5 -9 8
-12 -17 -61 -31 -61 -6 0 -20 -13 -29 -29 -10 -17 -27 -32 -38 -35 -12 -3 -26
-15 -31 -28 -6 -13 -16 -22 -23 -21 -7 2 -12 -2 -12 -8 0 -16 -26 -39 -44 -39
-10 0 -13 -6 -9 -16 4 -10 -1 -17 -16 -21 -11 -3 -21 -9 -21 -13 0 -4 -10 -11
-22 -14 -22 -7 -22 -7 -3 -16 18 -8 17 -9 -6 -9 -15 -1 -29 -8 -33 -16 -3 -8
-12 -15 -20 -15 -18 0 -76 -32 -76 -42 0 -5 -6 -8 -14 -8 -8 0 -17 -7 -20 -15
-3 -9 -13 -15 -23 -13 -11 2 -22 -8 -31 -26 -11 -21 -16 -25 -23 -15 -6 11
-11 11 -20 2 -6 -6 -18 -9 -25 -6 -8 3 -14 -1 -14 -10 0 -18 -10 -22 -100 -37
-36 -7 -72 -17 -80 -24 -8 -8 -58 -21 -110 -30 -52 -9 -119 -21 -149 -26 -30
-6 -209 -10 -399 -10 -296 0 -349 -2 -378 -16 -23 -11 -34 -23 -34 -38 0 -16
-2 -18 -9 -7 -9 14 -31 7 -31 -11 0 -5 -11 -19 -25 -30 -14 -11 -25 -28 -23
-37 1 -9 -3 -26 -10 -38 -18 -33 -21 -159 -4 -155 9 2 12 -4 7 -17 -3 -11 -1
-22 5 -26 6 -4 9 -13 6 -21 -3 -8 -1 -14 4 -14 6 0 10 -5 10 -11 0 -11 33 -45
91 -94 18 -15 40 -20 87 -22 35 -1 65 -3 67 -5 2 -2 61 0 132 3 143 6 208 -6
233 -44 13 -19 15 -126 18 -703 2 -586 5 -684 17 -694 8 -7 15 -21 15 -31 0
-10 5 -21 10 -24 5 -3 10 -15 10 -27 0 -14 5 -18 16 -14 13 5 15 2 11 -14 -4
-14 0 -23 11 -27 30 -9 67 -28 80 -40 25 -24 89 -33 227 -33 78 0 145 -4 150
-9 6 -5 50 -19 100 -31 49 -12 92 -25 95 -30 3 -4 19 -10 35 -11 17 -2 36 -10
43 -16 7 -7 20 -13 28 -13 8 0 14 -4 14 -9 0 -5 12 -12 28 -16 15 -3 35 -14
46 -23 10 -9 20 -16 22 -14 2 1 13 2 24 2 13 0 18 -5 14 -15 -5 -11 1 -15 20
-15 19 0 24 -4 19 -15 -3 -9 -2 -15 3 -14 15 3 48 -13 65 -33 9 -10 21 -18 26
-18 5 0 19 -11 31 -25 13 -14 27 -23 33 -20 5 4 8 3 7 -2 -4 -12 52 -63 68
-63 8 0 14 -6 14 -14 0 -8 12 -24 26 -35 14 -11 39 -41 56 -66 20 -30 36 -44
45 -41 11 4 13 1 8 -14 -4 -13 2 -28 19 -45 14 -14 26 -30 26 -35 0 -6 4 -10
9 -10 8 0 40 -60 54 -102 4 -10 11 -18 17 -18 5 0 10 -6 10 -14 0 -8 5 -16 10
-18 6 -2 13 -26 16 -53 7 -71 -12 -90 -96 -98 -35 -4 -67 -12 -71 -19 -9 -14
-83 -38 -119 -38 -14 0 -38 -7 -54 -15 -15 -8 -36 -15 -45 -15 -9 0 -25 -7
-35 -15 -11 -8 -28 -15 -38 -15 -10 0 -18 -7 -18 -15 0 -8 -9 -15 -20 -15 -11
0 -20 -5 -20 -12 0 -6 -3 -9 -6 -6 -3 3 -17 -5 -31 -18 -17 -16 -24 -30 -20
-44 3 -11 2 -20 -1 -20 -4 0 -15 -14 -24 -31 -26 -44 -24 -157 2 -204 11 -20
20 -42 20 -51 0 -8 8 -18 18 -21 9 -4 23 -15 30 -25 7 -10 22 -18 34 -18 13 0
18 -5 15 -14 -4 -10 8 -15 46 -20 114 -13 237 -3 237 20 0 13 77 31 113 26 9
-1 17 3 17 9 0 5 4 8 8 5 5 -3 21 2 37 10 17 9 81 19 154 24 68 6 127 13 130
17 8 11 63 9 80 -1 10 -6 12 -5 7 2 -5 8 0 12 13 12 10 0 21 -5 23 -11 2 -7
51 -14 123 -18 66 -4 130 -13 142 -19 12 -7 33 -12 47 -12 14 0 27 -4 30 -9 3
-4 24 -11 47 -15 23 -4 51 -13 62 -21 12 -8 32 -15 44 -15 13 0 23 -4 23 -10
0 -5 9 -10 19 -10 11 0 26 -7 35 -15 8 -8 21 -15 30 -15 8 0 19 -6 23 -13 4
-7 29 -24 56 -36 26 -13 47 -27 47 -32 0 -6 16 -17 35 -25 20 -8 38 -21 42
-29 3 -8 9 -15 14 -15 5 0 26 -15 46 -32 19 -18 39 -32 44 -31 5 2 9 -3 9 -10
1 -15 61 -80 95 -103 14 -9 25 -22 25 -29 0 -6 16 -26 35 -44 19 -17 36 -36
36 -41 1 -6 3 -14 4 -20 1 -5 3 -14 4 -20 0 -5 7 -10 15 -10 16 0 29 -27 20
-41 -3 -5 2 -9 10 -9 9 0 16 -8 16 -19 0 -10 7 -24 15 -31 8 -7 15 -21 15 -31
0 -9 7 -24 15 -33 8 -8 15 -19 15 -25 0 -6 4 -11 9 -11 5 0 12 -17 16 -37 4
-21 13 -50 21 -65 19 -37 18 -48 -10 -83 l-24 -30 -524 -6 c-287 -4 -529 -8
-537 -9 -15 -3 -67 -58 -71 -75 -2 -5 -11 -16 -22 -24 -33 -23 -58 -96 -58
-171 0 -65 21 -140 39 -140 5 0 8 -8 7 -17 0 -11 6 -18 16 -17 10 1 14 -4 11
-12 -3 -8 0 -14 6 -14 7 0 25 -15 42 -32 l29 -33 1470 -3 c1316 -2 1473 -1
1500 13 17 9 29 19 26 23 -2 4 7 13 22 20 43 19 74 75 88 158 14 80 7 139 -22
196 -8 14 -14 33 -14 42 0 9 -4 16 -9 16 -15 0 -66 51 -63 62 2 6 -4 8 -12 5
-9 -4 -18 -2 -21 3 -4 6 -233 10 -598 11 -326 1 -603 4 -617 8 -14 4 -29 17
-35 29 -5 12 -13 22 -18 22 -4 0 -5 5 -2 11 4 6 1 16 -7 22 -16 13 -38 100
-38 149 0 23 -4 29 -15 24 -8 -3 -15 0 -16 7 -2 58 -15 107 -35 134 -15 20
-25 47 -26 72 -1 30 -7 45 -24 56 -13 8 -26 30 -30 49 -3 19 -15 42 -25 52
-10 9 -19 26 -19 36 0 11 -4 17 -9 14 -5 -3 -16 12 -25 33 -8 22 -22 43 -30
48 -7 4 -24 26 -37 48 -13 22 -31 46 -41 53 -10 7 -18 22 -18 33 0 11 -4 18
-9 14 -5 -3 -20 9 -33 27 -17 25 -23 46 -23 91 0 53 3 61 31 85 59 51 69 61
89 86 11 14 26 26 33 26 6 0 12 5 12 10 0 6 6 10 13 10 8 0 24 9 37 20 13 11
19 20 15 20 -4 0 4 11 19 25 15 14 38 25 50 25 13 0 26 6 29 14 3 7 31 26 61
42 31 15 58 36 61 45 4 11 22 19 57 23 40 6 49 10 38 17 -12 8 -10 10 8 6 15
-4 41 4 67 19 24 13 54 24 67 24 13 0 29 5 34 10 6 6 41 13 78 17 36 3 69 10
72 14 2 5 388 8 856 9 481 0 856 4 862 9 6 5 41 19 78 31 52 17 71 28 90 56
12 18 26 34 31 34 4 0 7 5 7 11 0 7 7 17 15 23 17 13 26 222 10 234 -6 4 -19
24 -30 45 -11 21 -27 37 -37 37 -11 0 -15 5 -12 15 4 10 0 15 -15 15 -12 0
-21 6 -21 15 0 8 -8 15 -17 15 -10 0 -31 9 -48 20 -29 19 -49 20 -867 20 -547
0 -839 -3 -843 -10 -3 -6 -19 -10 -35 -10 -16 0 -40 -4 -54 -10 -14 -5 -67
-12 -118 -16 -58 -5 -104 -14 -123 -24 -16 -10 -48 -21 -70 -25 -54 -9 -117
-30 -168 -57 -23 -12 -46 -21 -50 -20 -11 3 -117 -57 -117 -67 0 -3 -27 -14
-59 -24 -32 -10 -74 -31 -92 -47 -19 -16 -42 -30 -51 -30 -10 0 -18 -7 -18
-15 0 -8 -8 -15 -19 -15 -10 0 -21 -9 -24 -19 -3 -11 -17 -22 -36 -26 -17 -4
-31 -10 -31 -15 0 -12 -68 -80 -80 -80 -5 0 -37 -27 -72 -60 -34 -33 -66 -60
-70 -60 -4 0 -8 -4 -8 -10 0 -11 -14 -29 -72 -90 -46 -49 -70 -50 -141 -10
-30 16 -61 30 -70 30 -9 0 -17 4 -17 10 0 5 -18 13 -40 16 -22 4 -40 10 -40
15 0 5 -11 9 -24 9 -13 0 -26 6 -29 14 -6 14 -14 16 -79 17 -15 0 -30 4 -33 9
-4 6 -15 10 -25 10 -10 0 -23 7 -28 15 -6 11 -27 16 -70 18 -34 1 -62 5 -62 8
0 3 -6 6 -13 6 -22 0 -67 35 -67 52 0 10 -10 28 -22 41 -13 14 -24 36 -25 49
-3 33 -23 81 -34 81 -5 0 -9 11 -9 25 0 14 -9 44 -19 68 -10 23 -27 66 -37 95
-10 28 -21 52 -24 52 -3 0 -14 17 -25 37 -11 21 -23 41 -28 44 -4 3 -12 19
-16 35 -5 16 -13 28 -19 27 -5 -1 -16 12 -23 30 -7 18 -23 41 -34 52 -11 11
-27 32 -34 48 -8 15 -18 27 -22 27 -4 0 -10 11 -13 25 -4 16 -13 25 -26 25
-13 0 -20 7 -20 19 0 10 -7 21 -15 25 -8 3 -15 10 -15 16 0 12 -86 100 -98
100 -4 0 -28 20 -53 45 -24 24 -49 45 -55 45 -7 0 -27 14 -45 31 -18 17 -45
37 -59 44 -15 8 -34 25 -43 39 -11 17 -22 23 -37 19 -14 -4 -20 0 -20 11 0 11
-9 16 -32 16 -25 0 -29 3 -18 10 13 9 13 11 0 20 -8 5 -25 10 -37 10 -12 0
-23 3 -25 8 -7 15 -159 84 -174 78 -11 -4 -15 -2 -11 7 4 10 -12 17 -54 26
-32 6 -65 18 -72 26 -15 15 -68 29 -152 41 -27 4 -42 9 -32 11 31 8 7 23 -36
23 -67 0 -112 17 -126 46 -8 18 -11 169 -10 550 0 477 2 525 17 545 16 19 90
44 170 56 18 3 39 14 46 25 7 10 17 18 22 16 9 -2 70 16 116 35 19 8 23 14 15
20 -7 5 -4 6 9 3 13 -4 29 1 43 13 12 11 47 27 77 37 30 9 54 22 54 29 0 7 14
18 30 25 17 7 40 24 50 38 12 14 20 19 20 11 0 -9 7 -6 18 8 9 12 38 31 65 43
26 12 47 28 47 35 0 8 10 15 23 17 14 2 21 9 19 19 -1 11 8 18 29 23 16 3 28
10 24 15 -3 6 7 17 22 25 31 16 69 57 65 69 -1 5 3 7 10 5 7 -3 29 17 50 43
20 26 46 50 58 54 14 4 20 15 20 36 0 18 4 28 10 24 6 -3 13 2 17 12 4 10 20
28 35 41 15 13 28 32 28 42 0 25 38 88 60 100 35 19 89 12 116 -15 14 -14 28
-25 33 -25 4 0 18 -11 31 -25 13 -14 31 -25 40 -25 8 0 23 -9 33 -20 9 -11 25
-20 35 -20 10 0 24 -10 31 -23 7 -13 32 -30 62 -40 27 -10 49 -22 49 -28 0 -6
9 -8 19 -4 13 4 23 0 30 -12 5 -10 33 -27 63 -37 29 -11 61 -27 71 -38 10 -10
32 -18 50 -18 18 0 43 -7 55 -16 13 -9 40 -17 60 -18 59 -4 94 -17 88 -32 -6
-15 32 -25 96 -26 24 0 68 -6 98 -14 30 -8 69 -14 86 -14 18 0 34 -5 36 -11 2
-7 61 -13 166 -16 139 -4 163 -3 168 10 3 9 12 13 19 11 14 -6 114 87 134 124
12 23 14 191 2 244 -9 37 -40 80 -53 72 -4 -3 -8 1 -8 8 0 18 -78 68 -110 69
-14 1 -61 2 -105 3 -44 1 -100 9 -125 18 -52 18 -153 38 -196 38 -17 0 -34 4
-40 10 -5 5 -33 14 -62 20 -28 5 -69 21 -91 35 -21 15 -45 26 -53 24 -35 -4
-68 2 -68 14 0 7 -15 19 -34 25 -19 7 -37 19 -40 27 -3 8 -14 15 -25 15 -10 0
-21 7 -25 15 -3 8 -17 15 -30 15 -18 0 -24 4 -20 14 3 9 -3 17 -18 22 -26 8
-79 45 -122 86 -16 15 -35 24 -43 21 -10 -4 -13 0 -11 11 2 10 -9 24 -27 34
-16 9 -36 26 -44 37 -8 11 -29 34 -46 50 -17 17 -45 51 -63 77 -18 26 -42 52
-52 58 -11 6 -20 17 -20 24 0 8 -6 19 -14 25 -8 7 -26 36 -40 66 -14 30 -30
55 -36 55 -5 0 -12 11 -16 25 -3 14 -9 25 -13 25 -4 0 -13 23 -20 50 -7 28
-17 48 -21 45 -5 -3 -11 4 -15 15 -3 11 -12 20 -18 20 -7 0 -6 4 3 10 10 6 11
10 3 10 -7 0 -13 10 -13 23 0 12 -6 32 -14 43 -8 11 -16 34 -18 50 -2 16 -9
34 -16 39 -7 6 -15 42 -19 83 -3 39 -9 72 -12 72 -4 0 -8 42 -9 93 -2 58 -8
104 -19 126 -17 39 -13 163 6 169 7 2 11 47 11 128 0 102 -3 126 -15 130 -8 4
-15 12 -15 19 0 6 -9 20 -20 30 -11 10 -20 23 -20 29 0 6 -12 20 -26 31 -14
11 -33 27 -43 35 -27 23 -38 25 -148 26 -81 2 -103 -1 -103 -12 0 -7 -21 -24
-47 -36 -27 -13 -48 -30 -49 -38 -2 -28 -16 -50 -32 -48 -31 6 -44 -99 -46
-377 -2 -203 -6 -265 -17 -283 l-14 -22 -2340 3 c-1988 3 -2350 6 -2408 18
-37 8 -71 19 -75 24 -4 6 -26 11 -50 12 -23 0 -54 9 -68 18 -14 9 -44 17 -67
18 -31 2 -48 9 -67 29 -16 17 -39 28 -62 31 -21 3 -51 17 -69 31 -17 14 -35
23 -41 20 -6 -4 -21 6 -33 20 -13 16 -35 28 -52 29 -19 2 -27 8 -25 18 1 9
-12 21 -33 29 -19 7 -36 19 -39 27 -3 7 -10 13 -17 13 -6 0 -20 11 -31 25 -11
14 -24 25 -29 25 -14 0 -49 33 -49 48 0 7 -14 19 -32 26 -27 12 -29 15 -12 19
18 4 18 5 -1 6 -20 1 -77 56 -68 65 3 2 -4 11 -16 18 -12 7 -21 17 -21 23 0 5
-18 30 -40 55 -22 25 -40 49 -40 53 0 4 -13 22 -30 40 -16 18 -30 38 -30 45 0
6 -4 12 -9 12 -5 0 -12 16 -15 35 -4 21 -13 35 -21 35 -8 0 -14 3 -14 8 4 24
-3 42 -16 42 -8 0 -16 8 -16 18 -3 42 -5 47 -17 44 -9 -2 -12 4 -7 17 3 11 -1
25 -10 35 -9 9 -26 55 -38 103 -17 69 -23 82 -28 63 -5 -19 -7 -12 -8 24 -1
27 -5 65 -10 85 -21 79 -35 159 -38 211 -1 30 -4 82 -6 115 -2 33 -4 76 -5 95
-1 25 -13 48 -40 78 -53 60 -90 82 -137 82 -22 0 -49 7 -59 15 -11 8 -22 11
-25 6 -3 -5 -33 -12 -65 -16 -33 -3 -72 -15 -87 -26 -32 -23 -89 -86 -89 -99
0 -6 -7 -10 -15 -10 -24 0 -27 -38 -23 -242 3 -187 10 -225 40 -248 4 -3 12
-46 19 -95 7 -50 17 -93 22 -97 6 -3 10 -27 10 -53 0 -36 -5 -52 -25 -71 l-25
-25 -1109 -3 c-610 -2 -1131 -7 -1157 -11 -35 -6 -47 -12 -43 -21 3 -9 -2 -14
-13 -14 -26 0 -81 -65 -81 -95 0 -14 -4 -25 -9 -25 -5 0 -17 -7 -25 -16 -27
-27 -15 -176 16 -195 10 -6 13 -58 13 -231 0 -204 -2 -228 -22 -283 -12 -33
-24 -91 -27 -130 -3 -38 -10 -71 -16 -73 -5 -2 -10 -15 -10 -28 0 -13 -4 -32
-9 -42 -6 -9 -12 -29 -15 -44 -4 -15 -12 -33 -19 -40 -8 -7 -17 -25 -20 -39
-4 -14 -16 -36 -27 -49 -11 -13 -25 -40 -30 -61 -6 -21 -18 -44 -28 -51 -9 -7
-18 -21 -20 -30 -1 -10 -16 -32 -32 -50 -16 -17 -26 -36 -23 -41 4 -6 0 -8
-10 -4 -10 4 -17 1 -17 -5 0 -6 -6 -19 -14 -27 -7 -9 -25 -38 -40 -66 -14 -27
-26 -43 -26 -35 -1 11 -4 9 -12 -5 -20 -33 -158 -165 -173 -165 -8 0 -15 -4
-15 -10 0 -5 -6 -10 -14 -10 -7 0 -19 -13 -25 -29 -9 -20 -24 -32 -50 -40 -21
-6 -50 -23 -64 -37 -14 -14 -32 -27 -40 -28 -8 -1 -22 -9 -31 -19 -16 -16 -30
-21 -48 -18 -5 0 -7 -4 -5 -10 1 -5 -33 -22 -76 -35 -43 -14 -81 -32 -84 -40
-3 -8 -18 -14 -33 -14 -16 0 -31 -4 -34 -9 -3 -4 -24 -11 -46 -15 -22 -3 -40
-10 -40 -15 0 -5 -33 -11 -72 -14 -40 -3 -102 -13 -138 -22 -148 -38 -312 -41
-443 -9 -32 8 -69 14 -82 14 -13 0 -27 5 -30 10 -3 6 -31 10 -61 10 -30 0 -54
4 -54 9 0 5 -15 12 -32 16 -47 9 -90 26 -110 43 -9 8 -41 17 -70 21 -33 4 -52
11 -51 19 3 12 -9 16 -35 13 -7 -1 -29 12 -48 28 -19 17 -46 34 -59 37 -14 3
-25 12 -25 19 0 8 -16 19 -35 26 -19 7 -35 17 -35 21 0 4 -7 8 -15 8 -8 0 -15
5 -15 11 0 6 -7 9 -15 5 -8 -3 -15 0 -15 7 0 7 -10 19 -22 27 -12 8 -75 68
-141 133 -65 64 -123 117 -128 117 -4 0 -6 6 -3 13 3 8 -2 20 -11 27 -8 7 -15
17 -15 23 0 6 -13 22 -28 36 -16 14 -35 42 -42 61 -8 19 -24 46 -37 59 -13 13
-23 32 -23 42 0 10 -6 22 -13 26 -6 4 -21 34 -31 66 -11 31 -25 62 -33 68 -7
6 -13 25 -13 41 0 16 -7 40 -16 53 -16 24 -44 141 -44 183 0 15 -4 21 -12 16
-8 -5 -9 -2 -5 9 3 9 2 19 -4 23 -5 3 -7 14 -4 25 4 10 3 19 -2 19 -4 0 -7
123 -5 272 2 227 5 274 17 281 9 4 15 23 15 42 0 50 20 138 36 156 8 8 18 38
23 65 6 27 26 80 45 118 20 38 36 74 36 82 0 7 15 29 34 48 18 20 39 56 46 81
7 25 19 45 26 45 16 0 76 85 67 94 -4 4 4 5 17 4 17 -2 25 3 28 17 2 11 12 29
22 40 51 54 60 66 60 75 0 6 5 10 11 10 5 0 7 5 4 10 -3 6 -1 10 4 10 6 0 11
7 11 15 0 8 5 15 10 15 14 0 12 28 -2 32 -9 3 -8 9 5 22 19 19 20 31 11 99 -4
26 -11 44 -15 41 -5 -3 -9 4 -9 16 0 11 -7 23 -15 26 -8 4 -15 10 -15 15 0 6
-18 28 -40 49 -37 37 -47 41 -133 54 -91 14 -152 12 -163 -5 -3 -5 -12 -9 -21
-9 -9 0 -26 -11 -39 -25 -13 -14 -25 -25 -28 -25 -9 0 -56 -51 -56 -61 0 -13
-20 -33 -42 -42 -10 -3 -18 -13 -18 -21 0 -7 -7 -16 -15 -20 -8 -3 -15 -12
-15 -21 0 -8 -6 -15 -14 -15 -8 0 -16 -6 -20 -12 -3 -7 -17 -31 -31 -53 -14
-22 -28 -48 -31 -57 -4 -10 -10 -18 -14 -18 -4 0 -18 -22 -31 -50 -13 -27 -29
-50 -35 -50 -7 0 -15 -18 -19 -40 -4 -22 -12 -43 -18 -47 -7 -5 -20 -24 -30
-44 -31 -61 -123 -79 -171 -34 -15 14 -36 25 -46 25 -10 0 -21 4 -24 9 -3 4
-19 11 -34 14 -16 3 -43 17 -60 31 -16 15 -37 26 -46 26 -9 0 -16 4 -16 9 0 5
-11 11 -23 15 -34 8 -78 46 -71 58 4 6 2 8 -3 5 -16 -10 -70 21 -76 42 -2 11
-17 21 -36 24 -27 6 -31 10 -26 28 5 15 3 20 -6 17 -7 -2 -25 8 -40 23 -15 15
-29 25 -32 23 -2 -3 -7 7 -11 21 -4 14 -13 25 -20 25 -8 0 -23 11 -34 25 -11
14 -25 25 -31 25 -6 0 -11 9 -11 20 0 11 -7 20 -15 20 -8 0 -15 7 -15 15 0 9
-18 35 -40 57 -22 23 -40 46 -40 51 0 5 -6 15 -12 22 -31 35 -36 43 -30 50 4
4 -2 13 -12 21 -11 7 -21 28 -23 46 -2 22 -13 41 -33 56 -23 18 -30 32 -30 58
0 26 -4 34 -17 34 -15 0 -16 2 -3 10 8 5 10 10 4 10 -10 0 -16 17 -27 80 -2 8
-13 37 -26 63 -17 35 -24 68 -25 123 -2 42 -7 79 -12 82 -26 17 -35 100 -31
287 4 187 12 259 27 250 4 -3 11 26 15 63 7 68 62 254 77 260 4 2 8 9 8 16 0
19 42 120 53 127 5 4 11 33 13 65 5 68 -4 134 -15 115 -5 -8 -15 6 -29 38 -11
28 -26 51 -31 51 -6 0 -11 7 -11 15 0 8 -7 15 -15 15 -9 0 -18 7 -21 15 -7 17
-69 39 -89 31 -8 -3 -17 -1 -20 4 -8 12 -59 11 -100 -1z m6543 -3479 c2 -5 9
-7 16 -4 8 3 21 -10 33 -33 19 -36 20 -55 16 -343 -2 -168 -5 -313 -7 -322 -2
-9 1 -19 8 -22 7 -3 5 -10 -6 -19 -10 -8 -18 -22 -18 -32 0 -11 -5 -15 -15
-11 -9 3 -15 0 -15 -9 0 -13 -48 -15 -340 -15 l-341 0 -27 25 c-17 16 -39 25
-58 25 -17 0 -37 7 -44 15 -7 8 -19 15 -28 15 -16 0 -62 45 -62 61 0 5 -8 13
-17 16 -27 10 -43 30 -43 52 0 12 -4 21 -9 21 -13 0 -39 55 -47 99 -4 20 -12
39 -18 44 -8 5 -7 10 3 16 11 7 10 12 -8 22 -20 13 -21 21 -21 179 1 141 3
168 18 185 27 32 61 42 151 43 46 1 85 3 87 4 8 8 789 -4 792 -12z m2912 -931
c36 -4 146 -4 245 0 l180 8 40 -36 c43 -38 47 -57 24 -121 -28 -80 -44 -112
-61 -121 -10 -6 -18 -21 -18 -35 0 -16 -10 -34 -25 -46 -14 -11 -25 -25 -25
-33 0 -7 -7 -15 -15 -19 -8 -3 -15 -12 -15 -19 0 -7 -16 -27 -35 -43 -50 -41
-105 -96 -105 -104 0 -4 -16 -15 -35 -24 -19 -9 -35 -20 -35 -24 0 -4 -14 -13
-31 -21 -17 -7 -38 -21 -47 -31 -15 -15 -40 -30 -104 -61 -44 -22 -86 -6 -116
43 -18 31 -20 53 -21 303 -1 259 6 335 30 335 5 0 14 11 21 25 15 33 41 38
148 24z m2767 -1491 c-3 -7 -5 -2 -5 12 0 14 2 19 5 13 2 -7 2 -19 0 -25z
m130 -4684 c-3 -3 -12 -4 -19 -1 -8 3 -5 6 6 6 11 1 17 -2 13 -5z m-5884
-1231 c-7 -2 -19 -2 -25 0 -7 3 -2 5 12 5 14 0 19 -2 13 -5z m160 0 c-13 -2
-35 -2 -50 0 -16 2 -5 4 22 4 28 0 40 -2 28 -4z"/>
<path d="M12839 10736 c-3 -3 -47 -8 -97 -10 -137 -7 -233 -32 -189 -49 6 -3
-11 -6 -39 -6 -33 -1 -67 -10 -100 -26 -27 -14 -62 -24 -79 -23 -19 2 -29 -2
-27 -10 1 -7 -3 -12 -10 -12 -6 0 -19 -6 -27 -14 -9 -8 -29 -16 -44 -18 -15
-2 -34 -14 -43 -26 -8 -12 -23 -22 -33 -22 -9 0 -27 -9 -39 -20 -12 -11 -26
-20 -33 -20 -6 0 -22 -10 -34 -22 -30 -29 -53 -48 -60 -48 -2 0 -43 -39 -89
-87 -119 -124 -136 -143 -136 -152 0 -5 -18 -27 -40 -50 -22 -22 -40 -45 -40
-50 0 -5 -7 -14 -15 -21 -8 -7 -15 -20 -15 -30 0 -10 -7 -23 -16 -31 -8 -7
-13 -21 -11 -30 3 -10 -1 -20 -8 -23 -33 -12 -48 -70 -51 -193 -3 -105 -1
-121 11 -117 10 4 15 0 15 -15 0 -24 23 -52 58 -70 12 -7 20 -17 16 -23 -4 -7
-3 -8 4 -4 7 4 12 2 12 -3 0 -6 9 -11 19 -11 11 0 21 -5 23 -11 3 -8 37 -12
98 -12 105 0 161 17 181 55 14 28 45 58 58 58 5 0 12 13 16 30 9 41 44 110 55
110 6 0 16 12 23 28 6 15 20 33 29 40 10 7 18 20 18 28 0 8 3 14 8 14 4 0 18
18 32 40 14 22 27 40 31 40 3 0 23 16 45 35 21 19 45 35 52 35 7 0 20 9 29 20
10 11 24 20 33 20 8 0 25 11 37 23 12 13 40 29 62 37 22 7 38 17 35 21 -2 4 8
9 23 11 18 2 27 8 25 17 -2 9 4 12 18 8 11 -3 23 -1 26 4 3 5 10 7 15 3 5 -3
29 2 53 11 36 14 72 16 227 12 169 -4 244 -14 292 -39 10 -5 22 -6 27 -3 6 4
10 1 10 -4 0 -6 7 -11 16 -11 8 0 13 -4 9 -10 -3 -5 14 -14 37 -21 23 -6 52
-22 63 -35 11 -13 29 -24 40 -24 11 0 33 -14 49 -30 16 -17 35 -30 43 -30 7 0
13 -6 13 -14 0 -8 15 -25 32 -38 40 -28 68 -55 68 -66 0 -4 9 -16 21 -25 11
-10 25 -31 30 -47 7 -19 16 -27 25 -23 8 3 14 -1 14 -11 0 -8 9 -31 19 -50 11
-19 25 -53 31 -76 6 -22 18 -44 26 -47 7 -3 14 -9 14 -14 0 -4 18 -27 40 -50
22 -23 40 -39 40 -35 0 4 14 -4 31 -19 18 -14 38 -24 45 -21 8 3 14 1 14 -4 0
-6 33 -10 76 -10 41 0 73 4 70 8 -2 4 20 21 51 37 36 19 68 46 94 80 l39 52 0
107 c0 100 -2 109 -25 134 -14 15 -25 34 -25 42 0 9 -9 33 -20 55 -11 22 -20
45 -20 52 0 8 -7 16 -15 19 -8 4 -15 13 -15 21 0 16 -22 47 -75 104 -19 20
-31 40 -27 44 4 3 -1 11 -10 16 -10 5 -15 16 -11 25 4 10 -4 18 -26 27 -20 7
-31 18 -31 30 0 13 -5 17 -15 13 -8 -3 -15 -2 -15 2 0 15 -64 92 -76 92 -6 0
-19 9 -30 21 -10 11 -33 27 -51 34 -19 8 -36 21 -39 30 -3 8 -12 15 -20 15 -8
0 -14 5 -14 10 0 6 -9 10 -21 10 -11 0 -17 4 -14 10 3 5 0 7 -8 4 -8 -3 -23 5
-34 19 -24 31 -74 57 -109 57 -19 0 -25 4 -20 15 4 11 -2 15 -28 15 -18 0 -54
11 -79 25 -25 14 -62 26 -83 26 -49 1 -76 8 -69 19 3 4 -5 11 -18 15 -43 15
-437 42 -448 31z m-964 -486 c3 -5 1 -10 -4 -10 -6 0 -11 5 -11 10 0 6 2 10 4
10 3 0 8 -4 11 -10z"/>
<path d="M11542 9785 c0 -16 2 -22 5 -12 2 9 2 23 0 30 -3 6 -5 -1 -5 -18z"/>
<path d="M11541 9664 c0 -11 3 -14 6 -6 3 7 2 16 -1 19 -3 4 -6 -2 -5 -13z"/>
<path d="M647 8206 c-7 -8 -25 -16 -38 -18 -13 -2 -23 -9 -21 -16 1 -7 -10
-12 -28 -12 -19 0 -33 -7 -40 -20 -6 -11 -17 -20 -25 -20 -8 0 -15 -7 -15 -16
0 -8 -5 -12 -10 -9 -13 8 -49 -34 -50 -59 0 -11 -5 -16 -13 -13 -15 5 -47 -55
-47 -87 0 -10 -5 -14 -12 -10 -7 4 -8 3 -4 -5 4 -6 -2 -30 -13 -52 -17 -31
-21 -58 -21 -126 0 -88 25 -207 41 -197 5 3 9 -3 9 -13 0 -11 7 -28 15 -39 8
-10 15 -29 15 -41 0 -13 5 -23 10 -23 6 0 34 -24 63 -52 29 -29 64 -58 77 -64
74 -33 102 -44 116 -44 8 0 13 -4 9 -9 -17 -28 234 -25 277 3 14 9 27 13 31
10 3 -4 13 1 22 10 9 9 27 16 41 16 14 0 27 7 30 15 4 8 12 15 19 15 7 0 20
11 29 24 8 14 25 27 36 31 11 3 20 12 20 19 0 7 9 21 20 31 24 21 57 89 66
133 4 17 10 32 15 32 5 0 9 6 9 14 0 8 5 16 12 18 8 3 12 35 12 101 1 87 -1
98 -21 117 -14 12 -23 33 -23 49 0 15 -9 38 -20 51 -11 13 -20 29 -20 37 0 7
-6 13 -12 13 -10 0 -10 2 0 9 11 6 6 14 -17 30 -17 12 -31 31 -31 40 0 11 -12
24 -30 31 -17 7 -36 21 -43 31 -7 10 -25 20 -39 23 -25 4 -68 25 -78 37 -9 11
-258 20 -265 9 -3 -5 -11 -10 -16 -10 -6 0 -7 5 -4 10 9 15 -22 12 -38 -4z
m-287 -610 c0 -3 -4 -8 -10 -11 -5 -3 -10 -1 -10 4 0 6 5 11 10 11 6 0 10 -2
10 -4z m687 -278 c-3 -8 -6 -5 -6 6 -1 11 2 17 5 13 3 -3 4 -12 1 -19z"/>
<path d="M1440 6330 c0 -10 -3 -11 -8 -4 -11 18 -154 3 -181 -19 -19 -16 -81
-37 -111 -37 -14 0 -41 -13 -60 -30 -19 -16 -41 -29 -49 -30 -8 0 -11 -6 -7
-16 5 -13 1 -15 -19 -10 -20 5 -32 0 -54 -21 -15 -15 -34 -28 -42 -28 -8 0
-15 -10 -17 -21 -2 -12 -18 -29 -38 -40 -19 -10 -37 -27 -40 -36 -3 -10 -10
-16 -15 -12 -6 3 -13 -3 -16 -15 -3 -12 -12 -21 -19 -21 -8 0 -18 -8 -21 -17
-4 -10 -17 -29 -30 -43 -13 -14 -23 -30 -23 -37 0 -7 -4 -13 -10 -13 -5 0 -10
-8 -10 -18 0 -11 -9 -27 -20 -37 -11 -10 -20 -28 -20 -41 0 -12 -5 -24 -11
-26 -6 -2 -13 -18 -15 -36 -2 -18 -10 -46 -19 -62 -8 -16 -15 -36 -15 -45 0
-8 -4 -15 -8 -15 -10 0 -32 -137 -32 -205 0 -27 0 -61 0 -75 -1 -148 3 -174
47 -320 14 -47 27 -91 29 -98 2 -7 8 -10 14 -7 10 6 14 -7 10 -34 -1 -7 9 -24
21 -37 12 -13 19 -24 16 -24 -4 0 2 -9 13 -20 11 -11 20 -27 20 -35 0 -8 4
-15 9 -15 5 0 16 -16 25 -35 9 -19 21 -35 27 -35 5 0 14 -11 19 -25 6 -16 14
-23 25 -19 10 4 15 0 15 -15 0 -13 9 -25 23 -30 26 -11 67 -48 67 -61 0 -6 6
-10 13 -10 7 0 22 -8 33 -18 10 -9 31 -23 47 -29 15 -7 27 -17 27 -22 0 -6 6
-8 13 -5 7 2 22 -4 32 -16 11 -12 31 -20 52 -20 18 0 33 -4 33 -8 0 -5 32 -19
70 -31 39 -13 73 -27 76 -33 3 -5 14 -6 25 -3 10 4 19 2 19 -4 0 -15 448 -10
458 5 8 11 99 49 120 49 7 0 17 7 23 15 8 12 12 12 16 2 4 -10 9 -9 24 4 10 9
19 14 19 10 0 -5 16 6 35 23 20 17 44 31 53 31 10 0 37 18 61 40 23 22 46 38
50 36 4 -3 17 11 30 30 13 19 30 34 37 34 8 0 14 6 14 14 0 7 13 23 30 36 16
12 27 26 25 30 -3 4 2 10 10 14 8 3 15 12 15 21 0 8 7 15 15 15 8 0 15 7 15
15 0 8 3 15 8 15 8 0 16 13 46 76 37 77 40 86 39 112 0 15 1 19 4 10 9 -35 20
-17 33 55 7 39 17 78 24 86 11 15 29 161 28 246 0 79 -16 201 -29 216 -6 8
-14 39 -18 69 -8 62 -21 93 -36 85 -5 -4 -9 5 -9 19 0 14 -4 27 -9 30 -4 3
-11 19 -14 35 -3 16 -12 35 -19 42 -7 8 -18 27 -23 44 -6 16 -20 35 -33 41
-12 6 -19 14 -15 18 4 4 -3 9 -15 13 -23 6 -30 23 -9 23 6 0 0 10 -15 21 -16
11 -28 26 -28 33 0 14 -45 56 -60 56 -6 0 -15 11 -21 24 -7 14 -17 22 -24 20
-7 -3 -16 0 -20 5 -3 6 -11 9 -16 6 -5 -4 -9 0 -9 8 0 18 -32 47 -53 47 -9 0
-17 7 -17 15 0 8 -6 12 -14 9 -7 -3 -20 2 -29 10 -9 9 -19 16 -24 16 -4 0 -13
8 -20 19 -9 14 -29 20 -80 26 -37 4 -75 13 -83 20 -29 26 -107 38 -252 39
-127 2 -148 0 -148 -14z m525 -70 c3 -5 1 -10 -4 -10 -6 0 -11 5 -11 10 0 6 2
10 4 10 3 0 8 -4 11 -10z m-1248 -372 c-3 -7 -5 -2 -5 12 0 14 2 19 5 13 2 -7
2 -19 0 -25z m866 -75 c-13 -2 -33 -2 -45 0 -13 2 -3 4 22 4 25 0 35 -2 23 -4z
m119 -40 c18 -10 36 -22 39 -27 4 -5 12 -5 18 -2 6 4 11 2 11 -3 0 -6 7 -11
15 -11 8 0 28 -13 45 -30 18 -17 36 -27 45 -24 11 5 13 2 9 -10 -6 -14 5 -21
28 -17 4 0 5 -6 2 -13 -3 -8 4 -24 15 -35 12 -12 21 -25 21 -30 0 -5 6 -14 14
-20 8 -7 17 -30 21 -52 4 -21 11 -37 15 -34 14 9 30 -64 30 -136 0 -85 -9
-129 -26 -129 -7 0 -11 -6 -8 -13 3 -8 -1 -27 -7 -43 -7 -16 -11 -35 -10 -42
1 -7 -5 -15 -14 -18 -8 -3 -15 -12 -15 -20 0 -8 -5 -14 -11 -14 -14 0 -59 -47
-59 -61 0 -5 -6 -9 -12 -9 -7 0 -23 -16 -36 -36 -22 -34 -47 -49 -96 -58 -13
-2 -37 -11 -53 -20 -43 -22 -184 -23 -254 -3 -30 9 -75 30 -100 47 -24 16 -49
30 -56 30 -6 0 -20 11 -31 25 -11 14 -23 25 -27 25 -12 0 -34 33 -35 50 0 9
-18 35 -40 59 -38 41 -47 66 -42 124 1 10 -5 17 -16 18 -9 0 -12 3 -6 5 7 3 9
30 6 78 -5 84 11 164 40 201 11 14 15 25 9 25 -6 0 -11 5 -11 10 0 6 7 10 15
10 8 0 15 5 15 10 0 6 26 36 58 68 57 56 185 132 224 132 12 0 16 4 12 12 -12
20 218 4 258 -19z m-537 -723 c3 -5 1 -10 -4 -10 -6 0 -11 5 -11 10 0 6 2 10
4 10 3 0 8 -4 11 -10z"/>
<path d="M16968 6133 c7 -3 16 -2 19 1 4 3 -2 6 -13 5 -11 0 -14 -3 -6 -6z"/>
<path d="M19846 5852 c-3 -6 -20 -10 -36 -10 -17 1 -52 -10 -78 -23 -51 -26
-147 -97 -147 -109 0 -4 -15 -25 -33 -46 -18 -22 -32 -42 -30 -45 2 -3 -5 -13
-14 -23 -10 -9 -20 -33 -24 -54 -3 -20 -15 -52 -25 -70 -26 -45 -31 -186 -8
-205 14 -11 22 -32 45 -116 5 -18 8 -20 15 -10 6 10 9 11 9 1 0 -36 133 -192
164 -192 9 0 15 -6 13 -12 -1 -8 10 -14 26 -16 15 -2 27 -8 27 -14 0 -6 3 -8
7 -5 3 4 17 0 29 -8 18 -11 56 -15 155 -16 l132 0 103 52 c57 29 101 56 98 60
-6 10 52 70 60 62 3 -4 6 1 6 10 0 9 8 25 18 35 9 10 18 28 20 41 1 12 9 29
17 37 8 9 15 24 15 35 0 11 4 18 9 15 16 -10 21 24 21 155 0 84 -4 128 -10
124 -6 -3 -10 4 -10 17 0 13 -14 43 -31 66 -17 23 -28 46 -24 52 3 5 -1 10 -9
10 -9 0 -16 7 -16 15 0 8 -6 15 -14 15 -8 0 -17 11 -20 24 -7 27 -91 92 -133
102 -15 3 -33 13 -40 21 -14 18 -39 22 -174 30 -70 3 -109 2 -113 -5z"/>
<path d="M12263 5753 c-24 -2 -43 -8 -43 -14 0 -5 -5 -9 -11 -9 -18 0 -98 -82
-124 -127 l-25 -41 -2 -854 c-3 -789 -2 -856 14 -871 9 -9 22 -17 28 -17 6 0
10 -6 8 -12 -4 -24 13 -57 33 -63 10 -4 19 -12 19 -18 0 -28 110 -57 203 -53
78 4 127 25 181 78 15 15 32 28 36 28 10 0 22 45 25 90 21 315 9 1683 -15
1732 -7 15 -16 25 -20 23 -4 -3 -13 10 -20 28 -16 40 -47 66 -80 68 l-25 1 25
7 c21 6 15 9 -34 19 -58 12 -87 12 -173 5z"/>
<path d="M4973 4778 c-29 -5 -53 -13 -53 -17 0 -5 -22 -11 -49 -15 -27 -4 -51
-10 -53 -14 -2 -4 -21 -16 -43 -27 -26 -13 -41 -29 -43 -43 -2 -12 -7 -20 -12
-17 -12 8 -66 -47 -75 -76 -4 -13 -16 -36 -27 -51 -11 -16 -16 -28 -11 -28 4
0 1 -5 -7 -10 -21 -13 -23 -340 -2 -348 7 -2 11 -10 8 -17 -2 -7 3 -23 12 -36
17 -25 18 -27 20 -67 1 -13 7 -20 12 -17 11 7 40 -17 40 -32 0 -13 33 -39 74
-58 20 -10 34 -20 31 -24 -6 -11 63 -33 77 -25 8 5 9 2 5 -9 -5 -14 0 -17 31
-17 22 0 32 -4 25 -8 -8 -5 2 -8 23 -9 20 -1 57 -4 83 -7 32 -3 39 -2 21 4
-23 7 -22 8 12 9 20 1 44 4 54 8 12 4 15 3 10 -5 -5 -8 0 -12 13 -12 12 0 21
5 21 11 0 7 10 9 25 7 14 -3 30 0 35 7 6 7 26 16 45 19 19 4 39 16 45 26 6 11
17 20 25 20 8 0 15 5 15 10 0 6 7 10 15 10 9 0 15 9 15 25 0 14 5 25 11 25 5
0 8 -4 4 -9 -3 -5 -1 -12 5 -16 9 -6 14 7 11 28 0 4 6 7 15 7 8 0 12 5 9 10
-3 6 -2 10 4 10 5 0 12 14 16 30 4 17 13 30 21 30 8 0 14 7 14 15 0 8 10 31
22 52 18 33 21 54 22 165 1 89 -3 131 -11 139 -7 7 -13 21 -13 31 0 27 -22 68
-37 68 -7 0 -13 6 -13 13 0 26 -24 64 -56 88 -18 13 -35 32 -37 42 -3 9 -15
17 -26 17 -12 0 -24 7 -27 15 -4 8 -15 15 -25 15 -10 0 -19 5 -19 10 0 6 -13
10 -29 10 -16 0 -34 6 -40 14 -22 27 -151 39 -238 24z"/>
<path d="M10980 4463 c-78 -25 -140 -59 -140 -77 0 -8 -7 -20 -17 -27 -9 -8
-25 -33 -35 -57 -18 -41 -19 -71 -18 -555 2 -481 4 -514 21 -552 35 -72 48
-90 79 -107 18 -9 38 -25 45 -35 11 -15 25 -18 77 -16 43 1 57 -1 43 -7 -15
-6 -6 -9 34 -9 52 -1 131 24 131 41 0 4 14 14 30 23 17 9 30 20 30 26 0 6 8
18 19 27 41 37 45 84 48 586 4 531 1 558 -59 642 -17 24 -34 44 -38 44 -4 0
-17 9 -30 20 -12 11 -39 22 -59 25 -20 4 -44 10 -53 16 -23 12 -53 10 -108 -8z"/>
<path d="M1453 2734 c-3 -8 -14 -14 -25 -14 -24 0 -114 -93 -134 -137 -16 -37
-19 -179 -4 -188 6 -4 8 -10 5 -15 -6 -10 8 -42 29 -68 11 -13 19 -21 73 -73
16 -15 44 -30 63 -34 57 -13 755 -8 811 5 27 7 46 16 43 21 -3 5 0 9 7 9 19 0
79 50 79 66 0 7 7 14 15 14 9 0 15 9 15 23 0 12 7 31 15 41 22 28 21 163 -1
187 -9 10 -17 29 -18 43 0 14 -7 26 -13 26 -7 0 -12 4 -10 8 4 17 -65 72 -92
72 -18 0 -22 3 -13 9 26 16 -107 22 -474 20 -302 -1 -366 -3 -371 -15z"/>
</g>
</svg>
