<?xml version="1.0" standalone="no"?>
<!DOCTYPE svg PUBLIC "-//W3C//DTD SVG 20010904//EN"
 "http://www.w3.org/TR/2001/REC-SVG-20010904/DTD/svg10.dtd">
<svg version="1.0" xmlns="http://www.w3.org/2000/svg"
 width="2048.000000pt" height="2048.000000pt" viewBox="0 0 2048.000000 2048.000000"
 preserveAspectRatio="xMidYMid meet">

<g transform="translate(0.000000,2048.000000) scale(0.100000,-0.100000)"
fill="#000000" stroke="none">
<path d="M10327 19984 c-37 -26 -67 -50 -67 -55 0 -5 -7 -9 -15 -9 -8 0 -15
-5 -15 -10 0 -6 -12 -15 -26 -20 -14 -6 -22 -14 -19 -20 3 -6 -6 -15 -20 -20
-33 -12 -55 -34 -55 -53 0 -13 -39 -37 -62 -37 -6 0 -25 -16 -44 -35 -18 -19
-37 -35 -43 -35 -6 0 -11 -7 -11 -15 0 -8 -9 -19 -20 -25 -11 -6 -18 -15 -15
-20 4 -6 -4 -9 -17 -7 -14 1 -22 -3 -20 -10 1 -7 -4 -13 -11 -13 -18 0 -107
-82 -107 -98 0 -7 -4 -11 -9 -8 -5 3 -11 -1 -15 -9 -3 -8 -12 -15 -20 -15 -8
0 -39 -22 -68 -50 -29 -27 -59 -50 -66 -50 -7 0 -24 -12 -37 -27 l-23 -28
-189 2 c-149 2 -193 0 -213 -12 -14 -8 -41 -22 -59 -32 -42 -22 -89 -63 -72
-63 8 0 7 -5 -3 -16 -9 -8 -20 -12 -26 -9 -5 3 -11 -2 -11 -12 -2 -24 -6 -68
-14 -125 -3 -31 -2 -48 5 -48 5 0 9 -12 9 -27 -3 -54 1 -73 16 -73 9 0 15 -9
15 -21 0 -12 8 -23 20 -26 11 -3 20 -10 20 -15 0 -22 36 -41 103 -54 85 -16
488 -20 517 -4 10 5 38 11 62 13 51 4 90 23 138 69 19 19 50 45 69 58 18 13
48 38 66 56 18 18 36 30 39 27 3 -4 6 5 7 18 0 13 3 19 5 12 3 -7 19 -2 45 15
29 19 38 30 33 44 -4 13 -1 16 10 12 9 -3 16 -1 16 5 0 6 7 11 15 11 8 0 24
14 37 30 12 17 27 30 33 30 7 0 20 9 30 20 10 11 24 20 32 20 7 0 13 7 13 15
0 8 7 15 15 15 18 0 20 20 3 21 -7 0 6 9 30 19 23 11 42 23 42 27 0 4 18 16
40 27 58 28 101 17 155 -38 24 -26 50 -46 58 -46 8 0 17 -9 20 -20 3 -11 13
-20 22 -20 18 0 45 -23 45 -39 0 -6 11 -13 25 -17 14 -3 25 -12 25 -20 0 -8 5
-14 11 -14 13 0 49 -38 49 -52 0 -4 6 -8 13 -8 8 0 24 -11 37 -25 13 -14 29
-25 36 -25 6 0 15 -7 18 -16 4 -9 9 -14 12 -11 3 2 22 -11 42 -30 20 -19 48
-40 62 -48 14 -8 36 -30 50 -49 14 -20 30 -36 37 -36 6 0 18 -8 25 -18 7 -10
27 -19 45 -20 18 -1 45 -7 60 -13 36 -14 508 -12 534 2 10 5 35 10 54 11 25 1
36 7 41 20 3 12 12 17 20 14 8 -3 14 0 14 7 0 7 12 25 26 42 14 16 28 42 31
57 3 16 9 28 14 28 5 0 6 6 3 14 -3 8 -1 17 5 21 16 9 14 48 -1 39 -10 -6 -10
-4 0 7 14 16 16 69 2 69 -5 0 -10 11 -10 24 0 13 -7 29 -15 36 -8 7 -15 20
-15 30 0 20 -34 53 -58 56 -25 4 -62 26 -56 35 2 4 0 11 -6 14 -9 6 -182 12
-386 15 -27 0 -48 7 -64 22 -13 12 -31 23 -39 25 -8 1 -18 9 -23 17 -5 9 -21
17 -36 17 -18 1 -21 3 -9 6 16 4 14 8 -12 35 -16 17 -34 27 -39 24 -6 -3 -14
3 -17 14 -4 12 -18 25 -31 30 -13 5 -24 14 -24 19 0 5 -9 13 -20 16 -11 3 -20
12 -20 18 0 7 -12 18 -27 24 -16 7 -54 37 -86 68 -31 30 -64 55 -72 55 -8 0
-12 6 -10 13 3 7 -14 23 -40 37 -25 13 -45 30 -45 37 0 7 -7 13 -15 13 -8 0
-15 7 -15 15 0 8 -11 17 -25 21 -14 3 -25 12 -25 19 0 8 -10 17 -22 21 -35 11
-79 47 -89 72 -5 12 -16 22 -26 22 -19 1 -75 29 -58 30 6 0 3 5 -5 10 -8 5
-51 10 -96 10 -79 0 -81 -1 -147 -46z"/>
<path d="M5372 19873 c-18 -2 -36 -11 -39 -19 -3 -8 -16 -14 -28 -14 -13 0
-26 -6 -28 -12 -4 -10 -6 -10 -6 0 -1 17 -21 15 -21 -3 0 -8 -6 -15 -13 -15
-7 0 -18 -9 -25 -21 -7 -12 -16 -19 -19 -16 -7 7 -63 -47 -63 -62 0 -6 -7 -11
-15 -11 -14 0 -20 -12 -16 -34 1 -5 -11 -22 -26 -38 -18 -19 -32 -49 -40 -86
-15 -74 -17 -272 -2 -272 7 0 9 -10 5 -24 -4 -16 0 -30 9 -40 9 -8 16 -18 16
-21 -1 -15 15 -42 31 -53 10 -7 18 -19 18 -25 0 -18 122 -127 143 -127 9 0 17
-4 17 -10 0 -5 6 -10 14 -10 8 0 16 -4 18 -10 3 -9 93 -32 128 -33 8 0 56 3
105 7 50 4 100 7 113 7 12 0 22 3 22 8 0 5 10 7 22 3 14 -3 19 -2 14 6 -4 7
-3 12 1 12 5 0 20 11 35 25 17 16 28 20 31 12 2 -7 11 2 20 18 9 17 16 27 17
22 0 -13 70 56 70 70 0 7 14 27 31 44 25 24 32 42 41 97 11 74 11 182 2 285
-5 53 -12 74 -30 92 -12 12 -24 31 -26 41 -2 11 -11 25 -20 32 -10 7 -18 19
-18 26 0 18 -48 49 -62 40 -7 -4 -8 -3 -4 5 4 6 0 14 -9 18 -10 3 -29 17 -43
29 -14 13 -36 24 -49 24 -14 0 -36 9 -49 19 -20 16 -41 19 -131 18 -60 0 -123
-2 -141 -4z"/>
<path d="M2055 19783 c-27 -7 -67 -21 -88 -30 -34 -15 -37 -18 -23 -29 14 -10
12 -12 -13 -17 -23 -5 -30 -13 -35 -42 -4 -19 -11 -33 -16 -30 -16 10 -18 -69
-16 -440 1 -203 1 -380 -2 -392 -2 -13 -10 -23 -18 -23 -7 0 -11 -6 -8 -14 9
-25 -55 -29 -428 -26 -361 2 -367 2 -437 -21 -69 -23 -89 -38 -53 -40 13 -1
12 -2 -4 -7 -40 -13 -94 -57 -94 -77 0 -11 -2 -63 -5 -115 -5 -103 1 -160 17
-160 6 0 29 -20 52 -45 25 -26 52 -45 64 -45 12 0 22 -4 22 -8 0 -5 17 -16 38
-25 34 -15 88 -17 430 -19 349 -3 393 -5 408 -20 15 -15 16 -55 15 -417 -2
-281 1 -401 9 -401 6 0 8 -10 4 -25 -5 -20 2 -33 37 -68 58 -58 83 -73 159
-97 65 -21 150 -20 150 2 0 5 -10 6 -21 3 -13 -5 -19 -3 -15 3 3 5 27 13 53
17 60 8 113 47 113 81 0 14 6 24 15 24 30 0 36 75 35 468 0 384 0 389 21 408
20 18 43 19 407 22 263 2 389 6 393 14 4 6 11 8 17 5 5 -4 17 2 27 13 9 10 23
16 31 13 8 -3 14 0 14 7 0 7 7 10 15 6 17 -6 45 19 45 40 0 8 7 14 15 14 8 0
15 7 15 16 0 8 5 12 10 9 6 -3 10 2 10 13 0 10 3 22 7 26 13 13 33 82 33 116
0 75 -51 187 -91 197 -10 3 -17 9 -14 13 7 11 -20 32 -37 29 -7 -2 -31 5 -52
14 -36 16 -81 18 -420 17 -336 -1 -381 0 -392 14 -6 9 -16 16 -22 16 -28 0
-31 49 -32 426 -1 390 -7 464 -37 464 -7 0 -13 6 -13 13 0 20 -60 88 -72 81
-6 -4 -14 0 -19 7 -6 10 -28 14 -68 14 -33 -1 -58 2 -55 6 3 6 -23 22 -29 18
-1 -1 -24 -8 -52 -16z m302 -2460 c-3 -10 -5 -4 -5 12 0 17 2 24 5 18 2 -7 2
-21 0 -30z"/>
<path d="M13445 19754 c-27 -7 -54 -13 -58 -14 -5 0 -5 -4 -2 -10 3 -5 -10
-17 -29 -27 -23 -11 -36 -24 -36 -36 0 -11 -13 -35 -30 -54 l-30 -34 -1 -492
c-1 -271 -3 -499 -4 -507 -3 -30 -17 -47 -72 -86 -30 -21 -63 -47 -72 -56 -8
-10 -21 -18 -27 -18 -6 0 -14 -9 -17 -20 -3 -11 -12 -20 -21 -20 -10 0 -13 -6
-10 -15 5 -11 2 -13 -10 -9 -9 3 -16 1 -16 -5 0 -6 -11 -16 -24 -21 -14 -5
-32 -20 -41 -34 -9 -13 -26 -27 -39 -30 -12 -3 -28 -17 -34 -31 -7 -15 -16
-24 -21 -20 -5 3 -38 -23 -73 -57 -35 -34 -66 -61 -70 -60 -9 2 -68 -57 -68
-68 0 -5 -7 -7 -15 -4 -9 4 -15 0 -15 -8 0 -29 -49 -40 -117 -27 -35 7 -63 17
-63 22 0 5 -7 6 -16 3 -12 -4 -15 -2 -10 9 4 12 -4 15 -42 15 -34 0 -43 3 -32
10 8 5 12 10 8 11 -12 2 -22 5 -43 13 -11 4 -33 13 -50 19 -16 5 -37 16 -46
24 -8 7 -30 16 -47 19 -18 4 -32 10 -32 15 0 5 -7 9 -15 9 -8 0 -15 5 -15 11
0 5 -4 8 -9 4 -5 -3 -12 -1 -16 5 -3 5 -19 10 -36 10 -16 0 -29 4 -29 9 0 5
-12 12 -27 15 -16 4 -47 20 -69 36 -23 16 -44 27 -47 24 -3 -3 -17 2 -31 11
-22 15 -74 17 -519 15 -433 -1 -496 1 -507 15 -7 8 -21 15 -31 15 -14 0 -19 7
-19 28 0 15 -2 68 -4 119 -4 99 0 89 -81 177 -46 49 -146 85 -219 79 -32 -2
-65 -11 -73 -19 -8 -8 -25 -14 -38 -14 -18 0 -23 -4 -19 -15 5 -11 2 -13 -10
-9 -11 4 -16 1 -16 -10 0 -9 -7 -16 -16 -16 -8 0 -13 -4 -10 -9 3 -4 -6 -19
-19 -31 -17 -16 -25 -34 -25 -57 0 -54 -20 -176 -33 -201 -25 -51 -50 -54
-462 -50 -358 3 -380 2 -383 -15 -3 -13 -9 -16 -23 -12 -22 7 -89 -12 -89 -26
0 -5 -7 -9 -15 -9 -8 0 -15 -4 -15 -9 0 -5 -18 -12 -39 -16 -22 -4 -45 -13
-52 -21 -6 -8 -18 -14 -27 -14 -8 0 -23 -6 -31 -13 -9 -7 -36 -20 -60 -27 -23
-8 -50 -25 -59 -38 -11 -18 -17 -20 -23 -10 -7 10 -9 10 -9 1 0 -7 -8 -13 -19
-13 -10 0 -39 -11 -64 -24 -28 -15 -54 -22 -68 -19 -17 5 -21 3 -17 -9 8 -19
-49 -48 -93 -48 -16 0 -32 -6 -35 -14 -5 -14 -40 -30 -58 -27 -5 1 -12 -2 -15
-6 -9 -12 -59 -33 -80 -33 -10 0 -30 -13 -44 -30 -19 -21 -36 -30 -57 -30 -17
0 -30 -5 -30 -12 0 -9 -4 -8 -10 2 -8 13 -10 12 -10 -2 0 -10 -6 -18 -13 -18
-7 0 -32 -9 -55 -20 -22 -11 -48 -20 -56 -20 -8 0 -17 -4 -20 -9 -3 -5 -18
-12 -33 -16 -15 -3 -39 -15 -54 -26 -15 -10 -36 -19 -47 -19 -12 0 -27 -8 -34
-18 -7 -10 -21 -21 -30 -25 -10 -3 -18 -15 -18 -26 0 -10 -7 -21 -15 -25 -8
-3 -15 -12 -15 -21 0 -19 -40 -60 -41 -42 0 6 -8 -4 -17 -23 -24 -50 -106
-172 -131 -194 -12 -11 -21 -25 -21 -33 0 -23 -23 -56 -97 -138 -12 -14 -19
-25 -15 -25 4 0 -1 -5 -10 -11 -11 -6 -18 -22 -18 -40 0 -17 -4 -28 -9 -25
-10 7 -28 -12 -33 -34 -2 -8 -13 -23 -25 -33 -13 -10 -23 -25 -23 -32 0 -8
-10 -24 -23 -37 -31 -32 -57 -74 -57 -93 0 -9 -7 -18 -15 -21 -8 -4 -15 -13
-15 -21 0 -8 -4 -11 -10 -8 -5 3 -10 -1 -10 -9 0 -9 -8 -24 -18 -34 -32 -32
-70 -86 -77 -112 -4 -14 -24 -42 -44 -62 -28 -29 -47 -39 -82 -44 -39 -5 -47
-3 -55 12 -4 11 -9 206 -11 434 -2 228 -4 432 -6 452 -1 21 2 39 7 41 6 2 6 9
1 17 -5 8 -10 23 -11 34 0 11 -7 22 -14 24 -14 5 -41 32 -75 76 -12 16 -40 32
-70 40 -51 15 -177 17 -169 4 3 -5 -6 -8 -20 -8 -33 0 -57 -10 -50 -21 3 -5
-2 -9 -10 -9 -21 0 -66 -44 -66 -64 0 -9 -4 -16 -10 -16 -5 0 -10 -12 -10 -27
0 -21 -3 -24 -10 -13 -5 8 -13 11 -17 6 -4 -4 -9 -240 -10 -524 l-1 -517 -28
-20 c-15 -11 -37 -29 -48 -41 -12 -11 -29 -24 -39 -27 -11 -4 -21 -16 -24 -27
-3 -12 -11 -19 -17 -17 -6 2 -21 -7 -33 -20 -12 -12 -29 -23 -39 -23 -10 0
-14 -5 -11 -14 4 -9 -2 -17 -14 -21 -10 -4 -19 -11 -19 -16 0 -5 -7 -9 -15 -9
-9 0 -12 -6 -8 -16 4 -10 1 -15 -8 -14 -24 4 -59 -12 -59 -26 0 -7 -10 -19
-22 -25 -13 -7 -36 -25 -53 -41 -16 -17 -43 -36 -58 -45 -18 -9 -27 -20 -23
-29 3 -7 2 -13 -2 -12 -4 1 -20 -4 -37 -11 -16 -7 -41 -10 -55 -6 -14 3 -32 7
-40 8 -8 1 -24 11 -35 23 -29 30 -47 34 -158 37 -79 2 -103 -1 -115 -13 -9 -8
-21 -15 -28 -15 -6 0 -25 -15 -43 -33 -19 -21 -35 -31 -43 -26 -7 4 -10 4 -6
0 7 -8 -19 -38 -43 -50 -40 -20 -60 -37 -121 -98 -36 -38 -72 -68 -82 -68 -9
0 -16 -7 -16 -16 0 -10 -6 -14 -15 -10 -10 3 -15 -1 -15 -13 0 -12 -12 -25
-30 -33 -17 -7 -30 -16 -30 -20 0 -12 -58 -10 -65 2 -3 6 -14 10 -23 10 -10 0
-31 16 -47 35 -17 20 -45 42 -62 50 -18 8 -33 20 -33 28 0 8 -14 25 -32 38
-17 13 -45 36 -61 51 -17 15 -33 26 -37 25 -4 -1 -19 10 -33 26 -14 15 -30 27
-34 27 -13 1 -63 48 -63 60 0 6 -12 15 -26 20 -14 6 -28 19 -31 31 -3 11 -11
18 -17 16 -12 -4 -36 16 -36 31 0 13 -27 23 -44 16 -8 -3 -19 6 -27 24 -7 15
-27 38 -46 50 -18 12 -32 25 -31 30 1 4 -4 19 -10 35 -8 18 -13 177 -16 490
-3 254 -7 477 -9 494 -2 18 -11 41 -20 51 -10 10 -17 24 -17 31 0 7 -5 9 -10
6 -6 -3 -10 -1 -10 6 0 16 -31 38 -54 39 -12 0 -16 5 -12 15 4 11 -2 15 -22
15 -16 0 -33 5 -39 11 -6 6 -24 12 -40 13 -17 2 -35 6 -42 11 -8 4 -17 2 -22
-6 -7 -12 -9 -11 -9 1 0 9 -3 11 -8 5 -15 -21 -69 -42 -112 -44 -8 -1 -21 -14
-28 -31 -8 -16 -20 -30 -28 -30 -17 0 -19 -20 -1 -20 6 0 4 -5 -5 -11 -10 -5
-18 -17 -18 -24 0 -8 -7 -15 -15 -15 -12 0 -15 -14 -15 -62 0 -236 -8 -965
-11 -975 -1 -7 -10 -13 -20 -13 -10 0 -25 -10 -34 -22 -8 -13 -20 -24 -25 -24
-23 -3 -24 -5 -10 -14 13 -9 13 -10 0 -10 -8 0 -29 -14 -47 -30 -18 -17 -35
-30 -38 -30 -3 0 -19 -14 -35 -30 -17 -17 -35 -28 -40 -25 -6 3 -15 -5 -22
-19 -6 -14 -19 -26 -30 -26 -10 0 -18 -4 -18 -10 0 -5 -7 -10 -15 -10 -8 0
-12 -6 -9 -13 3 -8 -7 -19 -23 -27 -47 -24 -73 -53 -61 -67 8 -10 5 -13 -14
-13 -13 0 -30 -9 -38 -20 -8 -11 -20 -20 -28 -20 -7 0 -15 -7 -19 -16 -3 -8
-12 -13 -19 -10 -8 3 -14 -1 -14 -9 0 -8 -5 -15 -10 -15 -11 0 -39 -25 -174
-155 -59 -56 -73 -76 -73 -100 0 -16 -5 -31 -11 -33 -6 -2 -8 -20 -5 -42 4
-24 2 -40 -5 -40 -5 0 -9 -11 -8 -25 0 -14 4 -25 7 -25 4 0 10 -12 14 -27 5
-21 8 -24 16 -12 8 11 10 10 8 -6 -4 -54 3 -71 37 -93 20 -12 40 -19 46 -16 7
4 8 2 4 -5 -4 -7 2 -15 16 -20 14 -6 17 -10 8 -11 -10 -1 -7 -4 6 -10 12 -5
66 -10 119 -11 154 -4 140 45 140 -485 0 -417 -1 -447 -17 -452 -10 -2 -18
-11 -18 -18 0 -8 -7 -14 -15 -14 -8 0 -15 -7 -15 -15 0 -9 -11 -20 -25 -25
-14 -5 -25 -14 -25 -20 0 -5 -6 -10 -14 -10 -7 0 -20 -7 -27 -17 -8 -9 -29
-22 -46 -30 -18 -7 -33 -17 -33 -23 0 -16 -49 -62 -59 -55 -7 3 -8 0 -5 -9 3
-9 1 -16 -5 -16 -22 0 -73 -57 -74 -82 -1 -15 -5 -24 -9 -21 -8 4 -12 -18 -10
-50 1 -10 -5 -20 -12 -23 -13 -5 -15 -258 -15 -1826 -1 -1303 2 -1825 10
-1840 6 -11 7 -23 3 -27 -12 -8 -15 -61 -3 -61 5 0 9 -7 9 -15 0 -41 84 -145
117 -145 16 0 55 -21 65 -35 4 -5 39 -10 78 -9 57 0 73 4 84 19 7 10 31 24 52
30 33 9 39 15 37 35 -1 14 0 19 3 13 10 -22 24 -14 24 13 0 21 3 24 14 15 10
-9 16 -2 28 36 9 27 15 60 14 76 -1 15 1 27 6 27 4 0 8 132 8 293 0 215 3 296
12 305 9 9 9 15 1 23 -8 8 -4 19 18 40 25 25 38 29 84 29 30 0 59 6 67 13 22
21 69 35 140 41 37 3 82 13 99 21 17 9 39 15 48 12 9 -2 48 0 85 4 50 6 76 15
93 31 19 18 37 22 92 24 79 2 127 11 156 29 11 7 49 15 85 18 36 3 87 12 113
22 27 9 63 16 80 16 29 0 138 28 195 50 13 5 44 9 70 9 26 0 57 6 68 14 17 12
69 22 132 25 7 1 10 6 7 11 -4 6 8 10 29 10 19 0 37 4 40 9 3 4 39 11 81 14
41 4 90 13 108 20 17 8 66 19 107 25 41 6 89 14 105 16 64 10 128 26 140 36 6
5 28 11 49 14 20 3 44 10 51 16 8 7 18 10 22 7 4 -3 37 0 73 5 36 6 76 11 90
13 40 4 41 5 35 15 -3 6 3 10 14 10 11 0 23 5 26 10 3 6 22 10 42 10 27 0 43
-8 67 -32 17 -18 34 -32 39 -30 4 1 7 -363 7 -810 -1 -793 -1 -812 18 -827 11
-9 25 -26 31 -39 7 -12 16 -22 21 -22 5 0 22 -12 37 -26 15 -14 42 -32 59 -39
48 -20 135 -17 180 5 21 11 44 20 51 20 7 0 13 7 13 16 0 8 14 20 30 25 19 7
30 18 30 29 0 10 7 26 16 34 8 9 13 20 9 25 -3 6 4 15 15 21 20 11 20 14 22
2248 3 2224 3 2238 23 2263 11 14 26 24 33 21 6 -2 12 1 12 7 0 6 8 11 19 11
10 0 34 6 53 14 18 8 63 18 98 22 36 3 70 11 77 16 6 5 20 8 30 7 10 -2 27 2
38 8 11 5 40 11 65 12 62 2 161 22 155 32 -5 8 50 21 162 38 34 5 72 15 84 21
12 7 50 13 85 13 35 1 64 5 64 10 0 4 6 7 14 7 8 0 21 6 28 13 7 6 43 13 81
14 70 2 98 8 184 41 29 11 67 20 85 20 18 0 64 7 101 16 38 9 97 16 132 16 35
0 65 5 67 11 2 5 11 11 20 12 9 2 22 8 30 15 8 6 39 14 69 17 115 12 149 20
149 36 0 4 6 6 14 3 8 -3 30 1 48 9 18 9 64 17 101 19 38 2 71 8 75 14 4 5 23
10 42 12 19 1 49 5 66 7 29 5 33 2 53 -39 20 -44 21 -57 21 -635 1 -688 7
-646 -90 -657 -33 -4 -60 -11 -60 -15 0 -5 -5 -9 -11 -9 -6 0 -17 -6 -25 -14
-7 -8 -44 -17 -81 -21 -38 -3 -95 -13 -128 -21 -33 -8 -87 -18 -120 -21 -33
-3 -62 -8 -65 -12 -7 -10 -95 -30 -162 -37 -32 -4 -58 -11 -58 -15 0 -5 -16
-9 -35 -9 -19 0 -35 -4 -35 -9 0 -8 -52 -21 -100 -26 -9 0 -21 -4 -27 -8 -7
-4 -43 -10 -80 -12 -93 -7 -134 -15 -129 -24 3 -4 -34 -15 -81 -24 -48 -9 -89
-20 -92 -24 -8 -11 -52 -21 -167 -37 -22 -2 -74 -39 -74 -51 0 -9 -27 -35 -37
-35 -23 0 -53 -191 -33 -215 6 -7 13 -31 16 -51 4 -36 32 -74 53 -74 6 0 8 -6
6 -13 -5 -11 47 -47 67 -48 4 0 24 -7 43 -15 20 -8 40 -12 44 -10 5 3 33 6 62
7 30 1 57 7 62 13 4 7 10 8 15 1 10 -14 32 -17 32 -5 0 5 10 9 23 8 22 -2 118
30 127 43 3 4 41 9 85 12 81 5 174 21 210 37 11 4 49 14 85 21 36 6 70 16 75
20 6 4 52 11 103 15 50 4 89 10 87 14 -8 14 49 31 134 41 47 6 94 12 104 13
10 1 22 7 25 12 4 6 23 11 43 12 19 1 49 6 65 11 19 5 40 3 61 -6 57 -23 61
-48 64 -371 3 -337 8 -319 -96 -329 -36 -3 -63 -8 -60 -11 11 -12 -75 -33
-158 -39 -49 -3 -94 -11 -100 -18 -21 -20 -50 -28 -122 -35 -82 -8 -186 -29
-200 -40 -5 -4 -26 -6 -45 -4 -19 1 -48 -3 -65 -11 -62 -27 -92 -34 -169 -40
-47 -4 -85 -13 -93 -21 -8 -8 -25 -14 -39 -14 -13 0 -24 -4 -24 -10 0 -6 -31
-10 -73 -10 -50 0 -80 -5 -95 -16 -13 -9 -29 -13 -37 -10 -8 3 -19 -3 -25 -12
-6 -11 -12 -13 -17 -6 -9 12 -96 6 -88 -6 5 -8 -32 -23 -52 -21 -7 1 -13 -3
-13 -9 0 -5 -7 -10 -15 -10 -8 0 -15 -6 -15 -13 0 -8 -16 -27 -35 -42 -27 -23
-36 -39 -40 -75 -3 -25 -10 -52 -15 -61 -5 -9 -12 -33 -15 -53 -6 -28 -4 -37
9 -42 9 -3 16 -14 16 -23 0 -36 22 -91 35 -91 8 0 15 -5 15 -10 0 -6 11 -15
25 -22 13 -6 22 -15 19 -19 -16 -27 177 -48 263 -29 21 5 58 11 82 14 24 2 47
10 51 16 6 10 49 18 187 35 18 2 46 10 63 19 17 8 70 18 116 22 53 4 80 10 72
15 -9 6 -7 9 7 9 12 0 26 5 32 11 6 6 44 12 84 14 41 1 86 3 102 4 16 1 27 7
27 15 0 14 28 21 125 31 28 3 64 10 80 16 17 6 50 13 75 16 25 2 61 8 80 12
56 12 113 -5 128 -36 9 -20 12 -125 12 -410 0 -429 0 -425 69 -492 22 -21 38
-41 34 -44 -3 -3 8 -9 23 -13 16 -4 35 -12 43 -18 20 -16 203 -15 208 2 3 6 9
12 15 12 22 0 78 33 78 46 0 8 5 14 10 14 6 0 10 6 10 14 0 8 5 16 12 18 6 2
17 48 24 104 17 124 19 889 3 1136 -6 94 -8 182 -4 195 3 15 19 29 43 40 20 8
49 22 64 29 14 8 47 14 72 14 25 0 46 4 46 8 0 5 16 9 36 10 20 1 42 6 49 12
7 6 58 15 114 19 75 7 107 14 125 29 19 15 43 20 102 21 59 1 87 7 126 27 28
14 55 23 62 21 6 -3 20 1 31 9 14 10 21 11 26 2 5 -8 14 -8 36 0 42 17 181 38
266 41 24 1 36 5 35 14 -2 7 10 13 30 15 17 2 32 7 32 11 0 4 21 9 48 10 79 5
90 7 106 20 8 7 43 15 78 19 44 3 57 7 43 13 -13 5 -2 8 35 8 30 1 80 8 110
16 30 8 76 15 101 15 29 0 51 6 59 15 7 8 23 15 36 15 13 0 24 4 24 8 0 8 107
29 190 38 24 3 47 9 50 13 3 5 25 12 50 16 25 4 50 11 56 16 6 5 38 9 70 10
32 1 69 8 82 15 12 8 26 12 31 9 5 -2 31 1 57 9 109 31 233 57 294 62 47 4 71
11 87 26 29 27 90 19 115 -14 9 -13 15 -25 12 -27 -2 -2 2 -11 10 -20 10 -12
12 -29 6 -71 -12 -78 -12 -6650 -1 -6650 5 0 12 -18 16 -41 4 -23 15 -45 26
-52 10 -6 19 -16 19 -22 0 -13 46 -52 81 -67 16 -7 29 -16 29 -20 0 -5 41 -8
90 -8 50 0 90 4 90 9 0 5 9 7 20 4 14 -4 20 -1 18 8 -2 7 6 15 17 17 11 2 25
12 31 21 7 9 16 16 21 16 20 0 43 35 43 65 0 17 7 38 15 46 8 9 15 29 15 45 0
16 5 29 10 29 7 0 10 1122 10 3345 0 2516 3 3350 12 3370 9 20 18 25 49 25 23
0 39 -5 42 -15 6 -13 42 -17 149 -16 15 0 30 -4 33 -9 4 -6 17 -10 31 -10 14
0 22 4 19 10 -3 6 1 7 9 4 9 -3 13 -10 10 -15 -3 -5 9 -9 26 -9 20 0 29 4 24
11 -4 7 0 9 14 5 11 -4 23 -2 27 4 3 5 24 10 45 10 23 0 42 6 47 14 4 8 22 29
38 48 17 18 36 44 43 58 17 34 11 236 -8 270 -12 23 -14 24 -21 5 -7 -19 -8
-19 -8 2 -1 29 -30 63 -54 63 -10 0 -30 9 -44 20 -14 11 -32 20 -40 20 -8 0
-11 5 -8 10 3 6 -4 10 -17 10 -18 0 -20 -2 -8 -10 12 -8 9 -10 -12 -10 -16 0
-28 4 -28 9 0 5 -21 12 -47 15 -46 7 -85 18 -128 37 -11 5 -40 11 -65 13 -88
9 -106 16 -118 48 -8 23 -12 304 -12 1054 0 1062 0 1059 40 1091 18 15 94 17
85 3 -4 -6 7 -10 27 -10 18 0 62 -9 96 -20 35 -11 86 -20 113 -20 27 0 49 -3
49 -7 0 -5 33 -7 72 -7 46 1 55 0 24 -3 l-49 -4 28 -15 c16 -8 34 -13 42 -10
7 3 15 1 18 -4 4 -6 25 -10 49 -10 23 0 47 -5 54 -12 7 -7 12 -9 12 -5 0 4 8
3 19 -2 10 -6 53 -12 95 -15 43 -3 84 -10 91 -16 18 -15 74 -30 150 -40 95
-13 109 -16 135 -30 27 -15 39 -17 115 -20 28 -2 64 -8 80 -15 17 -7 44 -15
60 -18 17 -3 39 -9 49 -13 14 -5 17 -4 12 4 -9 14 6 16 20 3 10 -10 66 -23
101 -23 12 0 21 -5 20 -11 -1 -8 27 -14 78 -18 75 -6 132 -22 146 -42 3 -4 44
-10 90 -12 50 -3 101 -11 124 -22 25 -10 59 -16 89 -14 33 2 46 0 42 -8 -5 -7
7 -11 35 -11 23 0 55 -8 73 -19 20 -12 57 -21 102 -24 79 -5 107 -19 128 -61
11 -23 15 -26 22 -13 13 23 8 -738 -5 -762 -6 -11 -11 -33 -11 -49 0 -24 -6
-32 -27 -39 -30 -10 -101 -6 -118 7 -5 5 -39 9 -75 11 -64 3 -129 22 -141 41
-4 6 -53 14 -109 18 -76 6 -105 12 -112 23 -8 15 -119 35 -162 29 -11 -1 -36
5 -55 14 -19 9 -64 19 -100 21 -36 3 -83 11 -104 19 -20 8 -52 14 -70 15 -30
1 -31 1 -7 9 23 7 22 8 -10 10 -19 1 -69 3 -110 5 -95 5 -188 -9 -205 -31 -6
-9 -17 -14 -23 -10 -8 5 -10 2 -6 -8 4 -10 -1 -18 -12 -22 -43 -16 -64 -46
-64 -94 0 -25 -7 -55 -15 -68 -11 -15 -13 -27 -7 -39 5 -10 13 -38 17 -63 4
-25 13 -54 20 -65 22 -35 52 -65 64 -65 6 0 14 -7 17 -15 4 -9 11 -14 18 -13
6 1 26 -6 45 -16 18 -10 59 -20 90 -23 31 -4 61 -12 66 -18 6 -7 45 -15 92
-18 57 -3 98 -12 135 -29 34 -16 75 -25 113 -26 64 -3 155 -21 155 -33 0 -3
30 -9 66 -12 36 -2 70 -9 76 -15 6 -6 17 -8 25 -5 8 3 19 0 23 -7 4 -7 37 -15
79 -18 39 -2 74 -9 77 -13 3 -5 17 -9 31 -9 15 0 34 -6 42 -14 10 -9 42 -16
81 -17 36 -2 68 -8 72 -13 4 -6 12 -5 22 3 11 9 16 10 16 2 0 -6 10 -11 23
-11 13 0 37 -14 55 -33 l32 -33 2 -296 c2 -163 0 -294 -4 -292 -4 2 -9 -5 -13
-16 -3 -11 -11 -20 -16 -20 -5 0 -9 -7 -9 -15 0 -11 -11 -15 -40 -15 -22 0
-40 4 -40 9 0 10 -133 25 -200 22 -33 -1 -41 1 -30 8 12 8 7 11 -20 12 -19 0
-29 3 -22 6 30 12 5 22 -75 28 -49 4 -93 11 -98 16 -6 4 -59 16 -117 25 -59
10 -105 21 -102 26 3 4 -1 9 -8 10 -7 0 -24 2 -38 4 -14 2 -50 6 -80 10 -57 6
-145 -10 -135 -26 3 -4 -8 -11 -24 -15 -38 -8 -91 -62 -91 -92 0 -14 -4 -21
-10 -18 -6 3 -7 -1 -4 -10 4 -10 -2 -24 -15 -36 -16 -15 -21 -32 -21 -67 0
-61 9 -92 26 -92 8 0 14 -10 14 -21 0 -33 56 -119 77 -119 4 0 20 -6 34 -14
14 -7 39 -16 55 -20 16 -4 36 -14 44 -21 10 -9 43 -15 90 -16 41 -1 80 -5 85
-9 6 -4 27 -10 48 -14 21 -4 35 -11 31 -17 -3 -6 8 -15 24 -21 17 -7 34 -21
39 -32 4 -12 6 -247 3 -524 -3 -276 -2 -502 3 -502 4 0 7 -13 7 -29 0 -31 15
-50 22 -29 3 7 5 -1 5 -17 0 -22 11 -43 44 -76 61 -63 89 -72 211 -67 107 4
149 15 112 29 -18 7 -18 8 3 8 12 1 28 7 35 14 7 7 25 21 40 31 15 10 26 25
26 34 0 19 19 77 36 107 7 14 11 138 12 391 0 204 4 379 7 388 9 24 68 46 123
46 30 0 51 5 58 15 6 9 40 19 81 25 126 18 139 21 152 31 6 6 17 8 22 5 5 -4
12 -2 16 3 3 6 11 8 18 6 21 -7 49 23 50 52 0 15 2 22 4 16 6 -18 23 -16 23 2
0 8 7 15 15 15 14 0 17 4 19 33 1 6 6 15 11 19 7 5 11 506 13 1460 3 1529 3
1534 -40 1546 -10 2 -18 11 -18 18 0 19 -58 73 -87 80 -13 4 -23 12 -23 20 0
9 -12 14 -32 15 -96 4 -118 9 -139 27 -12 12 -18 25 -14 33 5 8 4 10 -3 5 -9
-5 -12 66 -12 284 0 249 -2 291 -15 296 -8 4 -15 16 -15 29 0 21 -38 75 -53
75 -4 0 -21 14 -38 31 -28 29 -37 32 -114 36 -103 7 -145 -1 -179 -32 -15 -14
-34 -25 -42 -25 -7 0 -14 -9 -14 -20 0 -12 -7 -20 -17 -20 -14 0 -15 -2 -4 -9
8 -5 9 -10 3 -12 -6 -2 -18 -21 -27 -42 -12 -29 -13 -37 -3 -31 7 5 5 -3 -5
-19 -10 -15 -15 -32 -12 -36 3 -5 -1 -11 -7 -14 -10 -3 -10 -7 0 -20 7 -9 12
-28 9 -44 -4 -26 -4 -25 -6 6 0 19 -4 32 -7 28 -3 -3 -5 -75 -5 -160 2 -153 2
-155 -24 -186 -20 -23 -35 -31 -58 -31 -42 0 -78 10 -72 20 7 11 -112 42 -134
35 -10 -3 -38 1 -62 9 -24 8 -70 19 -101 26 -32 6 -58 15 -58 19 0 4 -10 18
-21 30 -22 23 -22 25 -23 619 -1 385 -5 600 -11 604 -5 4 -11 18 -12 30 -1 13
-5 39 -9 58 -6 30 -8 32 -15 15 -6 -17 -8 -17 -8 -2 -1 9 -5 17 -10 17 -4 0
-20 18 -35 39 -26 37 -27 41 -12 68 8 16 22 35 30 42 9 8 16 20 16 27 0 7 6
11 13 8 17 -6 77 51 77 74 0 12 2 14 8 4 7 -10 15 -7 33 12 31 31 69 46 115
46 24 0 34 -5 34 -15 0 -9 11 -20 24 -26 14 -7 22 -17 19 -25 -3 -9 2 -11 16
-7 12 3 21 1 21 -6 0 -6 6 -11 14 -11 8 0 24 -14 36 -30 12 -17 26 -28 31 -25
5 4 13 -5 18 -19 6 -13 19 -27 30 -31 12 -3 21 -11 21 -16 0 -5 9 -9 20 -9 11
0 20 -5 20 -11 0 -14 18 -31 52 -48 15 -8 30 -22 34 -33 3 -10 10 -18 16 -18
7 0 24 -15 39 -32 23 -27 30 -30 38 -19 7 11 10 9 13 -10 1 -13 14 -29 28 -36
13 -7 30 -19 35 -27 6 -8 24 -18 39 -22 15 -3 25 -11 23 -17 -5 -16 32 -49 48
-43 8 3 12 0 9 -7 -4 -12 38 -37 62 -37 7 0 20 -8 30 -17 28 -29 161 -29 214
-2 23 12 44 28 47 35 3 8 9 12 14 9 4 -3 13 5 19 17 7 13 23 32 36 43 22 19
24 28 25 115 2 153 1 160 -18 160 -9 0 -14 3 -10 6 10 10 -100 124 -120 124
-4 0 -26 20 -50 45 -23 25 -48 45 -57 45 -8 0 -21 12 -28 27 -7 15 -22 29 -33
32 -11 2 -36 21 -57 42 -21 21 -49 41 -63 45 -14 3 -25 11 -25 18 0 14 -66 77
-118 111 -22 15 -43 33 -46 41 -3 8 -12 14 -21 14 -8 0 -15 7 -15 15 0 8 -4
15 -9 15 -19 0 -80 45 -87 63 -4 12 -13 17 -24 14 -12 -3 -17 0 -14 7 6 15
-41 60 -54 52 -18 -11 -22 89 -22 530 0 289 -4 444 -10 446 -11 3 -19 32 -24
82 -2 16 -11 33 -20 38 -9 5 -16 18 -16 29 0 26 -23 49 -49 49 -12 0 -21 4
-21 10 0 20 -47 33 -119 31 -78 -2 -151 -18 -151 -33 0 -4 -12 -8 -27 -8 -22
0 -32 -8 -45 -36 -10 -19 -18 -42 -18 -50 0 -8 -6 -17 -13 -20 -8 -3 -12 -17
-11 -37 2 -18 1 -24 -2 -14 -10 32 -22 17 -28 -37 -4 -29 -6 -257 -5 -506 l3
-453 -23 -18 c-18 -15 -32 -17 -69 -12 -26 3 -49 9 -52 13 -14 18 -67 47 -80
43 -12 -4 -12 -3 -2 5 11 7 8 14 -15 30 -16 11 -35 32 -43 46 -10 20 -19 25
-33 20 -16 -5 -19 -3 -14 10 5 11 1 16 -13 16 -11 0 -24 9 -30 19 -5 11 -23
28 -40 37 -16 10 -27 21 -24 25 2 4 0 10 -5 13 -5 4 -12 2 -16 -4 -9 -15 -25
-12 -19 3 2 7 -7 19 -21 27 -15 8 -34 27 -43 42 -9 15 -24 30 -33 33 -10 3
-38 26 -64 50 -25 25 -53 45 -61 45 -8 0 -14 9 -14 20 0 11 -3 19 -7 18 -15
-5 -73 27 -73 39 0 7 -6 13 -12 13 -7 0 -28 16 -47 35 -69 72 -66 43 -69 545
-1 279 -6 463 -12 475 -6 11 -11 38 -13 60 -3 40 -23 71 -79 123 -15 14 -25
29 -22 34 3 5 2 8 -3 7 -8 -2 -56 8 -83 18 -31 11 -107 10 -155 -3z m190
-1756 c13 -12 37 -35 52 -50 16 -16 34 -28 41 -28 6 0 11 -4 10 -8 -4 -11 66
-72 82 -72 8 0 10 -3 7 -7 -7 -6 21 -35 64 -65 13 -10 43 -31 67 -48 23 -17
42 -34 42 -40 0 -5 7 -7 15 -4 11 5 13 2 9 -10 -4 -11 0 -16 14 -16 11 0 22
-8 25 -20 3 -11 18 -25 34 -32 15 -7 32 -18 36 -25 5 -8 12 -11 18 -8 5 4 9
-3 9 -13 0 -11 6 -22 14 -25 33 -13 -19 -110 -81 -153 -59 -40 -143 -119 -143
-133 0 -6 -7 -11 -15 -11 -17 0 -20 -24 -16 -184 2 -105 3 -110 29 -130 15
-11 37 -31 48 -43 12 -13 29 -23 38 -23 9 0 19 -7 23 -16 5 -13 7 -13 14 -2 7
10 9 10 9 1 0 -10 25 -13 93 -13 83 0 95 -2 120 -24 l28 -24 -1 -437 c-1 -371
-3 -440 -16 -452 -20 -20 -79 -27 -158 -19 -50 6 -64 11 -59 22 4 10 -4 14
-28 16 -113 5 -190 18 -207 34 -7 8 -30 14 -51 14 -21 0 -60 7 -87 15 -27 8
-62 15 -77 15 -16 0 -38 5 -49 11 -11 6 -43 13 -72 15 -95 8 -118 14 -112 30
3 8 -1 14 -9 14 -14 0 -20 19 -16 44 1 5 -4 13 -11 18 -10 8 -10 11 0 15 15 6
18 273 2 273 -5 0 -10 13 -10 30 0 18 -10 41 -25 57 -14 16 -36 41 -49 57 -15
18 -36 30 -56 33 -17 1 -41 8 -53 15 -50 28 -178 0 -254 -56 -49 -37 -64 -77
-69 -186 -8 -173 -38 -270 -86 -270 -8 0 -18 -4 -23 -8 -9 -8 -38 -14 -192
-38 -18 -3 -33 -9 -33 -13 0 -5 -24 -11 -52 -15 -86 -10 -174 -32 -158 -39 9
-3 3 -6 -15 -8 -16 -1 -41 -3 -55 -4 -60 -5 -120 -17 -120 -24 0 -5 -15 -7
-32 -6 -18 2 -39 3 -46 4 -7 1 -24 13 -37 27 -25 27 -25 27 -25 248 l0 221 31
38 c19 23 39 37 54 37 12 0 25 7 29 15 3 8 10 15 16 15 5 0 10 -7 10 -15 0
-20 16 -19 32 3 7 9 23 18 35 19 33 4 62 33 69 70 4 23 12 33 24 33 35 0 52
148 26 220 -7 19 -19 35 -26 35 -7 0 -18 13 -23 30 -12 35 -30 55 -51 55 -8 0
-18 5 -21 10 -4 6 -11 7 -17 4 -7 -5 -9 -1 -5 9 5 12 -7 18 -61 27 -119 20
-122 27 -122 282 1 221 2 227 57 246 37 12 89 -2 110 -29 7 -9 29 -20 50 -24
20 -3 68 -23 107 -43 39 -20 77 -36 84 -35 6 0 12 -3 12 -8 0 -5 11 -9 24 -9
15 0 26 -7 29 -20 3 -11 9 -20 14 -19 17 4 87 -18 135 -42 10 -5 25 -9 33 -9
8 0 23 -9 32 -20 10 -11 28 -20 40 -20 13 0 23 -5 23 -11 0 -6 9 -8 20 -4 15
5 20 2 20 -13 0 -22 18 -32 58 -32 15 0 36 -7 46 -15 11 -8 26 -15 34 -15 7 0
21 -7 29 -16 10 -10 25 -13 39 -10 18 5 22 3 18 -9 -4 -10 0 -15 10 -15 9 0
18 0 21 0 11 -1 92 -31 112 -42 18 -9 36 -8 80 2 103 23 191 87 200 145 3 19
10 35 14 35 17 0 10 143 -9 193 -16 40 -90 127 -110 127 -3 0 -13 7 -22 15
-14 13 -43 22 -77 24 -7 1 -10 8 -7 16 4 11 2 13 -9 10 -31 -13 -31 87 1 130
l14 20 -6 -20 c-5 -16 -3 -15 14 5 11 14 20 21 20 17 0 -10 50 43 50 53 0 4
12 11 26 14 14 4 24 12 21 19 -4 12 35 37 59 37 13 0 18 12 15 33 0 4 4 7 10
7 7 0 19 8 28 18 24 28 40 32 104 28 44 -3 64 -10 82 -28z m-3795 -228 c0 -7
247 -10 720 -10 473 0 720 3 720 10 0 19 79 11 100 -10 11 -11 25 -20 30 -20
6 0 10 -9 10 -20 0 -11 5 -20 10 -20 6 0 10 -107 10 -301 0 -197 -3 -298 -10
-294 -5 3 -11 1 -11 -4 -3 -20 -5 -26 -16 -46 -11 -20 -24 -20 -805 -23 -436
-2 -811 0 -833 3 -28 5 -47 16 -65 37 -24 31 -24 35 -23 202 2 441 1 425 31
452 15 14 34 31 42 38 17 16 90 21 90 6z m-747 -211 c40 -18 47 -59 47 -295 0
-172 -3 -224 -14 -239 -8 -11 -12 -25 -9 -31 3 -8 -11 -15 -36 -19 -22 -4 -42
-5 -43 -4 -2 2 -14 -4 -28 -14 -16 -11 -45 -17 -85 -18 -52 0 -118 -15 -90
-19 20 -4 -41 -18 -78 -19 -21 -1 -36 -4 -34 -8 3 -5 -25 -9 -61 -11 -36 -1
-71 -7 -76 -11 -12 -10 -103 -26 -122 -23 -6 1 -17 -5 -24 -13 -7 -8 -25 -15
-41 -15 -16 0 -48 -4 -71 -10 -198 -44 -189 -43 -211 -19 -29 31 -32 139 -3
139 6 0 17 14 23 30 6 17 17 29 24 28 7 -2 16 13 22 35 5 20 15 37 22 37 8 0
24 18 36 40 13 22 26 40 31 40 4 0 8 8 8 19 0 22 63 91 84 91 20 0 30 17 14
23 -7 3 2 6 21 6 31 1 118 35 131 51 6 8 56 27 90 34 14 3 34 14 45 24 11 10
43 24 70 32 56 15 78 28 69 42 -3 5 6 6 23 2 15 -4 25 -3 21 1 -5 5 14 16 41
26 27 9 62 27 79 39 16 12 45 26 63 30 19 4 35 8 36 9 1 1 13 -4 26 -10z
m-2556 -1021 c-3 -8 -6 -5 -6 6 -1 11 2 17 5 13 3 -3 4 -12 1 -19z m4866 -59
c9 -12 17 -27 17 -34 0 -7 5 -15 12 -17 15 -5 12 -531 -3 -536 -6 -2 -4 -11 3
-20 10 -11 10 -16 1 -19 -7 -2 -10 -10 -7 -17 3 -8 -6 -26 -19 -42 -22 -25
-32 -29 -98 -32 -41 -2 -78 -8 -84 -13 -5 -5 -19 -9 -32 -9 -14 0 -23 -6 -23
-15 0 -11 -12 -15 -52 -15 -59 0 -161 -17 -198 -33 -14 -6 -49 -11 -78 -12
-28 -1 -55 -5 -59 -8 -3 -4 -15 -7 -25 -7 -10 0 -21 -6 -24 -14 -3 -8 -12 -12
-20 -9 -8 3 -20 1 -27 -5 -6 -5 -46 -10 -86 -11 -48 -1 -80 -6 -90 -15 -16
-14 -90 -30 -180 -40 -24 -3 -48 -11 -52 -18 -7 -10 -9 -10 -9 2 -1 13 -2 13
-13 0 -7 -9 -33 -16 -67 -18 -30 -2 -59 -7 -65 -12 -18 -15 -95 -32 -197 -43
-54 -5 -98 -14 -98 -18 0 -5 -7 -9 -15 -9 -8 0 -15 -4 -15 -9 0 -8 -47 -17
-243 -44 -52 -7 -85 -16 -80 -21 5 -5 0 -6 -10 -3 -11 4 -35 -1 -55 -10 -19
-9 -50 -16 -69 -16 -18 1 -33 -3 -33 -8 0 -5 -24 -9 -54 -9 -35 0 -60 -5 -70
-15 -8 -8 -31 -15 -51 -15 -20 0 -48 -6 -63 -14 -15 -7 -54 -17 -87 -20 -87
-10 -209 -36 -215 -45 -3 -5 -50 -16 -105 -25 -55 -9 -101 -20 -103 -26 -2 -5
-21 -10 -41 -10 -74 0 -163 -13 -149 -21 9 -6 4 -9 -14 -9 -15 0 -29 -4 -32
-9 -3 -4 -40 -11 -83 -13 -76 -6 -163 -25 -163 -37 0 -3 -11 -7 -25 -7 -15 -1
-25 3 -25 12 0 8 -6 14 -14 14 -21 0 -26 104 -27 590 -1 287 2 444 9 461 6 15
8 29 5 32 -3 4 8 9 23 13 16 4 36 12 44 20 14 12 79 26 180 40 25 3 53 10 62
15 9 5 35 9 57 9 22 0 43 5 46 10 4 6 16 8 27 4 17 -5 20 -3 14 11 -5 14 -2
16 19 11 14 -4 40 0 58 7 18 8 54 15 80 16 26 1 63 10 81 20 18 10 66 22 107
26 41 4 90 13 109 19 19 7 55 13 80 14 25 2 46 7 48 12 6 17 78 -21 89 -48 6
-15 13 -96 15 -180 3 -131 6 -155 20 -163 9 -5 19 -22 23 -39 4 -16 10 -29 13
-29 18 3 32 -2 32 -11 0 -21 36 -50 61 -50 15 0 29 -7 32 -14 8 -20 151 -19
187 0 14 8 37 18 53 24 15 5 31 18 34 27 9 23 29 44 36 37 7 -7 37 76 37 101
0 111 12 350 19 368 5 13 22 35 38 48 l29 24 814 -3 c813 -2 815 -2 833 -23z
m-4243 -259 c11 -11 20 -27 20 -35 0 -9 7 -18 16 -22 9 -3 20 -15 24 -27 7
-17 9 -18 9 -3 1 21 21 23 21 2 0 -8 8 -15 18 -15 14 0 15 -2 2 -10 -12 -8
-11 -10 7 -10 12 0 45 -5 74 -12 43 -10 54 -17 63 -40 6 -15 14 -28 18 -28 11
0 5 -84 -6 -92 -7 -5 -7 -8 2 -8 9 0 12 -100 12 -464 0 -393 -2 -469 -15 -500
-9 -20 -19 -34 -24 -32 -5 3 -14 -1 -21 -9 -7 -8 -25 -15 -41 -15 -16 0 -29
-4 -29 -10 0 -6 -9 -6 -26 0 -14 6 -40 10 -59 10 -43 0 -65 9 -65 26 0 8 -4
14 -9 14 -5 0 -34 23 -64 50 -30 28 -62 50 -71 50 -8 0 -23 11 -32 25 -9 14
-20 22 -25 19 -5 -3 -23 10 -41 28 -18 18 -36 32 -40 31 -4 -2 -10 6 -13 17
-3 10 -15 22 -26 25 -11 4 -18 12 -16 18 4 12 -47 51 -83 62 -12 4 -19 9 -16
13 8 8 -64 73 -74 67 -5 -3 -11 4 -15 15 -3 11 -17 23 -31 26 -13 3 -24 10
-24 15 0 5 -8 13 -17 16 -10 4 -28 17 -41 30 -13 13 -27 23 -32 23 -6 0 -10 7
-10 15 0 8 -7 15 -15 15 -8 0 -15 4 -15 8 0 5 -10 14 -23 21 -18 10 -23 22
-25 58 -1 25 3 54 9 65 17 32 42 58 56 58 7 0 13 4 13 8 0 4 14 16 30 25 17
10 30 25 30 33 0 8 7 14 15 14 9 0 18 7 21 15 4 8 11 15 18 15 6 0 27 14 46
30 19 17 43 33 53 36 9 3 24 18 32 34 10 19 20 27 30 24 13 -6 20 6 16 29 0 4
8 7 20 7 11 0 17 5 14 10 -3 6 -1 10 4 10 6 0 11 7 11 16 0 8 4 12 10 9 11 -7
70 25 70 38 0 12 32 43 52 50 9 3 25 19 34 34 10 15 32 42 48 60 38 39 94 45
126 13z m8267 -362 c-2 -13 -4 -3 -4 22 0 25 2 35 4 23 2 -13 2 -33 0 -45z
m-1234 -15 c-7 -2 -19 -2 -25 0 -7 3 -2 5 12 5 14 0 19 -2 13 -5z m-10136 -99
c-3 -3 -12 -4 -19 -1 -8 3 -5 6 6 6 11 1 17 -2 13 -5z m36 -26 c12 -6 30 -22
40 -35 10 -12 27 -23 38 -23 10 0 19 -7 19 -15 0 -8 5 -15 10 -15 6 0 10 -6
10 -14 0 -8 20 -22 45 -33 29 -11 45 -24 45 -35 0 -10 5 -18 10 -18 6 0 27
-15 47 -34 64 -60 73 -66 96 -66 36 0 51 -14 32 -30 -14 -12 -12 -15 17 -29
51 -24 62 -40 61 -85 -1 -22 -2 -51 -2 -64 -1 -13 -6 -20 -11 -17 -6 4 -28 -7
-49 -24 -21 -17 -42 -31 -46 -31 -4 0 -20 -12 -35 -27 -15 -16 -38 -36 -51
-45 -53 -39 -79 -64 -79 -77 0 -8 -6 -11 -16 -7 -11 4 -18 -1 -21 -14 -3 -11
-9 -17 -14 -14 -5 3 -12 -2 -15 -10 -3 -9 -13 -16 -20 -16 -8 0 -17 -7 -21
-16 -9 -24 -53 -65 -63 -59 -5 3 -26 -12 -48 -32 -91 -88 -122 -109 -122 -82
0 6 -8 8 -18 5 -12 -4 -26 2 -38 15 -17 18 -19 37 -19 143 0 66 -1 193 -2 281
l-3 160 -53 57 c-49 51 -53 59 -49 94 4 34 47 94 67 94 4 0 22 16 41 35 18 19
42 35 51 36 13 0 14 2 4 6 -17 7 84 52 117 53 13 0 33 -5 45 -12z m8562 -245
c35 -17 52 -44 40 -63 -3 -5 -3 -14 0 -20 5 -8 6 -901 4 -2031 0 -8 -10 -28
-23 -43 -19 -25 -28 -28 -76 -28 -30 1 -68 -5 -85 -13 -32 -14 -103 -29 -195
-41 -30 -3 -61 -10 -70 -14 -46 -23 -70 -31 -113 -39 -61 -11 -82 -6 -102 26
-15 23 -17 82 -16 592 1 422 -1 575 -10 601 -16 44 -79 130 -96 130 -7 0 -17
9 -23 20 -8 16 -21 20 -60 20 -29 0 -50 5 -53 13 -4 9 -8 9 -15 -1 -6 -9 -26
-13 -53 -12 -87 4 -101 1 -106 -20 -3 -11 -11 -20 -18 -20 -14 0 -65 -55 -65
-70 0 -5 -4 -10 -10 -10 -5 0 -10 -8 -10 -18 0 -10 -3 -22 -7 -26 -4 -4 -6
-25 -4 -46 1 -22 -1 -40 -6 -40 -4 0 -8 -276 -8 -612 0 -586 -1 -614 -19 -645
-21 -34 -42 -41 -146 -50 -72 -6 -110 -17 -110 -33 0 -6 -4 -8 -10 -5 -5 3
-16 3 -22 -1 -7 -5 -33 -10 -58 -11 -25 -2 -67 -9 -95 -15 -37 -8 -50 -8 -53
1 -2 6 -10 11 -18 11 -8 0 -14 3 -15 8 0 4 -2 16 -5 27 -2 11 -4 277 -4 592 0
379 -3 574 -10 578 -5 3 -10 13 -10 21 0 28 -54 93 -93 110 -23 11 -33 20 -26
25 15 9 -132 21 -199 15 -41 -4 -59 -11 -77 -30 -13 -14 -35 -28 -49 -32 -21
-5 -24 -9 -15 -20 9 -11 8 -14 -5 -14 -9 0 -16 -7 -16 -15 0 -22 -30 -78 -46
-88 -11 -6 -13 -128 -13 -649 0 -561 -2 -644 -16 -664 -8 -13 -24 -24 -35 -24
-11 0 -20 -4 -20 -9 0 -12 -30 -19 -114 -26 -39 -4 -88 -15 -110 -26 -26 -12
-61 -19 -100 -19 -46 0 -74 -7 -114 -27 -44 -22 -58 -25 -89 -17 -20 5 -41 18
-47 29 -6 11 -15 23 -19 26 -5 3 -11 21 -15 40 -4 19 -5 485 -2 1036 l5 1002
21 28 c12 15 31 28 42 27 12 0 18 5 15 12 -3 8 20 14 74 19 43 4 96 13 118 21
22 8 58 17 79 19 22 3 43 10 48 17 6 10 8 10 8 1 0 -20 51 -15 90 8 24 15 57
23 110 26 41 3 81 10 88 15 7 6 15 8 19 5 3 -4 11 0 17 7 6 9 38 17 76 20 76
7 173 27 180 37 3 3 43 9 89 12 46 3 87 10 90 14 12 16 88 36 152 40 71 4 140
20 104 23 -39 4 27 18 88 19 32 1 56 5 53 10 -3 4 5 6 17 4 12 -2 51 5 86 16
35 12 83 21 107 21 23 0 46 5 49 10 4 6 10 8 15 5 4 -2 19 4 33 15 20 16 40
20 100 20 42 0 79 5 82 10 3 6 19 10 35 10 16 0 32 5 35 10 3 6 17 10 30 10
13 0 28 7 33 16 6 11 11 13 16 5 11 -17 26 -13 27 7 0 10 3 12 6 5 7 -18 67
-16 111 3 20 9 60 17 87 19 47 2 140 26 176 45 9 4 42 11 75 15 67 9 190 38
201 48 11 12 51 8 88 -10z m-6918 -50 c-31 -5 -27 -23 6 -24 12 0 16 -3 10 -6
-22 -8 -14 -19 27 -39 22 -10 40 -25 40 -31 0 -7 7 -13 15 -13 7 0 18 -6 22
-13 4 -7 26 -26 48 -43 22 -16 50 -41 63 -56 13 -16 30 -28 38 -28 8 0 14 -7
14 -15 0 -8 8 -15 19 -15 10 0 26 -11 35 -25 9 -14 27 -27 41 -31 14 -3 23 -9
20 -14 -4 -7 39 -50 51 -50 3 0 17 -13 31 -30 13 -16 31 -30 39 -30 8 0 14 -4
14 -10 0 -5 7 -10 15 -10 9 0 18 -7 21 -15 4 -8 10 -15 15 -15 14 0 109 -98
109 -113 0 -7 5 -18 11 -24 21 -21 -12 -52 -68 -64 -29 -7 -53 -16 -53 -21 0
-4 -9 -8 -20 -8 -10 0 -44 -9 -74 -21 -31 -11 -60 -18 -65 -14 -6 3 -26 -1
-46 -10 -20 -8 -59 -15 -85 -16 -27 -1 -47 -5 -45 -9 3 -4 -13 -10 -35 -14
-22 -3 -40 -10 -40 -15 0 -5 -41 -9 -90 -9 -66 0 -95 -4 -108 -14 -9 -9 -24
-16 -32 -16 -8 0 -52 -10 -98 -21 -46 -12 -96 -21 -112 -21 -16 0 -31 -4 -34
-8 -2 -4 -28 -9 -57 -10 -33 -1 -60 -9 -71 -19 -10 -9 -26 -18 -36 -19 -9 -1
-48 -5 -87 -8 -86 -9 -156 -26 -150 -37 6 -9 -30 -16 -120 -23 -33 -2 -73 -11
-90 -20 -28 -14 -146 -29 -208 -27 -16 1 -26 -3 -23 -8 9 -13 -51 -41 -88 -41
-17 0 -48 5 -68 11 -37 10 -38 11 -38 59 0 47 1 49 41 66 31 14 36 20 22 25
-14 5 -12 7 11 13 32 8 49 22 59 49 4 10 13 17 19 15 7 -3 37 19 67 49 30 29
58 53 62 53 5 0 13 9 19 20 6 11 14 18 19 16 6 -4 21 6 77 53 7 5 15 7 18 4 3
-4 6 1 6 10 0 8 9 19 20 22 11 3 20 13 20 21 0 8 4 14 9 14 6 0 23 12 38 26
15 15 38 33 51 41 12 9 22 21 22 28 0 7 14 18 30 25 17 7 30 15 30 19 0 3 13
12 30 19 16 8 28 17 27 21 -4 13 75 81 95 81 11 0 16 5 13 10 -8 13 19 40 39
40 9 0 16 5 16 11 0 15 22 35 48 43 12 4 37 22 55 40 17 18 40 36 50 39 9 4
17 11 17 17 0 15 25 40 39 40 6 0 21 9 34 20 12 12 29 27 38 35 9 8 21 15 27
15 7 0 12 7 12 16 0 10 6 14 15 10 9 -3 15 0 15 9 0 8 5 15 11 15 5 0 8 4 4 9
-6 10 36 18 100 18 27 0 31 -1 12 -4z m6491 -10 c-10 -2 -26 -2 -35 0 -10 3
-2 5 17 5 19 0 27 -2 18 -5z m-115 -20 c-7 -2 -19 -2 -25 0 -7 3 -2 5 12 5 14
0 19 -2 13 -5z m4134 -75 c-3 -7 -5 -2 -5 12 0 14 2 19 5 13 2 -7 2 -19 0 -25z
m-9854 -635 c-7 -2 -19 -2 -25 0 -7 3 -2 5 12 5 14 0 19 -2 13 -5z m-233 -602
c0 -5 10 -11 23 -15 13 -3 29 -17 35 -30 17 -37 16 -2062 -1 -2082 -21 -26
-47 -49 -57 -50 -6 -1 -18 -3 -27 -4 -13 -1 -11 -4 7 -10 25 -8 25 -8 -5 -10
-65 -5 -77 -8 -88 -19 -14 -14 -30 -15 -22 -1 8 12 -11 13 -33 1 -9 -5 -44
-11 -77 -14 -33 -3 -72 -10 -87 -16 -15 -6 -49 -13 -75 -17 -27 -3 -50 -10
-53 -14 -3 -4 -23 -10 -45 -13 -22 -4 -42 -12 -44 -18 -2 -8 -6 -7 -12 2 -6
10 -9 11 -9 2 0 -9 -18 -13 -54 -13 -30 0 -57 -4 -60 -9 -3 -4 -29 -11 -58
-15 -29 -4 -57 -11 -63 -16 -6 -5 -34 -11 -63 -15 -29 -3 -64 -10 -78 -15 -14
-6 -36 -10 -49 -10 -14 0 -58 -11 -99 -25 -44 -15 -97 -25 -130 -25 -47 0 -56
-3 -56 -17 0 -15 -2 -16 -10 -3 -8 13 -11 13 -19 1 -5 -7 -14 -10 -20 -6 -7 4
-18 2 -25 -4 -8 -6 -53 -16 -100 -22 -97 -12 -104 -10 -131 47 -14 30 -16 90
-14 549 1 327 -2 520 -9 528 -5 6 -12 36 -14 66 -3 30 -11 57 -19 62 -10 6
-10 9 -1 9 22 0 13 18 -13 24 -14 4 -25 11 -25 17 0 19 -28 39 -54 39 -17 0
-24 4 -20 13 7 18 -117 40 -151 27 -13 -5 -26 -6 -29 -3 -7 7 -86 -27 -86 -36
0 -4 -16 -15 -35 -25 -19 -10 -32 -22 -30 -27 3 -4 0 -9 -5 -11 -6 -2 -12 -15
-14 -30 -1 -15 -13 -35 -25 -45 l-22 -18 -2 -651 c-2 -628 -3 -653 -21 -673
-31 -34 -125 -53 -294 -61 -2 0 -1 -4 2 -9 10 -15 -53 -31 -121 -31 -64 0 -84
9 -91 40 -2 8 -8 18 -14 21 -13 8 -11 193 2 197 5 2 5 13 -1 28 -15 40 -12
1814 3 1814 9 0 9 3 0 12 -16 16 -15 28 3 28 8 0 15 6 15 14 0 16 30 26 81 26
23 0 39 6 42 14 7 18 68 36 124 36 23 0 54 5 70 11 15 6 28 10 28 10 0 0 22 6
49 14 27 8 71 15 98 15 27 0 47 4 44 9 -6 10 19 15 159 32 50 6 95 17 100 24
6 6 48 17 95 24 47 7 96 15 110 19 14 3 31 4 38 3 6 -1 12 3 12 8 0 8 151 29
173 23 4 -1 7 3 7 8 0 6 6 10 14 10 7 0 27 7 42 15 18 9 57 15 102 15 55 0 74
4 78 15 4 8 17 15 29 15 13 0 26 4 29 9 3 5 39 12 78 16 40 4 98 13 128 21 30
8 71 14 92 14 23 0 38 5 39 13 0 9 2 9 5 0 4 -8 18 -6 52 9 26 11 74 24 107
29 71 10 81 12 119 28 16 6 48 13 72 16 23 2 52 8 63 14 11 6 31 11 45 11 13
0 26 4 28 9 2 5 32 11 68 12 72 3 92 7 85 18 -2 4 10 5 27 3 20 -3 29 -1 24 6
-4 7 10 10 40 10 25 0 48 3 52 6 8 9 22 7 22 -3z m8633 -1188 c-7 -2 -19 -2
-25 0 -7 3 -2 5 12 5 14 0 19 -2 13 -5z m-5906 -99 c-3 -3 -12 -4 -19 -1 -8 3
-5 6 6 6 11 1 17 -2 13 -5z m6210 -410 c-3 -3 -12 -4 -19 -1 -8 3 -5 6 6 6 11
1 17 -2 13 -5z m-7500 -1040 c-3 -3 -12 -4 -19 -1 -8 3 -5 6 6 6 11 1 17 -2
13 -5z"/>
<path d="M5340 13190 c-14 -5 -40 -8 -58 -9 -18 -1 -35 -7 -38 -15 -3 -8 -15
-16 -26 -19 -11 -3 -17 -10 -14 -15 3 -5 -6 -15 -19 -22 -18 -9 -25 -22 -25
-41 0 -19 -4 -27 -13 -23 -9 3 -12 -6 -9 -37 3 -25 0 -44 -7 -49 -17 -10 -15
-436 1 -507 7 -29 16 -53 20 -53 5 0 8 -7 8 -16 0 -10 6 -14 15 -10 9 3 15 0
15 -10 0 -10 -6 -14 -15 -10 -8 3 -15 3 -15 -1 0 -9 62 -63 73 -63 5 0 22 -11
39 -25 27 -22 38 -25 116 -25 79 0 90 2 114 25 15 14 34 25 42 25 18 0 76 57
76 74 0 8 9 25 20 39 20 25 20 39 20 337 -1 267 -3 311 -15 306 -10 -3 -17 4
-22 22 -3 15 -20 39 -37 54 -17 15 -39 34 -48 42 -10 9 -20 16 -23 15 -5 0
-36 4 -125 15 -14 2 -36 0 -50 -4z"/>
<path d="M6088 11893 c7 -3 16 -2 19 1 4 3 -2 6 -13 5 -11 0 -14 -3 -6 -6z"/>
<path d="M18606 17133 c-4 -4 -37 -6 -73 -4 -43 2 -63 -1 -59 -7 7 -12 -15
-20 -70 -27 -56 -7 -107 -26 -120 -43 -6 -9 -18 -13 -28 -9 -9 4 -16 2 -16 -3
0 -6 -6 -10 -12 -10 -19 -1 -120 -65 -113 -72 4 -3 -3 -9 -14 -13 -12 -3 -21
-11 -21 -17 0 -5 -7 -7 -16 -4 -8 3 -12 2 -9 -3 3 -5 -4 -13 -16 -16 -24 -8
-79 -60 -79 -75 0 -5 -9 -11 -19 -15 -10 -3 -26 -20 -35 -38 -8 -18 -16 -26
-16 -19 0 6 -4 12 -9 12 -10 0 -51 -91 -51 -114 0 -10 -6 -13 -15 -10 -11 5
-13 2 -8 -12 4 -12 3 -15 -5 -10 -7 4 -16 -4 -23 -21 -6 -15 -15 -36 -20 -45
-5 -10 -9 -23 -9 -29 0 -6 -6 -17 -14 -25 -8 -7 -12 -23 -9 -34 3 -12 -2 -29
-12 -40 -10 -11 -15 -23 -12 -27 4 -3 0 -15 -10 -25 -14 -16 -16 -48 -16 -246
0 -197 2 -232 17 -254 9 -14 15 -32 14 -39 -2 -8 5 -13 15 -13 19 2 23 -11 7
-21 -17 -11 -11 -54 13 -93 13 -20 27 -50 31 -65 3 -15 11 -25 16 -22 6 3 10
1 10 -5 0 -7 6 -10 14 -7 10 4 16 -6 20 -34 3 -21 11 -39 16 -39 6 0 10 -6 10
-13 0 -7 9 -18 20 -25 11 -7 20 -20 20 -30 0 -19 34 -54 63 -65 10 -4 21 -17
27 -31 5 -13 18 -27 29 -31 11 -3 31 -19 45 -36 14 -16 31 -29 40 -29 8 0 23
-11 34 -25 15 -18 29 -25 56 -25 25 0 36 -4 36 -15 0 -9 17 -19 46 -26 25 -7
53 -20 62 -29 13 -13 40 -19 101 -24 47 -3 87 -9 90 -13 16 -22 252 -22 287
-1 6 4 48 10 95 13 64 5 88 11 102 26 10 10 27 19 38 19 20 0 54 16 77 38 7 6
27 12 43 12 17 0 32 6 35 15 6 15 74 60 87 57 4 -1 7 7 7 18 0 11 7 20 15 20
8 0 15 5 15 10 0 6 7 10 15 10 8 0 15 5 15 10 0 6 7 10 15 10 8 0 12 6 9 14
-4 9 7 20 30 31 20 10 33 21 30 27 -3 5 6 19 20 31 36 32 116 157 116 183 0
29 26 80 32 62 3 -7 10 11 17 41 6 30 16 59 21 65 12 16 33 208 31 291 -3 151
-27 316 -44 309 -8 -3 -13 9 -13 37 -2 44 -17 80 -51 117 -13 14 -20 28 -18
33 3 4 -2 18 -12 29 -10 12 -26 31 -35 42 -10 12 -18 30 -18 40 0 10 -10 22
-22 27 -13 5 -23 17 -23 27 0 12 -7 19 -19 19 -12 0 -24 11 -31 28 -6 15 -14
24 -18 21 -4 -4 -7 0 -7 8 0 16 -22 30 -50 32 -8 1 -15 10 -15 21 0 13 -8 21
-21 23 -12 2 -32 14 -45 28 -15 16 -33 24 -56 24 -18 0 -33 4 -33 10 0 5 7 6
17 3 10 -4 14 -2 10 4 -4 5 -31 18 -62 27 -30 10 -59 25 -63 33 -6 9 -32 18
-68 22 -32 4 -75 14 -94 23 -47 22 -246 34 -253 16 -4 -10 -6 -10 -6 0 -1 13
-14 16 -25 5z m771 -325 c-3 -8 -6 -5 -6 6 -1 11 2 17 5 13 3 -3 4 -12 1 -19z
m-642 -220 c14 -6 25 -15 25 -20 0 -4 20 -8 45 -8 42 0 89 -20 107 -45 5 -6 8
-4 8 5 0 9 12 3 33 -17 17 -18 45 -43 60 -57 16 -14 26 -29 23 -34 -2 -4 8
-16 23 -25 21 -12 30 -27 35 -57 3 -22 10 -40 15 -40 5 0 7 -10 4 -22 -3 -13
-3 -20 2 -16 16 15 32 -19 38 -80 7 -69 -8 -163 -28 -175 -7 -4 -16 -25 -20
-48 -4 -22 -13 -43 -21 -46 -11 -4 -12 -9 -4 -18 8 -9 6 -14 -5 -19 -9 -3 -13
-10 -10 -16 3 -5 -1 -10 -9 -10 -10 0 -16 -9 -16 -26 0 -15 -4 -23 -11 -19 -6
4 -13 -2 -16 -14 -5 -19 -35 -28 -59 -18 -4 1 -11 -9 -15 -22 -6 -15 -14 -21
-24 -17 -8 3 -15 0 -15 -7 0 -28 -113 -59 -213 -58 -45 1 -95 1 -111 1 -16 0
-42 10 -57 21 -16 11 -29 17 -29 12 0 -4 -4 -2 -9 6 -5 8 -23 14 -40 14 -22 0
-30 5 -29 15 2 9 -13 24 -34 36 -21 11 -38 24 -38 30 0 6 -11 24 -25 40 -14
16 -25 34 -25 40 0 7 -9 19 -20 29 -12 10 -18 22 -15 27 3 6 1 10 -4 10 -6 0
-11 12 -11 26 0 15 -7 32 -16 38 -30 23 -31 216 -1 248 7 7 21 39 31 71 11 31
25 57 32 57 6 0 15 6 18 13 22 44 45 72 62 76 10 2 37 18 59 37 48 39 84 54
130 54 19 0 38 6 42 14 15 25 95 34 138 14z"/>
<path d="M1181 15969 c-14 -5 -40 -10 -59 -11 -19 -1 -36 -7 -39 -15 -3 -7
-14 -13 -24 -13 -10 0 -19 -4 -19 -9 0 -5 -13 -14 -30 -21 -16 -7 -30 -19 -30
-26 0 -8 -7 -14 -16 -14 -8 0 -12 -4 -9 -10 3 -5 0 -8 -7 -5 -7 3 -21 -7 -30
-22 -38 -60 -43 -68 -55 -76 -7 -4 -10 -14 -7 -21 3 -8 -3 -16 -14 -18 -17 -5
-21 -18 -27 -84 -4 -43 -4 -123 0 -179 4 -55 7 -111 6 -124 -1 -15 3 -21 12
-18 9 3 21 -11 33 -39 10 -24 22 -44 27 -44 4 0 7 -7 7 -15 0 -8 5 -15 10 -15
6 0 15 -11 22 -24 6 -14 25 -30 42 -37 17 -7 35 -19 39 -26 5 -7 13 -10 19 -7
8 5 9 1 5 -10 -4 -9 -3 -15 1 -12 5 3 26 -4 48 -14 61 -30 210 -37 325 -15 83
16 96 22 129 57 21 21 45 38 54 38 10 0 13 5 9 16 -4 10 -1 14 8 12 20 -4 69
36 69 57 0 9 11 26 24 36 25 20 38 60 25 80 -4 6 2 27 12 46 21 36 27 169 10
201 -5 9 -11 40 -14 68 -6 53 -25 104 -38 104 -5 0 -15 14 -24 30 -9 17 -22
30 -30 30 -8 0 -15 4 -15 9 0 21 -65 81 -87 81 -14 0 -21 4 -18 10 3 6 -5 10
-19 10 -14 0 -27 4 -31 9 -3 6 -18 16 -33 24 -34 16 -224 21 -261 6z"/>
<path d="M19812 14333 c-18 -2 -38 -13 -45 -24 -6 -10 -22 -19 -35 -19 -34 0
-62 -17 -101 -61 -19 -22 -41 -39 -49 -39 -7 0 -12 -6 -10 -12 3 -7 -6 -21
-19 -31 -13 -10 -23 -27 -23 -38 0 -10 -8 -27 -18 -37 -17 -17 -17 -20 -3 -30
15 -10 14 -11 -1 -11 -9 -1 -19 -5 -23 -10 -3 -6 -8 -63 -11 -128 -3 -65 -7
-124 -10 -131 -2 -7 1 -10 6 -7 6 4 10 -7 10 -24 0 -16 7 -36 15 -45 8 -8 15
-23 15 -33 0 -11 9 -29 20 -41 11 -12 20 -24 20 -26 0 -7 26 -39 63 -78 19
-20 35 -28 48 -25 10 3 17 1 14 -4 -11 -17 38 -51 93 -65 31 -8 59 -19 60 -24
2 -6 55 -10 118 -10 89 0 114 3 114 13 0 9 13 14 33 15 43 2 104 28 130 56 12
13 32 28 44 35 12 6 28 23 36 39 7 15 19 26 25 25 7 -2 12 6 12 18 0 15 5 19
15 15 11 -4 19 9 31 52 8 31 23 73 32 92 11 24 17 61 16 115 0 93 -5 124 -24
135 -7 4 -10 12 -6 18 3 6 2 12 -4 14 -5 1 -11 21 -14 43 -3 23 -13 47 -24 56
-11 8 -23 25 -26 37 -4 12 -14 22 -22 22 -8 0 -14 5 -14 10 0 6 -11 15 -25 20
-14 5 -25 16 -25 25 0 8 -9 15 -20 15 -11 0 -19 6 -17 13 1 7 -10 13 -25 15
-16 2 -28 7 -28 11 0 5 -9 11 -21 14 -12 3 -18 10 -15 15 3 5 -5 12 -17 14
-31 6 -253 7 -295 1z"/>
<path d="M18325 11900 c-16 -4 -24 -8 -17 -9 16 -1 -23 -41 -41 -41 -7 0 -18
-5 -25 -12 -7 -7 -12 -8 -12 -3 0 4 -9 0 -19 -9 -11 -10 -17 -24 -15 -31 3 -7
-6 -25 -20 -40 l-26 -28 0 -397 c0 -436 -2 -456 -57 -479 -19 -7 -147 -12
-388 -13 -374 -2 -462 -9 -492 -37 -10 -10 -22 -19 -28 -21 -5 -2 -24 -17 -42
-33 -23 -21 -33 -40 -38 -75 -13 -97 -3 -242 18 -242 5 0 27 -20 49 -45 22
-25 46 -45 53 -45 8 0 18 -7 23 -16 8 -14 56 -15 424 -14 l416 1 29 -25 28
-24 5 -422 c5 -388 6 -422 23 -431 9 -6 17 -18 17 -27 1 -17 53 -82 67 -82 3
0 15 -8 25 -17 10 -9 29 -18 41 -20 12 -1 41 -8 64 -14 43 -12 98 -5 88 10 -3
5 4 7 16 4 25 -7 119 36 119 54 0 7 9 17 20 23 11 6 20 20 20 30 0 11 5 19 12
18 21 -5 26 83 27 488 1 335 3 393 16 404 8 7 15 10 15 6 0 -4 13 0 30 9 25
13 90 15 429 15 342 0 402 2 415 15 8 8 21 15 30 15 27 0 67 52 62 80 -4 23
-3 23 10 6 15 -22 18 -17 29 49 4 22 13 48 22 57 12 14 13 23 3 55 -7 21 -16
46 -21 55 -5 10 -9 34 -9 53 0 19 -5 35 -10 35 -6 0 -30 19 -53 43 -22 23 -45
41 -50 39 -5 -1 -15 2 -22 8 -8 6 -150 12 -398 14 -213 3 -390 6 -394 9 -4 2
-19 7 -33 10 -14 4 -35 16 -48 27 -22 21 -22 21 -22 403 -1 372 -7 468 -29
475 -6 2 -9 7 -6 12 3 4 -10 22 -29 38 -19 17 -32 32 -30 35 3 2 -11 12 -30
21 -19 9 -36 21 -38 28 -5 14 -157 20 -203 8z"/>
<path d="M11615 11584 c-68 -7 -155 -26 -150 -34 2 -4 -37 -10 -87 -14 -65 -5
-98 -12 -114 -25 -17 -13 -50 -21 -111 -26 -49 -4 -92 -11 -98 -15 -5 -5 -14
-10 -20 -12 -5 -1 -9 -7 -7 -12 2 -5 -3 -4 -10 2 -9 7 -19 8 -28 2 -8 -6 -32
-10 -52 -10 -25 0 -45 -8 -64 -25 -15 -14 -35 -25 -46 -25 -11 0 -25 -13 -35
-34 -9 -19 -21 -32 -27 -30 -7 3 -18 -11 -25 -31 -7 -19 -17 -35 -23 -35 -5 0
-8 -6 -5 -14 3 -8 -1 -17 -9 -20 -9 -3 -13 -10 -9 -16 3 -5 -6 -19 -20 -32
-14 -12 -25 -29 -25 -38 0 -10 -10 -30 -22 -45 -12 -16 -23 -37 -23 -48 -1
-11 -12 -28 -23 -38 -12 -9 -22 -25 -22 -34 0 -9 -11 -31 -25 -49 -14 -18 -25
-37 -25 -42 0 -5 -11 -21 -25 -36 -14 -15 -25 -34 -25 -42 0 -8 -5 -18 -11
-21 -5 -4 -15 -17 -20 -28 -16 -36 -33 -63 -52 -81 -9 -10 -17 -24 -17 -31 0
-7 -11 -27 -25 -43 -14 -17 -25 -34 -24 -39 5 -27 -3 -53 -16 -53 -8 0 -15 -6
-15 -14 0 -8 -11 -27 -24 -43 -14 -16 -28 -42 -32 -57 -3 -15 -13 -30 -20 -33
-15 -5 -44 -58 -44 -80 0 -7 -4 -13 -10 -13 -5 0 -10 -6 -10 -13 0 -8 -9 -22
-20 -32 -11 -10 -20 -24 -20 -32 0 -7 -4 -13 -8 -13 -5 0 -15 -12 -22 -27 -8
-16 -19 -34 -24 -42 -6 -7 -11 -18 -12 -25 -16 -87 -19 -127 -13 -145 5 -11 6
-28 3 -36 -3 -8 6 -38 21 -67 33 -65 105 -118 168 -126 148 -17 182 -7 262 73
59 59 85 96 85 125 0 11 6 20 13 20 14 0 36 34 41 63 1 9 8 23 14 29 7 7 12
18 12 24 0 7 9 20 21 28 12 8 18 19 15 24 -3 6 1 13 10 16 9 3 14 12 11 20 -3
8 7 24 24 37 16 12 29 31 29 41 0 10 9 28 20 40 10 12 17 25 14 29 -3 5 7 21
21 36 14 16 30 45 36 66 5 21 16 40 24 43 8 3 24 25 35 47 22 45 33 64 65 114
18 29 25 33 65 33 62 0 92 -10 86 -26 -3 -8 10 -28 29 -46 19 -17 35 -36 35
-43 0 -6 10 -21 23 -33 45 -43 59 -61 61 -79 2 -10 10 -17 20 -15 9 2 16 -4
16 -13 0 -22 52 -95 68 -95 6 0 12 -7 12 -15 0 -8 4 -15 9 -15 5 0 11 -10 15
-23 3 -12 23 -36 45 -52 22 -17 39 -34 38 -39 -4 -12 56 -66 71 -66 6 0 18
-10 26 -21 13 -19 25 -22 98 -23 98 -1 168 5 168 15 0 4 20 22 44 40 34 24 46
39 48 63 2 21 8 30 18 29 23 -4 27 154 5 196 -9 18 -13 36 -10 41 3 6 2 10 -4
10 -5 0 -11 10 -13 23 -2 12 -9 21 -17 19 -7 -1 -15 7 -18 18 -3 11 -9 17 -14
14 -5 -3 -9 2 -9 10 0 9 -7 16 -15 16 -8 0 -15 5 -15 10 0 6 5 10 11 10 6 0
-3 12 -20 27 -17 15 -31 32 -31 38 0 5 -7 19 -16 30 -12 17 -16 18 -24 5 -7
-11 -10 -7 -16 16 -9 38 -47 94 -79 118 -14 10 -25 28 -25 38 0 11 -9 22 -19
25 -11 3 -24 19 -30 35 -7 19 -16 28 -25 25 -20 -8 -31 94 -11 105 8 5 20 14
27 21 31 29 81 45 163 52 33 2 61 9 63 15 2 5 11 10 20 10 10 0 30 14 46 30
16 16 32 27 37 24 4 -2 13 14 19 37 7 23 19 53 27 66 19 29 14 180 -6 193 -7
4 -13 10 -13 13 1 29 -29 68 -72 96 -47 31 -58 34 -136 36 -47 2 -103 1 -125
-1z"/>
<path d="M14163 11483 c-20 -3 -33 -10 -33 -19 0 -8 -10 -14 -25 -14 -14 0
-25 -4 -25 -10 0 -5 -6 -9 -12 -7 -7 1 -13 -7 -13 -18 0 -11 -5 -20 -10 -20
-18 0 -36 -16 -29 -26 3 -5 -4 -29 -16 -54 -21 -43 -21 -53 -18 -417 3 -329 5
-377 21 -410 9 -21 22 -38 27 -38 5 0 12 -11 16 -25 3 -14 12 -25 20 -25 8 0
14 -3 14 -7 0 -9 48 -39 105 -65 43 -21 102 -21 123 -1 7 7 24 13 37 13 13 0
32 3 42 7 16 6 15 8 -7 14 -24 7 -24 7 5 8 17 1 37 7 45 14 27 21 70 83 63 90
-3 4 -2 7 3 7 6 0 10 17 10 37 0 20 5 38 12 41 14 4 16 82 2 82 -6 0 -10 87
-10 240 0 153 4 240 10 240 6 0 10 29 10 66 0 41 -4 63 -10 59 -6 -4 -10 9
-10 32 0 55 -10 88 -22 71 -5 -8 -6 -3 -2 15 4 17 2 27 -5 27 -6 0 -16 11 -23
25 -6 13 -26 31 -44 40 -18 8 -36 20 -39 25 -3 6 -11 10 -16 10 -6 0 -7 -5 -4
-10 4 -7 -2 -9 -17 -6 -39 8 -141 13 -175 9z"/>
<path d="M15415 10343 c-11 -3 -23 -10 -27 -17 -6 -8 -10 -8 -15 0 -6 8 -17 5
-38 -8 -16 -10 -42 -24 -57 -30 -16 -7 -28 -18 -28 -25 0 -7 -7 -13 -16 -13
-8 0 -13 -4 -9 -9 3 -6 -2 -14 -10 -18 -9 -5 -16 -24 -17 -46 -1 -20 -5 -34
-9 -31 -17 10 -32 -94 -18 -121 3 -6 6 -23 7 -39 1 -17 5 -32 10 -35 4 -3 15
-23 24 -43 10 -21 23 -38 30 -38 7 0 21 -12 33 -26 22 -28 72 -39 180 -38 82
1 128 15 140 42 5 12 15 22 22 22 7 0 13 7 13 16 0 10 6 14 14 11 16 -6 46 48
46 83 0 11 4 19 9 15 5 -3 13 20 16 50 6 41 3 63 -9 89 -9 19 -16 38 -16 44 0
5 -7 16 -16 23 -9 7 -20 24 -25 37 -5 13 -18 26 -29 29 -11 3 -20 9 -20 14 0
5 -7 9 -15 9 -9 0 -18 7 -21 15 -4 8 -16 15 -28 15 -17 0 -18 2 -6 10 11 7 4
10 -27 10 -23 0 -47 2 -55 4 -7 2 -22 1 -33 -1z"/>
<path d="M4620 9622 c-30 -1 -62 -5 -70 -9 -8 -3 -22 -7 -30 -8 -49 -9 -120
-31 -120 -37 0 -5 -20 -8 -43 -8 -53 0 -215 -33 -248 -50 -16 -9 -24 -10 -27
-2 -2 8 -10 7 -25 -3 -12 -7 -53 -19 -92 -26 -38 -7 -73 -18 -77 -23 -5 -7
-11 -6 -18 4 -5 8 -10 10 -10 4 0 -6 -25 -14 -56 -17 -30 -3 -61 -11 -68 -16
-14 -12 -60 -21 -221 -47 -22 -3 -42 -10 -45 -14 -3 -4 -30 -10 -60 -13 -79
-8 -130 -18 -130 -26 0 -4 -8 -8 -17 -9 -10 -1 -27 -3 -38 -5 -23 -4 -138 -18
-172 -20 -13 -1 -23 -5 -23 -10 0 -5 -7 -7 -15 -3 -9 3 -15 0 -15 -8 0 -16
-43 -26 -111 -26 -28 0 -64 -8 -86 -19 -21 -11 -60 -22 -86 -25 -27 -3 -55
-12 -62 -20 -8 -8 -29 -17 -45 -21 -20 -4 -35 -16 -41 -32 -5 -13 -16 -31 -24
-39 -9 -10 -15 -34 -15 -64 0 -36 -5 -52 -17 -59 -10 -6 -13 -11 -7 -11 7 0
12 -10 12 -22 1 -52 22 -132 37 -141 9 -5 20 -20 26 -34 6 -17 14 -23 25 -19
8 3 17 -1 20 -9 4 -8 11 -15 16 -15 6 0 16 -7 22 -15 9 -12 34 -15 126 -15 63
1 124 1 134 1 11 0 29 5 40 12 26 14 120 35 161 36 17 1 40 8 51 16 13 9 49
15 93 16 52 1 83 8 118 25 25 13 80 28 122 34 42 5 101 17 131 25 30 9 78 18
105 19 28 1 61 9 75 17 14 7 34 14 45 15 39 2 150 27 160 35 5 5 28 9 50 9 23
0 55 7 72 15 16 8 46 16 66 17 20 2 39 9 42 16 2 6 12 12 20 12 9 0 13 -4 10
-10 -3 -5 -3 -10 2 -10 9 1 142 32 208 50 128 33 166 43 220 54 73 14 146 51
152 77 3 10 10 19 17 19 13 0 30 37 45 102 15 65 14 124 -4 142 -8 8 -15 25
-15 39 0 23 -79 117 -99 117 -5 0 -17 8 -26 17 -18 17 -57 21 -165 15z m-627
-679 c-7 -2 -21 -2 -30 0 -10 3 -4 5 12 5 17 0 24 -2 18 -5z"/>
<path d="M14178 9583 c-25 -3 -38 -9 -38 -19 0 -8 -10 -14 -24 -14 -24 0 -76
-41 -76 -60 0 -6 -4 -9 -10 -5 -5 3 -14 -14 -20 -37 -7 -24 -16 -51 -22 -61
-13 -25 -11 -733 3 -758 5 -11 6 -19 2 -19 -4 0 2 -6 12 -14 11 -8 16 -20 12
-29 -3 -9 -2 -19 3 -22 4 -3 11 1 13 7 3 7 6 -2 6 -19 1 -18 6 -33 12 -33 6 0
20 -11 30 -24 15 -19 36 -27 91 -36 141 -24 260 7 293 77 9 18 20 33 24 33 5
0 8 14 7 31 -1 16 1 32 6 35 4 3 8 45 8 94 0 58 4 90 12 92 9 3 9 29 0 109
-13 116 -13 369 0 369 14 0 8 64 -7 84 -8 11 -15 34 -15 50 0 24 -3 27 -10 16
-7 -11 -10 -8 -10 17 0 32 -55 107 -72 97 -4 -3 -8 0 -8 5 0 6 -15 11 -32 11
-22 0 -29 3 -20 9 30 19 -56 26 -170 14z"/>
<path d="M11625 9394 c-16 -2 -54 -7 -83 -10 -29 -3 -50 -9 -48 -12 2 -4 -21
-8 -52 -10 -65 -3 -201 -29 -217 -41 -5 -5 -53 -11 -105 -15 -77 -6 -102 -12
-132 -31 -29 -20 -51 -25 -97 -25 -33 0 -63 -5 -66 -11 -4 -6 -13 -8 -21 -5
-9 3 -11 0 -7 -11 4 -11 2 -14 -5 -9 -7 4 -17 4 -24 0 -6 -4 -32 -9 -57 -11
-25 -2 -50 -8 -55 -13 -5 -5 -15 -6 -22 -3 -8 3 -14 1 -14 -5 0 -6 6 -13 13
-15 6 -3 -20 -6 -60 -6 -42 -1 -77 -6 -85 -13 -33 -32 -50 -40 -95 -45 -26 -2
-50 -8 -53 -12 -9 -14 -48 -31 -69 -31 -12 0 -21 -4 -21 -8 0 -5 -19 -15 -42
-22 -24 -7 -50 -15 -58 -18 -8 -3 -23 -6 -33 -7 -10 -1 -28 -12 -41 -24 -13
-12 -35 -21 -54 -21 -17 0 -34 -4 -37 -10 -3 -5 -25 -14 -48 -20 -23 -6 -61
-20 -83 -30 -23 -10 -72 -25 -110 -34 -38 -8 -60 -15 -50 -15 28 -1 13 -12
-20 -15 -16 -1 -28 -8 -26 -14 1 -7 -2 -12 -8 -12 -5 0 -10 8 -10 17 0 15 -2
14 -15 -3 -8 -10 -15 -15 -15 -10 0 5 -7 3 -15 -4 -8 -7 -21 -10 -29 -7 -7 3
-24 0 -37 -7 -27 -14 -34 -16 -50 -16 -6 0 -9 -6 -6 -14 4 -9 -3 -16 -17 -20
-12 -3 -28 -17 -34 -31 -6 -14 -16 -25 -22 -25 -5 0 -10 -8 -10 -18 0 -10 -5
-23 -11 -29 -14 -14 -8 -231 7 -241 6 -4 19 -24 29 -44 13 -29 24 -39 51 -44
18 -3 38 -12 45 -20 6 -8 15 -11 20 -8 5 2 23 -3 40 -12 23 -11 44 -14 76 -9
24 3 41 10 38 15 -3 4 3 6 13 3 10 -2 60 9 112 26 51 17 99 31 106 31 7 0 29
9 49 20 20 11 49 20 66 20 20 0 28 4 23 11 -5 8 1 10 20 7 18 -4 33 2 51 18
16 15 44 26 76 30 28 4 56 13 64 20 7 8 22 14 32 14 36 0 94 21 90 33 -2 7 16
17 46 25 27 7 63 19 81 26 17 8 47 19 66 25 19 5 53 17 75 25 22 8 57 15 78
16 20 0 37 4 37 10 0 17 72 42 135 47 33 3 67 10 75 16 35 27 62 37 107 37 27
0 53 6 63 15 10 9 44 16 94 18 53 3 81 9 87 18 6 10 9 10 9 2 0 -7 7 -13 15
-13 8 0 15 3 15 8 0 19 153 52 246 52 19 0 45 5 57 12 12 7 45 13 72 14 75 2
104 13 146 55 22 22 43 39 49 39 5 0 12 11 16 24 3 14 11 27 18 29 17 7 16
224 -1 235 -6 4 -14 19 -18 33 -4 16 -19 32 -41 42 -19 9 -34 21 -34 27 0 5
-9 10 -19 10 -10 0 -22 7 -25 16 -3 8 -10 13 -15 9 -5 -3 -12 -1 -15 3 -5 9
-115 13 -171 6z"/>
<path d="M15410 9104 c-8 -1 -32 -5 -52 -9 -21 -3 -37 -11 -35 -17 1 -6 -11
-14 -26 -19 -29 -8 -70 -51 -74 -78 -1 -9 -7 -17 -12 -19 -6 -2 -11 -10 -11
-19 0 -8 -9 -28 -20 -43 -20 -29 -21 -38 -20 -1398 1 -996 -2 -1375 -10 -1393
-6 -14 -25 -30 -42 -37 -20 -7 -29 -16 -25 -26 3 -8 -2 -16 -11 -20 -16 -5
-36 -17 -70 -41 -8 -5 -26 -22 -40 -37 -15 -16 -30 -28 -34 -28 -12 0 -48 -38
-48 -51 0 -5 -4 -7 -10 -4 -5 3 -10 1 -10 -4 0 -6 -7 -11 -15 -11 -8 0 -19 -9
-25 -20 -6 -11 -17 -20 -25 -20 -7 0 -16 -9 -20 -19 -3 -11 -16 -23 -28 -27
-25 -8 -47 -28 -47 -43 0 -6 -6 -11 -14 -11 -7 0 -25 -11 -40 -25 -15 -14 -33
-25 -41 -25 -8 0 -12 -6 -9 -14 3 -8 -4 -16 -18 -20 -19 -5 -20 -8 -8 -16 13
-8 12 -10 -4 -10 -27 0 -56 -29 -49 -48 4 -13 3 -14 -5 -3 -8 11 -12 10 -20
-5 -6 -10 -14 -16 -17 -12 -4 4 -18 -6 -32 -22 -13 -16 -34 -32 -46 -36 -12
-3 -35 -22 -50 -40 -16 -19 -32 -34 -37 -34 -8 0 -26 -15 -95 -81 -12 -10 -29
-19 -38 -19 -10 0 -15 -4 -12 -10 3 -5 1 -10 -4 -10 -6 0 -11 -7 -11 -15 0 -8
-9 -15 -20 -15 -11 0 -20 -5 -20 -11 0 -14 -47 -59 -60 -59 -13 0 -44 -49 -36
-57 3 -4 0 -16 -7 -27 -8 -12 -17 -32 -20 -46 -4 -14 -7 -350 -7 -747 0 -562
-3 -725 -13 -735 -33 -35 -55 -71 -51 -82 3 -8 -2 -16 -10 -19 -9 -4 -13 -13
-10 -20 3 -9 -3 -16 -15 -20 -12 -3 -21 -13 -21 -25 0 -11 -7 -23 -16 -26 -8
-3 -12 -10 -9 -16 3 -5 1 -10 -5 -10 -7 0 -9 -7 -6 -16 4 -10 0 -18 -13 -21
-11 -3 -25 -19 -31 -36 -6 -17 -20 -42 -33 -56 -16 -18 -18 -23 -6 -18 13 4
16 1 12 -13 -3 -10 -10 -17 -16 -14 -7 2 -21 -11 -33 -28 -49 -78 -58 -93 -56
-100 1 -5 -3 -8 -8 -8 -6 0 -10 -6 -10 -13 0 -8 -9 -25 -21 -38 -11 -13 -18
-31 -16 -41 4 -13 -1 -18 -14 -18 -13 0 -22 -12 -30 -40 -7 -22 -16 -40 -21
-40 -4 0 -9 -12 -9 -27 l-1 -28 -7 30 c-7 28 -8 27 -15 -18 -6 -38 -11 -47
-23 -43 -12 5 -14 1 -11 -19 4 -18 0 -26 -13 -30 -11 -4 -19 -16 -19 -28 0
-17 -2 -19 -9 -8 -7 11 -12 4 -21 -27 -6 -25 -17 -42 -25 -42 -8 0 -15 -4 -15
-8 0 -16 -71 -31 -96 -22 -13 5 -24 13 -25 17 0 5 -2 19 -3 31 -2 13 3 30 10
37 11 11 14 186 14 944 0 619 -3 931 -10 931 -5 0 -10 9 -10 20 0 11 5 20 10
20 6 0 10 47 10 123 0 82 -3 117 -10 107 -8 -12 -10 -10 -10 10 -1 58 -51 167
-71 154 -5 -3 -15 6 -24 20 -13 19 -28 26 -78 32 -140 16 -212 2 -265 -52 -18
-19 -37 -34 -41 -34 -11 0 -21 -25 -21 -54 0 -12 -8 -33 -17 -46 -17 -24 -18
-150 -21 -2265 -3 -2541 -9 -2338 77 -2430 24 -26 55 -48 72 -52 16 -3 29 -9
29 -14 0 -5 10 -10 23 -10 17 -1 18 -2 4 -6 -41 -11 1 -23 79 -23 64 0 86 4
90 14 3 8 19 20 35 26 16 7 29 17 29 22 0 6 7 7 16 4 13 -5 15 -2 11 14 -3 11
-2 18 2 16 11 -7 41 32 41 53 0 10 7 24 15 31 9 8 15 30 15 56 0 24 5 44 10
44 7 0 10 231 10 700 -1 543 2 703 12 719 20 33 67 49 177 59 66 7 107 15 112
24 7 10 9 10 9 -2 0 -9 3 -11 8 -5 4 6 22 12 41 13 18 1 41 6 50 11 23 12 171
44 201 44 60 -1 70 -4 87 -30 17 -25 18 -82 23 -808 5 -720 7 -783 23 -825 10
-25 29 -56 43 -71 13 -14 24 -30 24 -36 0 -6 16 -14 35 -17 26 -5 39 -14 46
-33 9 -25 11 -25 100 -21 74 2 92 6 100 21 6 9 14 15 19 12 4 -3 10 2 14 10 3
8 12 15 21 15 8 0 15 6 15 14 0 8 8 13 18 12 9 0 17 6 17 14 0 8 8 18 18 22 9
4 17 16 17 27 0 11 4 22 9 25 5 3 9 17 9 32 0 14 5 30 12 34 15 9 15 193 0
198 -13 5 -13 242 0 242 6 0 10 18 10 40 0 22 -4 40 -10 40 -5 0 -10 18 -10
40 0 22 4 40 9 40 5 0 12 13 16 30 4 16 11 30 16 30 5 0 9 6 9 14 0 17 45 32
120 40 30 3 60 11 65 18 6 7 28 14 50 16 22 1 72 12 110 24 39 12 105 23 148
26 56 2 77 7 74 16 -3 6 3 12 12 13 82 8 165 24 211 42 30 11 65 21 76 21 12
0 27 6 33 14 7 8 27 22 46 31 19 9 35 22 35 30 0 7 6 20 14 27 7 8 20 45 29
84 13 59 13 78 2 129 -7 33 -14 62 -15 65 -1 3 -2 8 -2 11 1 4 -7 5 -18 2 -15
-4 -18 -1 -13 19 3 12 2 20 -2 16 -5 -5 -16 6 -26 22 -11 17 -27 30 -39 30
-11 0 -20 5 -20 10 0 6 -3 9 -7 8 -5 -1 -17 3 -28 9 -31 16 -146 16 -179 -2
-15 -8 -53 -15 -82 -15 -30 0 -54 -4 -54 -9 0 -6 -19 -11 -42 -13 -28 -2 -42
-7 -40 -16 3 -16 -15 -16 -21 1 -4 9 -7 9 -14 0 -5 -7 -38 -14 -80 -15 -39 -2
-66 -6 -60 -10 16 -10 -37 -28 -84 -28 -21 0 -39 -4 -39 -9 0 -5 -29 -12 -64
-16 -80 -9 -131 12 -122 50 7 29 -2 57 -16 48 -7 -4 -9 6 -5 28 16 85 20 169
8 169 -17 0 -14 79 4 96 8 9 15 25 15 36 0 26 36 58 67 58 12 0 23 4 23 10 0
5 7 7 16 3 10 -4 22 1 29 10 11 15 47 23 194 42 19 2 37 8 40 13 3 5 42 12 86
16 44 3 105 16 135 27 30 12 82 23 115 25 33 2 76 7 95 10 30 6 32 8 15 14
l-20 9 20 2 c153 15 202 25 238 51 17 12 27 16 23 9 -14 -22 24 3 72 47 23 22
42 47 42 56 0 9 5 16 11 16 15 0 39 26 39 44 0 8 5 18 10 21 6 4 8 11 5 16 -4
5 -2 9 2 9 5 0 14 13 20 30 6 17 18 30 26 30 8 0 22 21 32 47 10 27 24 52 32
56 7 4 13 17 13 28 0 11 5 17 10 14 6 -3 10 2 10 12 0 10 9 35 19 55 11 19 17
39 13 43 -4 4 0 6 8 3 8 -3 26 3 39 13 42 34 119 21 104 -17 -6 -17 -5 -17 10
-5 15 12 17 11 17 -6 0 -10 -5 -24 -11 -30 -13 -13 -16 -2052 -3 -2062 5 -3
10 -15 12 -26 2 -11 4 -27 5 -35 3 -19 37 -70 47 -70 4 0 22 -13 40 -30 18
-16 43 -30 56 -30 13 0 24 -4 24 -9 0 -5 25 -12 56 -16 56 -7 124 13 124 35 0
6 8 10 18 10 10 0 28 9 40 20 12 11 25 20 30 20 13 0 42 45 42 65 0 8 5 15 11
15 6 0 8 9 4 21 -5 16 -4 19 5 14 7 -4 16 -1 21 6 5 8 9 970 9 2195 l0 2181
23 24 c29 31 70 36 94 11 13 -14 33 -20 73 -21 70 -1 106 -8 150 -29 37 -17
46 -18 147 -20 44 -2 62 -6 60 -14 -1 -8 21 -15 68 -20 103 -12 176 -28 170
-38 -7 -11 41 -21 123 -25 37 -1 85 -11 107 -20 35 -15 149 -36 211 -39 12 -1
20 -6 17 -12 -3 -7 32 -15 100 -22 68 -6 114 -16 131 -27 15 -10 44 -19 64
-21 83 -7 148 -17 157 -24 6 -5 33 -11 60 -15 78 -10 147 -25 182 -41 17 -8
41 -14 54 -14 42 0 144 -22 218 -48 52 -18 96 -26 143 -26 37 0 68 -4 68 -8 0
-4 9 -8 19 -8 11 0 33 -14 48 -30 l29 -31 3 -1171 c2 -986 5 -1174 17 -1183 7
-5 20 -28 27 -50 8 -22 24 -45 35 -51 12 -6 19 -14 16 -17 -14 -14 19 -36 61
-43 29 -4 46 -12 50 -23 4 -14 16 -17 65 -16 33 1 63 5 67 9 3 3 15 6 25 6 10
0 18 4 18 8 0 5 18 15 40 22 22 7 40 19 40 25 0 14 31 44 45 44 5 0 11 5 14
12 2 8 -2 10 -13 6 -9 -4 -16 -2 -16 3 0 6 6 10 14 10 8 0 18 14 22 32 3 18
12 42 19 53 9 15 12 314 14 1280 3 1141 1 1264 -13 1299 -9 22 -17 58 -18 80
-1 48 -13 76 -32 76 -8 0 -21 16 -30 35 -9 19 -23 35 -31 35 -8 0 -15 4 -15 9
0 5 -9 13 -20 16 -11 4 -18 10 -15 15 2 4 -11 18 -30 31 -19 13 -35 27 -35 32
0 4 -7 7 -15 7 -8 0 -19 8 -24 19 -6 10 -21 21 -34 25 -13 3 -29 17 -35 31 -6
14 -20 25 -29 25 -18 0 -49 37 -45 53 1 4 -4 7 -11 7 -6 0 -46 29 -87 65 -103
90 -100 87 -147 119 -23 15 -44 34 -47 42 -3 7 -12 11 -21 8 -11 -5 -14 -2 -9
10 4 9 1 16 -6 16 -7 0 -25 14 -41 31 -17 18 -35 29 -43 26 -10 -4 -13 -1 -10
8 4 8 -6 20 -25 29 -17 9 -41 27 -55 41 -16 15 -31 22 -41 19 -11 -5 -15 -2
-13 7 3 16 -31 59 -47 59 -5 0 -23 16 -40 35 -16 19 -37 35 -47 35 -9 0 -20 9
-23 21 -4 12 -13 18 -20 15 -8 -3 -17 3 -20 15 -4 10 -10 19 -15 19 -5 0 -20
11 -34 25 -14 14 -30 25 -36 25 -5 0 -10 4 -10 9 0 5 -9 13 -20 16 -11 4 -18
10 -15 14 2 5 -6 13 -20 19 -33 15 -65 44 -65 59 0 7 -5 13 -11 13 -5 0 -24
13 -42 30 -18 16 -36 30 -41 30 -5 0 -17 9 -27 21 -10 11 -23 18 -28 14 -6 -3
-11 1 -11 10 0 21 -30 31 -42 14 -8 -11 -9 -10 -4 4 9 28 -11 57 -40 57 -18 0
-25 4 -21 14 6 14 -62 76 -82 76 -6 0 -11 6 -11 14 0 11 -57 53 -80 60 -3 0
-34 29 -69 63 -36 35 -71 63 -79 63 -7 0 -11 4 -8 8 5 9 -46 52 -63 52 -5 0
-12 7 -15 16 -4 9 -9 14 -12 11 -7 -7 -44 29 -44 43 0 6 -9 10 -20 10 -11 0
-20 4 -20 10 0 5 -11 12 -25 16 -14 3 -25 12 -25 20 0 8 -8 14 -17 15 -15 0
-15 2 2 9 19 7 19 8 -5 18 -14 5 -32 17 -39 26 -7 9 -20 16 -29 16 -8 0 -27
13 -41 28 -14 15 -48 46 -76 67 -63 50 -85 71 -85 85 0 6 -13 13 -30 17 -16 3
-30 9 -30 14 0 5 -10 9 -22 9 -15 0 -19 3 -11 8 9 6 4 15 -18 33 -16 13 -46
38 -66 55 -66 59 -73 64 -83 64 -5 0 -14 9 -20 20 -6 11 -16 20 -23 20 -6 0
-23 14 -38 31 -18 22 -38 32 -67 36 -25 3 -39 10 -35 16 4 7 -24 8 -87 4 -54
-3 -96 -11 -100 -18 -4 -6 -16 -8 -27 -5 -14 5 -23 -1 -33 -19 -7 -13 -16 -22
-20 -20 -5 3 -11 -2 -14 -11 -3 -9 -13 -14 -21 -10 -9 3 -19 -3 -25 -14 -6
-11 -17 -20 -24 -20 -7 0 -18 -11 -24 -25 -7 -14 -19 -28 -28 -32 -9 -3 -36
-26 -60 -50 -24 -23 -51 -43 -60 -43 -8 0 -14 -6 -11 -12 4 -14 -21 -37 -40
-38 -7 0 -23 -10 -36 -22 -33 -33 -80 -68 -89 -68 -5 0 -13 -11 -18 -25 -5
-14 -16 -25 -25 -25 -8 0 -15 -4 -15 -9 0 -5 -9 -11 -20 -14 -11 -3 -20 -11
-20 -19 0 -7 -18 -23 -41 -36 -26 -15 -39 -29 -35 -38 3 -8 0 -14 -7 -14 -7 0
-33 -20 -59 -44 -26 -24 -60 -46 -75 -49 -39 -7 -73 12 -80 45 -3 15 -9 25
-14 22 -13 -8 -11 10 3 24 10 10 10 17 0 32 -7 12 -8 20 -2 20 16 0 9 2092 -7
2098 -7 2 -13 17 -13 33 0 19 -5 29 -15 29 -8 0 -15 8 -15 17 0 27 -68 83
-102 83 -21 0 -31 6 -35 20 -3 11 -13 21 -22 21 -47 5 -78 5 -91 3z m1385
-2430 c14 -9 25 -23 25 -30 0 -8 5 -14 11 -14 6 0 38 -22 71 -50 33 -27 66
-50 74 -50 8 0 14 -6 14 -12 0 -7 18 -26 40 -42 22 -17 40 -33 40 -38 0 -4 7
-8 15 -8 8 0 15 -6 15 -13 0 -8 11 -19 25 -25 14 -6 25 -17 25 -23 0 -6 6 -9
12 -7 7 3 17 -5 23 -16 6 -12 20 -22 31 -24 11 -2 28 -16 37 -32 11 -18 23
-27 32 -24 8 4 18 -1 21 -10 3 -9 12 -16 20 -16 8 0 11 -6 7 -16 -4 -11 -2
-15 7 -12 7 2 28 -11 46 -29 18 -18 38 -33 45 -33 6 0 9 -7 5 -15 -3 -9 0 -15
9 -15 8 0 20 -9 27 -19 8 -11 22 -21 33 -23 11 -1 22 -12 25 -23 3 -11 14 -20
24 -20 9 0 22 -8 27 -18 6 -9 18 -17 27 -17 13 0 14 -2 4 -9 -10 -6 -5 -10 17
-14 20 -4 35 -15 40 -29 9 -21 44 -58 57 -58 12 0 63 -44 59 -50 -3 -4 3 -7
13 -6 9 0 21 -9 27 -21 5 -13 16 -23 23 -23 8 0 28 -14 45 -30 78 -75 116
-107 132 -113 9 -4 13 -11 10 -17 -3 -5 1 -10 9 -10 9 0 16 -7 16 -15 0 -10
11 -15 35 -15 26 0 33 -3 29 -15 -4 -10 0 -15 15 -15 12 0 21 -5 21 -11 0 -5
-5 -7 -12 -3 -7 4 -8 3 -4 -4 4 -6 13 -9 20 -6 8 3 21 -7 32 -25 10 -17 23
-30 29 -27 5 2 18 -1 28 -6 20 -10 24 -90 5 -105 -7 -5 -50 -9 -96 -9 -68 1
-85 4 -93 19 -8 13 -23 17 -72 17 -69 0 -176 22 -186 38 -4 6 -42 13 -86 16
-79 6 -139 20 -162 38 -6 5 -24 7 -40 5 -27 -4 -107 14 -148 33 -11 6 -61 14
-112 20 -91 10 -143 25 -143 42 0 4 -24 8 -52 8 -49 0 -166 22 -213 41 -11 4
-49 10 -84 13 -36 3 -72 13 -81 21 -8 8 -24 14 -35 14 -60 -2 -126 5 -131 12
-3 5 -14 9 -24 9 -10 0 -20 5 -22 12 -2 6 -31 13 -69 15 -41 3 -59 1 -51 -5
10 -6 -1 -11 -35 -15 -26 -3 -59 -8 -73 -12 -14 -4 -56 -9 -94 -12 -48 -4 -74
-11 -87 -24 -17 -17 -47 -23 -111 -22 -10 0 -18 -4 -18 -9 0 -4 -8 -7 -17 -6
-25 3 -93 -13 -93 -21 0 -4 -18 -7 -39 -7 -36 0 -41 4 -55 36 -25 60 -30 163
-10 210 10 22 21 40 26 40 4 0 8 8 9 18 0 10 3 12 6 4 3 -8 14 -4 33 15 91 89
107 103 117 103 6 0 13 4 15 8 4 11 137 122 146 122 4 0 16 7 27 16 17 13 18
16 5 24 -12 8 -11 10 6 10 11 0 29 10 40 21 10 12 29 25 42 30 13 5 20 14 17
20 -4 6 2 13 14 16 11 3 23 14 26 24 4 11 10 17 15 14 4 -3 19 8 32 23 13 16
29 27 36 24 7 -2 12 1 12 7 0 6 6 11 14 11 7 0 21 11 30 25 9 14 23 25 31 25
8 0 22 11 31 25 9 14 21 22 27 18 6 -4 8 0 5 9 -4 10 6 22 33 37 27 15 39 29
39 44 0 16 3 18 9 9 7 -11 9 -11 14 2 4 9 13 16 21 16 8 0 19 7 23 15 10 18
101 65 126 65 10 0 29 -7 42 -16z m-676 -1620 c12 -28 13 -814 1 -814 -5 0
-10 -9 -12 -21 -3 -23 -78 -55 -104 -45 -8 3 -14 2 -14 -2 0 -4 -14 -8 -32 -9
-17 -1 -34 -7 -38 -13 -3 -6 -44 -13 -91 -16 -88 -6 -149 -20 -149 -34 0 -9
-40 -17 -125 -26 -33 -3 -73 -12 -90 -19 -35 -15 -89 -26 -159 -31 -27 -1 -52
-8 -56 -13 -8 -13 -98 -31 -156 -31 -24 0 -53 -4 -66 -9 -41 -17 -63 -24 -71
-25 -4 -1 -11 -6 -15 -11 -4 -6 -29 -11 -57 -13 -60 -2 -165 -23 -165 -33 0
-3 -11 -4 -25 -1 -16 3 -25 0 -25 -8 0 -7 -8 -10 -20 -7 -11 3 -23 1 -26 -4
-8 -14 -24 -10 -24 6 0 8 -7 15 -15 15 -8 0 -15 -5 -15 -11 0 -6 -8 -1 -19 12
-10 13 -16 30 -13 38 4 11 1 13 -13 7 -17 -6 -18 -1 -9 101 5 60 9 225 10 368
3 337 9 375 60 375 13 0 24 5 24 10 0 6 6 10 14 10 8 0 16 5 18 11 2 6 31 12
63 14 101 5 210 29 200 44 -2 5 27 8 65 7 39 0 70 1 70 4 0 15 120 47 165 44
54 -3 125 11 125 25 0 10 70 27 150 36 30 3 59 10 65 15 6 5 36 12 66 15 100
11 173 26 180 36 3 5 36 11 75 14 38 3 90 11 117 16 26 6 54 9 62 5 8 -3 17
-1 20 4 8 13 41 -9 54 -36z m-402 -1516 c5 -7 14 -30 21 -52 9 -31 8 -41 -4
-53 -7 -8 -14 -26 -14 -39 0 -14 -4 -23 -9 -20 -12 8 -28 -13 -36 -47 -4 -16
-14 -31 -21 -34 -16 -6 -54 -68 -54 -89 0 -8 -4 -14 -10 -14 -5 0 -10 -8 -10
-18 0 -10 -8 -27 -19 -38 -10 -11 -22 -30 -25 -42 -4 -12 -14 -22 -21 -22 -8
0 -17 -15 -21 -37 -4 -20 -18 -47 -32 -60 -14 -12 -25 -33 -26 -45 -1 -13 -7
-22 -14 -21 -6 2 -21 -15 -32 -37 -26 -52 -105 -134 -120 -125 -6 4 -17 1 -25
-5 -8 -7 -15 -9 -15 -5 0 5 -8 1 -17 -7 -12 -10 -49 -18 -103 -22 -83 -7 -144
-21 -171 -42 -8 -6 -50 -12 -94 -13 -47 -2 -86 -8 -95 -16 -18 -15 -117 -40
-148 -36 -12 1 -36 -4 -53 -13 -16 -8 -36 -13 -44 -10 -7 3 -16 1 -20 -5 -3
-6 -40 -11 -86 -11 -64 0 -83 -4 -98 -19 -20 -20 -116 -40 -209 -43 -66 -3
-99 23 -87 69 5 15 9 31 9 35 1 4 8 16 17 26 9 10 24 34 35 53 10 19 26 44 36
57 9 13 14 31 10 44 -4 17 -2 20 12 15 11 -4 15 -3 11 4 -4 6 2 13 14 16 12 3
21 11 21 17 0 17 24 66 32 66 4 0 19 24 32 53 14 29 34 62 46 74 11 12 31 47
46 77 14 30 37 67 50 81 13 14 27 37 30 50 8 32 114 75 184 75 28 0 50 4 50
10 0 5 7 7 16 3 8 -3 25 -1 37 5 43 20 91 32 132 32 44 0 115 24 115 39 0 4
29 9 65 10 36 1 78 6 93 12 15 6 29 11 32 11 3 0 10 2 15 3 32 10 78 18 135
24 36 5 61 9 55 10 -11 3 74 29 115 36 14 2 48 5 77 6 29 1 50 5 48 10 -15 22
125 39 142 17z m-1507 -608 c0 -5 -5 -10 -11 -10 -5 0 -7 5 -4 10 3 6 8 10 11
10 2 0 4 -4 4 -10z m1717 -202 c-3 -8 -6 -5 -6 6 -1 11 2 17 5 13 3 -3 4 -12
1 -19z m-940 -64 c-3 -3 -12 -4 -19 -1 -8 3 -5 6 6 6 11 1 17 -2 13 -5z m4663
-599 c0 -8 -4 -15 -10 -15 -5 0 -7 7 -4 15 4 8 8 15 10 15 2 0 4 -7 4 -15z"/>
<path d="M6160 8683 c0 -5 -16 -7 -35 -5 -19 2 -35 0 -35 -4 0 -5 -44 -10 -98
-12 -53 -1 -113 -7 -132 -12 -19 -6 -91 -10 -159 -10 -98 0 -126 -3 -135 -15
-6 -8 -25 -17 -42 -18 -17 -2 -35 -7 -41 -10 -5 -3 -40 -7 -79 -8 -63 -2 -127
-14 -210 -40 -17 -5 -49 -9 -72 -9 -23 0 -42 -4 -42 -9 0 -5 -22 -12 -50 -16
-27 -4 -50 -11 -50 -16 0 -5 -29 -9 -65 -9 -43 0 -67 -4 -72 -14 -13 -21 -49
-36 -88 -36 -20 0 -53 -9 -75 -20 -22 -11 -53 -20 -70 -20 -17 0 -38 -4 -48
-9 -52 -26 -96 -41 -125 -42 -28 0 -84 -17 -64 -18 4 -1 0 -9 -10 -20 -10 -10
-39 -21 -65 -24 -26 -4 -56 -11 -65 -16 -29 -14 -126 -58 -156 -70 -16 -6 -33
-8 -39 -5 -6 4 -13 2 -17 -3 -13 -19 -78 -52 -116 -58 -52 -8 -95 -25 -95 -36
0 -5 -11 -9 -25 -9 -14 0 -42 -7 -61 -15 -20 -8 -40 -13 -44 -10 -4 3 -13 -2
-20 -10 -7 -8 -17 -12 -22 -9 -6 4 -14 1 -18 -6 -4 -6 -31 -13 -61 -15 -30 -3
-55 -9 -57 -15 -2 -5 -7 -8 -12 -5 -4 3 -27 -2 -51 -9 -24 -8 -78 -20 -119
-26 -41 -6 -77 -15 -80 -21 -6 -9 -20 -12 -130 -24 -30 -4 -73 -13 -96 -21
-22 -9 -44 -14 -50 -13 -5 1 -25 -1 -44 -5 -19 -4 -69 -11 -110 -16 -131 -15
-226 -44 -200 -60 12 -7 11 -10 -4 -16 -22 -8 -70 -55 -71 -69 0 -5 -7 -35
-14 -66 -7 -31 -11 -71 -8 -90 14 -83 26 -123 41 -131 10 -5 21 -21 27 -35 6
-16 14 -23 24 -19 8 3 15 0 15 -7 0 -7 29 -21 65 -32 40 -12 60 -22 52 -27 -6
-4 12 -8 41 -8 31 0 51 4 47 9 -8 15 58 25 230 38 51 3 94 11 100 18 10 12
200 48 242 46 12 0 25 4 28 9 3 6 23 10 43 11 65 1 147 23 147 39 0 8 9 15 20
15 11 0 19 6 17 13 -1 6 2 12 8 12 5 0 10 -4 10 -10 0 -6 10 -6 27 1 14 5 33
9 42 7 19 -2 92 20 105 33 6 5 20 9 33 9 28 0 144 37 157 51 6 5 17 9 25 9 9
0 29 7 44 15 15 8 43 17 62 21 19 3 32 10 29 15 -3 5 13 9 35 9 22 0 42 4 46
9 10 17 67 41 96 41 15 0 31 4 34 10 7 12 58 34 113 49 23 7 42 16 42 22 0 6
5 7 10 4 6 -3 15 -3 22 1 7 4 25 9 41 11 16 2 43 14 59 28 23 20 41 25 80 25
30 0 58 6 67 14 20 18 195 62 284 71 52 6 67 11 67 24 0 14 2 14 10 1 8 -13
10 -13 10 1 0 21 29 29 108 29 38 0 62 4 62 11 0 6 6 9 13 6 7 -3 21 1 32 9
10 8 38 14 61 14 24 0 45 4 48 9 4 5 34 10 69 10 34 0 77 5 96 11 39 11 177
20 363 23 103 2 130 6 146 20 16 15 46 17 265 17 208 0 248 -2 261 -15 12 -12
46 -17 143 -20 223 -7 353 -17 359 -26 3 -5 61 -9 130 -9 68 0 124 -4 124 -9
0 -12 131 -16 558 -16 320 0 374 2 382 15 9 13 11 13 20 0 6 -9 13 -11 18 -5
4 6 16 12 27 13 11 2 27 10 36 18 8 8 20 14 26 14 6 0 13 9 16 20 3 11 11 20
19 20 7 0 22 20 33 45 11 25 23 45 27 45 4 0 7 37 7 82 0 54 -3 77 -9 68 -8
-13 -10 -12 -10 2 0 9 5 18 12 20 6 2 0 15 -15 31 -15 14 -27 33 -27 40 0 8
-11 22 -25 31 -13 9 -35 28 -50 43 -14 15 -25 24 -25 19 0 -5 -7 -3 -15 4 -12
10 -18 10 -30 0 -11 -9 -15 -10 -15 -1 0 8 -8 10 -20 6 -11 -3 -20 -3 -20 2 0
4 -179 7 -397 5 -403 -3 -591 7 -618 34 -7 8 -71 14 -186 17 -96 3 -198 11
-228 17 -29 7 -69 10 -87 7 -19 -3 -34 -1 -34 4 0 5 -17 10 -37 10 -21 0 -179
3 -350 5 -172 3 -313 1 -313 -3z m-12 -560 c-10 -2 -28 -2 -40 0 -13 2 -5 4
17 4 22 1 32 -1 23 -4z m-2235 -550 c-7 -2 -19 -2 -25 0 -7 3 -2 5 12 5 14 0
19 -2 13 -5z"/>
<path d="M18895 8263 c-22 -2 -45 -9 -51 -14 -8 -7 -14 -6 -17 3 -4 10 -7 11
-18 1 -7 -7 -21 -13 -31 -13 -10 0 -18 -4 -18 -9 0 -5 -13 -14 -30 -20 -16 -5
-30 -15 -30 -21 0 -6 -6 -10 -12 -8 -21 4 -60 -23 -54 -37 3 -9 0 -12 -9 -9
-19 8 -55 -31 -62 -68 -5 -27 -7 -29 -14 -13 -7 20 -7 20 -14 0 -3 -11 -15
-39 -26 -63 -11 -24 -17 -47 -14 -52 3 -5 -1 -27 -8 -48 -13 -38 -16 -159 -5
-192 2 -8 8 -36 13 -63 4 -26 11 -50 16 -53 5 -3 9 -16 9 -30 0 -18 5 -24 23
-24 18 0 19 -2 7 -10 -8 -5 -10 -10 -4 -10 7 0 19 -16 28 -35 13 -27 23 -35
44 -36 15 0 21 -3 14 -6 -20 -8 55 -73 84 -73 13 0 24 -4 24 -9 0 -5 10 -11
23 -13 12 -2 21 -8 20 -15 -1 -6 15 -13 35 -16 59 -10 292 -3 300 8 11 16 60
45 76 45 7 0 16 7 20 15 3 8 11 15 18 15 17 0 78 54 78 69 0 6 5 10 12 9 6 -2
14 5 16 15 2 11 11 28 20 38 10 11 16 33 15 52 -2 26 -1 28 6 12 5 -11 11 -15
12 -10 1 6 3 15 4 20 2 6 3 17 4 25 1 12 3 12 10 1 14 -21 23 69 20 196 -3 82
-7 117 -16 120 -7 3 -13 14 -13 25 0 10 -4 16 -10 13 -5 -3 -10 3 -10 15 0 23
-19 61 -37 73 -7 4 -10 14 -7 22 4 10 0 15 -15 15 -13 0 -21 7 -22 18 0 11 -2
13 -6 4 -4 -10 -9 -7 -17 9 -6 12 -26 29 -43 38 -18 9 -33 21 -33 26 0 9 -73
48 -95 51 -5 0 -12 2 -15 3 -22 11 -148 20 -195 14z m-345 -703 c0 -5 -2 -10
-4 -10 -3 0 -8 5 -11 10 -3 6 -1 10 4 10 6 0 11 -4 11 -10z"/>
<path d="M11702 8053 c-43 -2 -70 -8 -67 -13 6 -9 -19 -15 -55 -12 -8 0 -59
-10 -113 -23 -54 -14 -123 -25 -154 -26 -30 -1 -71 -10 -91 -21 -21 -10 -66
-23 -102 -29 -36 -6 -85 -16 -110 -24 -25 -8 -81 -19 -125 -26 -44 -7 -82 -15
-85 -19 -3 -4 -52 -12 -110 -19 -57 -7 -117 -19 -132 -27 -15 -8 -35 -15 -45
-15 -10 -1 -2 -5 17 -10 31 -7 28 -7 -20 -6 -72 2 -183 -13 -191 -25 -7 -11
-149 -29 -161 -22 -5 3 -8 1 -8 -4 0 -5 -19 -12 -41 -15 -23 -3 -45 -10 -48
-15 -3 -6 -45 -13 -94 -16 -48 -3 -97 -12 -110 -20 -27 -18 -175 -48 -190 -39
-5 3 -16 -2 -24 -12 -9 -13 -13 -15 -13 -5 0 11 -3 11 -12 2 -7 -7 -31 -12
-55 -12 -24 0 -43 -4 -43 -10 0 -5 -23 -10 -51 -10 -33 0 -63 -7 -83 -19 -20
-12 -57 -21 -104 -23 -48 -3 -78 -11 -90 -21 -12 -11 -34 -16 -62 -15 -26 1
-45 -3 -48 -10 -2 -7 -18 -12 -35 -12 -18 -1 -59 -7 -92 -15 -33 -8 -81 -15
-106 -15 -25 0 -54 -7 -65 -15 -10 -8 -31 -15 -46 -15 -15 0 -30 -5 -33 -10
-4 -6 -14 -8 -23 -6 -24 8 -78 -9 -74 -23 3 -15 -15 -14 -21 2 -4 8 -8 8 -14
2 -8 -11 -25 -14 -85 -20 -20 -2 -45 -8 -55 -13 -10 -5 -38 -13 -63 -18 -52
-9 -50 -9 -72 -18 -9 -4 -21 -5 -27 -2 -14 9 -63 -12 -56 -24 3 -5 -1 -10 -9
-10 -9 0 -16 -4 -16 -10 0 -5 -11 -12 -25 -16 -14 -3 -25 -13 -25 -21 0 -8
-13 -28 -30 -45 -29 -29 -30 -32 -30 -125 0 -103 -4 -94 83 -185 15 -16 27
-34 27 -39 0 -5 9 -9 20 -9 12 0 20 -7 20 -17 0 -9 3 -13 6 -10 4 3 16 1 27
-5 35 -18 143 -21 179 -4 48 23 129 46 161 46 19 0 27 5 27 18 0 10 3 13 8 7
9 -13 72 -16 72 -4 0 5 13 9 29 9 16 0 46 7 66 16 21 9 54 17 74 19 20 2 74 8
121 14 46 6 89 11 95 12 5 0 1 4 -10 9 -17 7 -15 9 11 9 38 1 208 35 246 50
14 5 49 11 77 13 33 2 53 8 56 18 5 11 8 12 14 2 6 -10 17 -9 52 6 24 10 81
22 127 25 46 4 95 13 110 20 44 23 96 37 139 37 22 0 58 7 79 16 21 9 69 18
108 21 39 3 80 11 91 17 18 12 97 26 217 41 27 4 49 12 52 20 3 8 14 15 24 15
10 0 22 3 26 8 4 4 42 8 83 9 42 1 79 6 82 11 3 5 35 13 71 17 36 5 74 9 85
11 11 1 28 3 38 3 10 1 15 6 12 11 -3 6 4 10 17 10 13 0 34 6 48 13 14 7 58
14 99 15 41 1 77 6 81 11 10 17 61 32 160 47 52 8 118 18 145 24 28 5 70 12
95 15 77 11 90 15 90 31 0 9 6 14 13 11 35 -13 188 29 209 58 5 6 8 5 8 -4 0
-11 3 -11 15 -1 9 7 14 19 11 27 -5 11 18 19 47 14 4 0 7 6 7 15 0 9 10 30 23
47 18 27 23 48 26 126 2 72 0 97 -11 105 -7 6 -18 29 -23 50 -7 26 -16 40 -28
42 -10 1 -26 12 -36 23 -10 12 -32 24 -49 27 -17 3 -33 12 -36 20 -3 8 -9 13
-13 12 -4 -1 -41 -4 -81 -5z"/>
<path d="M14175 7683 c-11 -3 -24 -11 -28 -19 -4 -8 -16 -14 -27 -14 -10 0
-25 -7 -34 -15 -8 -8 -19 -15 -25 -15 -6 0 -14 -12 -17 -27 -6 -24 -8 -25 -14
-8 -5 13 -10 0 -20 -44 -7 -34 -17 -64 -21 -67 -5 -3 -9 -172 -9 -375 0 -358
1 -371 21 -412 12 -23 32 -51 45 -62 13 -11 24 -28 24 -37 0 -20 29 -38 59
-38 12 0 21 -4 21 -10 0 -34 146 -55 176 -25 8 8 33 19 54 25 22 6 40 15 40
20 0 5 9 11 19 15 12 4 18 12 14 21 -3 8 1 14 10 14 8 0 17 7 20 14 4 11 1 13
-11 10 -9 -3 -6 1 7 9 14 9 25 26 27 42 2 16 8 31 15 36 7 4 9 17 5 33 -3 14
-3 26 1 26 11 0 6 243 -8 380 -9 85 -9 115 0 118 6 2 11 10 11 18 0 9 -5 12
-11 9 -7 -5 -10 22 -9 82 1 118 -1 133 -11 133 -5 0 -9 -5 -9 -12 0 -6 -3 -8
-6 -5 -4 4 -1 14 6 23 11 13 11 17 1 24 -8 4 -11 12 -7 18 9 15 -37 62 -61 62
-12 0 -31 12 -42 26 -18 23 -28 26 -103 29 -46 2 -92 1 -103 -2z m12 -1149
c-3 -3 -12 -4 -19 -1 -8 3 -5 6 6 6 11 1 17 -2 13 -5z m60 0 c-3 -3 -12 -4
-19 -1 -8 3 -5 6 6 6 11 1 17 -2 13 -5z"/>
<path d="M3155 6875 c-5 -2 -27 -6 -47 -10 -22 -3 -38 -12 -38 -19 0 -8 -12
-16 -27 -20 -16 -3 -39 -16 -53 -29 -31 -29 -54 -67 -40 -67 5 0 10 -5 10 -11
0 -5 -4 -7 -10 -4 -5 3 -10 -2 -10 -12 0 -10 -7 -31 -15 -46 -12 -24 -14 -349
-15 -2462 0 -1593 3 -2435 10 -2435 5 0 7 -6 4 -14 -3 -7 2 -16 11 -20 9 -3
14 -10 11 -15 -7 -11 22 -71 34 -71 5 0 15 -12 22 -26 25 -50 196 -82 287 -53
54 17 65 24 77 47 6 12 14 19 17 16 4 -4 9 1 13 10 3 9 12 16 19 16 8 0 19 27
29 69 14 61 16 331 15 2482 0 1328 -1 2423 -2 2434 -2 11 -6 26 -11 33 -4 6
-5 16 -1 21 3 5 -1 15 -8 23 -8 7 -12 19 -9 26 2 7 -5 12 -17 12 -12 0 -21 5
-21 10 0 6 6 10 12 10 7 0 1 8 -12 17 -14 10 -28 17 -32 15 -5 -1 -8 4 -8 11
0 6 -5 19 -10 27 -9 13 -11 13 -20 0 -8 -13 -10 -12 -10 3 0 9 -3 17 -7 18
-43 4 -64 7 -98 12 -22 4 -44 5 -50 2z"/>
<path d="M440 6795 c-19 -9 -38 -21 -42 -28 -5 -8 -8 -6 -8 7 0 12 -5 16 -16
12 -9 -3 -23 -6 -32 -6 -14 0 -14 -2 -3 -9 10 -7 6 -11 -17 -16 -17 -3 -36
-13 -43 -21 -6 -8 -17 -14 -25 -14 -17 0 -57 -57 -49 -70 8 -13 -8 -13 -21 0
-7 7 -18 -7 -35 -40 -13 -27 -27 -50 -31 -50 -4 0 -10 -17 -14 -37 -4 -21 -13
-44 -21 -51 -7 -7 -13 -25 -14 -40 0 -15 -5 -36 -10 -47 -9 -19 -9 -18 -5 3 2
12 0 22 -5 22 -5 0 -9 -39 -9 -86 0 -53 4 -83 10 -79 6 3 7 -1 4 -9 -3 -9 -1
-16 5 -16 7 0 9 -10 5 -26 -4 -17 -3 -25 3 -21 10 7 22 -11 47 -75 8 -21 20
-38 25 -38 6 0 11 -8 11 -18 0 -22 31 -50 49 -44 9 3 11 0 7 -7 -10 -16 9 -38
50 -57 19 -9 34 -22 34 -29 0 -13 30 -25 68 -25 12 0 22 -4 22 -10 0 -5 8 -10
18 -10 10 0 23 -5 29 -11 14 -14 227 -24 219 -11 -3 6 4 12 17 15 47 11 127
44 120 50 -3 4 -1 7 6 7 19 0 101 62 101 76 0 6 11 19 25 28 14 9 25 23 25 31
0 8 4 15 10 15 5 0 20 35 34 78 14 42 25 71 26 63 0 -8 3 -11 6 -8 4 4 1 14
-7 23 -11 13 -11 18 -1 21 15 6 17 163 2 163 -5 0 -10 14 -10 31 0 44 -40 149
-56 149 -8 0 -11 6 -7 16 7 19 -88 114 -115 114 -9 0 -26 11 -36 25 -10 14
-25 25 -32 25 -8 0 -14 4 -14 8 0 12 -114 35 -195 39 -48 2 -81 -2 -105 -12z"/>
<path d="M6266 6769 c-32 -5 -66 -15 -75 -23 -9 -7 -52 -17 -96 -20 -44 -4
-84 -11 -90 -15 -5 -5 -34 -11 -64 -14 -30 -4 -57 -10 -60 -15 -3 -5 -42 -14
-86 -20 -106 -14 -149 -23 -155 -32 -3 -3 -52 -16 -110 -29 -58 -12 -124 -27
-148 -33 -23 -6 -45 -8 -48 -6 -6 7 -135 -27 -164 -42 -11 -6 -49 -13 -83 -15
-74 -4 -127 -15 -127 -25 0 -9 -49 -23 -90 -26 -88 -6 -160 -18 -150 -24 21
-13 -7 -21 -47 -15 -29 5 -34 4 -23 -4 11 -8 7 -9 -17 -5 -47 9 -84 -2 -76
-23 5 -12 2 -15 -10 -10 -9 3 -23 0 -31 -8 -8 -8 -18 -15 -21 -15 -10 0 -44
-43 -45 -56 0 -6 -7 -17 -15 -24 -8 -7 -15 -25 -15 -40 0 -14 -3 -30 -7 -34
-28 -28 -32 -143 -32 -1023 l-1 -902 25 -55 c14 -30 25 -73 25 -96 0 -33 4
-43 20 -47 11 -3 20 -11 20 -18 0 -16 64 -55 91 -55 11 0 18 -4 14 -9 -7 -12
7 -14 109 -14 52 0 81 4 84 11 2 7 10 12 18 12 8 0 14 4 14 9 0 5 14 11 30 15
23 4 34 14 42 37 8 23 13 27 19 17 7 -10 9 -8 10 7 1 11 1 26 0 33 -1 6 3 12
10 12 6 0 9 6 6 14 -3 8 -1 16 5 18 8 3 13 45 15 119 2 64 7 115 13 117 6 2
10 14 10 27 0 19 8 26 38 34 20 6 56 11 79 11 23 0 43 5 45 12 4 10 28 14 128
18 32 2 33 3 10 9 -20 6 -15 8 29 13 29 3 57 11 61 17 4 7 9 12 11 10 19 -12
198 25 252 53 10 5 21 7 25 5 4 -3 45 2 92 9 47 8 100 17 119 20 18 2 43 11
55 19 29 21 73 19 87 -4 8 -11 19 -16 31 -13 13 3 17 0 12 -11 -3 -8 -1 -18 5
-21 7 -5 11 -118 12 -334 0 -180 1 -336 1 -347 2 -104 -26 -157 -94 -177 -21
-6 -38 -15 -38 -20 0 -4 -19 -8 -42 -8 -27 0 -38 -3 -30 -9 8 -5 -21 -10 -72
-14 -47 -3 -102 -13 -121 -22 -19 -10 -47 -18 -62 -20 -96 -9 -131 -18 -126
-32 5 -12 -5 -14 -53 -13 -33 1 -61 1 -64 0 -3 -1 -29 -3 -58 -6 -29 -2 -62
-10 -75 -18 -25 -15 -117 -39 -138 -35 -21 4 -79 -11 -79 -20 0 -5 -22 -9 -49
-9 -49 -2 -145 -23 -178 -40 -10 -5 -57 -13 -105 -17 -49 -4 -91 -11 -94 -16
-3 -5 -28 -21 -55 -34 -33 -17 -49 -32 -49 -44 0 -11 -9 -23 -21 -26 -16 -6
-20 -13 -17 -36 3 -16 1 -29 -3 -29 -3 0 -9 -9 -12 -21 -3 -12 -9 -19 -14 -16
-5 3 -10 -2 -12 -11 -2 -9 -5 -566 -7 -1236 -3 -889 -1 -1223 7 -1233 7 -8 8
-13 1 -13 -15 0 -3 -36 19 -56 11 -10 19 -30 19 -48 0 -23 10 -41 39 -68 21
-21 42 -38 46 -38 4 0 14 -8 21 -17 11 -15 13 -15 14 -3 0 13 1 13 10 0 14
-23 193 -20 238 3 17 10 32 22 32 27 0 6 6 10 14 10 8 0 20 13 27 29 9 19 16
26 21 19 4 -7 10 0 14 17 4 16 13 40 20 54 11 20 14 105 14 387 0 314 2 365
16 394 9 18 25 35 35 37 11 3 19 8 19 12 0 3 29 6 64 6 61 0 112 17 128 41 5
7 37 12 75 13 80 1 133 10 133 22 0 5 22 9 48 9 27 0 62 7 79 15 16 8 43 16
59 17 16 1 35 6 41 11 7 5 30 10 51 11 30 2 47 11 80 43 23 22 42 48 42 56 0
9 10 23 22 31 17 12 24 29 28 75 3 33 3 68 -1 78 -4 10 -3 23 1 28 5 6 -5 29
-21 53 -16 23 -29 47 -29 53 0 19 -65 69 -98 75 -18 4 -36 12 -38 18 -6 16
-174 22 -174 6 0 -5 -11 -10 -24 -10 -14 0 -27 -4 -30 -9 -3 -4 -34 -11 -68
-13 -35 -3 -81 -15 -103 -26 -23 -11 -62 -20 -93 -21 -29 -1 -75 -10 -102 -21
-69 -27 -87 -25 -105 9 -8 16 -20 31 -26 33 -12 4 -14 750 -3 816 8 41 30 53
117 62 38 5 72 12 76 18 9 14 79 32 128 32 23 0 44 4 47 9 7 11 63 21 156 28
41 2 81 10 89 16 34 28 168 62 206 51 14 -4 16 -3 7 4 -10 6 3 11 39 16 30 4
57 12 60 18 4 6 31 11 62 12 91 2 119 -37 118 -166 0 -64 4 -86 25 -129 27
-53 57 -89 74 -89 6 0 10 -4 10 -10 0 -5 10 -10 23 -10 13 0 32 -7 43 -15 25
-19 179 -22 171 -2 -3 8 7 13 31 14 22 1 42 10 52 21 8 10 23 22 33 25 9 4 17
13 17 22 0 8 7 15 15 15 8 0 15 8 16 18 0 9 3 28 6 42 8 34 15 3601 7 3620 -3
8 -8 30 -10 48 -2 20 -14 44 -29 58 -14 13 -24 28 -20 33 3 5 -4 12 -15 16
-11 3 -20 11 -20 16 0 5 -9 9 -20 9 -11 0 -20 5 -20 11 0 7 -13 9 -37 5 -21
-3 -31 -3 -23 1 8 3 20 11 26 17 13 14 -57 16 -140 5z m62 -26 c-15 -2 -42 -2
-60 0 -18 2 -6 4 27 4 33 0 48 -2 33 -4z m-1851 -495 c-3 -8 -6 -5 -6 6 -1 11
2 17 5 13 3 -3 4 -12 1 -19z m1526 -103 c16 -4 27 -14 27 -24 0 -9 5 -22 11
-28 10 -10 15 -755 4 -772 -3 -5 -2 -16 1 -25 9 -22 -37 -63 -80 -71 -20 -4
-36 -11 -36 -16 0 -5 -24 -9 -54 -9 -30 0 -57 -4 -60 -9 -3 -5 -36 -12 -73
-16 -38 -4 -75 -13 -84 -22 -9 -8 -41 -16 -70 -18 -75 -4 -129 -14 -164 -30
-16 -7 -59 -16 -95 -20 -73 -7 -135 -26 -120 -35 6 -4 -4 -7 -22 -7 -18 0 -65
-5 -105 -11 -81 -13 -99 -10 -109 21 -4 12 -14 30 -24 39 -14 13 -16 25 -10
60 5 23 7 46 4 49 -2 3 -4 158 -4 343 l-1 337 30 30 c22 20 41 29 64 29 19 0
48 7 65 16 17 8 48 18 69 21 21 3 42 11 46 17 6 8 10 7 14 -1 2 -7 11 -13 19
-13 9 0 13 4 10 9 -3 5 9 11 27 15 17 3 55 11 82 16 28 6 72 13 98 16 27 2 69
12 95 21 50 17 103 29 193 42 30 5 64 13 75 18 10 6 24 8 31 6 7 -2 22 1 35 8
13 8 26 13 30 14 3 0 9 3 12 6 7 7 30 5 69 -6z m-646 -1081 c-3 -3 -12 -4 -19
-1 -8 3 -5 6 6 6 11 1 17 -2 13 -5z m946 -2291 c-13 -2 -33 -2 -45 0 -13 2 -3
4 22 4 25 0 35 -2 23 -4z"/>
<path d="M11621 6441 c-8 -5 -20 -7 -28 -4 -7 3 -13 -2 -13 -11 0 -14 -14 -16
-95 -16 -52 0 -95 -4 -95 -8 0 -13 -48 -32 -80 -32 -17 0 -30 -4 -30 -9 0 -5
-26 -7 -59 -5 -46 4 -62 1 -76 -12 -19 -19 -71 -33 -165 -43 -36 -3 -75 -12
-86 -18 -19 -11 -100 -20 -187 -22 -16 -1 -26 -5 -23 -10 8 -13 -91 -39 -151
-40 -47 -1 -105 -20 -104 -35 2 -16 0 -18 -12 -7 -8 6 -16 8 -20 5 -3 -3 -37
-8 -77 -10 -39 -3 -89 -12 -112 -20 -22 -7 -45 -11 -51 -7 -6 3 -7 1 -3 -5 5
-8 -4 -12 -26 -13 -84 -1 -117 -6 -132 -22 -9 -9 -36 -25 -59 -35 -52 -24 -97
-62 -97 -83 0 -9 -11 -26 -25 -39 l-24 -23 -1 -1268 c0 -772 -4 -1278 -10
-1294 -10 -26 -23 -31 -109 -39 -29 -3 -58 -12 -65 -20 -6 -7 -36 -19 -66 -26
-76 -16 -128 -41 -134 -65 -3 -11 -14 -30 -26 -42 -11 -12 -20 -36 -20 -53 0
-16 -5 -30 -10 -30 -7 0 -9 -13 -6 -32 3 -18 8 -63 11 -100 5 -51 10 -68 21
-68 9 0 12 -4 9 -10 -11 -17 45 -80 71 -80 13 0 24 -4 24 -9 0 -33 216 -39
280 -8 21 11 58 17 99 17 39 0 78 6 95 15 15 8 33 15 39 15 5 0 15 7 22 17 8
10 17 13 26 8 29 -19 153 2 171 28 3 6 51 15 107 20 56 6 101 14 101 18 0 4
25 10 55 13 30 3 80 9 110 12 30 3 53 9 51 13 -7 11 73 31 163 40 56 6 87 14
92 23 5 8 23 15 42 16 19 1 54 6 78 12 79 20 123 28 194 35 39 3 82 12 97 20
62 30 83 29 111 -8 l26 -34 5 -534 c3 -294 8 -554 12 -578 7 -47 35 -88 53
-77 6 4 9 1 6 -6 -6 -16 53 -65 91 -74 16 -4 39 -14 51 -21 12 -8 31 -12 43
-9 11 3 30 9 41 12 14 4 19 2 15 -5 -4 -6 -3 -11 2 -11 6 0 12 6 15 14 3 7 22
16 41 20 20 4 36 11 36 16 0 6 9 10 20 10 11 0 23 7 26 15 4 8 12 15 19 15 13
0 30 28 26 43 -1 5 8 20 19 34 20 26 20 33 20 2174 0 1517 -3 2149 -11 2149
-6 0 -8 8 -4 18 3 11 -1 32 -10 48 -8 16 -15 35 -15 42 0 7 -11 17 -25 22 -14
5 -25 16 -25 25 0 10 -14 17 -40 21 -22 4 -37 10 -35 14 3 4 -2 11 -11 14 -24
9 -167 7 -183 -3z m-194 -664 c9 -25 12 -145 13 -399 1 -445 2 -410 -10 -403
-5 3 -10 -1 -10 -9 0 -22 -59 -76 -76 -69 -8 3 -14 1 -14 -4 0 -4 -37 -9 -82
-11 -60 -2 -86 -7 -95 -18 -11 -14 -43 -22 -123 -28 -19 -2 -48 -9 -65 -15
-16 -7 -50 -14 -75 -17 -113 -9 -151 -16 -164 -30 -8 -8 -24 -14 -34 -14 -11
0 -22 -5 -24 -10 -2 -6 -39 -12 -83 -14 -48 -2 -92 -10 -110 -20 -61 -33 -129
-12 -145 44 -6 20 -10 194 -10 409 0 361 1 375 21 411 27 47 72 66 163 69 39
1 82 9 97 17 16 8 40 14 54 14 28 0 125 24 160 40 11 5 57 12 102 15 57 3 92
11 116 25 19 11 51 21 71 22 20 1 36 4 36 8 0 4 24 8 53 8 28 1 77 10 107 21
71 25 109 13 127 -42z m-16 -1447 c9 -11 19 -17 22 -13 7 6 8 -26 8 -336 1
-168 -2 -216 -13 -222 -10 -7 -10 -9 0 -9 6 0 12 -4 12 -10 0 -5 -7 -10 -15
-10 -8 0 -15 -8 -15 -19 0 -29 -27 -44 -92 -52 -33 -4 -63 -12 -67 -17 -3 -5
-25 -9 -49 -8 -24 0 -46 -4 -50 -10 -4 -6 -23 -11 -42 -11 -60 1 -142 -14
-156 -27 -7 -7 -45 -16 -83 -20 -39 -4 -71 -11 -71 -17 0 -5 -15 -9 -33 -9
-19 0 -37 -3 -40 -6 -4 -4 -23 -8 -44 -10 -46 -4 -127 -22 -168 -36 -85 -30
-148 -19 -177 33 -16 27 -18 62 -18 295 0 169 4 264 10 264 6 0 10 7 10 15 0
8 7 15 15 15 8 0 15 6 15 13 0 22 57 37 198 51 18 2 41 11 51 20 9 9 30 16 44
16 15 0 27 5 27 12 0 8 3 9 10 2 11 -11 91 -3 155 16 22 7 76 15 120 18 52 5
79 11 78 18 -1 7 13 15 32 18 19 4 35 11 35 15 0 4 39 9 87 10 57 1 92 6 102
15 35 30 74 28 102 -4z"/>
<path d="M1011 6424 c0 -11 3 -14 6 -6 3 7 2 16 -1 19 -3 4 -6 -2 -5 -13z"/>
<path d="M8923 5648 c-15 -5 -34 -6 -41 -3 -7 2 -22 1 -35 -4 -63 -25 -135
-41 -183 -41 -40 0 -62 -6 -90 -25 -28 -19 -51 -25 -98 -26 -74 -2 -87 -4
-106 -11 -73 -28 -113 -38 -153 -38 -27 0 -67 -9 -90 -19 -25 -11 -78 -21
-132 -25 -65 -5 -93 -11 -102 -23 -14 -18 -76 -32 -149 -33 -45 0 -104 -17
-104 -30 0 -3 -23 -7 -50 -8 -28 -1 -81 -12 -118 -24 -37 -12 -71 -21 -76 -20
-5 2 -16 0 -25 -4 -9 -3 -36 -8 -61 -11 -25 -2 -48 -10 -52 -17 -4 -7 -21 -19
-38 -26 -16 -7 -30 -16 -30 -19 0 -4 -9 -17 -20 -29 -74 -79 -82 -216 -21
-321 15 -25 37 -51 49 -57 12 -6 31 -19 42 -29 11 -10 30 -19 43 -21 12 -1 42
-5 67 -9 55 -8 198 10 219 29 19 16 118 36 178 36 32 0 43 4 43 15 0 18 16 20
24 3 5 -10 7 -10 12 0 3 7 25 12 55 12 27 0 49 4 49 8 0 5 12 8 28 7 15 -1 34
2 42 6 25 13 114 38 130 37 52 -3 110 4 122 15 18 18 83 35 153 41 33 3 75 13
93 22 18 9 49 16 68 16 19 0 37 4 40 9 3 6 12 5 20 -2 11 -9 18 -9 26 -1 7 7
24 12 38 12 14 0 31 5 38 12 6 6 49 13 94 16 58 3 91 10 109 23 22 15 78 29
184 44 11 2 22 4 25 4 3 1 -2 6 -10 11 -11 7 -7 10 18 10 21 0 32 5 32 15 0 8
11 22 25 31 14 9 25 23 25 30 0 8 4 14 10 14 5 0 17 16 25 36 17 41 21 189 5
199 -5 3 -10 15 -10 25 0 11 -5 17 -12 15 -8 -3 -21 12 -32 35 -11 22 -25 40
-32 40 -7 0 -30 11 -50 25 -30 20 -40 23 -52 13 -11 -10 -17 -9 -26 5 -13 17
-76 20 -133 5z"/>
<path d="M8985 4369 c-145 -6 -269 -25 -259 -40 3 -5 -1 -6 -9 -3 -8 3 -61 -7
-118 -21 -57 -15 -142 -31 -188 -35 -46 -5 -87 -13 -90 -17 -12 -18 -67 -33
-124 -34 -32 -1 -73 -9 -91 -18 -17 -9 -52 -18 -76 -19 -25 -2 -47 -7 -51 -13
-3 -5 -13 -7 -22 -3 -9 3 -31 -2 -49 -11 -18 -9 -62 -18 -98 -21 -117 -9 -150
-15 -150 -27 0 -7 -8 -13 -17 -14 -10 0 -29 -4 -43 -7 -14 -4 -47 -9 -73 -12
-27 -2 -65 -11 -86 -20 -20 -8 -60 -16 -89 -17 -34 -1 -56 -7 -62 -17 -5 -8
-15 -15 -22 -16 -32 -2 -77 -30 -82 -50 -3 -12 -20 -36 -36 -54 -17 -18 -29
-39 -26 -47 3 -7 2 -13 -2 -13 -5 0 -6 -16 -4 -36 3 -24 0 -39 -9 -45 -12 -7
-12 -9 0 -9 9 0 12 -8 8 -26 -2 -14 4 -43 14 -64 11 -22 19 -43 19 -47 1 -17
48 -61 76 -70 16 -6 28 -16 26 -22 -2 -13 29 -15 183 -12 73 2 117 7 131 16
22 14 101 33 169 41 78 9 106 15 101 22 -3 5 32 9 77 11 66 2 86 6 103 22 17
16 43 22 120 28 68 6 112 15 142 30 27 14 63 22 100 23 34 0 69 8 87 18 19 11
61 19 112 23 64 4 88 10 113 28 25 19 48 25 113 29 74 4 77 5 37 11 l-45 6 42
1 c23 1 45 -3 48 -8 4 -6 11 -8 16 -4 6 4 6 11 -2 20 -7 9 -8 14 -1 14 6 0 12
-5 14 -10 2 -7 20 -7 53 1 28 6 74 16 103 22 35 8 52 16 52 27 0 12 2 12 9 2
7 -11 9 -11 14 2 4 9 15 16 26 16 11 0 22 9 26 19 3 11 12 22 20 25 8 3 15 12
15 21 0 8 6 15 13 15 6 0 18 18 25 40 14 47 16 186 2 195 -5 3 -10 15 -10 26
0 10 -6 19 -13 19 -7 0 -21 13 -30 30 -10 16 -33 37 -52 46 -19 8 -35 21 -37
27 -2 9 -41 10 -143 6z"/>
<path d="M1480 4263 c-8 -3 -17 -9 -20 -12 -3 -4 -30 -19 -60 -34 -53 -25 -71
-37 -128 -84 -15 -13 -30 -23 -34 -23 -5 0 -8 -7 -8 -15 0 -8 -9 -19 -20 -25
-11 -6 -17 -16 -14 -25 4 -8 1 -15 -5 -15 -6 0 -11 -7 -11 -15 0 -8 -9 -24
-19 -34 -13 -13 -16 -21 -8 -24 7 -2 2 -12 -13 -25 -24 -19 -25 -26 -28 -140
-3 -113 -2 -121 18 -140 14 -13 21 -28 18 -40 -3 -12 2 -23 13 -31 11 -6 18
-14 18 -19 -3 -19 2 -33 10 -28 5 3 12 -1 15 -10 3 -8 2 -12 -4 -9 -6 3 -7 -1
-4 -9 3 -9 10 -16 15 -16 5 0 9 -4 9 -10 0 -19 44 -60 64 -60 12 0 26 -10 31
-22 11 -25 64 -57 83 -50 6 2 12 -1 12 -7 0 -6 6 -11 14 -11 8 0 16 -5 18 -11
2 -7 52 -11 143 -12 128 -2 144 0 190 22 28 13 55 24 61 25 18 3 44 27 44 41
0 7 12 18 28 24 15 7 38 27 52 46 14 19 30 33 36 31 11 -4 42 46 47 79 12 66
21 101 28 105 21 14 3 241 -22 260 -3 3 -9 23 -12 45 -4 22 -11 41 -17 43 -5
2 -10 12 -10 23 0 10 -4 19 -10 19 -12 0 -50 37 -50 48 0 30 -113 94 -198 112
-28 7 -50 15 -47 20 3 4 -2 11 -11 14 -20 7 -194 6 -214 -1z"/>
<path d="M17845 4033 c-11 -3 -26 -10 -32 -15 -9 -7 -13 -7 -13 1 0 6 -8 3
-18 -6 -9 -10 -29 -26 -42 -35 -21 -15 -23 -19 -10 -27 13 -9 13 -11 -2 -11
-11 0 -18 -8 -18 -20 0 -10 -8 -23 -17 -29 -16 -9 -18 -35 -20 -278 -3 -297 3
-393 23 -393 7 0 14 -10 16 -22 2 -13 8 -23 13 -23 6 0 20 -10 33 -23 13 -13
37 -28 53 -34 16 -5 29 -16 29 -24 0 -20 178 -20 186 0 3 8 18 16 34 19 16 4
31 14 34 24 3 10 19 24 36 31 18 8 30 21 30 33 0 10 5 19 10 19 6 0 10 6 10
14 0 8 6 17 13 20 9 5 9 7 0 12 -9 4 -9 13 -2 32 6 15 9 139 8 307 l-1 280
-25 29 c-13 16 -22 35 -19 42 3 8 -13 22 -42 36 -26 13 -51 29 -55 35 -11 18
-30 16 -23 -2 6 -17 -5 -20 -20 -5 -11 11 -137 21 -169 13z"/>
<path d="M8490 3021 c0 -5 6 -12 13 -14 7 -3 5 -6 -5 -6 -10 -1 -18 4 -18 9 0
14 -143 13 -157 -1 -8 -8 -13 -8 -17 0 -4 6 -14 11 -22 11 -8 0 -12 -4 -9 -10
5 -8 -14 -14 -36 -12 -4 1 -22 -3 -40 -9 -19 -6 -43 -11 -54 -13 -11 -2 -36
-8 -55 -14 -19 -6 -61 -13 -92 -16 -47 -3 -62 -10 -86 -34 -17 -17 -33 -28
-36 -24 -7 6 -41 -37 -41 -53 0 -5 -9 -23 -20 -39 -10 -16 -22 -54 -26 -85 -9
-70 -11 -2347 -3 -2418 5 -35 11 -53 20 -53 8 0 14 -9 14 -19 0 -11 5 -23 11
-26 6 -4 8 -13 5 -20 -5 -15 24 -45 44 -45 7 0 10 -3 7 -7 -9 -9 13 -34 24
-27 5 3 9 0 9 -5 0 -6 15 -12 33 -12 17 -1 24 -3 15 -6 -10 -2 -18 -8 -18 -12
0 -13 54 -21 131 -21 55 0 69 3 69 15 0 8 8 15 18 15 13 0 14 2 4 9 -10 6 -5
10 15 14 39 8 76 45 107 106 l26 51 0 1057 c0 810 3 1066 13 1093 16 47 43 84
56 76 5 -4 27 3 48 14 25 13 47 18 66 14 20 -4 27 -2 27 9 0 9 13 18 29 22 18
4 41 21 57 43 15 20 31 39 35 42 4 3 11 47 16 98 7 74 6 95 -4 104 -9 7 -12
21 -8 37 4 21 -2 36 -30 68 -20 23 -41 41 -48 39 -7 -1 -8 -1 -4 2 13 7 -14
32 -34 32 -11 0 -19 4 -19 9 0 5 -7 11 -15 15 -8 3 -15 1 -15 -3z"/>
<path d="M17854 2344 c4 -10 -4 -14 -30 -14 -27 0 -43 -9 -74 -39 -22 -22 -40
-46 -40 -55 0 -8 -8 -19 -17 -25 -16 -8 -17 -37 -18 -324 0 -336 4 -366 49
-368 18 -1 18 -2 -4 -9 -25 -8 -25 -8 -3 -15 13 -4 20 -12 16 -21 -3 -8 1 -14
10 -14 8 0 17 -6 20 -14 3 -8 26 -18 51 -21 25 -4 46 -11 46 -16 0 -5 34 -9
75 -9 60 0 73 3 69 14 -4 11 3 13 37 9 30 -4 40 -3 35 5 -4 7 -1 12 8 12 40 0
83 40 77 73 -1 5 7 20 18 35 17 25 18 46 16 336 -3 346 -6 361 -75 407 -19 13
-37 26 -40 29 -15 18 -78 32 -150 34 -65 3 -80 1 -76 -10z"/>
<path d="M10383 1979 c-13 -5 -23 -13 -23 -19 0 -5 -7 -10 -15 -10 -9 0 -18
-7 -21 -15 -4 -8 -12 -15 -19 -15 -14 0 -25 -22 -25 -51 0 -11 -12 -31 -27
-45 l-28 -26 1 -771 c0 -425 2 -780 4 -789 2 -10 7 -18 12 -18 4 0 15 -18 24
-39 8 -22 22 -42 30 -45 8 -3 14 -12 14 -19 0 -9 16 -17 41 -21 44 -7 68 -24
61 -44 -3 -9 16 -12 72 -12 42 0 76 4 76 9 0 5 9 7 20 4 15 -4 19 -1 15 9 -6
15 32 38 62 38 9 0 13 6 9 15 -4 10 1 15 15 15 15 0 19 5 15 15 -3 8 -1 15 5
15 20 0 51 39 48 62 -1 12 1 30 4 38 4 8 5 368 4 800 -1 597 -5 790 -14 805
-7 11 -13 17 -13 13 0 -4 -15 9 -34 27 -18 19 -38 35 -45 35 -6 0 -21 11 -32
24 -20 23 -28 25 -118 24 -53 0 -106 -4 -118 -9z"/>
<path d="M9255 1740 c-27 -4 -39 -8 -25 -9 17 -2 8 -7 -28 -16 -66 -15 -102
-34 -102 -52 0 -7 -9 -13 -20 -13 -11 0 -20 -6 -20 -14 0 -8 -7 -16 -15 -20
-9 -3 -15 -18 -15 -40 0 -21 -6 -36 -15 -40 -13 -5 -15 -84 -15 -629 0 -598 4
-687 29 -687 4 0 7 -10 7 -22 -1 -15 7 -27 21 -33 13 -5 28 -23 34 -40 6 -16
13 -25 16 -18 3 8 11 6 26 -7 12 -10 33 -28 46 -39 20 -17 38 -21 99 -21 l74
0 72 63 c88 77 93 83 100 129 4 21 11 38 16 38 16 0 13 1225 -2 1242 -7 7 -15
29 -16 48 -5 44 -19 70 -38 70 -8 0 -18 8 -21 18 -10 26 -27 40 -58 48 -14 4
-29 12 -32 20 -2 7 -12 10 -20 7 -11 -4 -14 -2 -9 5 4 7 3 12 -3 12 -5 0 -15
2 -23 3 -7 2 -35 1 -63 -3z"/>
<path d="M17925 1380 c3 -5 15 -10 25 -10 10 0 22 5 25 10 4 6 -7 10 -25 10
-18 0 -29 -4 -25 -10z"/>
<path d="M11618 1022 c-10 -2 -18 -8 -18 -13 0 -5 -11 -9 -25 -9 -16 0 -25 -6
-25 -15 0 -8 -4 -15 -10 -15 -15 0 -50 -33 -50 -47 0 -6 -6 -16 -14 -20 -22
-13 -28 -74 -33 -334 -4 -220 -2 -252 15 -315 12 -42 25 -68 32 -66 8 2 11 -4
7 -18 -3 -11 -1 -23 4 -26 5 -3 9 1 9 8 0 7 8 -3 19 -22 11 -22 27 -36 42 -38
13 -2 35 -14 49 -27 21 -19 37 -23 102 -24 66 -2 78 1 87 17 6 11 25 25 43 32
43 17 98 76 98 105 0 13 6 25 13 28 20 7 25 566 5 578 -11 8 -11 11 1 18 17
11 6 67 -15 75 -8 3 -14 14 -14 25 0 12 -17 30 -45 48 -25 15 -45 32 -45 36 0
5 -5 5 -11 1 -6 -3 -15 -1 -19 6 -7 11 -163 21 -202 12z m32 -946 c0 -3 -4 -8
-10 -11 -5 -3 -10 -1 -10 4 0 6 5 11 10 11 6 0 10 -2 10 -4z"/>
<path d="M13250 281 c0 -25 6 -27 13 -6 4 8 2 17 -3 20 -6 4 -10 -3 -10 -14z"/>
</g>
</svg>
