<?xml version="1.0" standalone="no"?>
<!DOCTYPE svg PUBLIC "-//W3C//DTD SVG 20010904//EN"
 "http://www.w3.org/TR/2001/REC-SVG-20010904/DTD/svg10.dtd">
<svg version="1.0" xmlns="http://www.w3.org/2000/svg"
 width="2048.000000pt" height="2048.000000pt" viewBox="0 0 2048.000000 2048.000000"
 preserveAspectRatio="xMidYMid meet">

<g transform="translate(0.000000,2048.000000) scale(0.100000,-0.100000)"
fill="#000000" stroke="none">
<path d="M6010 20334 c0 -5 -26 -8 -57 -6 -52 3 -61 0 -89 -26 -16 -16 -40
-32 -51 -36 -36 -11 -73 -57 -85 -103 -6 -25 -19 -50 -29 -56 -18 -11 -19 -42
-19 -783 l0 -772 -37 -15 c-42 -16 -76 -9 -111 23 -11 11 -32 22 -47 26 -15 4
-29 13 -32 20 -3 8 -12 14 -20 14 -8 0 -21 7 -30 16 -9 8 -21 13 -28 11 -6 -3
-23 8 -36 24 -13 16 -31 29 -40 29 -9 0 -20 7 -23 16 -4 10 -14 14 -26 11 -13
-3 -20 0 -20 10 0 9 -6 13 -15 9 -8 -3 -15 -1 -15 4 0 5 -6 7 -14 4 -8 -3 -23
-1 -33 5 -17 10 -17 10 0 11 9 0 17 5 17 10 0 6 -9 10 -21 10 -21 0 -81 29
-87 42 -2 4 -24 18 -50 30 -26 13 -49 25 -52 28 -3 3 -17 11 -32 17 -16 7 -28
17 -28 23 0 5 -11 10 -24 10 -13 0 -34 11 -47 25 -13 13 -31 25 -39 25 -8 0
-26 10 -40 23 -14 13 -39 28 -55 34 -17 6 -48 22 -69 37 -21 14 -44 26 -51 26
-7 0 -18 7 -25 15 -7 8 -21 15 -31 15 -11 0 -19 7 -19 15 0 10 -10 15 -30 15
-18 0 -33 6 -36 15 -4 8 -14 15 -23 15 -12 0 -13 2 -3 9 11 7 10 10 -3 15 -9
3 -28 6 -41 6 -14 0 -27 7 -30 15 -4 8 -10 12 -15 9 -5 -2 -21 4 -36 15 -34
23 -123 37 -123 18 0 -9 -2 -9 -8 1 -7 9 -19 7 -56 -13 -26 -14 -52 -25 -57
-25 -15 0 -46 -33 -53 -57 -4 -13 -11 -23 -16 -23 -17 0 -51 -83 -54 -132 -3
-50 7 -90 32 -136 7 -12 10 -27 7 -32 -8 -12 64 -80 86 -80 10 0 20 -9 24 -19
5 -17 45 -35 80 -36 6 0 18 -10 28 -22 10 -13 30 -23 44 -23 18 0 24 -4 20
-14 -4 -10 -1 -13 8 -9 8 3 18 -2 21 -11 3 -9 12 -16 20 -16 8 0 14 -4 14 -9
0 -5 10 -13 23 -16 47 -14 77 -30 77 -42 0 -7 7 -14 15 -14 8 -1 20 -3 25 -4
6 -1 14 -3 19 -4 5 0 13 -10 16 -21 5 -16 15 -20 46 -20 32 0 39 -3 39 -20 0
-13 9 -22 25 -26 14 -3 25 -10 25 -14 0 -5 15 -12 33 -15 17 -4 42 -17 54 -29
11 -11 38 -30 60 -41 21 -11 52 -29 68 -41 17 -13 43 -26 58 -30 16 -3 31 -13
34 -20 3 -8 13 -14 23 -14 9 0 27 -9 40 -20 13 -11 32 -20 42 -20 10 0 29 -11
42 -25 13 -14 29 -25 35 -25 20 0 95 -41 116 -64 11 -12 39 -27 62 -34 66 -20
88 -86 42 -128 -10 -9 -19 -23 -19 -31 0 -7 -9 -13 -19 -13 -11 0 -23 -4 -26
-10 -3 -5 -15 -10 -26 -10 -10 0 -19 -4 -19 -9 0 -12 -115 -81 -135 -81 -9 0
-14 -4 -11 -9 3 -5 -4 -11 -17 -15 -12 -3 -50 -23 -84 -46 -34 -22 -67 -40
-73 -40 -5 0 -10 -4 -10 -8 0 -5 -18 -15 -40 -22 -22 -7 -40 -19 -40 -27 0 -8
-4 -11 -10 -8 -5 3 -10 1 -10 -5 0 -6 -8 -10 -17 -9 -35 3 -44 -1 -53 -26 -6
-16 -18 -25 -32 -26 -22 -1 -22 -1 2 -9 20 -7 16 -8 -22 -9 -27 -1 -48 -5 -48
-10 0 -5 -10 -13 -22 -17 -13 -4 -33 -17 -45 -30 -12 -13 -31 -24 -41 -24 -11
0 -25 -6 -31 -14 -7 -8 -25 -18 -41 -21 -16 -3 -31 -13 -34 -21 -3 -8 -12 -14
-21 -14 -8 0 -15 -4 -15 -10 0 -5 -8 -10 -19 -10 -10 0 -24 -7 -31 -15 -7 -8
-17 -15 -22 -15 -12 0 -122 -70 -126 -81 -2 -5 -10 -9 -17 -9 -7 0 -16 -8 -19
-17 -5 -12 -9 -14 -14 -6 -6 9 -16 5 -34 -12 -15 -14 -34 -25 -43 -25 -10 0
-19 -9 -22 -20 -3 -11 -12 -20 -21 -20 -18 0 -41 -29 -42 -51 0 -9 -9 -37 -20
-62 -11 -25 -18 -52 -14 -60 3 -8 0 -18 -6 -22 -8 -5 -8 -10 0 -20 7 -8 9 -19
6 -24 -4 -5 2 -14 11 -20 10 -6 15 -11 11 -11 -3 0 -2 -17 4 -37 10 -38 86
-123 111 -123 6 0 21 -7 31 -15 29 -22 216 -21 216 0 0 9 9 15 21 15 11 0 27
7 35 15 9 8 25 15 36 15 12 0 18 3 15 6 -11 11 34 44 60 44 13 0 26 7 29 15 4
8 13 15 21 15 25 0 73 30 73 45 0 8 7 15 17 15 26 0 112 44 113 57 0 7 12 15
28 19 63 14 75 21 79 44 5 32 12 38 24 20 8 -11 12 -12 16 -2 2 6 13 12 22 12
10 0 26 9 36 20 10 12 24 19 31 16 8 -3 11 0 8 8 -3 9 11 18 42 26 26 8 62 27
81 43 18 16 33 26 33 22 0 -3 13 3 29 14 16 12 34 21 40 21 6 0 11 4 11 9 0 5
16 16 35 25 19 9 37 21 40 26 4 6 10 8 14 6 4 -3 22 8 40 24 18 17 43 30 58
30 19 0 24 4 19 16 -5 12 -2 15 12 12 24 -7 52 8 52 27 0 8 18 20 41 26 23 7
43 19 46 26 4 9 22 13 58 12 45 -2 54 -5 59 -23 3 -12 6 -353 6 -758 l0 -737
22 -42 c12 -23 24 -58 28 -78 4 -21 11 -35 19 -33 7 1 10 -2 6 -8 -3 -5 1 -13
9 -16 9 -3 16 -15 16 -25 0 -12 7 -19 20 -19 11 0 20 -3 20 -8 0 -4 17 -14 38
-23 43 -19 202 -34 202 -20 0 5 13 12 29 16 48 10 108 70 133 133 l23 57 0
771 c0 580 3 774 12 785 6 8 28 20 48 27 32 12 39 11 69 -7 18 -12 41 -21 50
-21 9 0 16 -4 16 -10 0 -5 8 -10 19 -10 10 0 21 -9 24 -20 3 -11 14 -20 24
-20 11 0 28 -8 39 -18 10 -9 51 -33 89 -52 39 -19 72 -38 73 -42 2 -5 9 -8 16
-8 7 0 23 -11 36 -25 13 -14 27 -25 32 -25 21 0 88 -36 88 -47 0 -7 11 -13 25
-13 14 0 25 -4 25 -10 0 -5 16 -12 35 -16 20 -3 35 -12 35 -20 0 -8 8 -14 18
-14 9 0 23 -9 30 -21 9 -14 19 -18 32 -14 14 4 20 2 20 -8 0 -10 8 -13 25 -9
19 3 24 1 20 -10 -4 -10 4 -19 24 -28 17 -7 31 -16 31 -20 0 -5 14 -11 30 -15
17 -4 30 -11 30 -16 0 -5 9 -9 20 -9 11 0 23 -7 26 -15 3 -8 21 -19 40 -25 19
-6 37 -17 41 -24 11 -16 98 -66 117 -66 8 0 20 -8 25 -19 6 -10 34 -26 63 -36
29 -9 61 -23 72 -31 13 -9 46 -14 91 -14 86 0 115 7 115 28 0 12 3 13 11 5 14
-14 80 26 74 44 -2 7 4 14 14 18 9 3 27 27 38 53 27 59 29 200 4 247 -21 40
-72 95 -87 95 -7 0 -19 8 -26 18 -7 9 -32 26 -55 36 -23 10 -44 25 -47 32 -3
8 -12 14 -20 14 -8 0 -22 7 -30 16 -9 8 -24 17 -35 19 -33 6 -61 25 -61 40 0
9 -10 15 -24 15 -14 0 -28 5 -31 11 -4 6 -13 8 -20 5 -8 -3 -17 4 -20 15 -4
12 -15 19 -30 19 -13 0 -28 7 -33 17 -8 14 -23 19 -69 22 -7 1 -13 7 -13 15 0
17 -23 37 -47 41 -10 1 -17 8 -15 15 2 8 -4 11 -18 7 -11 -3 -20 -1 -20 3 0 5
-13 11 -30 15 -16 4 -33 12 -37 19 -11 16 -59 46 -76 46 -7 0 -23 9 -35 20
-12 11 -25 20 -30 20 -5 0 -15 7 -22 15 -7 8 -16 13 -20 10 -5 -3 -15 2 -23
10 -9 8 -22 15 -29 15 -7 0 -19 9 -26 20 -7 12 -23 20 -38 20 -17 0 -28 7 -31
20 -3 13 -19 24 -45 30 -21 6 -41 17 -44 25 -3 7 -21 16 -40 19 -19 4 -34 13
-34 19 0 7 -20 21 -45 31 -24 11 -47 26 -50 35 -3 9 -15 21 -27 26 -19 8 -22
17 -20 45 3 43 34 76 77 84 18 4 36 13 39 21 3 8 13 15 23 15 10 0 30 11 45
25 15 14 36 25 47 25 30 0 51 11 51 25 0 8 10 15 23 17 12 2 21 9 19 16 -1 6
7 12 17 12 23 0 111 57 111 71 0 5 13 9 29 9 16 0 34 7 41 15 7 8 19 15 26 15
8 0 14 5 14 10 0 6 7 10 15 10 8 0 15 5 15 10 0 6 7 10 15 10 8 0 15 5 15 10
0 6 11 10 24 10 13 0 29 7 36 15 7 8 18 15 25 15 7 0 15 7 19 15 3 8 15 15 26
15 11 0 20 4 20 10 0 5 7 7 15 4 10 -4 15 0 15 10 0 10 15 23 35 32 19 8 35
19 35 24 0 6 9 10 20 10 11 0 20 5 20 10 0 7 6 7 20 0 16 -8 20 -8 20 3 0 16
32 40 69 52 24 7 36 15 70 46 20 18 52 33 65 30 19 -4 44 11 54 34 7 15 20 25
33 25 12 0 39 15 60 33 21 17 49 41 63 52 14 11 26 27 26 35 0 9 5 21 12 28 6
6 14 50 16 97 5 94 -11 149 -55 191 -13 12 -20 24 -17 27 3 3 -11 13 -31 23
-20 9 -39 23 -42 31 -3 8 -21 13 -43 13 -22 0 -42 5 -45 10 -4 6 -22 8 -43 4
-40 -6 -141 -43 -156 -56 -6 -4 -17 -8 -27 -8 -9 0 -32 -13 -50 -30 -19 -16
-39 -30 -45 -30 -6 0 -19 -9 -29 -20 -10 -12 -24 -19 -30 -16 -7 2 -20 -5 -29
-15 -9 -11 -21 -17 -26 -14 -6 3 -10 -1 -10 -9 0 -11 -9 -16 -26 -16 -19 0
-25 -4 -20 -15 4 -11 -2 -15 -24 -15 -17 0 -30 -4 -30 -10 0 -5 -11 -12 -25
-16 -14 -3 -25 -10 -25 -14 0 -4 -15 -10 -32 -14 -26 -5 -30 -9 -18 -16 12 -8
11 -10 -6 -10 -12 0 -27 -7 -34 -15 -7 -8 -21 -15 -32 -15 -12 0 -22 -9 -25
-21 -4 -16 -8 -17 -14 -7 -7 10 -9 10 -9 1 0 -7 -9 -13 -20 -13 -11 0 -20 -4
-20 -10 0 -5 -7 -10 -15 -10 -8 0 -15 -4 -15 -9 0 -5 -13 -12 -29 -16 -15 -3
-45 -22 -66 -41 -23 -21 -46 -34 -59 -32 -13 2 -20 -2 -19 -9 2 -7 -6 -13 -16
-13 -24 0 -36 -16 -19 -23 7 -3 2 -6 -12 -6 -14 -1 -38 -8 -54 -16 -15 -8 -35
-15 -43 -15 -8 0 -11 -4 -8 -10 3 -5 1 -10 -4 -10 -6 0 -11 -7 -11 -15 0 -10
-10 -15 -29 -15 -16 0 -34 -6 -40 -14 -7 -8 -24 -17 -38 -21 -39 -9 -143 -78
-143 -93 0 -11 -10 -12 -42 -7 -48 8 -71 22 -64 40 2 7 0 17 -6 23 -8 8 -12
243 -13 792 -1 570 -4 783 -12 788 -7 4 -17 20 -22 35 -6 16 -15 26 -20 22 -5
-3 -20 13 -32 35 -15 26 -30 40 -43 40 -24 1 -59 24 -49 33 3 4 -1 7 -10 7 -8
0 -22 3 -31 6 -9 3 -16 2 -16 -2z m-857 -1601 c-7 -2 -19 -2 -25 0 -7 3 -2 5
12 5 14 0 19 -2 13 -5z m1674 -959 c-3 -3 -12 -4 -19 -1 -8 3 -5 6 6 6 11 1
17 -2 13 -5z"/>
<path d="M14541 20281 c-66 -5 -106 -12 -109 -19 -2 -7 -10 -12 -18 -12 -8 0
-14 -4 -14 -9 0 -5 -21 -12 -47 -16 -26 -4 -58 -15 -71 -26 -14 -10 -33 -19
-44 -19 -10 0 -30 -11 -43 -24 -13 -13 -38 -27 -55 -31 -20 -4 -30 -13 -30
-25 0 -13 -5 -17 -14 -14 -8 3 -19 -3 -26 -15 -6 -12 -15 -21 -21 -21 -5 0
-32 -24 -59 -52 -72 -76 -83 -90 -99 -120 -8 -15 -22 -30 -33 -34 -10 -3 -21
-17 -25 -32 -3 -15 -9 -29 -12 -32 -3 -3 -12 -23 -20 -45 -8 -22 -23 -53 -34
-69 -11 -15 -21 -38 -22 -50 -4 -33 -26 -110 -35 -121 -10 -12 -18 -73 -26
-186 -7 -92 11 -259 28 -270 9 -6 26 -69 32 -121 1 -9 7 -22 13 -30 6 -7 13
-26 17 -41 4 -15 11 -25 16 -22 6 3 10 0 10 -7 0 -7 7 -26 15 -42 9 -16 16
-40 17 -53 2 -15 9 -23 20 -23 11 0 18 -7 18 -19 0 -10 11 -26 25 -35 14 -9
25 -23 25 -31 0 -8 5 -15 10 -15 6 0 19 -15 30 -32 11 -18 29 -35 40 -38 12
-3 21 -9 20 -14 -1 -5 11 -17 27 -27 15 -10 24 -19 20 -19 -18 0 50 -48 86
-61 20 -7 37 -16 37 -20 0 -4 12 -10 26 -13 14 -4 38 -19 52 -34 20 -19 37
-26 64 -26 20 -1 34 -4 32 -8 -3 -5 6 -8 21 -8 14 0 37 -7 50 -16 36 -23 85
-29 85 -10 0 20 16 21 24 1 4 -13 35 -15 186 -15 113 0 189 4 202 11 16 9 23
8 29 -2 6 -10 9 -11 9 -1 0 6 7 12 15 12 7 0 18 7 23 16 6 10 25 15 61 16 40
1 54 6 62 20 6 10 14 16 19 13 5 -3 32 8 60 25 28 16 55 30 60 30 6 0 10 7 10
15 0 8 6 15 14 15 23 0 86 41 86 55 0 8 9 16 19 20 10 3 21 15 24 26 3 11 15
23 26 26 12 3 21 8 21 12 0 4 22 32 50 61 27 30 52 66 55 79 4 14 15 37 26 53
11 15 18 28 14 28 -3 0 3 10 15 22 11 12 20 29 21 37 2 47 7 65 20 75 8 6 13
19 11 28 -2 13 1 16 12 12 14 -5 16 4 16 66 0 40 7 97 16 128 18 61 15 134 -9
262 -4 19 -8 66 -11 104 -2 38 -8 71 -13 75 -22 15 -43 58 -43 88 0 19 -8 41
-19 52 -10 10 -22 28 -26 40 -3 12 -10 21 -14 21 -4 0 -16 19 -26 43 -18 40
-59 87 -77 87 -4 0 -8 6 -8 14 0 8 -8 21 -18 28 -10 7 -28 28 -41 46 -12 17
-28 32 -34 32 -7 0 -23 10 -37 23 -14 12 -45 33 -70 46 -24 13 -51 31 -60 40
-8 10 -44 28 -80 41 -36 13 -69 27 -74 32 -6 4 -20 8 -32 8 -13 0 -26 5 -29
10 -3 6 -15 10 -26 10 -11 0 -18 4 -15 8 3 5 0 9 -7 9 -7 0 -79 3 -162 6 -82
3 -197 2 -254 -2z m986 -423 c-3 -8 -6 -5 -6 6 -1 11 2 17 5 13 3 -3 4 -12 1
-19z m-707 -118 c-8 -5 10 -13 46 -21 36 -8 67 -22 80 -36 12 -13 24 -23 27
-23 3 0 26 -20 53 -45 26 -25 51 -45 56 -45 4 0 8 -9 8 -19 0 -24 16 -36 23
-19 3 7 6 -1 6 -18 1 -19 7 -34 16 -38 8 -3 15 -12 15 -20 0 -8 6 -16 13 -19
9 -3 12 -41 10 -154 -1 -143 -3 -153 -29 -204 -15 -30 -28 -59 -28 -65 -1 -6
-11 -22 -23 -35 -13 -13 -31 -34 -42 -47 -11 -13 -22 -23 -25 -22 -7 0 -59
-31 -66 -41 -3 -4 -24 -13 -48 -20 -24 -7 -49 -21 -57 -32 -7 -10 -18 -16 -25
-12 -6 4 -17 2 -24 -4 -9 -8 -46 -9 -114 -5 -81 6 -106 11 -123 27 -11 11 -39
24 -62 29 -22 5 -48 18 -57 28 -10 11 -25 20 -35 20 -11 0 -15 5 -11 15 3 9 0
15 -9 15 -8 0 -15 4 -15 8 0 5 -22 31 -50 59 -37 38 -50 58 -50 80 0 16 -3 33
-7 36 -3 4 -8 19 -9 33 -2 14 -9 34 -17 43 -22 24 -28 97 -11 129 8 15 14 44
14 65 0 20 5 37 10 37 6 0 10 9 10 20 0 11 8 28 18 39 9 10 33 38 52 61 19 24
41 49 48 56 6 7 12 16 12 21 0 5 14 17 30 27 17 9 38 26 48 36 17 18 22 20
101 40 31 8 40 14 31 20 -8 5 35 9 104 8 65 0 113 -4 106 -8z m-797 -1187 c-7
-2 -19 -2 -25 0 -7 3 -2 5 12 5 14 0 19 -2 13 -5z"/>
<path d="M11565 20200 c-11 -5 -32 -9 -47 -9 -15 -1 -33 -8 -42 -16 -8 -8 -17
-15 -21 -15 -12 0 -43 -36 -49 -57 -4 -13 -12 -23 -17 -23 -5 0 -9 -7 -9 -15
0 -9 -6 -18 -14 -21 -12 -5 -33 -130 -35 -216 -1 -65 -5 -87 -15 -85 -17 3
-35 -64 -36 -133 0 -36 -7 -110 -15 -165 -22 -149 -23 -163 -33 -257 -5 -48
-14 -93 -19 -100 -9 -11 -18 -89 -39 -322 -2 -22 -8 -42 -14 -46 -5 -3 -14
-53 -20 -110 -6 -58 -15 -121 -20 -141 -5 -19 -10 -56 -11 -82 -1 -26 -6 -47
-11 -47 -4 0 -8 -26 -9 -57 0 -32 -5 -80 -10 -108 -26 -129 -59 -345 -59 -382
0 -23 -4 -32 -12 -27 -6 4 -8 3 -4 -4 3 -6 0 -42 -9 -79 -8 -37 -17 -102 -19
-143 -3 -41 -10 -104 -16 -140 -20 -120 -28 -192 -23 -209 4 -13 3 -14 -5 -2
-14 20 -19 -5 -27 -128 -3 -52 -12 -106 -19 -120 -12 -24 -20 -88 -31 -260 -2
-36 -9 -67 -16 -72 -8 -5 -16 -55 -22 -146 -6 -105 -13 -148 -28 -178 -15 -30
-22 -68 -26 -150 -2 -60 -13 -147 -24 -192 -11 -45 -22 -126 -25 -180 -3 -60
-11 -107 -20 -120 -8 -13 -14 -25 -14 -29 1 -3 -9 -14 -21 -25 -19 -16 -38
-19 -135 -19 -62 0 -115 -4 -118 -9 -4 -5 -25 -12 -47 -16 -41 -7 -118 -52
-119 -68 0 -5 -9 -20 -20 -34 -11 -14 -20 -39 -20 -55 0 -16 -3 -27 -7 -25 -5
3 -9 -25 -11 -62 -3 -72 17 -145 44 -155 8 -3 14 -15 14 -26 0 -11 7 -20 15
-20 8 0 15 -7 15 -15 0 -8 6 -15 14 -15 8 0 22 -7 31 -17 9 -9 30 -16 46 -16
16 0 29 -4 29 -9 0 -13 40 -9 40 5 0 7 5 5 10 -5 6 -10 18 -14 30 -11 11 3 50
2 86 -2 47 -5 67 -11 72 -23 3 -10 12 -22 19 -27 20 -15 20 -2733 1 -2776 -11
-25 -19 -29 -50 -29 -21 0 -38 5 -38 10 0 6 -5 16 -10 23 -55 65 -68 89 -68
129 -1 24 -6 44 -11 46 -6 2 -11 10 -11 17 0 8 -9 22 -19 32 -12 11 -21 37
-25 69 -3 28 -12 64 -21 80 -8 16 -15 40 -16 54 l-1 25 -8 -25 c-7 -22 -8 -21
-9 13 -1 38 -16 51 -24 20 -2 -10 -4 11 -5 46 -2 77 -9 101 -28 101 -8 0 -14
9 -14 20 0 11 -4 20 -9 20 -5 0 -17 30 -27 68 -10 37 -23 72 -29 77 -16 14
-32 61 -40 118 -4 31 -10 45 -17 41 -8 -5 -9 -1 -5 10 4 10 1 19 -6 22 -8 3
-20 27 -27 54 -8 28 -16 50 -19 50 -3 0 -7 15 -8 32 -2 18 -7 34 -13 36 -5 2
-10 12 -10 22 0 10 -6 20 -13 23 -8 3 -19 40 -27 88 -11 64 -16 78 -21 59 -4
-14 -7 187 -7 447 0 259 -4 477 -8 485 -5 7 -7 21 -6 31 2 9 -4 20 -13 23 -9
4 -21 17 -26 31 -5 13 -17 26 -26 29 -10 3 -38 15 -61 26 -37 17 -58 20 -133
16 -58 -3 -94 -9 -106 -19 -10 -8 -31 -20 -46 -27 -15 -6 -30 -20 -34 -29 -3
-10 -14 -26 -25 -36 -10 -10 -18 -26 -18 -36 0 -10 -7 -24 -15 -31 -12 -10
-14 -66 -15 -342 0 -345 -4 -376 -45 -392 -21 -8 -438 -8 -487 0 -30 5 -39 12
-47 37 -6 17 -9 32 -6 35 2 3 0 13 -5 23 -7 12 -7 20 0 24 14 9 13 565 -1 565
-6 0 -8 4 -5 9 3 4 -3 16 -14 26 -11 10 -23 36 -26 57 -7 40 -19 50 -27 21 -3
-10 -5 -3 -6 16 -1 37 -23 60 -57 61 -12 0 -27 6 -33 13 -16 20 -114 41 -147
33 -16 -4 -46 -10 -66 -13 -21 -3 -38 -9 -38 -14 0 -4 -16 -16 -35 -25 -19 -9
-35 -21 -35 -27 0 -6 -3 -7 -7 -4 -7 8 -58 -107 -68 -153 -3 -16 -1 -39 5 -51
9 -15 9 -24 1 -28 -7 -5 -11 -148 -12 -441 -1 -239 -5 -445 -8 -458 -3 -13
-10 -23 -16 -22 -5 0 -11 -8 -13 -20 -2 -11 -7 -18 -11 -15 -5 2 -6 -6 -4 -19
3 -15 -2 -31 -15 -44 -11 -11 -18 -23 -15 -26 4 -3 1 -6 -4 -6 -6 0 -14 -19
-18 -42 -9 -55 -35 -137 -51 -163 -7 -11 -13 -22 -13 -25 1 -22 -52 -140 -63
-140 -4 0 -8 -14 -8 -32 0 -17 -9 -50 -19 -72 -10 -23 -21 -53 -25 -67 -3 -14
-15 -36 -26 -49 -16 -19 -27 -61 -18 -72 3 -4 -35 -72 -44 -78 -3 -3 -8 -20
-11 -38 -3 -18 -13 -44 -21 -58 -10 -14 -12 -24 -6 -24 7 0 5 -9 -4 -22 -9
-12 -16 -32 -16 -44 0 -12 -11 -32 -25 -45 -15 -15 -25 -35 -25 -54 0 -16 -7
-43 -15 -59 -8 -15 -15 -37 -15 -47 0 -11 -4 -19 -10 -19 -5 0 -10 -13 -10
-30 0 -17 -7 -33 -17 -39 -19 -10 -19 -11 -21 -74 -1 -23 -6 -36 -12 -32 -5 3
-10 -2 -10 -12 0 -10 -9 -24 -20 -31 -12 -7 -19 -16 -16 -21 3 -4 0 -25 -6
-47 -6 -21 -12 -44 -12 -50 -1 -6 -9 -18 -18 -28 -10 -10 -18 -29 -18 -42 0
-14 -11 -46 -24 -72 -13 -27 -27 -65 -31 -85 -4 -20 -11 -37 -16 -37 -4 0 -13
-19 -20 -42 -13 -51 -31 -91 -43 -99 -5 -4 -10 -24 -12 -44 -1 -21 -7 -41 -13
-44 -5 -4 -15 -29 -22 -56 -15 -63 -15 -64 -38 -100 -11 -16 -20 -45 -20 -63
-1 -18 -5 -31 -10 -28 -5 3 -11 -11 -15 -32 -3 -20 -17 -50 -31 -66 -15 -18
-27 -47 -31 -78 -4 -27 -13 -55 -20 -63 -8 -7 -14 -23 -14 -34 0 -12 -4 -21
-10 -21 -5 0 -10 -13 -10 -30 0 -16 -4 -30 -8 -30 -9 0 -27 -47 -37 -97 -4
-18 -13 -33 -20 -33 -26 0 -30 -92 -30 -610 0 -568 3 -639 24 -625 4 2 14 -6
22 -17 34 -52 105 -108 135 -108 13 0 24 -4 24 -10 0 -5 5 -10 11 -10 5 0 7 5
4 10 -3 6 1 10 9 10 9 0 16 -4 16 -9 0 -6 17 -8 38 -6 88 10 117 19 134 41 10
12 28 24 41 26 14 2 23 11 25 26 2 13 10 26 18 29 8 3 14 11 14 18 0 7 6 15
13 18 10 4 13 80 14 364 2 338 7 413 31 413 4 0 18 9 30 21 12 11 26 17 31 14
5 -3 630 -5 1388 -6 758 0 1389 -2 1403 -5 14 -3 35 -21 47 -40 l23 -35 0
-1686 c1 -1301 -2 -1688 -11 -1699 -18 -22 -89 -14 -103 11 -6 11 -21 37 -34
57 -13 20 -21 42 -17 47 3 6 1 11 -4 11 -7 0 -11 24 -11 60 0 47 -4 64 -20 80
-11 11 -20 27 -20 35 0 8 -4 15 -8 15 -4 0 -8 18 -9 40 -1 23 -13 64 -26 93
-14 29 -28 73 -31 100 -4 26 -13 53 -20 59 -6 6 -10 25 -8 41 3 17 1 27 -5 24
-5 -3 -8 6 -5 23 3 21 -4 36 -28 61 -27 29 -31 39 -26 68 5 34 -5 68 -45 143
-10 20 -19 45 -19 54 0 10 -4 31 -10 48 -5 17 -12 53 -15 79 -4 27 -9 46 -13
43 -3 -4 -12 17 -19 46 -8 29 -20 66 -28 82 -8 16 -15 41 -15 56 0 33 -18 90
-36 110 -7 8 -18 45 -24 83 -7 37 -16 67 -22 67 -5 0 -7 4 -3 9 3 6 -3 14 -12
20 -15 9 -15 12 -4 20 8 5 9 11 3 15 -6 3 -8 15 -5 26 3 11 0 20 -6 20 -6 0
-11 7 -11 16 0 8 -6 25 -12 37 -7 12 -13 31 -14 42 -3 29 -9 48 -17 63 -5 6
-5 17 -2 23 4 5 -5 28 -19 49 -15 22 -26 54 -26 72 0 18 -7 46 -15 62 -8 16
-18 46 -21 67 -4 22 -10 39 -15 39 -4 0 -7 14 -7 31 1 17 -4 34 -10 38 -6 4
-14 27 -17 51 -10 75 -27 128 -41 134 -8 3 -14 15 -14 27 0 12 -8 23 -20 26
-11 3 -20 12 -20 19 0 8 -7 14 -15 14 -8 0 -15 8 -15 18 0 13 -2 14 -9 4 -6
-11 -14 -8 -36 12 l-28 26 -444 -3 -444 -2 -18 -24 c-10 -13 -23 -21 -29 -17
-6 4 -17 -2 -24 -14 -7 -11 -18 -20 -25 -20 -15 0 -33 -32 -33 -60 0 -12 -5
-18 -10 -15 -12 7 -33 -43 -26 -61 6 -17 -20 -81 -35 -86 -6 -2 -15 -37 -19
-78 -4 -41 -13 -76 -19 -78 -6 -2 -11 -12 -11 -22 0 -10 -6 -21 -12 -24 -10
-5 -10 -7 0 -12 6 -3 12 -10 12 -15 0 -6 -4 -8 -9 -5 -5 3 -12 -13 -15 -36 -4
-23 -12 -48 -19 -56 -6 -8 -13 -26 -14 -41 -5 -40 -26 -111 -34 -111 -10 0
-27 -52 -28 -90 -1 -32 -8 -55 -32 -102 -4 -9 -11 -42 -14 -73 -4 -36 -13 -63
-26 -76 -10 -10 -19 -29 -19 -42 0 -12 -9 -40 -20 -62 -11 -21 -31 -90 -45
-152 -14 -63 -35 -130 -46 -151 -14 -23 -17 -38 -10 -40 15 -5 14 -23 -1 -20
-7 2 -13 -13 -15 -37 -3 -39 -18 -81 -49 -137 -8 -15 -15 -47 -16 -72 -2 -27
-7 -46 -14 -46 -6 0 -14 -22 -18 -48 -4 -29 -14 -54 -26 -65 -16 -13 -20 -29
-20 -81 0 -48 -4 -65 -15 -70 -8 -3 -15 -12 -15 -20 0 -8 -5 -16 -10 -18 -6
-2 -12 -23 -13 -48 -2 -25 -13 -66 -26 -92 -15 -28 -22 -56 -19 -72 3 -15 2
-29 -2 -31 -15 -9 -49 -90 -54 -125 -10 -76 -32 -96 -84 -75 -17 8 -32 18 -33
22 0 4 -3 17 -5 28 -3 11 -6 367 -7 790 -1 424 -6 778 -11 788 -6 13 -11 15
-16 7 -5 -8 -15 1 -29 24 -13 20 -27 36 -32 36 -5 0 -9 7 -9 15 0 8 -9 15 -20
15 -11 0 -20 6 -20 14 0 9 -11 14 -32 14 -29 1 -73 8 -73 12 0 7 -36 6 -40 0
-3 -5 -14 -7 -25 -5 -11 2 -19 1 -19 -3 3 -20 -2 -25 -11 -12 -9 13 -10 13
-10 0 0 -13 -1 -13 -10 0 -8 12 -13 13 -27 3 -10 -7 -32 -19 -48 -28 -17 -8
-38 -28 -47 -43 -9 -15 -25 -37 -36 -50 -30 -34 -33 -147 -30 -1087 1 -462 -2
-850 -6 -862 -12 -37 -52 -40 -87 -7 -24 23 -29 35 -25 57 3 15 1 27 -4 27 -5
0 -12 16 -16 36 -4 21 -10 31 -14 24 -9 -15 -20 11 -20 46 0 13 -3 24 -8 24
-4 0 -9 42 -10 92 -2 60 -8 101 -18 115 -8 12 -16 52 -18 89 -3 37 -10 70 -17
74 -6 5 -9 15 -6 24 4 9 2 28 -4 42 -5 15 -14 72 -20 128 -6 55 -16 108 -23
116 -18 21 -34 77 -35 125 0 22 -5 55 -10 73 -6 18 -7 40 -4 48 3 8 1 14 -5
14 -5 0 -13 17 -16 38 -3 20 -8 51 -11 67 -3 17 -7 44 -8 61 -1 17 -8 38 -15
47 -7 8 -16 62 -20 124 -7 90 -12 114 -31 140 -13 17 -21 36 -17 41 3 6 2 13
-4 17 -5 3 -10 39 -10 80 0 54 -4 78 -16 90 -9 8 -14 22 -11 29 5 14 -4 65
-19 100 -5 12 -4 17 3 13 11 -7 5 45 -7 53 -12 9 -40 139 -46 213 -3 39 -10
75 -16 78 -6 4 -8 14 -5 22 3 9 1 17 -4 19 -6 2 -16 39 -22 83 -6 44 -14 82
-17 85 -4 3 -7 21 -8 40 -1 19 -8 58 -17 85 -8 28 -15 60 -15 73 0 12 -4 22
-10 22 -5 0 -10 21 -10 48 -1 26 -7 65 -15 87 -8 22 -15 54 -15 72 0 17 -4 33
-9 35 -5 2 -12 37 -14 78 -3 42 -9 76 -16 78 -6 2 -11 21 -11 42 0 21 -4 42
-10 45 -5 3 -10 32 -10 63 0 31 -7 70 -15 86 -18 34 -24 59 -36 150 -6 38 -16
83 -23 100 -8 17 -14 38 -14 46 0 53 -14 156 -22 158 -6 2 -10 16 -10 31 0 15
-4 31 -10 37 -5 5 -12 53 -16 107 -5 75 -10 97 -22 97 -9 0 -12 6 -8 15 3 9
-1 18 -9 21 -8 4 -15 17 -15 31 0 41 -95 135 -115 115 -4 -4 -13 2 -21 13 -13
18 -25 20 -107 17 -69 -1 -93 -6 -100 -17 -4 -8 -15 -15 -22 -15 -8 0 -15 -4
-15 -10 0 -5 -6 -10 -12 -10 -7 0 -26 -18 -42 -40 -16 -21 -33 -37 -38 -34 -8
5 -12 -17 -8 -45 1 -8 -4 -17 -11 -22 -7 -4 -16 -36 -20 -71 -15 -122 -22
-153 -40 -178 -16 -23 -23 -92 -20 -189 1 -13 -3 -29 -8 -35 -4 -6 -11 -24
-15 -40 -6 -23 -9 -27 -17 -15 -7 11 -9 10 -9 -6 -2 -66 -13 -162 -20 -176 -5
-8 -7 -27 -6 -42 2 -15 -1 -30 -6 -33 -5 -3 -7 -12 -4 -20 3 -8 1 -14 -4 -14
-6 0 -10 -36 -10 -82 0 -45 -3 -78 -7 -75 -3 4 -14 -6 -24 -22 -12 -20 -18
-56 -20 -127 -2 -54 -9 -103 -14 -109 -16 -15 -34 -75 -45 -146 -5 -35 -13
-84 -18 -109 -6 -25 -8 -48 -6 -52 3 -5 1 -8 -4 -8 -6 0 -10 -10 -10 -22 0
-13 -3 -51 -7 -85 -6 -46 -11 -60 -21 -56 -10 4 -14 -4 -14 -31 0 -19 -9 -82
-20 -138 -11 -57 -20 -116 -20 -133 0 -23 -3 -27 -10 -15 -7 11 -10 -2 -10
-43 0 -36 -4 -56 -10 -52 -6 4 -10 -9 -9 -32 1 -21 -6 -67 -16 -103 -9 -36
-16 -72 -16 -80 0 -33 -11 -70 -19 -65 -5 3 -8 -11 -6 -32 2 -21 -1 -45 -5
-53 -13 -25 -39 -144 -39 -181 0 -19 -9 -59 -20 -89 -11 -30 -18 -65 -15 -78
3 -13 1 -22 -6 -22 -6 0 -9 -6 -6 -14 3 -8 2 -29 -3 -48 -4 -18 -14 -61 -21
-95 -7 -35 -16 -57 -20 -51 -10 16 -20 -42 -22 -135 -2 -47 -7 -81 -14 -85 -7
-4 -15 -44 -19 -90 -4 -45 -11 -79 -15 -76 -5 3 -9 -13 -9 -36 0 -27 -5 -43
-15 -46 -11 -5 -15 -24 -15 -78 -1 -81 -13 -155 -28 -165 -21 -14 -37 -124
-21 -153 8 -14 6 -18 -7 -18 -11 0 -14 -5 -10 -16 3 -8 -1 -28 -9 -44 -8 -16
-18 -68 -22 -117 -4 -59 -13 -99 -26 -123 -14 -24 -21 -58 -23 -110 -2 -51
-11 -97 -29 -145 -15 -38 -30 -87 -35 -108 -4 -21 -9 -39 -11 -40 -2 -1 -15
-8 -29 -16 -17 -10 -25 -10 -28 -2 -2 6 -11 11 -20 11 -22 0 -39 41 -44 106
-3 33 -13 62 -27 80 -15 20 -20 36 -16 54 4 19 3 21 -5 10 -7 -11 -10 0 -10
40 0 30 -7 68 -15 83 -8 15 -15 48 -16 74 -2 25 -8 51 -14 57 -20 21 -36 73
-44 142 -4 46 -11 68 -19 67 -7 -2 -12 2 -12 7 0 6 5 10 10 10 6 0 10 5 10 12
0 6 -3 8 -7 5 -10 -11 -31 39 -39 90 -3 27 -11 53 -16 60 -5 7 -7 16 -4 22 10
15 -17 64 -59 109 -22 23 -44 42 -48 42 -4 0 -21 10 -38 22 -42 31 -150 35
-195 7 -17 -10 -39 -19 -48 -19 -9 0 -16 -4 -16 -10 0 -5 -6 -10 -14 -10 -7 0
-32 -25 -55 -55 -30 -40 -41 -64 -41 -90 0 -19 -4 -35 -10 -35 -6 0 -10 -28
-10 -65 0 -36 4 -65 8 -65 5 0 16 -33 26 -73 10 -39 24 -88 31 -107 7 -19 16
-57 20 -84 4 -28 15 -70 24 -95 10 -25 19 -68 20 -96 1 -27 5 -51 9 -55 15
-11 32 -57 47 -125 8 -38 24 -101 34 -139 11 -38 17 -75 14 -83 -3 -8 -1 -18
4 -22 6 -3 13 -26 17 -51 3 -25 3 -39 0 -32 -4 10 -14 4 -33 -18 l-26 -32
-593 1 c-631 1 -611 0 -659 51 -17 19 -21 32 -17 55 4 17 10 35 14 40 4 6 10
34 14 64 4 30 14 67 22 83 8 16 12 33 9 37 -3 5 1 11 7 14 9 2 12 23 11 65 -1
44 2 62 13 66 8 3 14 13 14 23 0 10 9 35 19 55 11 19 17 39 13 42 -3 4 0 12 8
17 11 7 11 12 3 15 -8 4 -8 12 3 32 8 15 14 38 14 52 0 14 8 36 17 50 16 22
16 23 0 17 -11 -4 -17 -1 -17 8 0 8 7 15 15 15 10 0 15 10 15 32 0 36 20 98
32 98 4 0 8 9 8 21 0 11 5 17 10 14 6 -4 10 10 10 35 0 48 19 132 32 141 5 3
11 30 14 59 3 29 14 71 24 93 11 22 20 60 20 83 0 49 14 93 36 108 9 7 17 34
19 71 5 67 14 112 25 135 10 19 31 116 33 153 1 17 7 25 14 22 13 -4 18 29 14
85 -2 31 22 92 43 110 11 9 16 30 16 74 0 35 6 70 14 81 7 11 16 41 19 66 10
73 23 97 63 114 43 18 74 12 74 -15 0 -10 4 -21 9 -24 5 -3 12 -27 16 -53 9
-61 30 -111 55 -133 11 -10 20 -22 20 -27 0 -13 56 -62 83 -73 21 -8 21 -9 2
-10 -17 0 -17 -2 -5 -10 20 -13 230 -13 250 0 8 5 11 10 5 10 -5 0 9 9 32 21
23 11 45 29 48 40 4 10 11 19 17 19 6 0 8 9 5 21 -3 12 -3 18 0 15 8 -8 34 44
27 55 -3 5 2 17 11 26 13 13 15 26 10 67 -4 28 -11 53 -16 54 -13 5 -11 30 4
35 9 4 9 6 0 6 -7 1 -13 8 -13 16 0 8 -4 15 -8 15 -5 0 -9 20 -10 45 0 24 -6
61 -13 82 -10 32 -13 35 -20 18 -5 -14 -8 0 -9 40 -2 33 -2 66 -1 72 1 7 -9
36 -23 65 -20 45 -33 100 -35 156 -1 6 -7 12 -15 12 -10 0 -14 10 -14 31 1 17
-4 34 -11 38 -7 5 -10 20 -6 38 3 18 -2 47 -11 69 -9 22 -21 77 -25 124 -6 57
-14 87 -24 93 -8 4 -15 15 -15 23 0 8 -4 13 -9 10 -4 -3 -9 22 -10 56 -1 41
-7 68 -18 80 -9 10 -16 31 -15 48 0 20 -4 30 -14 30 -8 0 -14 9 -13 23 0 21
-28 177 -37 207 -5 13 -6 13 -14 0 -8 -13 -10 -12 -10 3 0 10 -7 20 -15 23 -8
4 -15 15 -15 25 0 10 -7 19 -15 19 -8 0 -15 9 -15 20 0 19 -24 26 -67 21 -7
-1 -26 5 -42 14 -37 19 -98 19 -131 0 -14 -8 -37 -14 -51 -15 -17 0 -30 -8
-39 -25 -7 -13 -17 -22 -22 -19 -13 8 -38 -22 -38 -46 0 -16 -4 -20 -15 -16
-9 3 -15 0 -15 -8 0 -8 -5 -16 -11 -18 -6 -2 -12 -29 -13 -60 -1 -31 -5 -60
-9 -64 -4 -4 -7 -17 -7 -29 0 -11 -4 -25 -9 -30 -6 -6 -16 -40 -23 -77 -7 -36
-17 -64 -22 -61 -5 4 -6 1 -1 -6 4 -7 0 -31 -9 -54 -8 -23 -17 -58 -18 -77 -2
-19 -7 -38 -12 -42 -6 -4 -4 -13 3 -22 12 -14 10 -16 -8 -16 -11 0 -21 -4 -21
-10 0 -5 5 -10 11 -10 6 0 3 -7 -5 -15 -8 -9 -18 -38 -22 -66 -4 -27 -11 -52
-15 -55 -5 -3 -9 -31 -10 -62 0 -39 -3 -51 -8 -37 -7 15 -10 6 -16 -37 -4 -32
-11 -56 -15 -53 -5 3 -12 -21 -16 -52 -3 -32 -15 -80 -25 -106 -21 -53 -42
-137 -67 -272 -9 -49 -21 -89 -27 -87 -13 5 -23 -26 -24 -75 -1 -23 -12 -72
-25 -110 -30 -88 -48 -162 -41 -174 4 -5 2 -9 -4 -9 -13 0 -31 -64 -31 -115
-1 -39 -21 -81 -33 -69 -8 9 -15 -29 -20 -113 -2 -40 -9 -78 -14 -85 -12 -16
-33 -98 -33 -131 0 -14 -7 -28 -17 -31 -14 -6 -15 -9 -4 -15 10 -7 10 -9 -2
-14 -10 -4 -16 -29 -21 -81 -8 -87 -13 -106 -30 -106 -8 0 -13 -18 -14 -47 -3
-64 -22 -144 -39 -161 -7 -7 -13 -22 -13 -33 0 -27 -23 -113 -32 -120 -5 -3
-10 -25 -13 -50 -2 -24 -9 -58 -14 -76 -5 -17 -7 -34 -4 -37 3 -3 -4 -21 -16
-41 -11 -20 -21 -52 -21 -71 0 -19 -4 -33 -9 -30 -5 3 -12 -22 -15 -57 -7 -56
-16 -86 -49 -155 -6 -13 -11 -40 -11 -60 0 -20 -4 -40 -8 -43 -5 -3 -14 -39
-19 -80 -6 -41 -15 -78 -20 -84 -5 -5 -9 -16 -9 -25 0 -9 -17 -35 -38 -58 -29
-32 -48 -44 -84 -50 -25 -5 -56 -19 -69 -30 -12 -12 -28 -22 -35 -22 -7 0 -16
-9 -19 -20 -3 -11 -11 -20 -16 -20 -5 0 -9 -6 -8 -13 1 -6 1 -21 -1 -32 l-1
-20 -9 20 c-7 16 -8 14 -10 -15 -1 -19 -3 -397 -4 -839 -1 -615 2 -805 11
-808 7 -3 10 -10 7 -16 -2 -7 7 -21 21 -31 14 -10 25 -24 25 -30 0 -7 18 -23
41 -36 23 -14 48 -33 57 -42 15 -16 38 -18 206 -18 203 0 251 -8 260 -45 8
-30 8 -935 0 -962 -3 -13 -13 -23 -20 -23 -8 0 -14 -4 -14 -10 0 -6 -122 -10
-345 -10 -223 0 -345 -4 -345 -10 0 -5 -7 -10 -15 -10 -8 0 -36 -20 -62 -45
-25 -25 -50 -45 -55 -45 -4 0 -8 -6 -8 -14 0 -8 -5 -16 -10 -18 -6 -2 -15 -34
-21 -72 -5 -37 -11 -72 -14 -76 -7 -11 27 -120 37 -120 4 0 8 -11 8 -24 0 -19
7 -26 30 -31 17 -4 30 -13 30 -21 0 -8 4 -14 10 -14 5 0 9 -5 7 -12 -5 -27 94
-37 392 -39 164 -1 303 1 309 5 18 11 63 -25 78 -61 11 -26 14 -175 14 -800 0
-422 3 -778 6 -790 4 -13 12 -23 20 -23 7 0 11 -6 8 -13 -3 -8 2 -20 11 -27 8
-7 15 -17 15 -22 0 -16 45 -55 71 -61 14 -4 31 -18 39 -32 l13 -25 1489 0
1489 0 25 27 c25 27 55 48 87 59 9 3 17 12 17 18 0 7 11 23 24 35 44 41 55
221 17 272 -12 16 -21 33 -21 38 0 6 -17 22 -37 36 -21 14 -31 25 -23 25 29 1
-23 30 -53 30 -15 0 -37 5 -48 10 -11 6 -107 12 -229 13 -144 1 -213 6 -221
14 -6 6 -17 9 -24 7 -33 -13 -35 54 -35 1445 0 1358 0 1371 20 1391 11 11 30
21 42 21 13 1 403 1 868 0 465 -1 870 2 902 7 67 10 143 -10 160 -41 7 -14 11
-435 11 -1393 0 -1421 -1 -1445 -39 -1430 -7 3 -14 0 -17 -7 -3 -9 -37 -11
-118 -10 -82 2 -128 -2 -163 -14 -28 -9 -59 -17 -70 -18 -35 -4 -36 -5 -30
-19 4 -9 -5 -20 -24 -30 -31 -16 -62 -56 -62 -80 0 -8 -5 -16 -12 -18 -17 -6
-16 -143 2 -198 17 -53 47 -90 75 -90 17 0 17 -2 5 -10 -13 -9 -13 -11 0 -20
8 -5 20 -10 27 -10 6 0 21 -13 33 -30 l21 -30 5464 0 c3858 0 5466 3 5470 11
4 5 19 15 33 20 21 8 23 12 12 19 -12 8 -9 10 11 10 16 0 33 10 45 24 10 14
21 23 26 20 4 -3 8 4 8 15 0 11 10 27 23 36 l22 15 0 776 c0 727 -1 776 -17
788 -10 7 -18 17 -18 21 0 12 -67 75 -80 75 -6 0 -13 6 -16 14 -9 24 -78 39
-154 34 -61 -5 -76 -9 -96 -32 -14 -14 -31 -26 -38 -26 -15 0 -79 -61 -71 -68
2 -3 -3 -11 -13 -18 -16 -11 -17 -53 -20 -546 -2 -378 -6 -541 -14 -560 -27
-60 -1 -58 -755 -60 -378 -1 -701 3 -718 7 -35 10 -44 18 -68 65 -18 33 -18
96 -15 1393 l3 1359 25 20 c14 11 24 23 23 27 -1 3 326 6 727 6 703 0 729 -1
750 -20 11 -10 19 -24 16 -31 -3 -7 0 -14 7 -17 9 -3 13 -84 17 -303 5 -272 7
-302 25 -336 11 -21 27 -40 35 -43 8 -3 26 -15 40 -28 14 -13 39 -27 55 -32
41 -11 174 -22 169 -14 -2 4 14 9 36 12 21 3 49 14 61 26 12 11 30 23 38 26 9
3 27 28 41 57 24 50 24 57 27 339 2 159 7 299 13 313 17 46 49 53 258 54 l194
2 26 30 c16 18 36 30 52 30 17 0 32 10 45 30 11 16 25 30 30 30 6 0 11 16 13
36 1 20 9 46 17 57 14 19 15 119 15 790 -1 443 -5 767 -10 767 -5 0 -12 17
-15 38 -9 50 -25 81 -47 88 -10 3 -18 11 -18 19 0 8 -10 17 -22 21 -12 3 -28
13 -36 20 -7 8 -28 14 -45 14 -36 0 -81 26 -72 41 4 5 -1 12 -9 15 -9 3 -16
14 -16 24 0 11 -4 21 -9 25 -6 3 -13 27 -17 53 -3 26 -12 57 -20 69 -8 12 -17
39 -20 59 -3 19 -11 52 -18 73 -12 33 -27 102 -31 141 0 9 -4 21 -8 28 -10 15
-31 97 -47 179 -7 35 -17 63 -22 63 -6 0 -8 11 -6 25 3 13 1 23 -5 22 -5 -1
-16 32 -24 73 -7 41 -20 95 -28 120 -8 25 -15 54 -15 66 0 11 -7 29 -15 40 -8
10 -15 31 -15 46 0 14 -7 55 -17 90 -9 35 -16 71 -15 80 0 10 -5 18 -13 18 -9
0 -11 7 -7 22 3 13 1 19 -5 15 -11 -7 -23 36 -23 87 0 17 -10 51 -21 76 -11
25 -19 61 -18 80 1 19 1 44 0 55 l-2 20 -9 -20 c-8 -19 -9 -19 -9 3 -1 13 -5
31 -10 40 -5 9 -14 57 -20 106 -7 62 -16 92 -27 101 -11 8 -19 32 -22 70 -3
32 -11 69 -18 83 -7 14 -10 30 -7 35 3 6 2 7 -4 4 -6 -4 -13 17 -16 53 -4 33
-11 68 -16 77 -30 58 -42 105 -40 149 2 35 -1 48 -10 46 -7 -1 -11 5 -9 15 1
10 -2 24 -6 32 -10 15 -24 74 -30 129 -2 18 -9 39 -16 47 -6 8 -14 42 -17 75
-3 33 -10 63 -14 66 -5 3 -9 -1 -9 -8 -2 -33 -30 72 -30 110 0 23 -4 50 -9 60
-16 31 -61 181 -61 204 -1 36 -36 159 -43 152 -4 -4 -7 10 -7 30 0 27 -4 37
-13 33 -9 -3 -12 3 -9 22 2 14 -4 55 -13 91 -9 36 -21 89 -27 117 -5 29 -13
51 -17 49 -6 -4 -20 49 -37 135 -4 21 -76 99 -92 99 -6 0 -12 6 -12 14 0 15
-45 30 -60 21 -6 -4 -20 1 -32 9 -28 20 -90 20 -128 1 -15 -8 -42 -16 -58 -17
-20 -1 -28 -6 -25 -15 3 -7 -2 -13 -11 -13 -9 0 -16 -7 -16 -16 0 -10 -6 -14
-15 -10 -10 3 -15 -1 -15 -13 0 -10 -7 -21 -15 -25 -8 -3 -15 -11 -15 -17 0
-7 -7 -17 -15 -23 -9 -7 -20 -38 -25 -73 -4 -33 -13 -70 -19 -81 -6 -12 -11
-36 -11 -56 0 -19 -6 -37 -12 -40 -10 -5 -10 -7 0 -12 18 -8 15 -18 -14 -47
-22 -23 -27 -37 -30 -103 -3 -43 -9 -85 -15 -95 -5 -10 -9 -28 -9 -41 0 -19
-2 -20 -10 -8 -7 11 -8 5 -3 -19 4 -25 3 -32 -5 -27 -9 5 -12 -6 -12 -38 0
-25 -4 -46 -8 -46 -7 0 -28 -77 -48 -180 -3 -19 -11 -38 -17 -42 -12 -7 -12
-11 -15 -89 -1 -30 -10 -59 -26 -82 -17 -24 -27 -57 -31 -99 -4 -35 -14 -78
-22 -97 -8 -19 -19 -63 -23 -98 -6 -44 -15 -72 -29 -87 -14 -15 -21 -36 -21
-61 0 -21 -4 -52 -9 -69 -22 -69 -43 -153 -47 -184 -3 -19 -11 -43 -18 -55 -8
-12 -17 -49 -20 -81 -4 -33 -15 -73 -26 -90 -10 -17 -24 -63 -30 -101 -6 -39
-16 -81 -22 -95 -7 -14 -13 -44 -14 -68 -1 -24 -9 -51 -19 -62 -10 -11 -15
-28 -12 -40 3 -11 1 -20 -4 -20 -5 0 -9 -18 -9 -39 0 -22 -4 -42 -9 -45 -4 -3
-14 -27 -20 -53 -7 -27 -16 -55 -20 -63 -9 -18 -35 -121 -51 -205 -7 -33 -18
-67 -26 -76 -7 -8 -16 -33 -19 -55 -8 -65 -37 -174 -45 -169 -4 2 -7 -20 -6
-49 0 -38 -5 -58 -17 -70 -9 -10 -15 -22 -12 -27 4 -5 3 -15 -2 -21 -4 -7 -8
-15 -8 -18 -2 -15 -19 -126 -20 -130 0 -3 -8 -16 -18 -31 -17 -25 -38 -140
-30 -168 5 -19 -44 -51 -77 -51 -59 0 -95 45 -106 135 -3 22 -13 51 -22 65
-20 31 -61 142 -70 193 -4 21 -11 38 -16 37 -13 -2 -45 78 -45 116 -1 18 -10
39 -21 49 -11 10 -18 25 -15 34 2 9 0 23 -5 31 -5 8 -10 11 -11 5 -1 -5 -5 4
-9 20 -5 17 -17 60 -27 96 -10 37 -24 73 -30 80 -6 8 -17 34 -24 59 -7 25 -19
54 -26 65 -7 11 -13 29 -13 40 0 11 -7 29 -15 39 -8 11 -15 30 -15 43 0 13 -4
23 -10 23 -5 0 -10 10 -10 23 0 12 -9 37 -20 55 -11 18 -18 37 -15 43 4 5 -1
12 -10 15 -10 4 -13 13 -10 25 4 11 2 19 -3 19 -13 0 -32 55 -32 91 0 18 -5
29 -14 29 -8 0 -16 16 -20 40 -3 22 -11 40 -16 40 -6 0 -10 14 -10 30 0 17 -4
30 -8 30 -4 0 -16 26 -26 58 -10 31 -22 65 -28 75 -5 11 -13 44 -19 75 -5 36
-16 62 -28 72 -11 8 -23 33 -27 55 -4 22 -18 61 -31 87 -14 26 -21 53 -17 59
4 8 3 9 -4 5 -8 -5 -12 0 -12 12 0 11 -7 33 -15 48 -8 16 -15 46 -15 66 0 25
-6 41 -20 51 -23 16 -40 57 -40 98 0 17 -6 32 -15 35 -8 4 -13 9 -10 13 2 4
-3 20 -11 35 -7 16 -14 36 -14 44 0 9 -12 40 -27 69 -25 51 -79 93 -118 93 -8
0 -15 5 -15 10 0 7 -25 9 -75 4 -53 -5 -75 -3 -75 5 0 6 -11 11 -25 11 -14 0
-25 -4 -25 -8 0 -5 -22 -19 -50 -31 -27 -12 -50 -29 -50 -37 0 -8 -4 -14 -8
-14 -11 0 -46 -65 -62 -117 -7 -23 -18 -41 -24 -40 -6 1 -12 -21 -14 -52 -2
-29 -10 -60 -18 -68 -8 -8 -14 -18 -14 -22 0 -5 -12 -35 -27 -67 -14 -33 -26
-63 -24 -68 1 -4 -2 -13 -7 -20 -5 -6 -12 -27 -16 -47 -4 -21 -13 -42 -20 -48
-15 -12 -30 -65 -27 -94 1 -9 -4 -17 -12 -17 -8 0 -14 -6 -14 -13 1 -24 -16
-77 -24 -77 -5 0 -9 -6 -9 -14 0 -8 -6 -17 -12 -20 -10 -5 -10 -7 -1 -12 8 -3
5 -12 -9 -26 -11 -11 -18 -28 -15 -39 3 -10 1 -22 -4 -25 -5 -3 -9 -15 -9 -28
0 -12 -7 -31 -15 -42 -8 -10 -15 -26 -15 -36 0 -9 -5 -18 -10 -20 -6 -2 -13
-27 -17 -56 -4 -39 -13 -61 -34 -84 -22 -22 -29 -40 -29 -69 0 -26 -4 -38 -12
-36 -9 1 -15 -15 -18 -46 -3 -26 -9 -47 -15 -47 -5 1 -11 -8 -13 -20 -2 -11
-7 -20 -12 -20 -9 0 -16 -25 -26 -86 -3 -21 -17 -51 -30 -67 -18 -21 -24 -41
-24 -73 0 -28 -6 -52 -15 -61 -9 -8 -13 -23 -10 -33 3 -11 0 -20 -10 -23 -8
-4 -12 -13 -9 -21 3 -7 -4 -20 -15 -28 -15 -10 -22 -31 -27 -71 -4 -31 -11
-54 -15 -51 -5 3 -9 -4 -9 -15 0 -11 -4 -22 -9 -25 -4 -3 -11 -23 -15 -45 -3
-22 -13 -41 -22 -45 -11 -4 -14 -13 -11 -27 3 -12 0 -27 -7 -35 -7 -7 -16 -31
-20 -54 -3 -22 -10 -39 -15 -36 -10 7 -17 -18 -27 -94 -9 -75 -26 -100 -68
-100 -21 0 -40 8 -52 21 -19 21 -19 62 -16 1788 2 1636 4 1767 19 1779 12 8
68 12 194 12 108 0 180 4 184 10 3 6 16 10 28 10 13 0 32 6 43 14 11 8 49 16
84 19 36 2 87 14 113 25 26 12 51 21 55 20 4 -1 28 8 54 20 26 12 53 22 61 22
7 0 26 14 41 30 15 17 40 33 56 37 17 3 30 9 30 13 0 4 12 12 26 18 14 7 22
17 19 22 -3 6 0 10 8 10 17 0 49 34 40 43 -3 4 3 7 15 7 24 0 30 15 10 23 -7
3 -5 6 6 6 20 1 76 53 76 71 0 5 9 10 20 10 11 0 20 6 20 14 0 8 7 16 15 20 8
3 15 11 15 18 0 7 11 21 24 31 13 10 27 30 31 45 4 15 10 29 13 32 10 8 32 43
38 62 4 10 10 18 15 18 5 0 9 9 9 19 0 11 5 23 10 26 6 3 10 17 10 31 0 14 11
36 24 49 18 18 26 41 31 82 4 32 11 63 15 68 18 24 25 152 25 470 1 187 4 357
8 379 9 46 24 76 38 76 12 0 70 62 64 68 -2 3 2 14 10 26 8 11 15 28 15 38 0
10 4 18 10 18 5 0 7 25 5 58 -8 93 -20 147 -33 144 -8 -1 -12 15 -12 51 0 52
-22 103 -40 92 -5 -3 -12 0 -16 6 -3 6 -2 14 5 18 7 5 8 16 1 37 -5 16 -12 42
-15 57 -3 15 -10 25 -15 22 -6 -4 -10 9 -10 28 0 19 -11 59 -25 89 -14 29 -25
65 -25 79 0 40 -30 129 -43 129 -7 0 -13 15 -14 33 -1 18 -11 51 -23 72 -12
20 -19 44 -16 51 3 7 1 16 -4 19 -6 4 -10 17 -10 30 0 13 -9 47 -19 77 -11 29
-22 66 -26 81 -3 15 -10 25 -15 22 -10 -6 -14 8 -11 33 1 8 -4 21 -12 30 -8
10 -18 36 -22 59 -4 24 -11 45 -16 49 -5 3 -9 18 -9 33 0 44 -12 91 -21 85 -4
-2 -15 21 -24 53 -8 32 -25 77 -36 100 -12 23 -18 47 -13 54 4 7 3 10 -2 6 -6
-3 -10 10 -10 29 0 20 -5 38 -11 42 -7 4 -17 38 -23 75 -7 37 -16 64 -21 61
-12 -7 -29 39 -29 77 0 16 -5 29 -12 29 -6 0 -9 3 -5 6 3 3 -3 28 -14 55 -10
28 -19 57 -19 65 0 15 -20 67 -41 106 -5 10 -9 35 -10 55 -1 45 -16 101 -18
68 -2 -19 -2 -19 -16 -2 -7 11 -11 25 -8 33 3 8 0 14 -7 14 -10 0 -10 3 0 15
10 12 10 15 0 15 -8 0 -10 8 -6 25 4 14 2 25 -3 25 -12 0 -31 48 -35 90 -4 49
-9 61 -28 82 -10 10 -18 31 -18 48 0 22 -4 28 -15 24 -11 -5 -15 1 -15 20 0
19 -6 27 -25 32 -14 3 -25 10 -25 15 0 5 -7 9 -15 9 -8 0 -15 5 -15 10 0 6
-11 10 -25 10 -14 0 -29 8 -35 20 -9 16 -21 20 -65 20 -42 0 -60 -5 -75 -20
-11 -11 -31 -20 -43 -20 -13 0 -32 -9 -42 -20 -10 -11 -26 -22 -36 -25 -11 -4
-19 -13 -19 -20 0 -8 -7 -18 -16 -23 -8 -4 -23 -34 -33 -65 -9 -32 -20 -54
-24 -51 -4 4 -7 3 -8 -2 -1 -5 -3 -26 -4 -46 -2 -21 -11 -53 -20 -72 -9 -19
-17 -55 -17 -80 -1 -26 -5 -46 -9 -46 -4 0 -11 -10 -15 -22 -4 -13 -9 -25 -13
-28 -13 -10 -40 -101 -35 -115 4 -8 1 -15 -6 -15 -6 0 -10 -6 -7 -12 2 -7 -2
-18 -10 -23 -7 -6 -17 -34 -22 -63 -4 -29 -13 -58 -20 -65 -6 -6 -11 -23 -11
-37 0 -14 -6 -32 -12 -38 -10 -10 -10 -15 2 -22 8 -5 11 -10 5 -10 -19 0 -55
-66 -55 -101 0 -19 -9 -48 -19 -65 -12 -20 -16 -35 -10 -41 6 -6 4 -14 -6 -23
-8 -7 -15 -21 -15 -32 0 -10 -4 -17 -9 -14 -12 8 -21 -18 -21 -62 0 -22 -13
-59 -30 -91 -19 -34 -30 -69 -30 -93 0 -24 -4 -37 -10 -33 -6 4 -10 -5 -10
-20 0 -15 -5 -36 -11 -47 -6 -11 -11 -36 -11 -54 0 -19 -4 -32 -8 -29 -14 8
-38 -39 -44 -88 -8 -55 -23 -99 -38 -108 -5 -4 -13 -28 -16 -55 -2 -27 -9 -52
-15 -55 -5 -4 -12 -27 -14 -53 -3 -26 -10 -49 -14 -52 -5 -3 -9 -17 -9 -31 0
-14 -7 -31 -16 -38 -9 -6 -20 -35 -25 -65 -4 -29 -16 -61 -25 -71 -9 -10 -19
-40 -22 -66 -2 -26 -10 -56 -17 -66 -7 -10 -11 -27 -8 -38 4 -13 0 -19 -11
-19 -9 0 -15 -3 -14 -7 4 -15 -27 -53 -44 -53 -9 0 -20 -5 -23 -10 -4 -6 -33
-9 -71 -7 -110 5 -99 -173 -101 1579 l-3 1527 23 27 c22 26 30 28 123 32 54 2
103 8 108 13 6 5 23 9 38 9 27 0 48 12 95 58 13 12 28 22 33 22 5 0 13 12 16
27 4 15 13 38 20 52 22 41 17 150 -7 210 -12 28 -25 51 -29 51 -4 0 -10 10
-14 23 -5 18 -8 20 -16 7 -8 -13 -10 -13 -10 2 0 9 -9 20 -20 23 -11 3 -20 11
-20 16 0 5 -7 9 -15 9 -8 0 -15 3 -15 8 0 8 -33 11 -175 15 -55 2 -112 7 -127
11 -31 9 -51 51 -54 115 -3 46 -14 117 -33 201 -6 25 -10 75 -11 112 0 37 -4
70 -10 73 -5 3 -10 24 -10 45 0 21 -4 40 -9 42 -5 2 -14 59 -20 128 -6 69 -16
127 -21 128 -13 5 -13 32 0 32 6 0 10 5 10 11 0 5 -4 8 -9 4 -10 -5 -11 4 -32
180 -6 55 -17 121 -25 147 -8 26 -14 69 -14 97 0 27 -5 62 -12 78 -6 15 -15
57 -19 93 -17 152 -42 317 -51 340 -4 8 -9 52 -12 97 -3 45 -12 97 -19 115
-12 28 -44 306 -40 346 0 6 -3 12 -7 12 -5 0 -10 -6 -13 -12 -2 -7 -7 30 -11
82 -10 129 -33 276 -49 301 -8 13 -9 22 -1 27 14 10 -9 209 -29 249 -9 17 -19
69 -22 119 -13 209 -17 235 -31 241 -10 3 -14 22 -14 62 0 31 -4 63 -10 71 -6
9 -5 17 3 22 8 5 8 11 2 16 -5 4 -11 34 -12 66 -1 33 -7 62 -12 65 -6 4 -15
67 -21 141 -15 184 -15 187 -29 204 -7 8 -15 41 -17 72 -3 32 -7 61 -9 64 -2
4 -5 47 -6 96 -1 49 -4 83 -6 77 -9 -26 -23 -12 -23 25 0 27 -3 33 -10 22 -8
-13 -10 -12 -10 3 0 9 4 17 8 17 4 0 6 17 4 38 -4 30 -6 33 -13 17 -6 -17 -8
-17 -8 -2 -1 9 -5 25 -10 35 -5 9 -12 25 -15 36 -4 11 -12 16 -21 12 -8 -3
-15 -1 -15 5 0 25 -69 63 -95 53 -8 -4 -15 -1 -15 5 0 13 -85 14 -115 1z
m-218 -432 c-3 -8 -6 -5 -6 6 -1 11 2 17 5 13 3 -3 4 -12 1 -19z m317 -2070
c22 -35 49 -190 61 -343 7 -96 18 -175 25 -175 8 0 11 -23 34 -230 8 -69 17
-136 21 -150 4 -14 9 -50 11 -80 3 -30 9 -56 14 -58 6 -2 10 -26 10 -53 0 -27
4 -49 9 -49 4 0 11 -55 15 -122 4 -68 14 -136 21 -153 7 -16 16 -68 19 -115 7
-99 14 -145 26 -180 11 -30 19 -88 25 -195 7 -107 14 -147 26 -140 5 4 9 -8 8
-27 0 -18 -3 -27 -6 -19 -4 9 -12 5 -28 -15 l-23 -29 -304 0 c-166 0 -312 4
-322 9 -51 23 -58 40 -55 124 3 62 8 85 24 102 18 20 20 36 20 165 0 79 3 137
6 128 8 -23 19 18 19 70 0 20 5 37 10 37 6 0 10 27 10 62 0 62 19 179 31 188
3 3 6 12 7 20 10 182 26 303 47 363 8 24 15 78 15 125 0 53 4 81 10 77 6 -4
10 9 11 32 1 58 8 115 19 147 6 16 10 56 10 89 0 60 17 137 30 137 4 0 10 44
13 98 5 100 25 162 53 162 8 0 14 5 14 10 0 20 49 10 64 -12z m320 -2688 c60
-22 56 85 58 -1571 l2 -1514 -37 -37 -37 -36 -362 -1 c-300 0 -366 3 -382 14
-11 8 -16 18 -13 22 4 3 0 14 -8 23 -13 14 -15 202 -15 1511 0 822 0 1504 0
1517 0 15 4 21 12 16 8 -5 9 -2 5 10 -9 23 12 43 49 49 60 9 704 7 728 -3z
m-2416 -1895 c33 -38 76 -134 87 -198 5 -27 10 -35 16 -25 6 9 9 7 9 -9 0 -12
4 -24 9 -28 5 -3 13 -20 16 -38 4 -17 15 -43 25 -57 9 -14 20 -46 24 -72 4
-27 13 -48 19 -48 7 0 12 -16 13 -37 0 -20 6 -39 12 -41 7 -2 12 -14 12 -27 0
-12 7 -28 15 -35 8 -6 14 -15 13 -18 -5 -18 27 -112 38 -112 6 0 15 -20 18
-44 4 -24 16 -63 27 -87 12 -23 21 -57 21 -76 0 -18 5 -36 12 -41 21 -13 46
-61 46 -87 0 -24 37 -106 51 -113 3 -1 4 -14 1 -27 -3 -19 0 -25 12 -25 10 0
15 -4 12 -9 -3 -5 1 -29 8 -55 8 -25 12 -46 10 -46 -4 0 5 -13 32 -43 7 -7 15
-37 19 -65 4 -29 12 -55 19 -60 6 -4 21 -35 31 -69 11 -35 23 -63 27 -63 4 0
10 -17 14 -37 4 -21 13 -47 20 -58 8 -11 14 -27 14 -36 0 -9 7 -22 15 -29 9
-7 14 -19 11 -26 -3 -8 1 -20 9 -28 8 -8 15 -24 15 -35 0 -22 27 -87 46 -111
7 -8 14 -32 17 -52 2 -20 15 -51 28 -69 13 -18 18 -29 11 -25 -14 8 -15 5 -6
-18 3 -9 10 -13 15 -10 5 3 9 -3 9 -13 0 -10 6 -28 14 -38 8 -11 16 -51 17
-88 3 -57 1 -70 -13 -78 -11 -6 -202 -10 -493 -10 -491 1 -514 2 -515 41 -1 8
-1 209 0 445 0 241 -4 445 -10 465 -5 19 -12 47 -15 63 -3 15 -12 27 -20 27
-8 0 -19 9 -24 19 -15 26 -106 81 -136 81 -14 0 -25 4 -25 8 0 12 -119 -6
-158 -24 -18 -9 -35 -21 -38 -29 -3 -7 -14 -11 -25 -8 -12 3 -19 0 -19 -8 0
-8 -8 -19 -18 -26 -14 -8 -18 -20 -15 -45 1 -18 0 -27 -3 -20 -9 19 -26 14
-20 -5 3 -10 -1 -31 -9 -47 -13 -24 -15 -96 -15 -447 0 -291 -4 -431 -12 -457
l-11 -37 -486 2 c-405 2 -487 5 -499 17 -21 21 -24 92 -5 111 8 9 13 25 10 35
-3 11 3 30 13 42 9 13 23 41 31 63 7 22 16 45 20 50 16 23 59 140 59 160 0 13
7 28 15 35 8 7 15 21 15 31 0 10 7 22 15 26 8 5 16 22 19 38 2 17 8 43 15 58
6 16 11 40 11 53 0 14 4 22 10 19 6 -3 10 0 10 7 0 7 10 31 21 53 12 22 22 59
23 82 1 24 5 43 9 43 20 0 42 36 43 69 1 19 6 37 13 39 6 2 8 8 5 13 -3 6 1
21 10 34 9 13 16 32 16 42 0 10 11 36 25 58 13 22 25 54 25 70 0 17 7 39 15
49 8 11 15 32 15 48 0 15 4 28 9 28 4 0 14 20 21 45 7 24 18 50 26 56 7 6 11
16 8 24 -3 7 -1 16 5 20 6 3 11 14 11 25 0 10 7 20 15 24 8 3 15 10 15 15 0 6
-7 8 -15 5 -8 -4 -15 -2 -15 4 0 5 9 12 21 15 12 3 18 10 15 16 -8 13 28 94
37 85 3 -3 9 7 12 22 3 16 17 64 30 106 14 43 25 83 25 90 0 7 9 19 19 25 13
8 21 29 26 63 4 29 13 54 21 57 8 3 14 14 14 24 0 11 4 27 9 37 5 9 17 43 26
75 10 31 22 57 27 57 4 0 8 7 8 16 0 8 4 13 9 10 10 -7 21 17 21 47 0 33 23
87 37 87 7 0 13 4 13 9 0 17 32 19 386 20 l350 1 32 -35z m4302 -68 c20 -17
36 -47 44 -84 4 -17 14 -37 22 -44 8 -6 14 -24 14 -40 0 -15 4 -30 9 -33 5 -3
12 -32 16 -63 4 -32 16 -70 26 -84 10 -15 19 -36 19 -47 0 -17 19 -80 37 -122
3 -8 5 -21 4 -27 -1 -7 3 -13 9 -13 5 0 10 -8 10 -18 0 -10 4 -22 9 -28 12
-13 43 -115 37 -121 -3 -3 1 -18 9 -34 8 -15 16 -36 18 -46 2 -10 11 -35 20
-57 9 -21 17 -45 17 -52 0 -8 4 -14 9 -14 4 0 11 -26 14 -57 3 -32 11 -59 17
-61 5 -2 10 -10 10 -17 0 -7 7 -15 15 -19 8 -3 15 -10 15 -15 0 -5 -7 -16 -15
-25 -8 -8 -15 -23 -15 -34 0 -13 -9 -22 -25 -26 -14 -4 -25 -10 -25 -14 0 -4
-33 -6 -72 -5 -40 2 -202 4 -360 6 l-287 2 -30 30 c-36 33 -42 83 -13 101 13
8 18 24 17 55 0 30 6 49 18 59 10 9 21 39 26 70 5 30 21 75 35 100 16 29 26
60 26 87 0 23 5 45 10 48 6 3 10 14 10 24 0 10 7 24 15 31 9 7 15 29 15 51 0
22 5 39 10 39 6 0 10 9 10 19 0 11 5 23 10 26 6 4 8 15 5 26 -4 11 -2 19 4 19
6 0 11 13 11 30 0 16 9 37 20 48 12 11 22 34 23 53 1 19 9 39 17 46 13 11 12
12 -5 13 -12 0 -16 3 -9 8 18 11 46 73 49 106 6 56 17 86 38 101 26 18 67 19
87 2z m-4493 -1349 c-3 -8 -6 -5 -6 6 -1 11 2 17 5 13 3 -3 4 -12 1 -19z
m3318 -412 l26 -24 -1 -1006 c0 -721 3 -1013 11 -1028 8 -16 7 -33 -6 -77 -22
-70 -31 -81 -64 -81 -15 0 -34 6 -43 13 -34 25 -89 101 -84 114 3 7 -1 13 -10
13 -8 0 -22 16 -30 35 -13 31 -23 40 -46 36 -4 0 -12 17 -18 38 -6 21 -17 42
-25 45 -8 3 -15 11 -15 17 0 7 -22 38 -50 70 -27 32 -50 62 -50 68 0 5 -9 13
-20 16 -11 3 -20 13 -20 21 0 7 -13 27 -30 42 -16 16 -30 34 -30 39 0 6 -7 16
-15 23 -8 7 -12 17 -8 24 3 6 2 8 -2 3 -5 -4 -20 3 -34 16 -14 14 -44 29 -66
34 -22 6 -44 12 -50 14 -5 1 -46 -1 -90 -6 -44 -5 -83 -8 -87 -7 -5 1 -8 -5
-8 -13 0 -9 -9 -15 -21 -15 -15 0 -19 -5 -15 -15 4 -11 -1 -15 -18 -15 -13 0
-26 -6 -30 -12 -20 -45 -56 -93 -66 -90 -6 1 -9 -2 -6 -7 4 -5 -9 -26 -28 -47
-19 -20 -32 -43 -29 -51 3 -8 -2 -13 -15 -13 -15 0 -27 -14 -44 -50 -13 -27
-29 -50 -36 -50 -7 0 -20 -16 -28 -36 -17 -41 -37 -64 -54 -64 -6 0 -9 -4 -5
-9 3 -5 -5 -18 -17 -28 -34 -28 -49 -58 -35 -72 8 -8 7 -11 -6 -11 -9 0 -17
-4 -17 -10 0 -5 -6 -10 -13 -10 -7 0 -17 -10 -22 -22 -14 -31 -72 -36 -106 -9
l-24 19 0 1049 c1 576 2 1063 4 1081 2 18 10 32 18 32 7 0 13 6 13 14 0 8 6
17 13 19 6 3 330 6 719 6 l707 1 26 -24z m1512 -1 c18 -11 35 -29 38 -40 3
-11 6 -150 5 -310 -1 -245 -3 -292 -16 -301 -9 -7 -16 -34 -19 -70 -2 -39 -12
-74 -29 -104 -13 -24 -23 -47 -20 -51 2 -4 -1 -11 -7 -15 -8 -5 -10 -2 -5 7 4
8 1 6 -7 -4 -8 -10 -13 -27 -10 -37 3 -11 1 -20 -5 -20 -14 0 -102 -93 -102
-107 0 -7 -11 -13 -23 -13 -16 0 -28 -9 -35 -25 -6 -14 -18 -25 -25 -25 -8 0
-23 -11 -33 -25 -10 -14 -24 -23 -31 -21 -15 6 -83 -21 -83 -33 0 -15 -103
-30 -273 -41 -181 -12 -171 -13 -236 38 l-23 19 1 558 c1 307 3 561 6 563 3 3
5 14 5 24 0 11 5 16 10 13 6 -4 20 5 31 20 l21 26 417 -3 c395 -3 418 -4 448
-23z m-6337 -552 c0 -7 -4 -13 -10 -13 -5 0 -10 12 -10 28 0 21 2 24 10 12 5
-8 10 -21 10 -27z m4145 -1783 c17 -6 32 -25 45 -55 11 -25 24 -45 30 -45 5 0
10 -7 10 -15 0 -8 9 -20 20 -27 11 -7 20 -18 20 -25 0 -7 5 -13 10 -13 6 0 10
-7 10 -15 0 -8 4 -15 9 -15 5 0 14 -14 20 -30 5 -17 17 -33 26 -36 9 -4 23
-20 31 -36 8 -16 19 -26 24 -23 6 4 10 -1 10 -10 0 -8 7 -18 15 -21 8 -4 15
-15 15 -25 0 -11 7 -19 16 -19 8 0 13 -4 9 -10 -8 -12 16 -50 32 -50 7 0 13
-7 13 -16 0 -8 5 -12 10 -9 6 3 10 -2 10 -13 0 -10 11 -25 25 -32 15 -8 21
-16 15 -20 -7 -4 -1 -14 15 -26 14 -10 25 -27 25 -36 0 -10 18 -35 40 -57 22
-21 37 -40 35 -43 -3 -3 4 -13 15 -23 11 -10 20 -23 20 -29 0 -7 9 -18 20 -26
11 -8 20 -23 20 -33 0 -10 4 -16 8 -13 9 5 21 -7 60 -62 l22 -32 0 -843 c-1
-703 -3 -847 -15 -863 -13 -18 -38 -19 -749 -19 -590 0 -738 3 -748 13 -18 18
-25 1707 -7 1696 9 -5 10 0 5 19 -5 20 -3 25 8 21 9 -4 20 8 32 35 10 23 22
41 26 41 5 0 24 25 44 56 19 30 42 58 50 61 8 3 14 14 14 24 0 10 5 19 10 19
6 0 10 7 10 15 0 8 9 15 20 15 13 0 20 7 20 20 0 12 11 33 25 48 14 15 25 32
25 39 0 12 6 14 26 12 10 -1 34 52 28 62 -3 5 2 9 11 9 8 0 21 11 27 25 6 14
15 25 20 25 4 0 8 6 8 14 0 7 7 19 15 26 8 7 12 16 9 21 -3 5 5 14 18 20 13 5
28 18 33 28 41 76 57 101 65 101 6 0 10 5 10 11 0 7 16 25 35 42 19 16 35 36
35 44 0 8 11 24 25 37 14 13 25 30 25 38 0 29 85 47 135 28z m-6027 -200 c11
0 19 -33 31 -126 4 -34 12 -67 16 -74 4 -7 12 -53 16 -103 5 -49 14 -96 20
-103 7 -8 9 -17 5 -21 -3 -3 0 -16 7 -27 8 -12 20 -66 27 -121 7 -55 19 -112
26 -126 7 -14 16 -66 19 -115 3 -48 9 -91 15 -94 12 -8 29 -86 30 -137 0 -55
19 -145 30 -138 11 7 21 -45 27 -135 3 -41 9 -78 15 -81 15 -9 27 -76 29 -154
1 -54 3 -63 9 -40 6 25 8 21 9 -26 0 -30 6 -60 11 -65 6 -6 14 -54 19 -108 7
-68 15 -104 27 -117 10 -12 18 -41 21 -81 2 -35 13 -97 24 -140 10 -42 19 -89
19 -105 0 -15 14 -77 30 -138 16 -60 30 -130 30 -155 0 -25 9 -68 19 -96 11
-28 25 -91 32 -140 7 -49 18 -98 26 -109 7 -11 13 -39 13 -63 0 -23 7 -54 16
-68 14 -21 15 -33 5 -81 -7 -36 -18 -61 -32 -71 -17 -12 -114 -14 -637 -13
-339 1 -622 1 -629 1 -7 0 -24 12 -39 27 -25 25 -26 29 -22 120 2 54 9 98 16
105 7 7 12 30 13 52 0 32 2 37 9 21 6 -14 9 6 10 60 0 57 6 92 20 120 13 28
19 62 20 112 0 39 5 75 10 78 6 3 10 16 10 27 0 12 8 30 17 40 12 14 17 40 19
97 2 92 10 137 31 169 8 13 16 44 19 70 3 42 17 108 44 211 5 19 6 41 1 48 -8
16 6 77 32 135 9 21 19 68 20 106 2 38 8 75 12 83 5 7 10 20 11 29 1 8 9 41
18 73 9 32 16 90 16 130 0 48 3 67 9 58 8 -12 11 -9 16 12 4 15 7 39 8 54 0
56 29 178 45 196 13 15 16 36 15 103 -1 46 2 84 7 84 10 0 30 75 37 140 3 25
10 50 15 57 5 7 12 41 15 75 3 35 11 66 16 70 6 4 13 36 15 72 2 36 8 66 13
66 5 0 9 10 9 23 0 36 40 200 56 230 8 15 12 27 8 27 -4 0 1 9 11 20 18 20 18
20 51 -5 18 -14 37 -25 42 -25z m3270 10 c40 0 69 -31 77 -82 5 -29 10 -37 16
-27 6 11 9 8 9 -8 0 -12 5 -25 10 -28 6 -3 10 -21 10 -38 0 -18 9 -55 20 -84
11 -29 21 -67 22 -85 1 -18 7 -38 13 -45 13 -12 42 -98 70 -203 9 -36 21 -73
26 -82 5 -10 9 -31 9 -48 0 -16 5 -30 10 -30 6 0 10 -7 10 -15 0 -7 5 -38 11
-67 9 -42 13 -49 20 -33 6 16 8 14 8 -12 1 -18 5 -33 10 -33 5 0 12 -21 16
-47 4 -27 10 -52 13 -58 12 -19 30 -99 25 -112 -3 -7 -1 -13 4 -13 10 0 28
-47 38 -100 11 -58 16 -70 29 -70 6 0 12 -8 12 -17 2 -59 25 -128 48 -144 4
-4 7 -25 4 -48 -2 -22 0 -41 4 -41 5 0 8 -9 8 -20 0 -11 4 -20 9 -20 9 0 10
-6 32 -115 6 -33 18 -67 25 -76 8 -8 14 -30 14 -47 0 -18 5 -32 11 -32 5 0 7
-5 3 -11 -3 -6 0 -16 7 -21 11 -8 12 -10 1 -15 -10 -4 -8 -11 8 -28 14 -15 22
-38 24 -71 2 -27 4 -57 5 -66 0 -10 8 -18 16 -18 17 0 35 -58 35 -112 0 -21 4
-38 8 -38 10 0 31 -57 36 -97 1 -16 6 -35 10 -41 3 -6 2 -13 -4 -17 -5 -3 -10
-15 -10 -25 0 -27 -35 -43 -89 -41 -206 6 -232 4 -229 -16 2 -10 -4 -18 -12
-19 -8 0 -20 -2 -27 -2 -6 -1 -36 -26 -66 -55 -56 -55 -57 -59 -72 -177 -5
-45 19 -146 34 -142 6 1 11 -5 11 -13 0 -9 7 -18 15 -21 8 -3 17 -14 20 -25 4
-10 13 -19 22 -19 8 0 22 -9 31 -20 14 -16 33 -22 97 -26 44 -3 706 -7 1470
-9 765 -2 1406 -6 1425 -10 27 -5 39 -15 53 -42 17 -33 17 -124 17 -1663 0
-1440 2 -1629 15 -1640 8 -7 15 -21 15 -31 0 -10 8 -23 18 -28 9 -6 11 -11 5
-11 -7 0 -13 -5 -13 -11 0 -6 8 -8 18 -5 12 4 20 -1 27 -17 18 -41 91 -67 187
-68 76 -1 92 3 134 26 66 37 102 81 110 135 4 25 16 61 27 80 19 34 20 54 21
524 1 399 -1 489 -12 494 -9 3 -10 7 -3 11 10 7 19 37 20 74 1 11 9 17 24 17
12 0 32 7 44 15 17 12 27 12 53 3 23 -8 278 -9 917 -6 858 5 885 4 909 -14
l24 -19 0 -1387 0 -1388 -28 -33 -28 -34 -944 2 c-900 1 -946 2 -970 19 -13
11 -29 34 -33 53 -5 19 -10 142 -11 274 -2 132 -5 251 -8 264 -3 16 -15 28
-31 34 -15 5 -27 15 -27 22 0 23 -64 65 -98 65 -18 0 -32 4 -32 9 0 5 -21 8
-47 7 -81 -5 -153 -18 -153 -28 0 -5 -12 -13 -26 -18 -14 -6 -23 -14 -20 -19
3 -5 -5 -12 -19 -15 -16 -4 -27 -15 -30 -34 -4 -15 -16 -47 -28 -72 -20 -41
-22 -66 -27 -283 l-5 -239 -29 -21 c-27 -20 -39 -20 -370 -20 -236 1 -349 5
-367 13 -57 26 -54 -48 -60 1260 -3 663 -6 1207 -8 1210 -1 3 -6 -4 -11 -15
-8 -19 -9 -19 -9 3 -1 12 4 22 11 22 6 0 4 7 -5 18 -10 10 -17 27 -17 38 0 16
2 17 10 4 15 -24 0 91 -17 125 -8 17 -17 56 -20 87 -3 32 -10 58 -14 58 -5 0
-9 9 -9 21 0 15 -5 19 -15 15 -11 -4 -15 1 -15 17 0 37 -12 67 -25 67 -7 0
-16 11 -19 24 -3 14 -15 28 -26 31 -11 3 -20 12 -20 20 0 18 -123 38 -193 32
-92 -8 -111 -14 -134 -41 -12 -14 -29 -26 -38 -26 -8 0 -15 -8 -15 -19 0 -10
-7 -24 -15 -31 -9 -7 -14 -18 -12 -25 3 -6 -1 -22 -9 -36 -18 -32 -19 -163 -1
-181 8 -7 18 -42 23 -78 5 -38 14 -64 20 -63 29 5 34 -182 34 -1330 1 -1116
-2 -1219 -27 -1193 -4 3 -14 -1 -24 -10 -15 -13 -131 -15 -1062 -16 -972 -2
-1046 -1 -1071 15 -14 10 -26 14 -26 10 -1 -5 -10 11 -21 34 -19 42 -19 63
-17 1202 3 1087 4 1160 21 1178 12 14 17 37 17 84 0 36 4 69 8 74 16 19 44
106 38 120 -3 9 1 15 9 15 8 0 15 7 15 15 0 9 12 33 26 55 14 21 23 44 19 49
-3 7 2 11 14 11 16 0 21 6 21 24 0 14 11 37 25 52 14 15 25 32 25 38 0 6 14
24 30 40 16 16 27 33 23 39 -4 6 0 8 9 5 9 -4 21 4 32 22 15 26 49 63 91 98 8
7 13 17 10 22 -3 4 5 11 18 14 12 3 45 27 72 52 28 25 65 52 83 59 17 8 32 21
32 29 0 9 8 16 19 16 10 0 21 7 25 15 3 8 15 15 26 15 11 0 20 5 20 11 0 6 8
18 17 27 16 16 16 16 10 0 -9 -25 -3 -23 34 11 17 16 37 28 43 27 6 -2 8 -1 4
1 -17 10 -6 23 18 23 14 0 49 11 76 25 27 14 53 23 58 20 4 -3 15 6 23 19 13
19 28 25 74 30 32 4 66 10 77 13 12 3 16 1 12 -6 -4 -6 5 -13 21 -17 15 -4 34
-13 41 -21 7 -7 26 -13 42 -13 16 0 30 -7 34 -15 3 -8 18 -15 33 -15 30 -1 63
-20 63 -38 0 -33 243 -63 295 -36 15 8 32 14 39 14 15 1 76 57 76 71 0 7 8 18
18 25 16 13 16 13 -3 14 -19 1 -19 1 -2 14 15 12 18 30 19 118 1 57 -3 111 -8
120 -5 9 -31 39 -57 67 -40 42 -54 51 -82 51 -26 0 -33 3 -29 15 5 11 -1 15
-22 15 -23 0 -26 2 -14 10 8 5 13 10 10 11 -3 0 -14 2 -25 4 -11 2 -21 9 -23
14 -2 6 -10 11 -17 11 -7 0 -26 7 -41 15 -16 8 -38 12 -49 8 -17 -5 -18 -4 -7
10 11 13 10 17 -7 26 -11 6 -29 11 -41 11 -12 0 -31 5 -43 12 -35 18 -87 27
-87 15 0 -6 -6 -2 -14 9 -8 10 -21 19 -30 19 -9 0 -15 5 -13 10 1 6 -20 13
-48 17 -57 7 -175 -1 -175 -12 0 -11 -59 -32 -97 -35 -18 -1 -41 -9 -50 -17
-10 -9 -38 -19 -62 -23 -31 -5 -45 -13 -48 -26 -5 -19 -23 -26 -78 -31 -19 -2
-29 -8 -27 -16 1 -8 -2 -11 -7 -7 -11 6 -71 -21 -71 -33 0 -9 -49 -32 -67 -32
-7 0 -18 -9 -25 -20 -7 -11 -21 -20 -30 -20 -10 0 -18 -7 -18 -15 0 -8 -9 -15
-20 -15 -11 0 -20 -4 -20 -10 0 -5 -11 -10 -25 -10 -18 0 -26 -7 -31 -25 -4
-17 -13 -25 -28 -25 -21 -1 -79 -29 -61 -30 6 0 -2 -8 -17 -16 -16 -8 -28 -19
-28 -23 0 -5 -11 -12 -25 -15 -14 -4 -25 -13 -25 -20 0 -8 -17 -24 -37 -37
-21 -12 -67 -51 -102 -86 -35 -35 -68 -63 -72 -63 -5 0 -16 -12 -26 -27 -10
-16 -23 -34 -30 -41 -7 -7 -13 -18 -13 -23 0 -5 -6 -9 -13 -9 -8 0 -22 -18
-32 -40 -10 -22 -21 -37 -26 -34 -4 2 -15 -10 -23 -28 -9 -18 -32 -50 -51 -71
-19 -21 -35 -42 -35 -46 0 -13 -30 -70 -41 -76 -5 -4 -9 -15 -9 -26 0 -11 -6
-22 -13 -25 -8 -3 -14 -10 -15 -17 -2 -28 -35 -106 -42 -102 -10 6 -20 -19
-20 -51 0 -28 -29 -104 -40 -104 -4 0 -11 -28 -14 -62 -4 -35 -15 -88 -24
-118 -14 -49 -16 -183 -19 -1285 -2 -676 -3 -1243 -3 -1260 0 -26 -6 -33 -48
-51 -45 -20 -62 -21 -395 -20 -259 1 -350 4 -355 13 -4 7 -18 16 -30 20 l-23
9 -2 2467 c-1 1357 1 2467 5 2467 4 0 8 12 10 28 4 38 -44 35 531 30 175 -2
321 0 323 4 3 5 22 8 44 8 29 0 48 8 80 35 23 19 47 35 53 35 6 0 8 3 4 6 -3
4 0 13 8 21 18 18 33 72 41 148 5 51 2 69 -19 115 -27 61 -88 127 -125 137
-14 3 -21 11 -18 19 4 11 -18 14 -122 15 -70 1 -136 3 -147 4 -11 1 -28 2 -37
3 -16 2 -18 13 -18 86 0 71 4 92 25 132 14 26 25 63 25 82 0 20 9 55 21 79 12
24 23 58 25 76 10 74 17 97 30 97 8 0 14 10 14 24 0 42 24 130 37 141 7 6 17
35 22 66 5 31 17 73 25 94 9 20 16 48 16 61 0 13 5 24 11 24 6 0 8 8 4 19 -3
11 0 21 9 24 8 3 19 31 25 64 7 32 25 101 41 153 16 52 35 119 42 147 6 29 20
62 31 73 10 12 21 35 23 53 6 42 9 59 18 79 4 9 5 21 2 26 -3 6 0 12 8 15 9 4
12 14 9 25 -2 11 2 33 11 50 9 17 16 40 16 52 0 11 5 20 11 20 6 0 9 7 5 15
-3 8 -1 15 4 15 6 0 10 16 10 35 0 41 24 105 39 105 10 0 17 29 26 104 2 21 9
44 14 50 6 7 13 38 17 70 5 41 13 61 27 71 16 11 23 30 28 80 5 47 13 73 28
89 11 12 21 28 21 34 0 20 57 42 112 43 29 1 44 4 33 7 l-20 5 20 7 c13 5 24
3 31 -6 6 -8 25 -14 42 -14z m-1981 -426 c-3 -3 -12 -4 -19 -1 -8 3 -5 6 6 6
11 1 17 -2 13 -5z m9796 -373 c10 -10 20 -24 21 -32 2 -8 6 -21 9 -29 14 -37
37 -110 51 -165 9 -33 21 -74 26 -91 6 -17 10 -50 10 -73 0 -28 7 -52 20 -68
12 -16 20 -41 20 -64 0 -21 4 -40 9 -43 4 -3 11 -28 15 -56 4 -27 11 -50 16
-50 6 0 10 -27 10 -59 0 -43 4 -60 15 -65 8 -3 15 -14 15 -25 0 -11 4 -21 10
-23 5 -1 12 -41 15 -87 3 -47 8 -87 12 -90 15 -11 32 -56 38 -98 4 -24 10 -43
14 -43 4 0 13 -42 20 -92 7 -51 22 -111 32 -132 10 -22 19 -49 19 -59 0 -11 4
-36 10 -56 5 -20 12 -49 15 -64 3 -17 10 -25 17 -21 8 5 9 -2 5 -24 -3 -17 -2
-32 3 -34 10 -3 35 -103 52 -208 6 -36 13 -67 17 -70 11 -9 30 -73 51 -174 11
-55 24 -102 28 -105 4 -4 16 -23 26 -44 17 -36 17 -39 0 -65 -10 -15 -27 -37
-39 -50 l-22 -23 -600 -1 c-485 0 -605 3 -622 14 -21 12 -45 73 -36 88 3 4 6
29 7 54 0 25 7 51 15 57 7 6 13 31 13 55 0 23 5 46 11 49 6 4 8 13 5 21 -3 7
-1 16 4 19 6 4 10 21 10 38 0 24 3 28 10 17 5 -8 10 -10 11 -5 1 6 2 15 3 20
1 6 5 39 10 75 4 36 14 79 20 95 25 60 46 133 46 158 0 14 5 29 10 32 6 3 10
24 10 45 0 21 6 41 13 43 9 4 8 8 -3 16 -10 7 -11 11 -2 11 6 0 12 8 12 18 0
10 5 23 10 28 6 6 17 47 25 92 7 44 21 95 30 112 9 17 17 51 18 75 1 30 6 44
14 41 7 -3 11 5 11 22 0 15 7 56 17 92 9 36 19 76 22 90 2 13 9 30 14 37 10
11 22 71 36 168 3 22 9 44 14 49 5 6 9 18 9 28 0 9 7 21 16 26 9 5 16 24 17
45 1 20 5 37 8 37 3 0 9 28 13 63 4 38 12 66 21 73 9 7 15 16 14 20 -1 5 1 17
6 28 5 12 3 21 -6 27 -8 5 -9 9 -2 9 6 0 14 23 18 50 4 28 11 50 15 50 4 0 11
24 15 53 9 70 35 160 49 169 16 11 68 -1 89 -21z m-13776 -143 c-3 -8 -6 -5
-6 6 -1 11 2 17 5 13 3 -3 4 -12 1 -19z m220 -10 c-3 -8 -6 -5 -6 6 -1 11 2
17 5 13 3 -3 4 -12 1 -19z m11026 -650 c19 -13 41 -38 48 -55 7 -18 17 -33 22
-33 5 0 7 -9 4 -20 -3 -11 1 -26 8 -34 8 -7 12 -25 11 -40 -2 -14 1 -26 5 -26
5 0 12 -18 15 -40 4 -23 11 -39 18 -37 6 2 16 -15 22 -37 7 -23 19 -66 28 -96
8 -30 20 -56 26 -58 5 -2 10 -10 10 -18 0 -8 7 -17 15 -20 9 -4 15 -19 15 -40
0 -18 11 -54 25 -80 14 -26 25 -57 25 -69 0 -30 24 -87 33 -78 4 3 7 -17 7
-46 0 -36 4 -53 14 -57 8 -3 23 -29 32 -57 9 -29 26 -64 36 -80 13 -18 18 -36
14 -55 -3 -15 -2 -34 4 -42 5 -8 10 -10 10 -5 2 22 33 -73 37 -112 3 -26 10
-43 18 -43 13 0 45 -73 45 -102 0 -8 7 -22 16 -29 22 -18 14 -130 -10 -154
-14 -15 -74 -16 -571 -17 -500 0 -556 1 -571 16 -25 25 -53 90 -44 101 4 6 11
25 15 42 3 18 11 35 16 39 14 8 39 73 39 100 0 13 4 24 9 24 13 0 24 48 23
100 0 25 2 39 5 32 7 -17 23 -5 23 19 0 11 7 19 16 19 8 0 12 5 9 10 -9 14 25
123 41 132 6 4 15 24 19 45 4 20 13 46 21 57 8 11 14 33 14 48 0 15 5 30 10
33 6 3 10 17 10 30 0 13 7 30 15 39 8 8 15 19 15 25 0 15 31 105 39 111 10 8
31 74 31 99 0 12 4 20 8 17 5 -3 14 18 22 47 15 61 40 117 52 117 4 0 8 17 8
38 0 21 6 47 14 58 8 11 19 47 25 79 6 33 16 62 21 63 6 2 10 10 10 17 0 20
28 45 50 45 10 0 34 -10 53 -22z m-6036 -105 c-3 -10 -5 -4 -5 12 0 17 2 24 5
18 2 -7 2 -21 0 -30z m-550 -5 c-3 -8 -6 -5 -6 6 -1 11 2 17 5 13 3 -3 4 -12
1 -19z m7040 -990 c-3 -8 -6 -5 -6 6 -1 11 2 17 5 13 3 -3 4 -12 1 -19z
m-12770 -370 c-3 -7 -5 -2 -5 12 0 14 2 19 5 13 2 -7 2 -19 0 -25z m-330 -450
c-2 -24 -4 -5 -4 42 0 47 2 66 4 43 2 -24 2 -62 0 -85z m0 -1021 c-1 -166 -2
-30 -2 303 0 333 1 469 2 302 2 -166 2 -438 0 -605z m11497 828 c17 -13 145
-15 927 -15 866 0 908 -1 930 -18 l22 -19 3 -397 c2 -375 1 -399 -16 -416 -10
-10 -27 -23 -38 -29 -14 -7 -314 -11 -948 -11 l-927 -1 -39 43 -38 42 -1 271
c-1 148 -2 314 -3 368 -1 108 17 160 65 184 31 16 40 16 63 -2z m-8811 -50
c19 -19 32 -35 28 -35 -4 0 -5 -19 -1 -42 7 -53 4 -660 -5 -705 -3 -18 -10
-33 -16 -33 -5 0 -19 -9 -31 -19 -21 -20 -45 -26 -161 -37 -44 -4 -70 -11 -74
-20 -3 -8 -11 -14 -18 -14 -15 0 -65 -45 -65 -60 0 -5 -7 -10 -17 -10 -9 0
-14 -3 -10 -6 3 -4 0 -13 -8 -21 -11 -11 -15 -42 -15 -126 0 -101 2 -114 21
-130 11 -10 25 -31 31 -47 10 -30 27 -41 29 -17 0 6 5 1 10 -12 6 -15 15 -21
24 -17 9 3 23 -6 37 -24 21 -29 25 -30 101 -30 104 0 143 -18 158 -72 15 -59
13 -2732 -3 -2757 -6 -10 -24 -26 -40 -36 -27 -15 -89 -17 -731 -19 -695 -2
-702 -1 -720 19 -10 11 -23 32 -28 48 -6 15 -14 27 -17 27 -4 0 -6 21 -5 47 1
27 2 633 3 1348 l1 1300 29 48 30 47 80 0 c69 0 82 3 92 20 7 11 16 20 21 20
15 0 67 44 67 56 0 7 8 19 18 26 34 24 42 55 42 159 0 90 -2 104 -21 120 -11
9 -20 19 -19 21 4 11 -14 38 -26 38 -8 0 -14 7 -14 15 0 8 -6 15 -13 15 -7 0
-18 9 -25 21 -7 11 -19 18 -27 15 -8 -3 -15 0 -18 7 -3 9 -103 13 -396 15
l-392 3 -29 25 c-19 17 -30 39 -34 67 -3 23 -6 198 -7 389 l-2 348 28 27 27
28 922 5 c506 3 973 4 1037 3 l116 -2 36 -36z m2565 21 c14 -14 16 -66 15
-412 l-1 -397 -24 -21 c-54 -48 -15 -46 -982 -46 -904 0 -915 0 -950 20 -19
12 -37 28 -40 36 -3 8 -6 188 -6 401 l-1 386 24 23 c15 13 40 24 63 26 22 2
455 2 963 1 819 -1 926 -3 939 -17z m9833 14 c966 0 979 0 999 -20 19 -19 20
-33 20 -417 l0 -398 -34 -27 -35 -28 -1011 0 -1011 0 -30 32 -29 32 0 376 c0
337 2 379 18 410 18 38 53 52 106 44 16 -2 469 -4 1007 -4z m-7981 -940 c0 -5
-4 -10 -10 -10 -5 0 -10 5 -10 10 0 6 5 10 10 10 6 0 10 -4 10 -10z"/>
<path d="M18319 20046 c-3 -4 -43 -7 -88 -8 -69 0 -84 -4 -96 -20 -7 -11 -18
-17 -24 -14 -6 4 -18 2 -28 -3 -10 -5 -26 -12 -36 -15 -10 -3 -16 -10 -12 -15
3 -5 -4 -12 -15 -16 -11 -3 -20 -12 -20 -18 0 -7 -18 -21 -40 -31 -22 -11 -40
-23 -40 -28 0 -9 -13 -27 -42 -56 -9 -9 -23 -43 -31 -74 -8 -32 -23 -65 -32
-74 -14 -15 -16 -32 -11 -118 3 -56 7 -110 9 -121 10 -50 20 -74 32 -79 7 -2
16 -19 20 -37 4 -18 13 -39 19 -46 26 -30 36 -43 36 -48 0 -9 52 -55 61 -55 5
0 9 -6 9 -13 0 -7 21 -18 47 -25 25 -7 52 -20 58 -28 14 -19 129 -32 253 -28
103 3 149 11 155 27 3 7 24 19 46 27 27 9 40 18 37 27 -3 8 2 13 12 13 21 0
76 56 86 88 4 12 14 29 22 37 8 8 16 27 17 43 1 21 6 28 16 24 11 -4 13 -1 7
13 -4 11 -2 22 5 26 16 9 19 31 26 155 4 83 2 104 -11 117 -9 8 -16 22 -16 30
0 8 -7 20 -15 27 -8 7 -15 25 -15 40 0 15 -7 33 -15 40 -8 7 -15 16 -15 20 0
4 -16 24 -35 44 -19 21 -35 42 -35 47 0 5 -6 9 -13 9 -6 0 -25 14 -41 31 -18
19 -36 29 -47 26 -10 -3 -23 1 -30 9 -6 8 -16 14 -21 14 -5 0 -16 7 -24 15 -9
8 -26 15 -38 15 -13 0 -36 3 -52 6 -16 3 -32 3 -35 0z m-246 -113 c-7 -2 -19
-2 -25 0 -7 3 -2 5 12 5 14 0 19 -2 13 -5z"/>
<path d="M9174 18662 c-39 -20 -79 -43 -88 -51 -8 -7 -23 -11 -32 -7 -12 5
-14 1 -10 -17 3 -12 3 -16 0 -9 -8 17 -24 15 -24 -3 0 -8 -6 -15 -13 -15 -7 0
-21 -16 -31 -35 -10 -19 -22 -32 -26 -30 -5 3 -13 -9 -19 -25 -5 -17 -14 -30
-20 -30 -11 0 -30 -53 -35 -101 -2 -19 -7 -60 -11 -91 -7 -60 10 -205 26 -224
5 -6 7 -18 3 -27 -3 -8 3 -23 14 -33 10 -11 24 -34 31 -51 8 -18 17 -33 22
-33 9 0 26 -16 72 -68 17 -21 36 -32 53 -32 15 0 34 -8 43 -19 9 -10 36 -22
61 -26 25 -4 48 -12 52 -18 3 -6 48 -13 98 -15 83 -4 93 -3 111 17 15 15 32
21 65 21 25 0 43 4 40 9 -6 10 53 41 78 41 9 0 20 8 23 18 4 9 19 30 35 45 15
16 28 33 28 38 0 6 5 7 10 4 6 -3 10 -1 10 5 0 6 7 18 15 27 9 9 13 23 10 34
-5 13 -2 19 10 19 26 0 35 45 38 183 2 165 -7 243 -32 250 -11 2 -23 22 -30
50 -9 32 -17 44 -27 40 -9 -3 -14 1 -14 12 0 37 -138 135 -191 135 -11 0 -32
11 -47 25 -25 23 -34 25 -127 24 -95 0 -103 -2 -171 -37z"/>
<path d="M16970 17593 c-47 -8 -57 -15 -30 -23 23 -8 23 -8 -8 -9 -46 -1 -139
-62 -126 -83 3 -4 -9 -22 -25 -39 l-31 -31 0 -795 c1 -614 -2 -799 -12 -810
-8 -10 -24 -13 -47 -10 -47 6 -123 35 -136 51 -5 7 -31 22 -57 34 -27 11 -48
26 -48 31 0 6 -9 11 -19 11 -10 0 -21 7 -25 15 -3 8 -12 15 -20 15 -20 0 -86
40 -86 52 0 5 -4 7 -9 4 -5 -3 -14 1 -21 9 -7 8 -20 15 -30 15 -10 0 -20 7
-24 15 -3 8 -12 15 -21 15 -14 0 -54 18 -65 30 -3 3 -25 14 -50 25 -25 11 -50
26 -57 35 -6 8 -15 15 -20 16 -12 1 -47 17 -53 23 -3 3 -18 14 -35 23 -16 10
-29 22 -27 28 1 5 -2 10 -7 10 -5 0 -18 3 -28 6 -15 5 -16 4 -3 -6 12 -9 10
-10 -10 -4 -23 6 -40 23 -41 41 0 11 -40 32 -60 33 -9 0 -20 7 -23 16 -3 9
-12 14 -20 11 -8 -3 -22 3 -31 13 -20 22 -85 55 -102 52 -7 -2 -13 2 -13 8 0
5 -7 10 -15 10 -9 0 -27 11 -41 25 -14 14 -29 25 -34 25 -20 0 -60 24 -60 36
0 8 -10 16 -22 18 -35 8 -162 20 -173 17 -5 -1 -31 -5 -58 -8 -33 -4 -51 -12
-58 -25 -5 -10 -13 -16 -18 -14 -9 6 -41 -29 -41 -44 0 -6 -4 -10 -9 -10 -5 0
-11 -10 -13 -22 -2 -13 -8 -22 -14 -21 -8 1 -11 -36 -10 -118 1 -95 4 -122 16
-129 13 -8 13 -10 0 -10 -10 0 -7 -5 8 -16 13 -9 22 -26 22 -40 0 -14 4 -23 9
-19 5 3 12 1 16 -5 3 -5 15 -10 25 -10 10 0 23 -6 27 -13 11 -17 53 -43 84
-50 14 -4 45 -21 70 -39 24 -18 60 -41 79 -52 19 -10 40 -25 47 -33 7 -9 13
-11 18 -4 3 6 11 11 16 11 6 0 8 -4 5 -9 -9 -14 28 -40 85 -61 30 -11 48 -19
41 -20 -23 0 -2 -20 22 -20 13 0 29 -6 35 -14 7 -8 26 -18 42 -21 21 -5 29
-11 25 -21 -4 -10 -2 -12 6 -8 6 4 17 -1 24 -10 6 -9 21 -18 32 -19 11 0 28
-11 38 -24 9 -13 23 -23 31 -23 16 0 75 -29 83 -40 3 -5 16 -10 30 -11 17 -3
24 -9 22 -21 -2 -12 4 -18 16 -18 24 0 74 -25 66 -33 -6 -5 116 -67 133 -67 5
0 19 -11 31 -25 12 -14 31 -25 42 -25 12 0 32 -11 46 -25 24 -25 51 -35 39
-15 -4 6 9 3 29 -6 22 -11 39 -28 46 -47 15 -44 13 -56 -15 -91 -44 -55 -58
-66 -82 -66 -13 0 -23 -5 -23 -11 0 -6 -7 -9 -15 -5 -8 3 -15 1 -15 -4 0 -5
-10 -10 -22 -12 -13 -2 -22 -9 -21 -15 2 -10 -46 -32 -104 -49 -7 -2 -13 -10
-13 -19 0 -9 -9 -15 -22 -15 -12 0 -18 -3 -15 -7 6 -6 -65 -43 -83 -43 -4 0
-22 -13 -40 -30 -18 -16 -41 -30 -51 -30 -10 0 -19 -5 -19 -10 0 -6 -12 -15
-26 -20 -15 -6 -38 -19 -53 -29 -14 -10 -39 -21 -55 -25 -17 -4 -40 -18 -53
-32 -12 -13 -27 -24 -32 -24 -16 0 -91 -41 -91 -50 0 -4 -13 -10 -28 -13 -15
-3 -40 -17 -55 -31 -15 -14 -27 -20 -27 -14 0 6 -10 -1 -23 -15 -12 -15 -28
-27 -35 -27 -7 0 -12 -4 -12 -9 0 -8 -30 -21 -55 -25 -5 0 -14 -11 -20 -23 -5
-13 -14 -22 -20 -22 -36 4 -57 -3 -65 -23 -5 -13 -9 -19 -9 -14 -1 5 -8 3 -16
-4 -9 -7 -18 -10 -21 -7 -6 6 -15 0 -53 -33 -9 -8 -28 -16 -41 -18 -30 -3 -32
-5 -34 -36 0 -13 -5 -24 -11 -23 -5 1 -11 -8 -13 -20 -2 -13 -7 -23 -12 -23
-4 0 -8 -49 -9 -110 0 -60 3 -110 7 -110 5 0 16 -20 26 -45 10 -24 23 -42 27
-39 5 2 14 -4 21 -16 7 -11 17 -20 21 -20 5 0 15 -6 22 -14 26 -25 255 -32
255 -7 0 4 20 13 45 20 25 7 43 16 40 21 -5 7 75 50 94 50 7 0 9 5 6 10 -3 6
1 10 9 10 9 0 16 4 16 9 0 5 14 14 30 20 17 5 30 15 30 20 0 6 13 11 30 11 16
0 40 10 54 23 40 37 51 44 62 40 6 -2 17 3 24 12 7 8 18 15 24 15 6 0 26 14
45 30 18 17 42 32 54 34 11 1 23 8 25 14 2 7 8 10 13 7 4 -3 22 7 39 23 17 16
44 32 62 36 17 3 39 16 49 28 17 19 28 23 73 27 4 1 6 8 2 16 -3 9 0 15 10 15
15 0 117 51 140 71 7 6 17 8 22 5 5 -3 18 4 30 14 12 11 25 20 29 20 5 0 16 8
25 18 27 28 43 39 54 35 5 -2 20 6 32 17 11 11 25 20 30 20 5 0 20 8 33 19 29
23 98 43 113 33 6 -4 14 -7 18 -7 3 0 15 -12 27 -26 16 -21 19 -32 12 -57 -10
-34 -14 -1484 -5 -1520 4 -12 12 -22 19 -22 8 0 19 -17 26 -37 14 -44 28 -65
40 -58 4 3 11 -1 16 -8 11 -19 47 -37 72 -37 12 0 21 -4 21 -8 0 -5 6 -9 13
-9 6 0 29 -4 49 -8 31 -6 39 -4 44 10 6 14 15 16 49 11 42 -7 95 8 95 26 0 4
17 24 39 43 24 22 41 47 44 68 3 17 6 382 6 810 1 501 4 785 11 797 5 10 26
24 45 30 30 10 43 9 80 -7 25 -10 45 -21 45 -24 0 -9 66 -43 112 -58 22 -7 35
-17 32 -25 -3 -7 13 -19 38 -30 24 -9 52 -22 63 -28 11 -7 31 -17 44 -24 13
-7 27 -17 30 -21 3 -5 24 -13 46 -19 28 -6 40 -14 39 -26 -1 -11 8 -19 26 -23
15 -3 36 -14 47 -24 11 -10 34 -22 51 -26 18 -3 32 -13 32 -21 0 -8 10 -14 25
-14 14 0 30 -9 37 -19 9 -15 15 -17 25 -9 10 8 13 6 13 -6 0 -9 7 -16 15 -16
8 0 15 -4 15 -8 0 -4 16 -14 36 -21 19 -7 38 -19 41 -27 3 -8 13 -14 23 -14
10 0 23 -7 30 -15 7 -8 21 -15 31 -15 17 0 24 -11 20 -32 0 -4 5 -5 13 -2 8 3
17 0 21 -6 6 -9 10 -9 16 1 7 11 9 11 9 -1 0 -8 27 -28 60 -44 33 -16 60 -33
60 -37 0 -3 26 -17 58 -30 31 -12 61 -29 65 -36 4 -7 17 -13 27 -13 11 0 19
-5 17 -12 -2 -14 1 -14 126 -21 92 -6 144 3 140 22 -2 6 3 11 11 11 7 0 27 14
44 30 18 17 36 30 41 30 5 0 12 19 16 43 4 23 14 50 22 59 22 25 9 132 -22
183 -13 22 -29 50 -34 63 -6 12 -19 25 -28 29 -10 4 -20 9 -23 13 -12 13 -60
40 -74 40 -9 0 -23 11 -32 26 -9 14 -23 23 -30 20 -7 -3 -16 -1 -19 5 -4 5
-10 7 -15 4 -5 -3 -16 5 -25 19 -9 13 -28 27 -42 31 -15 3 -39 15 -54 26 -15
10 -32 19 -38 19 -6 0 -15 9 -21 21 -7 12 -18 18 -26 15 -8 -3 -14 -1 -14 4 0
6 -7 10 -15 10 -8 0 -24 9 -35 20 -11 11 -31 22 -45 26 -14 3 -28 10 -31 15
-3 5 -14 9 -25 9 -10 0 -19 4 -19 8 0 5 -16 17 -35 28 -19 10 -35 22 -35 25 0
4 -15 11 -32 14 -18 4 -43 18 -56 30 -12 13 -47 34 -77 49 -29 14 -58 33 -63
42 -5 9 -20 18 -33 19 -30 3 -97 42 -127 73 -14 15 -29 21 -41 17 -12 -3 -21
0 -25 10 -3 8 -18 15 -33 16 -23 0 -25 2 -9 8 12 5 16 10 9 14 -6 4 -17 5 -25
2 -8 -3 -23 4 -35 15 -12 11 -29 20 -36 20 -8 0 -20 7 -27 15 -7 8 -18 15 -25
15 -17 0 -41 38 -50 78 -10 47 14 80 64 88 25 4 38 11 35 18 -3 8 12 18 36 26
22 7 40 19 40 27 0 8 5 11 10 8 6 -3 13 1 16 10 4 9 13 14 20 11 15 -6 74 21
74 34 0 9 39 23 58 21 6 -1 12 4 12 12 0 14 27 31 68 42 12 4 22 11 22 16 0 5
7 9 15 9 7 0 19 8 24 18 6 9 11 13 11 9 0 -5 10 -1 22 7 12 9 31 16 40 16 10
0 26 13 37 30 10 16 21 27 24 24 7 -8 84 30 112 56 11 9 32 20 48 24 15 4 36
15 47 26 11 11 31 22 45 26 14 3 28 10 31 15 3 5 14 9 25 9 10 0 18 5 17 12
-2 6 14 16 35 21 20 5 37 15 37 22 0 12 20 25 48 31 7 1 25 14 39 28 14 14 29
23 34 21 4 -3 10 -1 14 4 3 6 12 8 19 5 8 -3 20 3 27 14 8 10 26 22 42 26 15
3 27 13 27 21 0 7 10 17 23 21 34 10 96 81 112 128 23 68 20 216 -4 216 -4 0
-8 10 -8 22 -1 13 -7 24 -14 27 -6 2 -20 14 -31 26 -11 13 -31 26 -44 29 -13
4 -23 11 -21 18 1 6 -27 17 -68 25 -56 11 -79 11 -115 1 -24 -6 -57 -11 -71
-10 -19 2 -28 -3 -32 -18 -3 -14 -14 -20 -31 -20 -14 0 -26 -4 -26 -10 0 -5
-6 -10 -14 -10 -8 0 -21 -6 -28 -14 -8 -7 -24 -17 -36 -20 -12 -4 -22 -14 -22
-22 0 -8 -7 -15 -15 -15 -8 -1 -19 -3 -25 -4 -5 -1 -13 -3 -18 -4 -4 0 -18
-11 -32 -23 -14 -13 -42 -31 -62 -40 -21 -10 -38 -23 -38 -29 0 -6 -7 -9 -15
-5 -8 3 -22 3 -30 0 -12 -5 -13 -10 -4 -20 9 -11 7 -14 -11 -14 -22 0 -92 -37
-98 -52 -2 -4 -9 -8 -16 -8 -17 0 -74 -29 -81 -41 -4 -5 -14 -9 -24 -9 -10 0
-21 -9 -24 -20 -3 -11 -9 -20 -14 -18 -4 1 -23 -6 -41 -15 -18 -10 -37 -15
-42 -12 -6 3 -7 -1 -4 -9 4 -10 1 -16 -9 -16 -8 0 -25 -8 -38 -18 -13 -10 -43
-24 -66 -31 -25 -7 -43 -18 -43 -26 0 -8 -9 -15 -20 -15 -11 0 -20 -7 -20 -15
0 -9 -9 -15 -23 -15 -24 0 -51 -16 -93 -55 -14 -13 -33 -24 -42 -24 -34 0 -53
-8 -68 -29 -8 -12 -26 -22 -38 -22 -13 0 -35 -9 -49 -20 -32 -25 -69 -19 -97
18 -20 25 -20 40 -20 813 0 433 -1 793 -2 800 -2 8 -11 17 -22 22 -10 4 -16
13 -13 22 4 9 -6 22 -28 35 -18 11 -36 27 -39 35 -3 8 -17 15 -31 15 -14 0
-25 3 -25 8 0 8 -96 33 -120 31 -8 -1 -26 -4 -40 -6z m727 -1669 c-3 -3 -12
-4 -19 -1 -8 3 -5 6 6 6 11 1 17 -2 13 -5z m-1460 -870 c-3 -3 -12 -4 -19 -1
-8 3 -5 6 6 6 11 1 17 -2 13 -5z"/>
<path d="M2296 15511 c-4 -6 -22 -11 -39 -11 -31 0 -67 -27 -67 -51 0 -5 -8
-9 -17 -7 -10 2 -17 -3 -15 -9 1 -7 -2 -13 -8 -13 -5 0 -10 -7 -10 -15 0 -8
-6 -15 -14 -15 -8 0 -17 -8 -21 -17 -15 -35 -25 -526 -23 -1076 3 -619 8 -577
-64 -577 -26 0 -44 7 -58 23 -21 22 -25 24 -70 26 -20 1 -22 3 -10 11 13 8 12
10 -3 10 -28 0 -77 29 -77 45 0 8 -9 15 -19 15 -11 0 -21 5 -23 11 -2 6 -15
12 -28 13 -15 0 -25 7 -25 16 0 8 -15 18 -37 23 -21 5 -38 13 -38 18 0 5 -6 9
-14 9 -8 0 -38 16 -67 35 -30 19 -59 35 -66 35 -6 0 -14 9 -18 19 -3 12 -19
21 -40 25 -19 4 -43 16 -54 27 -10 11 -31 21 -47 22 -21 2 -28 8 -26 20 2 12
-4 17 -22 17 -13 0 -31 7 -40 15 -8 8 -17 15 -21 15 -4 0 -13 7 -21 15 -9 8
-27 15 -42 15 -21 0 -24 2 -12 10 12 7 7 12 -22 25 -21 8 -42 15 -48 15 -5 0
-10 6 -10 13 0 8 -27 25 -59 38 -33 13 -57 27 -55 31 3 4 -4 8 -15 8 -12 0
-39 13 -62 29 -22 17 -46 28 -54 25 -7 -3 -16 0 -21 7 -4 8 -3 10 4 5 7 -4 12
0 12 10 0 10 -3 14 -7 11 -3 -4 -13 -2 -20 5 -11 9 -17 9 -24 -3 -7 -11 -9
-11 -9 4 0 10 -6 17 -12 15 -7 -3 -21 3 -31 13 -12 11 -42 20 -81 23 -76 7
-178 3 -163 -6 7 -4 4 -9 -8 -14 -11 -4 -30 -16 -43 -28 -13 -12 -27 -21 -30
-21 -4 0 -6 -5 -4 -11 1 -7 -5 -14 -13 -18 -8 -3 -20 -17 -25 -31 -6 -15 -14
-24 -18 -21 -11 6 -12 -7 -12 -119 0 -70 4 -95 18 -115 10 -14 21 -33 25 -42
3 -10 17 -18 29 -19 22 0 22 -1 3 -9 -11 -5 -14 -9 -7 -9 7 -1 25 -12 40 -26
15 -14 34 -25 42 -25 8 0 34 -16 58 -34 24 -19 56 -37 72 -41 15 -3 31 -13 34
-20 3 -8 12 -12 21 -9 8 4 17 -1 21 -10 3 -9 12 -16 20 -16 8 0 14 -4 14 -9 0
-5 11 -12 25 -15 14 -4 25 -11 25 -16 0 -6 7 -10 15 -10 8 0 19 -8 24 -19 6
-10 23 -21 39 -24 16 -3 36 -12 44 -20 7 -8 30 -20 51 -28 20 -7 37 -17 37
-21 0 -4 9 -8 20 -8 25 0 64 -37 47 -43 -7 -3 3 -5 21 -4 21 0 40 -8 53 -21
11 -12 29 -22 40 -22 11 0 34 -13 51 -30 16 -16 36 -30 44 -30 8 0 14 -4 14
-9 0 -13 53 -45 72 -44 10 1 22 -7 28 -17 6 -12 17 -16 30 -13 11 3 20 0 20
-6 0 -6 6 -11 14 -11 8 0 17 -9 21 -19 3 -12 19 -21 40 -25 19 -4 47 -18 61
-32 15 -16 32 -24 44 -21 14 3 17 1 13 -11 -5 -11 -3 -13 7 -7 8 5 18 2 25 -8
7 -10 24 -18 38 -19 21 -2 29 -12 46 -55 19 -50 20 -55 4 -88 -13 -27 -24 -35
-55 -40 -23 -4 -42 -15 -49 -26 -5 -11 -14 -17 -20 -14 -5 4 -9 1 -9 -4 0 -6
-6 -11 -14 -11 -8 0 -17 -7 -20 -15 -3 -9 -11 -15 -18 -14 -19 3 -51 -12 -65
-30 -6 -9 -15 -13 -18 -9 -4 4 -14 0 -22 -8 -9 -8 -28 -18 -44 -21 -16 -3 -26
-9 -24 -13 3 -5 -4 -11 -15 -15 -11 -3 -20 -11 -20 -16 0 -5 -9 -9 -19 -9 -11
0 -26 -6 -33 -14 -8 -7 -24 -17 -37 -21 -13 -4 -31 -15 -42 -26 -10 -10 -31
-22 -46 -25 -15 -4 -39 -20 -53 -36 -13 -15 -30 -28 -37 -28 -7 0 -28 -9 -48
-20 -20 -11 -42 -20 -50 -20 -18 0 -20 -16 -2 -23 11 -5 -27 -11 -46 -8 -4 1
-10 -5 -13 -13 -3 -8 -12 -12 -20 -9 -7 3 -17 -2 -20 -11 -7 -18 -100 -66
-127 -66 -9 0 -19 -9 -22 -20 -3 -11 -14 -20 -24 -20 -10 0 -24 -7 -31 -15 -7
-8 -19 -15 -26 -15 -8 0 -14 -4 -14 -10 0 -5 -5 -10 -10 -10 -6 0 -20 -9 -32
-20 -12 -11 -30 -20 -39 -20 -10 0 -21 -4 -24 -10 -3 -5 -12 -10 -20 -10 -8 0
-27 -12 -42 -26 -15 -14 -35 -32 -44 -40 -9 -8 -21 -14 -27 -14 -7 0 -12 -7
-12 -15 0 -9 -10 -26 -23 -39 -26 -26 -27 -27 -27 -150 0 -82 2 -90 25 -112
14 -13 25 -32 25 -44 0 -11 5 -20 11 -20 7 0 22 -11 34 -24 13 -14 26 -22 29
-18 4 3 11 0 16 -8 5 -7 17 -16 27 -19 22 -6 157 -5 198 1 45 7 45 7 42 19 -1
6 16 18 38 25 21 8 42 18 45 22 3 4 24 16 47 27 23 11 44 28 46 37 3 11 11 15
26 11 14 -3 23 0 27 11 3 9 10 13 15 10 5 -3 12 1 15 9 3 8 23 20 46 28 22 7
42 19 45 26 3 7 9 10 15 7 5 -3 19 3 31 14 25 23 68 48 177 104 41 22 84 47
96 57 11 10 33 21 48 25 16 4 30 16 33 27 3 12 11 18 19 15 7 -3 19 0 27 7 20
18 77 47 93 47 8 0 14 7 14 15 0 8 7 15 15 15 8 0 15 5 15 10 0 6 12 10 26 10
15 0 38 12 56 30 16 17 38 30 49 30 11 0 22 7 25 15 4 8 19 15 35 15 18 0 32
7 39 20 6 11 18 20 28 20 9 0 30 11 46 25 26 22 36 25 75 19 25 -4 48 -8 50
-10 3 -3 5 -354 6 -782 1 -427 5 -792 10 -810 5 -22 12 -31 21 -28 10 4 14 -3
14 -20 0 -28 69 -104 94 -104 9 0 16 -4 16 -10 0 -5 8 -10 18 -10 9 0 26 -7
36 -15 22 -16 136 -21 136 -6 0 7 26 18 60 25 8 2 64 40 78 53 6 6 12 16 12
22 0 6 6 11 14 11 15 0 27 21 34 60 3 14 6 366 7 782 1 416 5 772 9 791 6 30
11 36 41 41 18 4 35 12 38 19 2 8 16 3 39 -15 20 -15 38 -25 41 -22 3 3 19 -8
35 -25 16 -17 37 -31 46 -31 20 0 50 -16 101 -56 22 -17 57 -36 77 -43 21 -7
40 -16 43 -21 9 -14 86 -51 96 -45 5 3 6 -1 3 -9 -6 -15 19 -22 66 -17 13 2
13 0 1 -8 -21 -13 3 -41 35 -41 13 0 24 -3 24 -7 0 -10 58 -43 75 -43 7 0 18
-7 25 -15 7 -8 19 -15 27 -15 8 0 24 -11 37 -25 13 -14 31 -25 40 -25 9 0 25
-9 36 -20 11 -11 25 -20 30 -20 12 0 52 -22 60 -32 3 -3 28 -18 56 -32 28 -14
57 -33 64 -41 7 -8 23 -15 36 -15 14 0 24 -6 24 -14 0 -8 13 -17 30 -21 16 -4
36 -15 43 -25 7 -10 25 -22 40 -25 14 -4 37 -17 49 -30 28 -27 123 -40 218
-29 50 5 69 13 93 35 17 16 34 29 38 29 5 0 9 6 9 13 0 8 11 24 25 37 14 13
23 30 21 36 -3 7 0 14 7 17 7 2 13 34 15 85 4 88 -3 136 -18 127 -6 -3 -10 -1
-10 4 0 6 -9 20 -20 31 -12 12 -18 25 -14 31 3 6 -3 13 -15 16 -12 3 -21 12
-21 20 0 8 -5 11 -10 8 -6 -4 -23 5 -37 19 -14 14 -32 26 -40 26 -9 0 -32 14
-53 30 -21 17 -46 30 -56 30 -9 0 -14 3 -11 7 4 3 -12 15 -35 25 -23 10 -48
27 -55 38 -8 11 -25 20 -37 20 -13 0 -29 6 -35 14 -7 8 -24 17 -39 21 -15 4
-35 15 -45 26 -10 10 -24 19 -31 19 -8 0 -16 7 -20 15 -3 9 -18 15 -38 15 -25
0 -29 3 -18 10 12 8 11 10 -6 10 -11 0 -29 8 -40 19 -11 10 -30 22 -42 25 -12
4 -22 11 -22 16 0 4 -11 11 -25 14 -14 4 -25 11 -25 16 0 6 -9 10 -19 10 -11
0 -33 14 -49 30 -18 18 -41 30 -57 30 -14 0 -28 7 -31 15 -4 8 -17 15 -30 15
-14 0 -27 7 -30 15 -4 8 -13 15 -21 15 -8 0 -11 5 -8 10 3 6 -1 10 -10 10 -15
0 -64 27 -75 41 -3 3 -16 10 -29 14 -14 4 -34 16 -45 26 -11 11 -27 19 -35 19
-9 0 -33 14 -55 30 -21 16 -50 32 -66 35 -28 6 -50 39 -50 75 0 28 21 70 36
70 7 0 17 6 21 13 4 6 22 19 38 27 17 8 57 30 90 49 33 18 71 37 85 41 14 4
24 13 22 19 -1 7 15 19 35 27 65 26 105 48 129 72 13 12 32 22 44 22 12 0 20
7 21 18 0 14 2 14 9 -3 7 -18 8 -18 15 8 5 19 12 26 22 23 8 -3 11 -1 8 4 -3
6 -1 10 6 10 20 0 103 42 112 57 4 7 17 13 27 13 11 0 20 5 20 10 0 6 6 10 14
10 8 0 27 10 43 23 42 35 102 67 124 67 10 0 19 5 19 10 0 6 5 10 11 10 6 0
28 13 48 29 20 15 47 31 61 34 14 3 36 17 50 29 13 13 36 24 50 25 14 1 34 13
45 25 11 13 34 30 50 38 43 20 95 59 95 71 0 5 11 20 25 33 14 13 25 26 25 30
0 4 6 13 13 21 9 8 14 46 16 109 2 85 0 96 -15 96 -10 0 -14 3 -11 7 4 3 -1
16 -12 27 -10 12 -28 36 -38 55 -14 25 -31 39 -63 50 -25 9 -47 19 -50 22 -6
7 -137 3 -172 -5 -30 -7 -65 -21 -88 -35 -20 -12 -53 -25 -62 -23 -4 1 -5 -4
-2 -11 3 -8 -10 -18 -33 -26 -20 -8 -43 -20 -51 -27 -7 -8 -22 -14 -33 -14
-10 0 -19 -4 -19 -10 0 -5 -6 -10 -14 -10 -8 0 -16 -7 -20 -15 -3 -8 -17 -15
-31 -15 -14 0 -37 -11 -49 -24 -25 -25 -52 -39 -83 -45 -5 -1 -1 -6 7 -11 11
-7 7 -10 -19 -10 -29 0 -32 -2 -21 -15 10 -13 9 -15 -11 -15 -13 0 -37 -7 -53
-15 -15 -8 -35 -15 -42 -15 -8 0 -14 -6 -14 -13 0 -14 -27 -31 -67 -42 -13 -4
-23 -11 -23 -16 0 -5 -10 -9 -23 -9 -13 0 -34 -13 -49 -30 -14 -16 -35 -30
-46 -30 -11 0 -22 -6 -25 -14 -3 -7 -42 -32 -88 -55 -45 -22 -79 -41 -74 -41
23 0 -47 -40 -72 -41 -15 0 -22 -3 -15 -6 6 -2 12 -9 12 -15 0 -6 -6 -8 -14
-5 -7 3 -27 -3 -45 -14 -17 -10 -31 -16 -31 -12 0 3 -8 -1 -17 -10 -10 -8 -30
-18 -45 -22 -15 -4 -29 -13 -32 -20 -14 -36 -134 -24 -137 14 -1 9 -3 360 -4
781 -1 731 -6 858 -31 853 -6 -1 -18 14 -29 33 -10 19 -24 34 -32 34 -7 0 -13
6 -13 13 0 19 -55 35 -146 43 -56 5 -83 3 -88 -5z"/>
<path d="M10024 13920 c0 -179 2 -252 3 -162 2 89 2 235 0 325 -1 89 -3 16 -3
-163z"/>
<path d="M5472 13913 c-30 -2 -50 -8 -47 -14 4 -5 -1 -12 -9 -15 -9 -3 -13
-10 -10 -15 3 -5 -9 -9 -27 -9 -29 0 -50 -13 -121 -75 -10 -8 -23 -15 -30 -15
-6 0 -8 -3 -5 -7 7 -7 -26 -66 -55 -97 -10 -11 -18 -27 -19 -35 -1 -31 -8 -54
-18 -64 -7 -7 -11 -60 -11 -133 0 -96 3 -124 15 -134 8 -7 15 -27 15 -46 0
-23 6 -37 20 -44 11 -6 18 -15 15 -21 -4 -5 -1 -9 4 -9 6 0 11 -6 11 -14 0 -7
11 -21 25 -30 14 -9 25 -25 25 -36 0 -11 6 -20 13 -20 6 -1 28 -14 47 -30 19
-17 39 -30 46 -30 6 0 19 -9 29 -20 12 -13 31 -20 57 -20 21 0 38 -4 38 -10 0
-5 8 -10 18 -10 10 0 24 -6 30 -12 10 -10 15 -10 21 1 5 7 11 9 14 4 7 -12
117 -17 117 -6 0 11 65 32 114 38 42 5 66 20 66 41 0 8 11 14 26 14 16 0 34
10 46 25 11 14 23 23 28 20 5 -3 12 0 16 6 3 6 1 15 -6 19 -8 5 -6 9 8 12 10
3 29 26 41 51 12 25 28 48 36 51 11 4 15 23 15 71 0 37 4 65 10 65 13 0 5 172
-9 199 -6 11 -10 28 -9 38 3 35 -2 54 -12 48 -6 -3 -13 2 -16 12 -11 29 -58
103 -67 103 -4 0 -27 19 -50 43 -23 24 -54 47 -69 50 -16 4 -28 12 -28 17 0 6
-5 10 -11 10 -7 0 -17 7 -23 15 -8 11 -41 16 -136 19 -69 2 -149 2 -178 -1z"/>
<path d="M19012 11753 c-24 -2 -52 -12 -62 -21 -32 -29 -49 -42 -55 -42 -9 0
-35 -27 -35 -36 0 -4 -9 -18 -21 -30 -20 -21 -20 -33 -22 -446 -2 -381 -4
-426 -19 -441 -9 -9 -18 -22 -20 -29 -4 -10 -88 -12 -396 -10 -368 3 -391 2
-401 -15 -8 -14 -12 -16 -22 -5 -20 19 -41 14 -67 -15 -13 -16 -26 -27 -28
-25 -13 7 -34 0 -34 -13 0 -8 -5 -14 -12 -13 -7 2 -14 -8 -17 -22 -3 -14 -13
-25 -21 -25 -20 0 -30 -54 -29 -166 1 -78 5 -103 21 -128 11 -17 24 -31 29
-31 5 0 9 -7 9 -16 0 -9 6 -14 13 -11 7 3 22 -8 32 -23 17 -26 26 -29 101 -35
45 -4 242 -7 438 -8 l357 -2 33 -35 33 -36 2 -409 c1 -226 5 -421 8 -435 3
-14 23 -42 44 -62 22 -20 39 -42 39 -48 0 -6 6 -10 12 -8 7 3 20 -4 28 -15 32
-39 300 -15 300 27 0 7 14 22 30 34 17 13 30 29 30 38 0 8 8 27 18 41 15 25
17 64 19 413 1 224 7 402 13 427 18 75 7 73 441 73 212 -1 405 2 429 6 28 5
53 17 70 34 14 14 31 25 37 23 6 -2 19 17 29 42 11 24 25 45 32 45 7 0 10 5 7
10 -3 6 0 10 8 10 21 0 27 22 27 96 0 58 -3 66 -29 90 -16 14 -32 37 -35 50
-4 13 -11 24 -16 24 -6 0 -10 9 -10 20 0 21 -67 60 -102 60 -10 0 -18 5 -18
11 0 5 5 7 10 4 6 -3 10 -2 10 3 0 16 -67 19 -468 20 -407 0 -422 2 -422 42 0
9 -2 19 -5 22 -3 2 -6 190 -7 417 -3 353 -5 413 -18 421 -8 5 -10 10 -5 10 6
0 2 5 -7 11 -9 5 -15 15 -13 22 6 18 -15 41 -52 56 -18 7 -33 20 -33 27 0 8
-3 13 -7 12 -5 -1 -26 4 -48 10 -39 12 -66 12 -153 5z m-19 -2660 c-7 -2 -19
-2 -25 0 -7 3 -2 5 12 5 14 0 19 -2 13 -5z"/>
<path d="M960 10070 c0 -6 -28 -10 -62 -10 -35 0 -75 -6 -89 -14 -14 -7 -51
-16 -81 -20 -35 -5 -60 -14 -71 -26 -9 -10 -34 -24 -56 -30 -32 -8 -41 -16
-41 -33 0 -18 -2 -19 -10 -7 -8 12 -14 10 -38 -13 -15 -15 -31 -25 -34 -22 -3
3 -11 -1 -18 -10 -7 -8 -19 -15 -26 -15 -8 0 -14 -6 -14 -13 0 -8 -11 -19 -25
-25 -14 -6 -25 -18 -25 -27 0 -8 -5 -15 -11 -15 -15 0 -87 -79 -95 -104 -4
-11 -17 -28 -29 -37 -12 -10 -27 -36 -34 -59 -7 -23 -19 -44 -27 -47 -8 -3
-14 -14 -14 -25 0 -11 -7 -26 -15 -34 -14 -15 -40 -91 -36 -108 1 -4 -3 -24
-10 -43 -8 -24 -14 -31 -19 -23 -5 9 -8 5 -8 -11 0 -74 -6 -138 -14 -127 -12
19 -10 -162 4 -266 6 -50 17 -98 24 -106 7 -8 16 -39 20 -67 3 -29 10 -50 15
-47 5 3 9 -8 9 -24 0 -19 14 -47 39 -78 21 -27 41 -61 45 -76 3 -15 17 -38 31
-52 14 -14 25 -32 25 -41 0 -8 7 -15 16 -15 8 0 13 -4 10 -9 -3 -4 8 -19 24
-31 16 -12 32 -31 35 -40 3 -10 22 -26 41 -35 19 -9 38 -23 41 -31 3 -8 12
-14 19 -14 8 0 17 -7 20 -15 4 -8 12 -15 18 -15 7 0 28 -14 47 -31 20 -17 41
-28 51 -25 10 2 18 0 18 -5 0 -5 9 -9 20 -9 11 0 20 -4 20 -10 0 -5 16 -10 36
-10 21 0 33 -4 29 -10 -3 -5 1 -10 10 -10 16 0 56 -20 65 -32 9 -11 200 -27
280 -22 41 2 122 6 180 9 58 2 106 9 108 15 2 5 10 10 18 10 8 0 14 4 14 9 0
12 56 31 90 31 14 0 35 7 46 15 10 8 26 15 35 15 9 0 28 11 43 25 15 14 41 32
58 41 40 21 98 74 98 90 0 6 7 15 16 18 10 4 13 2 8 -7 -6 -8 -3 -8 9 1 9 8
19 23 22 33 7 22 51 69 65 69 5 0 16 15 25 34 9 19 23 37 31 40 8 3 14 12 14
21 0 8 14 41 30 72 17 31 30 64 30 74 0 11 5 18 12 17 7 -2 16 24 24 69 7 39
20 83 30 98 15 23 17 53 18 220 0 161 -2 197 -15 212 -18 21 -39 89 -39 125 0
13 -9 34 -21 46 -11 12 -17 27 -13 33 3 6 -3 24 -15 40 -11 15 -21 35 -21 43
0 8 -4 17 -9 21 -5 3 -12 18 -16 35 -4 18 -14 30 -26 32 -11 2 -30 21 -42 43
-30 54 -74 99 -127 130 -25 15 -37 24 -27 21 36 -11 15 15 -25 33 -24 10 -52
28 -62 40 -15 16 -21 18 -28 9 -5 -10 -8 -8 -8 5 0 17 -28 33 -76 41 -14 3
-36 16 -49 29 -16 15 -37 24 -66 26 -23 1 -51 9 -63 16 -12 9 -45 15 -83 15
-35 0 -63 4 -63 10 0 6 -47 10 -120 10 -73 0 -120 -4 -120 -10z m205 -540 c3
-5 18 -10 33 -10 19 0 23 -3 14 -9 -11 -7 -10 -10 3 -15 9 -3 27 -6 39 -6 12
0 32 -9 44 -20 12 -11 28 -20 37 -20 8 0 15 -5 15 -11 0 -5 5 -7 10 -4 6 3 10
1 10 -4 0 -6 9 -11 21 -11 14 0 19 -5 16 -14 -3 -8 1 -20 8 -26 8 -7 13 -16
10 -20 -3 -4 7 -11 20 -14 14 -4 25 -12 24 -19 -3 -26 2 -36 20 -42 12 -4 18
-12 14 -21 -3 -7 0 -14 7 -14 7 0 10 -7 6 -15 -3 -8 2 -22 12 -31 24 -24 23
-255 -1 -299 -9 -16 -17 -33 -17 -37 0 -4 -11 -19 -24 -33 -14 -15 -22 -33
-19 -41 3 -8 -5 -18 -21 -25 -14 -7 -26 -15 -26 -18 0 -15 -70 -82 -79 -77 -5
4 -15 -3 -21 -14 -6 -11 -17 -20 -25 -20 -8 0 -15 -4 -15 -10 0 -5 -10 -10
-22 -10 -13 -1 -34 -7 -48 -15 -14 -8 -35 -14 -47 -15 -12 0 -23 -4 -25 -9 -6
-16 -182 15 -237 42 -28 15 -51 24 -51 21 0 -3 -11 6 -24 20 -13 15 -27 26
-32 26 -13 1 -104 87 -104 99 0 5 -13 25 -30 43 -31 33 -40 55 -17 42 6 -4 5
1 -4 12 -58 68 -49 266 18 379 16 28 32 57 36 65 19 38 33 55 47 55 9 0 14 7
12 18 -2 11 4 17 18 17 11 0 20 4 20 8 0 13 92 58 134 66 26 5 35 10 27 16
-23 14 39 28 126 29 45 1 85 -3 88 -9z m-1098 -472 c-2 -13 -4 -3 -4 22 0 25
2 35 4 23 2 -13 2 -33 0 -45z"/>
<path d="M14523 8373 c-24 -2 -43 -8 -43 -14 0 -15 70 -10 86 6 9 8 12 14 7
13 -4 -1 -27 -3 -50 -5z"/>
<path d="M19460 7763 c-8 -3 -25 -16 -38 -29 -14 -12 -36 -25 -51 -28 -14 -3
-46 -23 -71 -46 -25 -22 -49 -40 -55 -41 -5 0 -1 -4 10 -9 l20 -9 -20 -1 c-29
-2 -57 -44 -89 -130 -24 -64 -28 -90 -28 -178 0 -140 9 -200 32 -212 10 -5 22
-24 25 -42 4 -18 16 -41 26 -51 11 -10 17 -22 14 -28 -4 -5 0 -9 7 -9 7 0 37
-23 66 -50 29 -28 61 -50 71 -50 10 0 26 -9 36 -20 9 -10 20 -19 24 -18 3 1
38 -2 76 -7 85 -10 226 -7 239 6 6 5 20 9 32 9 12 0 24 7 28 15 3 8 14 15 26
15 18 0 39 15 101 73 10 9 22 17 25 17 9 0 34 28 34 38 0 6 3 12 8 14 14 6 61
110 56 123 -3 7 4 31 15 54 26 50 28 146 5 235 -16 66 -36 116 -44 116 -3 0
-14 17 -25 38 -22 42 -59 82 -75 82 -5 0 -10 5 -10 10 0 6 -7 10 -15 10 -8 0
-15 5 -15 10 0 6 -7 10 -15 10 -8 0 -15 7 -15 16 0 9 -5 14 -12 12 -6 -2 -20
4 -30 14 -10 10 -23 16 -29 12 -6 -3 -17 3 -25 15 -14 20 -24 21 -157 20 -78
0 -149 -3 -157 -6z"/>
<path d="M20112 7260 c0 -14 2 -19 5 -12 2 6 2 18 0 25 -3 6 -5 1 -5 -13z"/>
<path d="M510 2531 c0 -5 -19 -18 -42 -30 -24 -11 -51 -33 -60 -48 -10 -15
-18 -22 -18 -15 0 6 -4 12 -10 12 -6 0 -9 -3 -8 -7 1 -5 -9 -30 -22 -58 -26
-57 -39 -160 -21 -178 6 -6 11 -19 11 -29 0 -10 6 -18 13 -18 8 0 7 -4 -3 -10
-10 -6 -11 -10 -2 -10 6 0 12 -12 12 -26 0 -18 4 -25 14 -21 9 4 16 -3 20 -18
3 -13 15 -27 27 -30 11 -4 18 -9 15 -13 -13 -13 63 -34 134 -37 129 -6 192 14
213 68 3 9 17 21 30 26 19 7 25 19 30 56 4 26 16 58 27 72 21 27 27 83 9 83
-5 0 -8 3 -6 8 3 4 -1 13 -9 20 -8 7 -14 9 -14 5 0 -4 -5 0 -11 10 -6 9 -7 26
-4 37 7 23 -51 84 -111 116 -19 10 -34 24 -34 31 0 10 -24 13 -90 13 -49 0
-90 -4 -90 -9z"/>
<path d="M18622 2533 c4 -20 -16 -43 -37 -43 -25 0 -101 -68 -114 -103 -23
-63 -24 -70 -5 -63 17 6 17 6 1 -12 -19 -21 -22 -67 -7 -108 6 -15 12 -40 14
-56 2 -16 16 -44 32 -61 92 -102 68 -99 759 -99 654 -1 735 5 735 49 0 15 2
16 10 3 8 -13 10 -13 10 1 0 9 23 40 50 70 l50 54 -1 105 c0 58 -3 99 -6 93
-9 -24 -23 -13 -23 18 0 16 -4 28 -9 25 -5 -3 -11 8 -15 24 -3 18 -12 30 -21
30 -9 0 -18 7 -21 15 -4 8 -15 15 -25 15 -10 0 -19 5 -19 10 0 6 -9 10 -19 10
-11 0 -26 7 -35 15 -13 13 -100 15 -660 15 -355 0 -645 -3 -644 -7z"/>
</g>
</svg>
