<?xml version="1.0" standalone="no"?>
<!DOCTYPE svg PUBLIC "-//W3C//DTD SVG 20010904//EN"
 "http://www.w3.org/TR/2001/REC-SVG-20010904/DTD/svg10.dtd">
<svg version="1.0" xmlns="http://www.w3.org/2000/svg"
 width="2048.000000pt" height="2048.000000pt" viewBox="0 0 2048.000000 2048.000000"
 preserveAspectRatio="xMidYMid meet">

<g transform="translate(0.000000,2048.000000) scale(0.100000,-0.100000)"
fill="#000000" stroke="none">
<path d="M10295 20374 c-16 -2 -54 -7 -82 -10 -41 -4 -53 -9 -53 -22 0 -25
-60 -50 -126 -51 -21 -1 -34 -7 -38 -18 -14 -40 -34 -65 -41 -53 -12 20 -24
-8 -32 -75 -5 -48 -8 -55 -14 -35 -5 16 -7 19 -8 7 -1 -10 -12 -22 -25 -27
-23 -8 -24 -11 -25 -152 -1 -151 5 -212 21 -202 5 3 6 14 3 25 -4 10 -4 19 -2
19 2 0 14 -27 26 -60 12 -33 38 -76 57 -97 20 -21 43 -58 51 -83 8 -25 24 -54
34 -66 18 -20 19 -55 19 -1211 0 -1040 -2 -1195 -15 -1227 -8 -20 -19 -36 -25
-36 -13 0 -55 -42 -63 -64 -6 -15 -12 -17 -40 -10 -17 5 -193 9 -389 8 -320 0
-359 -2 -376 -17 -10 -9 -27 -17 -38 -17 -26 0 -41 -12 -45 -35 -2 -11 -14
-24 -27 -30 -30 -13 -37 -41 -37 -154 0 -66 4 -96 12 -98 7 -3 14 -3 16 -1 2
2 11 -5 21 -15 16 -15 22 -31 25 -59 1 -5 8 -8 16 -8 19 0 55 -31 55 -47 0
-17 29 -23 140 -26 86 -2 95 -4 98 -22 2 -11 11 -28 21 -39 14 -15 17 -56 21
-280 5 -236 4 -264 -12 -293 -9 -18 -13 -33 -8 -33 6 0 10 -4 10 -10 0 -5 -5
-9 -11 -7 -7 1 -16 -12 -21 -30 -7 -26 -16 -34 -46 -43 -20 -5 -48 -10 -61
-10 -19 0 -21 -3 -11 -15 10 -12 7 -15 -14 -21 -14 -3 -26 -9 -26 -13 0 -4
-15 -12 -34 -19 -25 -9 -35 -20 -40 -42 -3 -18 -12 -30 -21 -30 -8 0 -15 -5
-15 -11 0 -6 -7 -9 -15 -5 -8 3 -16 0 -17 -7 -2 -19 -4 -30 -13 -60 -4 -15 -3
-73 3 -128 10 -97 20 -129 29 -101 3 8 24 -7 55 -38 l50 -50 99 0 c77 0 99 3
99 14 0 7 7 20 16 27 19 16 82 39 106 39 10 0 22 9 28 21 7 11 28 28 48 37 33
15 100 17 627 19 325 1 619 -2 655 -7 61 -9 150 -45 150 -62 0 -5 9 -8 19 -8
11 0 22 -4 25 -9 3 -4 19 -11 36 -14 21 -5 31 -14 36 -32 5 -19 13 -25 34 -25
32 0 47 -14 52 -50 2 -19 10 -26 30 -28 26 -3 41 -27 51 -77 2 -11 9 -19 16
-17 23 5 42 -27 53 -88 7 -34 17 -60 24 -60 32 0 44 -152 44 -582 1 -411 8
-508 40 -569 11 -20 20 -48 20 -62 0 -14 4 -28 9 -31 12 -8 22 -110 15 -156
-6 -34 -11 -41 -41 -51 -24 -8 -356 -11 -1173 -12 -1126 -2 -1139 -2 -1155
-22 -14 -19 -16 -19 -29 -2 -7 9 -21 17 -30 17 -25 0 -96 76 -96 103 0 36 29
125 43 134 8 5 18 51 26 113 7 58 17 109 22 114 5 6 9 21 9 34 0 17 4 23 15
18 23 -9 26 23 22 254 -5 238 -5 240 -23 240 -18 0 -54 49 -47 66 3 8 -3 16
-13 20 -54 18 -124 56 -119 64 3 5 -4 11 -15 15 -25 8 -116 -5 -101 -14 12 -8
3 -13 -85 -52 -48 -21 -52 -26 -67 -79 -19 -63 -22 -120 -7 -120 6 0 10 -18
10 -40 0 -22 -4 -40 -9 -40 -13 0 -19 -59 -12 -115 7 -52 -3 -103 -24 -120
-14 -12 -22 -52 -30 -150 -4 -38 -9 -74 -13 -79 -3 -6 -7 -26 -9 -46 -2 -19
-12 -42 -23 -50 -13 -11 -20 -34 -25 -85 -9 -85 -28 -135 -51 -135 -10 0 -28
-10 -42 -22 -21 -20 -32 -23 -98 -20 -83 3 -114 -3 -114 -22 0 -6 -26 -18 -57
-25 -49 -10 -63 -19 -87 -52 -17 -21 -33 -39 -38 -39 -4 0 -8 -9 -8 -20 0 -12
-11 -32 -25 -46 -32 -32 -35 -88 -4 -106 22 -14 47 -63 58 -113 6 -25 12 -31
39 -33 18 -2 36 -10 39 -18 3 -8 18 -14 34 -14 29 0 39 -14 17 -23 -7 -3 5 -6
28 -6 31 -1 53 -10 87 -36 43 -33 46 -37 52 -97 3 -35 5 -72 4 -83 -2 -11 1
-38 5 -60 6 -32 14 -44 37 -54 16 -7 28 -16 27 -19 -1 -4 3 -17 10 -29 9 -17
22 -23 46 -23 42 0 87 -22 106 -53 8 -13 24 -37 35 -53 18 -26 20 -47 23 -254
3 -231 -4 -300 -33 -300 -8 0 -15 -7 -15 -15 0 -9 -9 -15 -21 -15 -17 0 -19
-3 -10 -14 9 -11 7 -15 -11 -22 -33 -12 -4487 -16 -4468 -4 13 8 13 10 -1 10
-9 0 -22 7 -29 15 -7 8 -20 15 -30 15 -9 0 -24 8 -33 18 -15 17 -17 55 -17
338 l0 320 -34 17 c-27 12 -36 24 -41 50 -5 25 -14 36 -36 44 -22 9 -29 18
-29 37 l0 26 -94 0 c-52 0 -97 -4 -100 -9 -4 -5 -1 -11 5 -13 6 -2 -17 -18
-52 -35 -35 -18 -56 -32 -46 -33 17 0 17 -1 3 -16 -9 -8 -20 -12 -26 -9 -5 3
-11 -4 -12 -17 0 -13 -3 -34 -5 -48 -1 -14 -5 -72 -9 -130 -3 -58 -9 -114 -14
-125 -4 -11 -13 -34 -19 -51 -19 -51 -52 -54 -499 -53 -218 1 -410 4 -427 8
-21 4 -31 13 -33 29 -2 12 -9 22 -16 22 -24 0 -35 45 -46 189 -12 151 -16 174
-31 165 -5 -3 -16 10 -24 28 -8 18 -14 29 -15 24 0 -5 -8 -2 -17 6 -10 8 -26
18 -36 22 -11 3 -21 15 -24 26 -5 19 -12 21 -96 18 -88 -3 -91 -4 -97 -28 -4
-18 -14 -26 -35 -30 -23 -4 -32 -13 -41 -39 -6 -19 -22 -45 -35 -59 l-24 -25
-6 -341 c-4 -290 -8 -346 -22 -378 -9 -20 -24 -41 -33 -46 -10 -5 -18 -24 -19
-43 -3 -60 -17 -139 -26 -145 -5 -3 -9 -13 -9 -22 0 -10 -9 -24 -20 -32 -18
-13 -20 -26 -20 -151 0 -135 0 -136 25 -147 14 -7 29 -22 34 -35 8 -19 19 -26
58 -31 26 -3 62 -15 79 -25 27 -16 36 -17 77 -7 25 6 49 15 53 19 4 4 17 7 29
7 13 0 28 7 35 15 7 8 16 13 20 10 4 -3 10 4 13 15 3 11 12 20 19 20 10 0 18
23 26 78 7 42 12 87 12 100 0 12 4 22 9 22 5 0 13 10 17 22 4 13 13 27 20 33
8 6 14 37 16 80 3 62 6 71 25 80 13 5 23 18 23 27 0 33 68 39 453 41 590 4
685 -5 700 -66 3 -12 11 -41 17 -65 6 -24 13 -67 16 -94 3 -30 11 -56 20 -63
21 -15 44 -80 44 -123 0 -53 21 -126 41 -142 14 -11 21 -40 30 -115 10 -82 17
-104 35 -121 12 -12 25 -37 28 -55 14 -96 17 -121 23 -204 5 -70 10 -93 24
-103 30 -21 51 -74 57 -147 4 -57 9 -73 28 -88 26 -20 39 -61 49 -155 4 -34
11 -65 17 -68 6 -4 16 -22 24 -40 18 -43 3 -84 -50 -138 l-37 -36 -947 0
c-521 0 -957 3 -969 6 -13 4 -23 11 -23 18 -1 6 -9 29 -20 51 -24 49 -25 81
-4 120 11 21 16 61 16 140 l1 111 -45 46 c-25 26 -58 50 -74 53 -16 4 -48 14
-71 22 -30 11 -47 12 -55 6 -7 -6 -30 -13 -51 -17 -106 -17 -105 -17 -122 -52
-9 -19 -20 -34 -25 -34 -19 0 -40 -61 -40 -117 0 -32 -7 -71 -15 -87 -8 -15
-15 -41 -15 -57 0 -18 -5 -29 -14 -29 -7 0 -16 -14 -19 -33 -7 -48 -40 -117
-54 -117 -7 0 -13 -4 -13 -10 0 -18 -75 -29 -199 -28 -68 0 -127 -4 -131 -9
-4 -4 -10 -17 -12 -28 -2 -11 -14 -25 -28 -32 -15 -7 -29 -27 -35 -50 -7 -21
-16 -37 -21 -36 -13 2 -10 -90 5 -157 7 -30 14 -65 17 -78 2 -12 16 -27 29
-32 14 -5 25 -16 25 -24 0 -18 21 -25 85 -27 28 -1 79 -5 115 -11 93 -13 111
-35 121 -147 11 -137 16 -155 50 -170 17 -7 29 -20 29 -31 0 -21 13 -32 44
-35 11 -1 24 -3 29 -4 4 0 7 -9 7 -19 0 -29 38 -42 134 -44 77 -3 90 -6 100
-23 6 -11 17 -24 24 -28 18 -12 18 -587 0 -587 -7 0 -21 -17 -30 -38 -33 -71
6 -67 -693 -67 -595 -1 -725 -6 -733 -26 -2 -5 -7 -7 -12 -4 -4 2 -10 -8 -13
-24 -4 -19 -15 -32 -35 -40 -23 -10 -28 -17 -24 -37 2 -14 0 -24 -7 -24 -7 0
-11 -28 -11 -82 0 -57 3 -78 10 -68 8 12 10 11 10 -8 0 -16 5 -22 18 -20 12 2
18 -5 20 -27 5 -39 19 -55 49 -55 14 0 37 -14 55 -32 l32 -33 236 -5 237 -5
33 -33 33 -33 -2 -704 c-1 -387 -4 -712 -8 -722 -3 -10 -12 -25 -20 -35 -8 -9
-16 -25 -17 -35 -3 -19 -57 -42 -111 -47 -16 -2 -105 -4 -197 -5 -142 -1 -168
-3 -168 -16 0 -8 -7 -15 -15 -15 -8 0 -15 -6 -15 -14 0 -7 -9 -16 -20 -19 -11
-3 -24 -16 -29 -29 -9 -25 -41 -56 -42 -42 0 5 -5 -2 -10 -15 -11 -28 0 -183
12 -175 5 3 9 -2 9 -10 0 -9 7 -16 16 -16 8 0 12 -5 8 -11 -3 -6 14 -30 38
-54 32 -31 56 -45 86 -50 23 -3 52 -15 66 -26 13 -10 29 -19 34 -19 16 0 25
-75 17 -137 -5 -42 -11 -56 -26 -60 -10 -3 -21 -13 -23 -22 -9 -28 -11 -515
-3 -539 5 -12 13 -20 18 -17 5 4 9 0 9 -7 0 -8 26 -21 61 -32 44 -13 63 -24
71 -42 10 -21 18 -24 60 -24 41 0 48 3 48 20 0 11 6 20 14 20 7 0 27 7 42 15
16 8 37 15 47 15 9 0 23 11 29 25 6 14 17 25 23 25 29 0 39 34 47 163 7 120
13 163 37 267 l9 35 2 -30 2 -30 8 30 c5 17 11 65 15 107 7 77 34 136 56 123
5 -4 9 3 9 13 0 45 53 138 71 126 5 -3 9 1 10 8 2 36 11 53 53 103 25 29 46
61 46 70 0 9 14 22 30 29 17 7 39 28 49 47 10 19 27 35 37 37 11 2 30 16 44
31 14 16 45 41 70 56 25 15 57 38 71 52 19 17 42 26 83 30 47 5 59 10 66 28 5
13 24 26 52 34 117 35 153 49 151 58 -1 6 12 11 30 11 18 1 48 6 67 11 47 15
452 15 467 0 5 -5 35 -11 66 -12 30 -1 50 -5 44 -9 -5 -3 8 -15 30 -27 22 -11
43 -18 46 -15 11 12 79 -19 103 -46 19 -20 37 -29 74 -33 34 -4 59 -14 80 -34
31 -27 77 -56 112 -69 10 -3 20 -14 23 -24 3 -10 21 -25 40 -35 19 -9 35 -22
35 -29 0 -16 42 -56 58 -56 7 0 15 -7 18 -15 4 -8 10 -12 15 -9 5 3 9 -3 9
-14 0 -10 18 -38 39 -61 22 -23 43 -59 48 -79 7 -28 14 -37 28 -35 31 3 53
-15 57 -44 3 -23 11 -29 63 -45 40 -12 78 -17 115 -14 78 7 130 17 136 27 3 5
14 9 24 9 12 0 29 15 42 35 13 19 31 35 41 35 11 0 24 13 32 34 13 30 19 34
65 40 32 4 50 12 50 20 0 25 29 38 107 48 180 24 338 10 397 -35 17 -13 49
-30 71 -37 60 -19 70 -25 73 -48 2 -14 13 -22 38 -26 27 -6 37 -14 49 -41 9
-22 21 -35 32 -35 25 0 43 -19 43 -46 0 -32 10 -54 25 -54 24 0 63 -119 65
-202 0 -5 6 -8 14 -8 19 0 28 -24 37 -100 14 -115 18 -125 52 -136 23 -7 33
-17 39 -40 7 -30 12 -32 65 -39 45 -5 64 -13 83 -35 19 -21 38 -29 81 -34 31
-4 65 -14 75 -21 11 -8 27 -15 37 -15 11 0 21 -9 24 -20 4 -15 14 -20 40 -20
34 0 73 -28 73 -53 0 -5 7 -4 15 3 10 8 15 9 15 2 0 -17 42 -52 62 -52 11 0
18 -7 18 -18 0 -24 34 -55 62 -57 16 -1 25 -11 30 -33 7 -27 13 -32 38 -32 26
0 31 -5 40 -40 9 -33 16 -42 40 -47 22 -4 30 -11 30 -27 0 -23 33 -66 50 -66
6 0 10 -5 10 -11 0 -6 10 -25 22 -42 13 -18 22 -36 21 -42 -1 -5 12 -17 30
-25 27 -13 33 -23 42 -66 6 -33 18 -58 33 -70 17 -15 26 -38 37 -102 14 -77
30 -112 53 -112 14 0 22 -34 32 -142 7 -72 14 -105 30 -125 41 -57 36 -356 -8
-406 -8 -9 -17 -42 -20 -72 -2 -31 -8 -58 -13 -61 -5 -3 -9 -13 -9 -23 0 -11
-12 -24 -30 -31 -26 -11 -30 -18 -30 -49 0 -42 -33 -101 -60 -108 -10 -3 -17
-10 -15 -16 6 -17 -15 -41 -51 -60 -17 -9 -37 -30 -44 -46 -7 -17 -25 -36 -41
-43 -16 -7 -29 -18 -29 -24 0 -16 -31 -40 -63 -48 -15 -4 -35 -15 -45 -26 -9
-11 -22 -20 -28 -20 -7 0 -14 -4 -16 -10 -1 -5 -22 -12 -45 -16 -40 -6 -43 -5
-92 45 -56 57 -73 101 -80 214 0 10 -5 16 -10 13 -15 -10 -40 28 -51 79 -19
91 -21 96 -30 90 -6 -3 -10 -1 -10 6 0 6 -7 17 -16 23 -9 7 -21 36 -28 66 -11
48 -15 54 -41 57 -38 5 -38 5 -44 55 -4 30 -11 42 -25 44 -24 3 -41 20 -41 42
0 9 -10 21 -21 27 -35 17 -54 36 -54 53 0 16 -46 62 -62 62 -4 0 -8 6 -8 13
-1 24 -88 107 -115 107 -14 0 -25 5 -25 10 0 6 -6 10 -14 10 -8 0 -16 10 -18
22 -4 28 -35 36 -41 11 -4 -17 -5 -17 -6 0 0 9 -8 17 -16 17 -9 0 -18 13 -22
31 -4 22 -8 27 -14 17 -6 -9 -9 -10 -9 -1 0 14 -51 43 -75 43 -9 0 -29 13 -44
29 -27 28 -83 51 -123 51 -10 0 -18 3 -18 8 0 9 -39 26 -96 42 -52 15 -196 9
-202 -8 -2 -7 -8 -10 -13 -6 -5 3 -9 -1 -9 -9 0 -8 -20 -32 -45 -55 l-45 -41
0 -107 0 -107 42 -36 c23 -20 53 -44 67 -53 14 -10 22 -18 16 -18 -26 -1 24
-20 53 -20 22 0 42 -9 62 -28 16 -16 27 -31 24 -35 -3 -3 19 -8 49 -12 57 -7
103 -37 91 -57 -5 -7 -2 -8 5 -4 7 5 20 1 29 -8 10 -8 34 -22 55 -31 24 -10
37 -22 37 -34 0 -13 10 -22 31 -26 21 -5 35 -17 46 -41 10 -20 28 -37 45 -43
19 -7 28 -17 28 -31 0 -28 18 -60 33 -60 7 0 26 -26 42 -57 17 -32 31 -60 33
-63 2 -2 7 2 12 10 8 12 10 12 10 2 0 -8 9 -25 20 -39 11 -14 20 -38 20 -53 0
-15 6 -30 12 -33 20 -8 44 -66 58 -136 6 -36 19 -70 27 -76 10 -8 17 -35 21
-83 2 -40 9 -72 13 -72 5 0 9 -43 9 -96 0 -87 -2 -98 -26 -129 -14 -18 -33
-36 -42 -40 -9 -4 -88 -11 -174 -15 -235 -13 -329 -22 -293 -31 l30 -7 -31 -1
c-17 0 -47 -8 -66 -15 -19 -8 -73 -20 -119 -26 -80 -11 -115 -16 -131 -19 -5
0 -7 -4 -7 -8 4 -23 -5 -32 -41 -47 -22 -9 -48 -16 -57 -16 -10 0 -27 -10 -38
-23 -11 -13 -44 -32 -73 -42 -28 -11 -52 -24 -52 -29 0 -12 -53 -38 -113 -56
-20 -6 -37 -18 -37 -26 0 -8 -6 -14 -13 -14 -8 0 -20 -11 -27 -25 -7 -14 -20
-25 -29 -25 -16 0 -61 -60 -61 -81 0 -6 -6 -9 -14 -6 -8 3 -23 -7 -36 -23 -12
-16 -35 -33 -52 -39 -18 -6 -27 -15 -23 -22 9 -14 -15 -60 -27 -53 -4 3 -12
-5 -17 -18 -9 -22 -9 -22 -17 -3 -7 16 -11 10 -25 -35 -10 -36 -24 -59 -38
-66 -29 -15 -53 -49 -49 -71 2 -10 -3 -18 -9 -19 -7 -1 -15 -3 -18 -4 -3 -1
-11 -3 -17 -4 -7 0 -15 -12 -16 -26 -2 -14 -8 -29 -13 -35 -5 -5 -9 -24 -9
-43 0 -18 -3 -31 -8 -28 -21 13 -46 -27 -58 -96 -15 -85 -18 -258 -5 -258 5 0
12 -12 16 -28 5 -20 19 -33 54 -49 26 -13 53 -23 59 -23 6 0 14 -9 17 -20 10
-30 90 -28 119 3 18 19 47 31 124 53 6 2 12 13 12 24 0 12 17 37 39 57 24 21
42 48 46 67 12 58 17 67 40 76 14 5 26 20 30 39 11 49 44 111 60 111 14 0 19
11 16 37 -1 7 16 22 38 35 31 18 41 30 43 53 2 21 9 31 23 33 54 8 67 13 61
27 -6 16 29 45 54 45 9 0 24 15 33 34 11 24 25 36 46 41 17 4 40 19 52 36 11
16 27 29 35 29 8 0 14 4 14 9 0 5 22 12 48 16 42 6 93 24 67 25 -5 0 -1 6 10
14 18 12 59 21 187 41 22 3 42 14 48 24 18 34 100 46 315 46 216 0 262 -8 302
-51 17 -19 34 -24 75 -26 63 -1 66 -2 98 -13 14 -5 34 -9 44 -10 10 -1 24 -9
31 -18 7 -10 19 -17 28 -17 30 0 102 -38 121 -64 10 -14 27 -26 37 -26 10 0
21 -5 24 -10 3 -6 15 -10 25 -10 11 0 26 -13 35 -30 9 -16 31 -36 49 -44 19
-8 37 -24 41 -35 3 -12 23 -29 43 -39 20 -9 41 -26 46 -38 5 -11 22 -28 37
-37 16 -8 34 -31 42 -49 8 -18 21 -39 30 -47 10 -7 17 -19 17 -26 0 -7 7 -18
15 -25 8 -7 15 -25 15 -41 0 -21 7 -32 29 -43 26 -14 51 -58 51 -92 0 -7 11
-24 24 -37 23 -23 56 -115 56 -157 0 -11 11 -41 25 -66 14 -25 25 -57 25 -73
0 -16 7 -34 15 -41 8 -7 15 -20 15 -29 0 -17 65 -51 110 -58 14 -3 34 -13 45
-23 33 -31 105 -32 105 -2 0 13 13 23 40 32 22 7 40 18 40 23 0 5 9 7 20 4 16
-4 20 0 20 18 0 13 6 30 14 37 48 49 74 162 43 192 -20 20 -45 102 -54 175 -4
39 -11 55 -24 58 -16 5 -44 85 -52 153 -1 14 -8 24 -15 23 -7 -2 -12 8 -12 22
0 25 -14 34 -23 15 -3 -6 -4 -5 -3 2 2 7 -3 28 -10 47 -8 18 -14 42 -14 52 0
12 -7 19 -20 19 -13 0 -18 5 -14 15 4 9 0 15 -8 15 -15 0 -38 40 -38 67 0 9
-6 13 -14 10 -8 -3 -17 1 -20 9 -3 9 -11 12 -16 9 -6 -4 -10 -3 -9 2 4 23 -4
41 -29 68 -15 17 -40 50 -57 74 -41 60 -82 100 -110 107 -14 3 -27 14 -30 24
-3 10 -23 30 -45 44 -22 14 -40 33 -40 41 0 9 -8 18 -17 22 -10 3 -30 19 -45
35 -15 16 -37 28 -52 28 -35 0 -56 10 -56 26 0 8 -6 14 -13 14 -7 0 -17 8 -24
19 -6 10 -31 23 -55 29 -63 17 -122 80 -120 128 2 40 16 64 39 64 8 0 21 7 29
15 9 8 24 15 34 15 13 0 17 5 14 15 -4 10 0 15 11 15 9 0 13 5 10 10 -3 6 3
10 14 10 11 0 23 4 26 10 3 5 19 10 36 10 18 0 28 5 26 12 -1 8 10 14 26 16
15 2 27 9 27 18 0 8 18 19 44 26 28 7 46 19 49 30 3 10 13 18 23 18 9 0 32 16
50 35 19 18 34 31 34 28 0 -4 16 8 35 27 25 24 33 40 29 53 -5 15 -2 18 14 13
14 -5 26 3 48 31 16 21 39 46 51 56 13 10 23 29 23 43 0 14 4 23 9 19 5 -3 12
4 16 15 3 11 11 19 17 17 6 -1 15 17 20 40 5 24 12 42 16 42 23 -4 32 4 32 28
0 21 3 24 12 15 9 -9 15 -5 25 19 7 17 13 44 13 60 0 18 5 28 13 26 6 -1 11 4
9 12 -1 7 0 22 4 33 5 16 8 17 14 7 11 -17 17 10 25 111 7 82 22 158 25 125
l1 -20 9 20 c5 11 9 34 10 50 1 25 3 27 9 10 5 -12 10 42 13 130 5 177 -1 313
-13 293 -6 -8 -9 1 -9 27 0 40 -18 88 -21 55 -3 -36 -18 61 -24 154 -7 118
-14 158 -24 151 -10 -6 -31 39 -31 66 0 11 -4 18 -9 15 -14 -9 -21 20 -21 84
0 48 -4 63 -22 79 -11 11 -25 18 -30 15 -4 -3 -8 6 -8 19 0 31 -27 86 -57 114
-13 12 -23 28 -23 36 0 28 -41 107 -56 107 -14 0 -46 58 -43 77 4 21 -2 32
-15 27 -7 -3 -16 2 -20 11 -3 9 -10 13 -16 10 -6 -3 -10 4 -10 17 0 28 -17 48
-41 48 -11 0 -22 13 -29 34 -6 19 -21 38 -35 44 -14 7 -25 16 -25 22 0 16
-113 127 -137 134 -13 4 -26 18 -29 31 -4 16 -16 26 -34 30 -26 6 -63 35 -44
35 4 0 -2 9 -14 20 -12 11 -34 20 -49 20 -30 1 -63 20 -63 37 0 15 -45 43 -68
43 -20 0 -52 29 -52 48 0 7 -11 12 -25 12 -28 0 -66 18 -78 37 -4 7 -15 13
-22 13 -8 0 -15 7 -15 15 0 10 -14 17 -40 21 -26 4 -45 14 -53 28 -7 11 -19
21 -27 21 -17 0 -51 64 -45 83 3 8 2 19 -2 25 -4 6 -7 21 -8 32 -1 11 -2 35
-3 53 -1 19 -6 31 -12 27 -5 -3 -10 3 -10 13 0 11 -9 22 -20 25 -20 5 -24 11
-35 61 -3 15 -9 26 -12 23 -13 -14 -43 16 -49 49 -4 25 -14 38 -30 44 -13 5
-24 13 -24 17 0 5 -14 24 -30 43 -16 19 -30 38 -30 43 0 4 -3 7 -8 7 -4 0 -34
25 -66 55 -33 30 -68 57 -78 61 -10 3 -18 11 -18 18 0 22 -28 39 -68 42 -22 2
-43 11 -53 23 -11 14 -19 17 -27 9 -7 -7 -12 -4 -17 10 -7 23 -10 24 -97 43
-36 7 -58 17 -58 26 0 7 -10 13 -22 13 -17 0 -20 2 -9 9 23 15 -128 26 -349
25 -212 0 -295 -8 -269 -25 11 -7 11 -9 -3 -9 -10 0 -18 -4 -18 -10 0 -5 -12
-13 -27 -16 -16 -4 -34 -11 -41 -17 -16 -13 -121 -3 -158 15 -25 11 -30 21
-36 68 -3 30 -6 357 -7 726 -1 757 -8 692 79 714 32 7 285 10 852 8 l808 -3
27 -30 28 -30 -3 -477 c-2 -409 -1 -478 12 -478 8 0 16 -14 20 -37 14 -98 19
-113 33 -113 19 0 43 -24 43 -43 0 -19 43 -27 144 -27 98 0 127 7 124 28 -2
10 5 18 17 20 31 6 55 33 55 62 0 14 6 32 13 38 9 10 13 127 15 500 2 417 4
489 17 498 8 6 15 25 15 43 0 43 25 51 163 51 138 0 157 5 157 36 0 19 5 24
26 24 38 0 58 15 74 54 10 28 16 33 27 25 10 -9 13 -7 14 7 3 39 8 78 14 92 7
20 -16 152 -27 152 -4 0 -8 -6 -9 -12 0 -7 -5 -1 -11 15 -5 15 -14 27 -19 27
-5 0 -9 9 -9 19 0 40 -56 42 -1091 46 -762 2 -992 6 -1010 15 -13 7 -36 27
-52 43 l-27 31 -1 290 c-1 336 -2 326 18 349 13 14 33 17 114 17 97 0 98 0
111 28 9 18 27 31 56 40 30 10 42 19 42 33 0 10 4 18 9 17 5 -2 18 7 28 19 15
17 23 49 32 125 6 56 19 118 29 138 14 29 24 36 62 43 25 4 52 11 60 14 8 3
45 4 82 3 59 -1 67 1 73 20 4 11 24 32 46 46 23 14 39 32 39 43 0 11 11 28 24
38 22 16 25 27 30 118 4 70 10 104 21 115 14 13 157 15 1303 18 708 2 1307 0
1331 -3 57 -9 91 -42 91 -90 0 -22 4 -34 10 -30 7 4 10 -18 9 -63 -2 -78 15
-142 37 -142 8 0 23 -14 32 -30 19 -34 25 -36 137 -45 79 -7 127 -11 144 -14
21 -3 41 -90 41 -182 l0 -95 33 -9 c23 -7 34 -18 41 -41 7 -22 18 -33 40 -40
20 -6 36 -20 46 -41 l15 -33 93 0 c90 0 95 -1 133 -32 l39 -31 0 -288 0 -287
-30 -25 c-16 -14 -31 -31 -32 -38 -8 -36 -51 -39 -612 -45 -303 -4 -564 -7
-581 -8 -22 -1 -33 -8 -43 -28 -7 -16 -21 -28 -31 -28 -25 0 -41 -20 -41 -53
0 -15 -5 -37 -10 -48 -15 -27 -17 -118 -4 -127 6 -4 14 -24 18 -44 4 -21 13
-38 20 -38 7 0 23 -11 36 -25 13 -14 32 -25 43 -25 12 0 23 -11 30 -29 l11
-30 152 -3 c84 -2 156 -7 161 -11 4 -5 8 -354 8 -777 0 -872 8 -799 -86 -819
-32 -7 -272 -11 -674 -11 l-625 0 0 -31 c0 -25 -5 -32 -31 -41 -19 -7 -28 -15
-25 -24 3 -8 2 -14 -3 -14 -5 0 -13 -26 -20 -57 -16 -80 4 -223 32 -223 11 0
23 -13 32 -35 12 -27 22 -36 52 -42 52 -11 4350 -10 4441 1 39 5 72 12 73 15
6 47 23 71 50 71 13 0 20 10 23 33 7 42 10 118 8 185 -2 45 -5 52 -22 52 -11
0 -20 7 -20 15 0 8 -4 15 -8 15 -12 0 -40 53 -35 66 3 9 -30 12 -114 13 -113
1 -204 15 -230 34 -7 5 -20 23 -28 40 -14 27 -15 121 -15 755 0 782 0 774 53
787 12 3 399 4 859 3 671 -2 840 -6 850 -16 10 -10 13 -161 13 -765 0 -691 -1
-755 -17 -783 -22 -40 -36 -43 -225 -51 l-153 -6 0 -24 c0 -13 -4 -22 -9 -19
-5 3 -11 -1 -15 -9 -3 -8 -12 -12 -20 -9 -13 5 -29 -21 -25 -42 4 -23 -4 -34
-36 -54 -34 -21 -35 -23 -35 -85 0 -62 1 -64 29 -70 23 -5 31 -13 37 -38 8
-39 21 -57 37 -51 7 2 18 -9 25 -25 23 -52 57 -53 1278 -48 604 3 1112 8 1127
12 17 5 32 18 38 32 5 14 18 27 28 30 16 4 33 47 45 113 1 8 6 25 10 37 4 13
0 41 -10 70 -9 26 -18 58 -19 70 -4 30 -13 43 -30 43 -8 0 -21 16 -29 35 l-15
35 -703 1 c-737 0 -775 2 -771 42 0 12 -4 16 -13 13 -9 -3 -15 6 -19 32 -3 20
-10 45 -16 54 -13 25 -12 1375 1 1383 5 3 10 13 10 21 0 21 30 51 63 63 19 8
284 11 821 11 680 0 800 -2 844 -15 36 -11 53 -22 58 -38 4 -12 6 -188 5 -392
-1 -419 4 -477 51 -501 16 -8 28 -21 28 -29 0 -18 16 -28 60 -35 26 -4 36 -11
38 -28 3 -19 9 -22 48 -22 32 0 44 4 44 15 0 8 6 16 13 17 6 0 17 2 22 2 6 1
17 6 25 11 8 5 29 8 46 7 29 -2 32 1 38 33 4 20 13 38 21 41 7 3 16 17 20 32
4 18 9 22 14 13 16 -26 21 72 21 459 0 231 4 401 10 410 8 13 116 15 870 15
842 0 862 0 876 -19 12 -17 14 -80 12 -368 -3 -377 -3 -376 -59 -381 -13 -1
-34 -12 -47 -25 -15 -15 -34 -22 -60 -22 -21 0 -63 -4 -93 -9 -30 -5 -76 -12
-103 -15 -33 -4 -53 -12 -63 -26 -8 -11 -20 -20 -28 -20 -7 0 -15 -5 -17 -11
-2 -5 -23 -13 -47 -16 -31 -4 -45 -11 -48 -24 -3 -10 -13 -21 -24 -24 -10 -3
-21 -15 -24 -26 -4 -10 -10 -17 -15 -14 -12 8 -56 -11 -77 -33 -10 -11 -29
-22 -42 -24 -13 -1 -27 -10 -31 -18 -20 -44 -29 -55 -41 -55 -22 -1 -40 -15
-49 -41 -6 -14 -17 -27 -27 -31 -21 -8 -53 -40 -53 -52 0 -5 -13 -19 -30 -31
-16 -12 -30 -27 -30 -34 0 -20 -32 -80 -47 -89 -8 -5 -27 -36 -44 -70 -17 -34
-39 -78 -49 -97 -11 -19 -19 -49 -20 -66 0 -17 -7 -37 -15 -44 -8 -7 -15 -19
-15 -26 0 -8 -6 -14 -14 -14 -8 0 -16 -17 -20 -47 -16 -117 -43 -140 -173
-150 -53 -4 -73 -10 -73 -20 0 -14 -79 -53 -109 -53 -10 0 -26 -9 -36 -20 -21
-23 -98 -60 -125 -60 -11 0 -20 -12 -26 -32 -7 -25 -17 -35 -42 -43 -25 -7
-33 -16 -38 -42 -3 -18 -10 -33 -15 -33 -5 0 -14 -11 -19 -25 -5 -14 -16 -25
-24 -25 -15 0 -26 -21 -26 -50 0 -10 -14 -24 -35 -34 -27 -13 -35 -23 -35 -44
0 -38 -38 -182 -52 -199 -7 -9 -13 -64 -14 -149 -2 -75 -8 -150 -15 -171 -15
-43 -37 -73 -53 -73 -7 0 -17 -14 -23 -31 -8 -19 -23 -34 -42 -42 -21 -8 -31
-18 -31 -33 0 -24 -29 -54 -53 -54 -10 0 -19 -11 -23 -27 -12 -53 -38 -103
-56 -109 -12 -3 -18 -15 -18 -33 0 -16 -8 -39 -18 -52 -10 -13 -21 -32 -25
-41 -3 -10 -13 -18 -22 -18 -10 0 -15 -10 -15 -29 0 -41 -13 -71 -48 -108 -28
-29 -30 -39 -42 -163 -9 -87 -18 -134 -26 -137 -7 -2 -11 -10 -8 -17 3 -7 -2
-39 -11 -71 -11 -43 -15 -105 -14 -225 2 -220 9 -296 29 -293 13 2 18 -16 28
-90 7 -50 12 -102 12 -114 0 -14 10 -27 28 -35 15 -7 28 -23 30 -36 2 -12 8
-22 13 -22 5 0 9 -28 9 -63 0 -54 -4 -68 -26 -95 -15 -18 -33 -32 -40 -32 -8
0 -14 -4 -14 -9 0 -5 -19 -11 -42 -14 -82 -11 -113 -20 -126 -38 -7 -11 -20
-19 -28 -19 -8 0 -25 -6 -37 -14 -12 -8 -39 -17 -59 -20 -28 -5 -38 -12 -38
-25 0 -20 -67 -51 -108 -51 -17 0 -27 -10 -38 -35 -11 -26 -20 -35 -39 -35
-16 0 -28 -9 -37 -27 -7 -15 -22 -32 -34 -38 -26 -13 -54 -40 -54 -53 0 -5
-13 -15 -30 -22 -16 -7 -35 -24 -41 -39 -7 -15 -25 -35 -41 -44 -20 -12 -28
-24 -28 -44 0 -21 -8 -33 -27 -45 -18 -11 -37 -39 -53 -75 -13 -32 -31 -63
-39 -69 -8 -6 -20 -34 -28 -63 -7 -30 -25 -65 -43 -84 -16 -18 -30 -39 -30
-47 -1 -46 -21 -165 -29 -169 -4 -3 -11 -23 -15 -43 -4 -21 -11 -38 -17 -38
-6 0 -8 -85 -7 -227 3 -187 5 -227 17 -225 9 2 12 -4 7 -21 -3 -13 1 -32 8
-43 8 -11 19 -64 26 -119 9 -73 17 -104 30 -116 23 -20 60 -92 60 -117 0 -10
11 -28 25 -40 25 -22 55 -82 55 -111 0 -9 13 -22 30 -28 24 -9 30 -17 30 -40
0 -31 16 -53 38 -53 18 0 42 -25 42 -44 0 -10 9 -16 23 -17 12 0 31 -3 42 -7
27 -8 161 -6 203 3 17 4 32 11 32 16 0 5 6 9 14 9 7 0 16 9 19 20 3 11 19 25
36 31 30 11 31 14 33 72 6 145 -2 192 -32 200 -11 3 -27 22 -36 42 -8 21 -18
35 -21 32 -13 -14 -58 56 -67 105 -4 21 -10 38 -14 38 -4 0 -17 15 -29 33 -20
29 -23 51 -31 202 -10 193 0 478 17 515 25 54 39 72 43 58 3 -7 8 10 12 39 5
32 14 54 23 57 8 4 13 13 9 21 -7 18 20 21 28 3 4 -7 4 -3 2 10 -2 12 0 22 5
22 5 0 17 16 26 35 9 19 23 35 30 35 7 0 13 4 13 9 0 5 9 13 21 16 11 4 25 20
31 36 6 16 15 28 22 27 11 -3 56 36 56 50 1 10 69 52 86 52 8 0 23 8 33 17 11
10 27 24 35 31 19 15 103 32 158 32 30 0 39 3 35 14 -8 20 43 26 213 25 120 0
279 -13 217 -18 -39 -2 -3 -21 41 -21 52 -1 146 -23 137 -32 -4 -3 3 -9 15
-13 13 -4 19 -12 16 -20 -3 -9 0 -12 9 -9 20 8 95 -34 104 -59 5 -12 24 -28
43 -36 22 -9 38 -24 45 -42 9 -23 17 -29 41 -29 33 0 65 -30 57 -52 -5 -12 4
-17 37 -23 117 -23 255 -6 269 32 4 11 21 25 37 31 25 9 30 17 41 70 6 33 11
64 10 69 -3 12 18 60 30 68 6 3 11 1 11 -6 0 -36 11 7 20 76 10 81 59 206 60
155 1 -18 7 -9 20 30 18 49 35 71 51 67 12 -4 39 26 39 43 0 14 39 61 44 52 4
-10 36 12 36 25 0 15 38 70 46 66 14 -9 32 0 37 17 3 11 13 23 24 27 10 3 21
11 24 16 4 5 33 11 64 14 47 3 65 10 92 33 19 17 37 30 41 30 4 0 63 5 132 11
153 12 118 12 297 1 156 -9 203 -22 203 -57 0 -8 6 -15 13 -16 101 -6 147 -22
162 -57 5 -12 19 -22 30 -22 24 -1 75 -43 75 -63 0 -8 9 -17 20 -20 11 -3 23
-13 27 -24 7 -20 29 -42 59 -59 10 -6 20 -17 20 -25 1 -8 2 -20 3 -26 0 -7 6
-13 12 -13 19 0 49 -41 49 -66 0 -12 10 -35 23 -51 54 -69 60 -90 61 -217 1
-67 -1 -131 -4 -142 -8 -30 -35 -54 -59 -54 -12 0 -30 -9 -41 -20 -11 -11 -24
-20 -29 -20 -5 0 -11 -7 -15 -15 -3 -8 -11 -15 -18 -15 -35 0 -88 -22 -88 -37
0 -9 -6 -13 -15 -9 -9 3 -15 0 -15 -8 0 -14 -32 -29 -82 -40 -17 -4 -28 -14
-30 -28 -2 -15 -13 -24 -35 -30 -29 -8 -60 -42 -55 -60 1 -4 -9 -11 -23 -14
-14 -3 -32 -19 -41 -35 -8 -16 -27 -35 -42 -43 -15 -8 -34 -26 -42 -40 -7 -14
-18 -26 -23 -26 -12 0 -57 -48 -57 -60 0 -5 -12 -15 -27 -22 -15 -7 -31 -24
-34 -38 -12 -51 -21 -66 -41 -75 -14 -7 -27 -28 -37 -63 -11 -35 -22 -54 -36
-58 -25 -8 -35 -22 -35 -53 0 -26 -34 -61 -59 -61 -14 0 -14 -2 -1 -10 13 -9
13 -12 -2 -21 -13 -7 -18 -23 -18 -52 0 -23 -7 -51 -15 -61 -8 -10 -12 -23 -9
-27 3 -5 -6 -24 -20 -41 -16 -23 -26 -52 -31 -93 -10 -90 -12 -306 -3 -311 4
-3 8 -14 8 -25 0 -10 7 -19 15 -19 9 0 18 -6 21 -14 3 -8 27 -19 53 -26 32 -7
50 -18 56 -33 21 -46 142 -29 162 22 9 24 15 27 41 23 30 -4 32 -2 38 37 5 31
11 41 25 41 14 0 19 8 20 28 0 15 3 21 6 15 10 -27 21 -11 27 45 11 99 21 143
31 142 6 -1 12 8 15 20 3 12 10 21 15 20 6 0 12 22 15 49 3 28 11 56 17 62 6
6 9 18 6 27 -4 10 -2 13 5 8 7 -4 12 -1 12 7 0 8 9 24 20 37 11 13 20 33 20
46 0 13 9 28 20 34 11 6 18 16 14 21 -3 6 3 13 15 16 24 6 56 51 53 74 -2 11
8 21 28 27 16 6 35 22 42 36 6 14 26 35 44 45 18 11 36 31 40 45 4 19 13 26
30 26 13 0 29 9 36 20 7 11 16 20 21 20 4 0 18 12 31 26 14 17 37 29 62 33 30
5 40 11 42 28 2 16 16 26 55 39 29 9 63 25 76 35 13 11 29 19 37 19 7 0 14 4
16 9 2 6 44 15 93 21 50 7 97 18 105 25 41 34 112 45 284 45 219 0 269 -6 302
-36 20 -19 43 -26 110 -34 47 -5 99 -16 116 -25 17 -8 35 -15 40 -15 5 0 16
-7 24 -15 9 -8 29 -15 45 -15 19 0 39 -10 55 -25 14 -14 27 -25 29 -25 3 0 13
-8 23 -18 11 -11 38 -22 61 -26 23 -3 44 -13 47 -21 8 -20 106 -20 137 -1 12
8 41 17 65 21 32 5 42 11 42 26 0 10 5 19 10 19 6 0 10 6 10 13 0 8 11 24 25
37 23 22 25 30 25 113 0 85 -1 91 -30 124 -16 18 -30 43 -30 54 0 21 -5 24
-63 34 -26 4 -41 13 -46 27 -8 21 -96 62 -113 52 -4 -3 -8 6 -8 19 0 20 -9 26
-67 45 -38 12 -74 22 -80 22 -7 0 -13 11 -13 25 0 25 -1 25 -80 25 -44 0 -80
4 -80 9 0 5 -26 13 -57 17 -69 8 -106 21 -99 33 7 11 -93 20 -329 27 -104 3
-193 9 -198 13 -4 4 -10 18 -12 31 -2 13 -8 26 -12 29 -7 5 -34 55 -38 71 -19
73 -32 149 -34 204 0 22 -4 37 -7 33 -9 -9 -44 26 -44 45 0 9 -4 19 -9 22 -4
3 -11 20 -15 37 -3 18 -9 29 -13 26 -9 -10 -52 44 -58 75 -4 15 -11 30 -16 33
-5 4 -9 15 -9 25 0 13 -5 17 -14 14 -18 -7 -46 43 -46 81 0 20 -5 25 -24 25
-27 0 -41 14 -50 52 -5 21 -13 28 -30 28 -18 0 -27 9 -39 40 -12 32 -20 40
-41 40 -16 0 -26 6 -26 15 0 8 -4 15 -10 15 -5 0 -10 7 -10 15 0 8 -8 15 -18
15 -10 0 -27 7 -39 15 -12 9 -26 15 -30 14 -13 -3 -43 13 -43 23 0 5 5 6 10 3
6 -3 10 -2 10 3 0 8 -81 50 -87 45 -5 -5 -43 37 -43 47 0 6 -11 10 -24 10 -13
0 -40 7 -60 15 -20 8 -36 12 -36 9 0 -4 -8 0 -17 9 -10 8 -29 17 -43 20 -24 4
-24 4 3 6 16 0 26 5 22 11 -3 6 -50 10 -106 10 -59 0 -99 4 -99 10 0 6 -48 10
-122 11 -74 1 -111 4 -93 9 39 9 -192 17 -260 9 l-50 -6 45 -3 c30 -3 9 -6
-60 -12 -58 -4 -140 -10 -182 -14 -60 -4 -78 -9 -78 -20 0 -9 -4 -13 -9 -9 -5
3 -13 0 -16 -6 -4 -5 -13 -8 -21 -5 -8 3 -14 -1 -14 -8 0 -15 -49 -36 -81 -36
-11 0 -19 -7 -19 -15 0 -8 -7 -15 -15 -15 -8 0 -15 -7 -15 -15 0 -8 -4 -15
-10 -15 -5 0 -10 5 -10 11 0 6 -7 3 -16 -5 -8 -9 -26 -19 -40 -22 -13 -3 -22
-10 -19 -15 3 -4 -4 -13 -16 -20 -17 -9 -19 -13 -8 -20 10 -6 3 -9 -21 -9 -36
-1 -71 -23 -83 -52 -3 -10 -12 -15 -21 -12 -10 4 -21 -7 -36 -35 -13 -26 -27
-41 -39 -41 -13 0 -27 -15 -41 -45 -13 -26 -29 -45 -38 -45 -9 0 -25 -11 -37
-26 -34 -43 -114 -62 -220 -54 -127 11 -195 29 -195 52 0 15 -8 18 -52 18 -50
0 -54 3 -81 40 -18 25 -40 43 -60 48 -24 6 -34 16 -41 40 -6 23 -18 35 -42 44
-19 7 -34 18 -34 25 0 27 -33 81 -46 76 -10 -3 -14 3 -14 20 0 14 -5 27 -11
29 -6 2 -13 15 -14 28 -1 14 -8 43 -14 65 -6 22 -12 56 -12 75 -1 23 -3 28 -6
13 -2 -13 -9 -23 -14 -23 -5 0 -9 68 -9 160 0 100 4 160 10 160 6 0 10 -7 10
-17 0 -9 2 -14 4 -12 5 5 29 247 28 277 -1 12 3 22 8 22 6 0 10 9 10 21 0 22
24 52 34 42 3 -4 6 3 6 15 0 25 20 74 35 84 6 5 5 8 -2 8 -7 0 -13 7 -13 16 0
8 5 12 10 9 6 -3 13 0 16 9 3 8 11 13 18 10 9 -3 15 8 20 36 5 34 12 43 41 57
24 11 35 24 35 38 0 13 10 27 25 35 14 7 25 19 25 27 0 7 7 13 15 13 8 0 15 5
15 10 0 6 9 20 20 32 11 12 20 30 20 41 0 14 3 17 13 9 9 -8 20 -2 41 19 16
16 32 29 36 29 4 0 12 11 18 25 7 15 24 28 44 33 47 12 54 54 42 257 -15 240
3 365 52 365 7 0 11 6 9 12 -6 19 27 54 58 62 15 3 36 15 47 26 24 24 94 34
193 27 56 -5 86 -12 100 -24 22 -20 118 -24 125 -5 2 6 32 20 68 32 35 12 64
26 64 31 0 5 6 9 13 9 28 0 36 49 42 278 6 237 13 282 46 282 13 0 19 12 24
49 5 38 15 58 41 85 19 19 34 37 34 40 0 11 44 56 53 56 14 0 36 32 37 52 0 9
14 27 31 40 17 13 41 32 53 44 28 24 88 54 110 54 16 0 63 40 59 51 -3 9 121
29 192 32 39 1 59 6 58 13 -1 7 13 15 33 18 19 4 32 11 29 17 -4 5 8 9 24 9
17 0 31 -4 31 -10 0 -5 14 -10 30 -10 18 0 37 -8 47 -20 15 -17 30 -20 98 -20
44 0 100 -7 125 -14 25 -8 41 -15 35 -16 -5 0 1 -7 15 -15 14 -8 21 -15 15
-15 -21 -1 21 -20 45 -20 14 0 35 -7 46 -15 12 -8 24 -11 28 -8 3 3 11 -8 17
-25 11 -31 14 -34 42 -36 18 -2 44 -29 49 -51 2 -11 17 -27 33 -35 17 -8 31
-22 32 -30 1 -8 10 -37 19 -63 13 -38 21 -48 35 -44 24 7 35 -9 44 -63 4 -25
20 -63 36 -84 16 -22 29 -49 29 -61 0 -12 10 -31 23 -42 12 -11 29 -31 39 -43
26 -35 132 -51 288 -43 127 6 129 6 158 -19 24 -20 45 -26 108 -31 43 -3 80
-11 82 -16 2 -6 11 -11 20 -11 8 0 23 -7 33 -16 10 -9 35 -22 56 -29 21 -7 42
-21 48 -31 16 -29 33 -44 48 -44 24 0 96 -77 105 -112 5 -21 14 -32 23 -30 29
4 59 -36 59 -78 0 -33 6 -46 36 -74 34 -32 36 -38 43 -118 5 -65 11 -90 30
-117 21 -30 24 -44 23 -124 0 -58 5 -104 14 -125 8 -19 14 -45 14 -58 0 -16 6
-24 18 -24 24 -1 52 -24 52 -44 0 -9 7 -16 16 -16 9 0 28 -8 42 -19 15 -10 36
-20 47 -22 11 -3 20 -9 20 -15 0 -13 59 -64 74 -64 6 0 11 -7 11 -15 0 -8 14
-25 31 -37 17 -13 38 -38 46 -57 9 -18 25 -36 35 -39 10 -2 18 -10 18 -17 0
-7 7 -19 17 -26 9 -8 22 -29 30 -47 7 -17 20 -32 28 -32 17 0 35 -30 35 -60 0
-27 28 -82 39 -75 14 8 38 -53 50 -127 6 -37 11 -70 10 -75 -4 -23 3 -43 14
-43 31 0 53 -30 56 -77 1 -7 13 -13 29 -13 17 0 37 -11 56 -31 36 -38 64 -49
124 -49 48 0 99 19 57 21 -18 0 -17 2 5 12 14 7 33 20 42 29 10 10 25 18 33
18 8 0 15 5 15 11 0 5 4 7 10 4 5 -3 12 6 16 20 3 14 17 34 30 44 14 11 20 22
14 26 -6 4 -6 11 3 19 9 10 14 11 19 2 4 -6 8 9 8 34 0 33 -3 41 -10 30 -8
-12 -10 -11 -10 5 0 12 -5 26 -10 31 -12 12 -40 116 -44 164 -2 20 -8 34 -14
33 -7 -2 -12 8 -12 21 0 13 -7 26 -15 30 -8 3 -15 12 -15 20 0 38 -34 115 -56
124 -16 8 -25 23 -30 49 -7 42 -21 68 -59 109 -14 15 -25 38 -25 51 0 13 -7
26 -17 30 -28 10 -53 35 -53 52 0 9 -16 25 -35 35 -20 11 -38 30 -41 42 -3 13
-15 26 -25 29 -11 4 -28 24 -39 46 -12 22 -28 39 -38 39 -24 1 -52 24 -52 44
0 9 -12 21 -26 26 -42 16 -57 39 -61 91 -2 34 -11 57 -27 74 -18 20 -25 41
-29 93 -9 117 -27 216 -39 224 -7 4 -19 6 -25 3 -7 -2 -13 2 -13 10 0 8 5 15
10 15 6 0 1 9 -10 20 -37 37 -22 161 26 201 11 9 51 11 152 8 75 -2 232 -3
347 -2 238 2 291 11 313 57 8 15 25 32 38 38 24 11 24 13 24 145 0 82 -4 133
-10 133 -5 0 -10 6 -10 13 0 6 -14 20 -30 29 -18 10 -30 25 -30 37 0 28 -13
30 -240 34 -162 3 -201 7 -228 21 -64 34 -62 14 -61 795 0 520 3 715 12 741
16 47 58 58 225 59 131 1 133 1 144 26 7 16 24 29 49 35 20 6 47 23 60 39 13
16 27 27 31 25 11 -7 22 65 22 151 0 81 -10 142 -21 131 -4 -3 -18 7 -32 23
-49 54 -81 56 -666 54 -548 -3 -585 0 -605 38 -6 10 -19 19 -29 19 -10 0 -24
6 -30 14 -15 18 -15 602 0 612 5 3 7 13 4 22 -3 11 7 28 26 46 28 27 32 28 41
13 7 -14 24 -17 83 -17 73 0 75 1 90 31 9 17 19 28 22 25 4 -3 13 0 22 8 16
15 20 16 46 16 8 0 15 7 15 15 0 8 4 15 9 15 13 0 31 57 31 96 0 19 5 34 10
34 6 0 10 24 8 60 -2 52 1 62 20 76 12 8 22 23 22 32 0 27 58 52 110 48 25 -2
49 -1 54 2 8 4 51 9 116 12 14 1 19 4 13 7 -18 7 -16 23 1 23 8 0 17 8 21 19
3 10 18 21 34 24 26 6 29 11 35 60 4 30 6 87 5 126 -2 59 -6 74 -21 82 -23 12
-104 93 -109 108 -3 8 -37 12 -94 12 -163 0 -182 5 -237 60 -26 26 -48 57 -48
69 0 11 -4 20 -9 20 -5 0 -14 52 -21 115 -9 81 -17 115 -26 115 -17 0 -41 54
-49 110 -11 82 -16 100 -30 100 -7 0 -15 17 -19 40 -3 23 -10 39 -14 36 -4 -2
-8 12 -9 33 -3 62 -35 204 -48 218 -18 17 -35 101 -35 167 0 60 -26 146 -44
146 -13 0 -36 102 -36 159 0 19 -10 46 -25 65 -14 18 -25 41 -25 52 0 10 -7
28 -15 38 -10 13 -15 44 -15 93 0 54 -3 73 -13 73 -29 0 -54 106 -66 275 -4
68 -9 90 -20 90 -30 0 -39 68 -41 316 -1 134 -3 259 -6 278 -5 38 -37 96 -59
105 -8 3 -20 17 -27 31 -6 14 -20 25 -30 25 -11 0 -16 5 -13 10 4 6 -31 10
-97 10 l-103 0 -17 -30 c-9 -17 -24 -30 -32 -30 -18 0 -36 -30 -36 -59 0 -12
-3 -20 -7 -19 -5 1 -18 -3 -30 -10 -22 -12 -23 -18 -23 -157 0 -79 -5 -154
-10 -167 -24 -51 -36 -53 -445 -55 -455 -1 -490 1 -519 40 -18 25 -22 46 -26
170 -4 117 -8 142 -20 142 -23 0 -52 34 -59 69 -5 23 -13 32 -30 34 -32 5 -51
25 -51 54 0 19 -2 20 -11 8 -8 -11 -12 -12 -16 -2 -6 15 -163 17 -163 2 0 -5
-9 -10 -19 -10 -13 0 -21 -8 -23 -22 -2 -15 -13 -24 -34 -30 -25 -6 -33 -15
-38 -40 -3 -18 -14 -46 -24 -63 -15 -26 -17 -65 -19 -313 l-3 -283 -31 -39
c-21 -25 -41 -40 -55 -40 -12 0 -24 -4 -26 -10 -2 -6 -206 -11 -546 -13 -433
-3 -545 -6 -552 -17 -4 -7 -13 -9 -20 -5 -6 4 -17 0 -23 -9 -7 -8 -31 -16 -57
-18 -25 -2 -45 -8 -45 -14 0 -15 -31 -44 -48 -44 -31 0 -33 -274 -2 -275 29
-2 55 -18 55 -36 0 -14 7 -19 29 -19 16 0 37 -7 45 -16 14 -13 72 -15 476 -14
388 0 465 -2 495 -15 25 -10 34 -19 29 -27 -4 -7 -4 -10 1 -6 13 13 46 -12 60
-46 17 -41 9 -114 -17 -142 -12 -14 -22 -47 -28 -90 -15 -112 -43 -244 -52
-244 -4 0 -8 5 -8 12 0 33 -10 -7 -20 -82 -13 -100 -38 -173 -55 -166 -14 5
-25 -35 -25 -92 0 -69 -21 -113 -67 -141 -24 -14 -41 -31 -38 -38 6 -18 -38
-27 -88 -19 -54 9 -32 9 -259 3 -121 -4 -198 -2 -198 4 0 5 -11 9 -25 9 -14 0
-25 4 -25 9 0 5 -13 14 -30 20 -16 5 -31 16 -32 23 0 7 -2 18 -3 23 -2 6 -3
38 -4 73 -1 48 -4 62 -16 62 -15 0 -19 10 -16 41 1 9 -5 22 -14 29 -8 7 -15
23 -15 36 0 25 -26 44 -60 44 -12 0 -25 10 -31 24 -10 21 -18 24 -74 25 -43 1
-68 -3 -78 -13 -8 -8 -30 -21 -49 -29 -19 -8 -45 -29 -57 -46 -12 -17 -27 -30
-33 -28 -12 2 -13 -5 -28 -132 -11 -100 -20 -121 -52 -121 -10 0 -29 -11 -42
-25 l-24 -26 -603 -1 c-442 -1 -609 1 -624 10 -11 6 -16 12 -11 12 15 0 -26
40 -41 40 -21 0 -40 56 -47 140 -5 62 -10 78 -30 95 -13 11 -28 30 -35 42 -6
12 -25 24 -41 28 -17 4 -38 18 -46 31 -15 22 -23 24 -90 24 -66 0 -75 -2 -89
-24 -9 -13 -28 -26 -43 -29 -18 -4 -33 -18 -47 -44 -11 -21 -24 -37 -30 -35
-15 5 -22 -27 -24 -112 -2 -94 -10 -111 -56 -126 -19 -6 -39 -19 -44 -28 -9
-15 -48 -18 -378 -23 -202 -4 -387 -10 -410 -14 -29 -5 -43 -4 -43 4 0 6 -17
11 -40 11 -31 0 -38 3 -34 15 4 10 0 15 -13 15 -11 0 -27 8 -36 18 -15 16 -17
69 -17 491 -1 497 -1 501 44 501 16 0 18 2 7 9 -11 7 -7 13 17 25 28 14 139
16 1089 17 1119 0 1116 0 1193 46 20 11 34 30 39 53 18 69 23 159 11 213 -9
45 -15 56 -35 61 -15 4 -22 11 -19 20 8 21 -52 46 -115 47 -41 1 -49 3 -31 8
l25 8 -30 7 c-16 3 -498 6 -1070 5 l-1040 -2 -42 22 -43 21 0 284 c0 307 4
337 54 370 14 9 38 16 54 16 32 0 77 33 67 49 -4 7 5 11 23 11 24 0 33 7 46
34 10 21 26 36 41 40 25 6 25 7 25 120 0 110 1 114 25 130 13 9 41 16 62 17
21 0 32 3 26 6 -19 7 -16 23 4 23 20 0 103 29 121 43 6 5 12 17 12 26 0 9 10
21 23 26 19 9 23 21 31 89 6 55 5 89 -3 111 -6 17 -11 39 -11 48 0 10 -8 17
-20 17 -14 0 -20 7 -20 23 0 30 -18 47 -48 47 -30 0 -82 30 -82 47 0 7 -1 13
-2 13 -2 0 -58 5 -124 9 -131 10 -165 22 -156 54 3 14 1 18 -7 13 -12 -8 -36
40 -45 90 -2 16 -5 29 -6 29 -1 0 -6 36 -18 158 -8 73 -13 91 -31 103 -11 8
-21 23 -21 33 0 10 -3 21 -7 25 -11 10 -10 -20 -12 504 l-1 462 -22 22 c-23
23 -48 79 -48 110 0 38 -22 117 -32 115 -14 -3 -40 50 -52 106 -4 15 -11 27
-16 27 -6 0 -10 6 -10 14 0 8 -6 16 -13 19 -8 3 -22 30 -31 61 -10 31 -22 54
-27 50 -5 -3 -9 0 -9 5 0 6 -9 11 -20 11 -15 0 -22 9 -26 30 -4 17 -13 30 -20
30 -8 0 -14 5 -14 10 0 6 -9 10 -20 10 -12 0 -26 12 -35 30 -9 17 -19 28 -24
26 -4 -3 -15 4 -24 15 -9 10 -26 19 -36 19 -11 0 -22 8 -26 19 -9 28 -41 54
-69 54 -14 0 -23 3 -21 7 3 4 -2 11 -11 14 -9 4 -14 13 -10 21 3 10 -1 15 -14
16 -25 2 -28 3 -70 22 -73 32 -71 17 -68 379 3 354 1 344 63 365 17 5 62 8
102 6 70 -4 72 -3 85 24 7 15 22 30 33 33 30 8 65 33 65 47 0 7 6 13 14 13 8
0 18 10 21 21 11 35 8 232 -4 262 -12 31 -34 57 -48 57 -5 0 -14 5 -21 12 -37
37 -79 41 -437 43 -192 1 -357 4 -365 7 -8 4 -38 12 -65 18 -32 7 -56 19 -64
31 -9 16 -12 88 -11 287 1 272 8 335 40 352 9 5 66 10 127 12 l111 3 46 -32
c41 -29 55 -33 109 -33 66 0 80 5 90 32 3 10 27 21 61 29 43 9 56 16 56 30 0
10 13 25 30 34 l30 16 -1 119 c-1 95 -4 120 -16 124 -8 3 -19 4 -24 1 -4 -3
-14 3 -21 15 -7 11 -21 20 -31 20 -10 0 -21 8 -24 18 -9 23 -23 32 -55 32 -16
0 -28 5 -28 10 0 6 -22 10 -49 10 -58 0 -111 17 -111 36 0 10 -15 14 -57 14
-75 0 -177 17 -181 30 -2 5 -12 10 -22 10 -10 0 -20 7 -24 15 -3 8 -11 15 -18
15 -31 0 -37 74 -38 481 -2 423 1 452 41 462 11 3 19 12 19 21 0 13 12 16 63
15 34 0 85 -4 112 -8 49 -7 49 -8 20 -16 -30 -9 -30 -9 15 -17 91 -15 472 -21
598 -9 137 14 152 17 152 36 0 13 29 20 125 31 79 8 94 13 118 37 26 26 80 47
123 47 23 0 33 5 37 20 3 12 14 20 26 20 11 0 25 9 31 20 10 18 21 20 117 20
96 0 109 2 130 22 21 19 34 22 131 22 94 0 113 -2 145 -22 32 -19 53 -22 136
-22 53 0 101 -4 107 -8 5 -5 32 -17 59 -27 28 -10 57 -23 65 -30 8 -7 29 -17
45 -22 51 -16 54 -38 54 -476 1 -399 -5 -477 -36 -477 -6 0 -13 -5 -15 -11 -5
-16 -174 -15 -233 2 -27 8 -58 22 -67 32 -16 15 -43 17 -259 17 -223 0 -241
-1 -246 -18 -5 -20 -60 -47 -116 -57 -33 -6 -37 -11 -37 -36 0 -16 -4 -29 -10
-29 -5 0 -10 -11 -10 -25 0 -14 5 -25 10 -25 6 0 9 -21 8 -47 l-1 -48 -6 45
-6 45 -7 -58 c-4 -31 -3 -71 2 -87 6 -21 5 -30 -3 -30 -7 0 0 -10 14 -23 14
-12 29 -32 33 -44 11 -33 81 -43 310 -43 211 0 302 -11 333 -40 13 -12 44 -19
110 -23 99 -7 176 -28 208 -57 37 -34 375 -32 375 2 0 4 7 5 15 2 10 -4 18 3
24 19 6 14 19 31 31 37 11 6 18 15 15 20 -3 6 1 7 9 4 34 -13 37 56 34 908 -2
458 -7 841 -12 851 -4 9 -13 17 -20 17 -6 0 -22 16 -35 35 -12 19 -36 40 -52
47 -16 7 -27 18 -25 25 6 16 -21 21 -164 29 -69 3 -130 10 -136 15 -6 5 -25
10 -43 11 -18 1 -35 6 -37 10 -3 4 -24 9 -47 9 l-42 2 35 7 35 6 -27 8 c-15 4
-31 5 -37 2 -5 -4 -41 -1 -78 5 -37 6 -83 11 -102 10 -19 -1 -38 4 -42 11 -11
17 -526 19 -537 2 -4 -6 -28 -12 -53 -12 -25 -1 -67 -6 -93 -12 -26 -6 -51 -8
-56 -5 -4 3 -16 2 -27 -2 -16 -6 -15 -8 7 -14 25 -7 25 -7 -3 -8 -16 -1 -41
-7 -55 -15 -41 -21 -95 -36 -130 -36 -18 0 -36 -7 -44 -18 -24 -33 -62 -52
-105 -52 -24 0 -43 -4 -43 -10 0 -5 -9 -10 -21 -10 -12 0 -23 -8 -26 -20 -3
-11 -8 -20 -12 -21 -3 0 -17 -3 -31 -6 -56 -13 -456 -14 -528 -2 -63 10 -75
16 -89 40 -10 16 -23 29 -29 29 -7 0 -14 7 -18 15 -3 8 -12 15 -21 15 -8 0
-15 6 -15 14 0 7 -3 28 -7 46 -4 24 -3 31 5 26 8 -5 13 7 14 41 3 90 -4 178
-16 186 -8 5 -7 10 3 16 12 8 12 12 -2 25 -9 9 -19 36 -22 61 -6 38 -11 45
-36 50 -27 6 -41 25 -19 25 6 0 0 11 -14 25 -14 14 -32 25 -41 25 -8 0 -20 11
-24 24 -7 17 -20 25 -49 30 -22 3 -42 10 -44 14 -1 4 -19 17 -38 29 -37 22
-95 33 -145 27z m-418 -316 c-3 -8 -6 -5 -6 6 -1 11 2 17 5 13 3 -3 4 -12 1
-19z m2006 -285 c-7 -2 -21 -2 -30 0 -10 3 -4 5 12 5 17 0 24 -2 18 -5z
m-1130 -580 c-7 -2 -19 -2 -25 0 -7 3 -2 5 12 5 14 0 19 -2 13 -5z m-223 -513
c0 -233 -4 -360 -10 -360 -6 0 -10 127 -10 360 0 233 4 360 10 360 6 0 10
-127 10 -360z m0 -390 c0 -11 -4 -20 -10 -20 -5 0 -10 9 -10 20 0 11 5 20 10
20 6 0 10 -9 10 -20z m0 -985 c0 -137 -4 -215 -10 -215 -6 0 -10 78 -10 215 0
137 4 215 10 215 6 0 10 -78 10 -215z m97 -892 c23 -10 45 -27 48 -38 4 -11 9
-117 12 -235 6 -225 -1 -284 -36 -319 -9 -9 -16 -21 -14 -27 8 -25 -60 -33
-327 -36 -151 -1 -289 1 -307 5 -24 6 -37 19 -53 52 -20 41 -21 56 -18 315 3
255 4 272 22 286 16 11 77 14 325 14 268 0 311 -2 348 -17z m658 -3573 c4 -7
-332 -10 -999 -10 -664 0 -1006 3 -1006 10 0 7 340 10 999 10 656 0 1002 -3
1006 -10z m95 -34 c24 -5 42 -18 56 -39 21 -32 21 -34 20 -1472 -1 -1351 -2
-1442 -18 -1474 -10 -19 -18 -40 -18 -48 0 -17 -20 -17 -21 0 0 10 -2 10 -6 0
-2 -7 -11 -13 -18 -13 -7 0 -15 -5 -17 -11 -4 -13 -96 -16 -340 -11 -139 3
-158 6 -174 23 -9 10 -22 19 -28 19 -33 0 -36 73 -36 830 0 658 -2 751 -15
756 -8 4 -15 14 -15 23 0 9 -9 24 -19 33 -10 9 -22 34 -26 57 -5 31 -11 41
-26 41 -10 0 -19 4 -19 8 0 5 -10 14 -22 20 -13 6 -17 11 -10 11 26 2 11 21
-17 21 -15 0 -39 8 -52 19 -13 10 -33 20 -44 22 -11 3 -20 11 -20 19 0 11 -18
17 -75 22 -41 4 -84 8 -95 10 -11 1 -71 -1 -133 -6 l-114 -8 -10 -30 c-6 -16
-14 -25 -17 -19 -4 6 -25 1 -59 -16 -46 -22 -54 -31 -65 -70 -7 -24 -17 -44
-22 -43 -6 0 -11 -8 -13 -19 -2 -12 -9 -18 -17 -15 -10 4 -15 -7 -20 -41 -4
-25 -13 -52 -20 -59 -7 -7 -17 -35 -21 -62 -5 -37 -9 -44 -14 -29 -6 16 -9 17
-14 5 -3 -8 -5 -319 -4 -690 2 -530 6 -670 15 -650 11 23 12 21 12 -24 1 -46
0 -48 -14 -30 -14 19 -14 19 -15 -1 0 -35 -31 -101 -53 -115 -17 -10 -74 -15
-237 -17 -256 -3 -282 2 -310 65 -18 39 -19 107 -19 1494 0 799 3 1464 6 1477
13 52 -14 51 1123 47 580 -1 1071 -6 1090 -10z m6777 -398 c-3 -8 -6 -5 -6 6
-1 11 2 17 5 13 3 -3 4 -12 1 -19z m-89 -852 c56 -7 90 -25 71 -37 -12 -7 -12
-9 0 -9 22 0 40 -32 41 -72 0 -26 5 -38 14 -38 8 0 17 -16 21 -37 4 -21 11
-41 16 -44 5 -3 15 -46 23 -95 11 -76 15 -85 23 -64 9 22 11 17 18 -40 4 -36
11 -69 15 -75 9 -12 23 -63 25 -90 1 -11 2 -41 3 -67 2 -36 5 -46 16 -42 11 4
16 -9 21 -55 4 -34 10 -59 15 -56 4 2 10 -29 13 -70 11 -131 18 -156 42 -165
12 -4 22 -14 23 -22 1 -7 4 -35 7 -63 11 -104 15 -118 40 -150 14 -19 25 -40
25 -49 0 -8 5 -18 10 -21 6 -3 10 -35 10 -69 0 -51 6 -75 31 -123 34 -66 47
-133 32 -166 -6 -12 -15 -34 -22 -49 -6 -16 -17 -28 -25 -28 -8 0 -16 -5 -18
-11 -5 -16 -1930 -14 -1956 2 -32 20 -58 178 -32 194 6 4 8 10 6 14 -7 11 33
113 49 125 8 7 15 42 18 96 5 98 40 220 62 220 12 0 15 16 16 75 2 90 2 91 12
101 4 4 7 15 7 23 0 9 10 21 22 26 20 9 24 22 34 100 13 108 21 135 39 135 23
0 34 55 42 213 4 92 10 136 13 112 l5 -40 8 43 c5 31 12 42 21 39 10 -4 16 17
25 86 7 51 16 96 22 102 5 5 9 19 9 32 0 14 6 23 16 23 9 0 23 17 32 39 10 23
26 42 41 47 26 9 925 9 999 0z m-9508 -346 c0 -14 7 -20 21 -20 11 0 36 -12
55 -27 l34 -28 0 -446 0 -446 -22 -20 c-13 -11 -31 -23 -40 -26 -10 -4 -18
-13 -18 -21 0 -8 -13 -17 -29 -21 -16 -3 -210 -7 -432 -7 -365 -1 -481 4 -465
19 3 3 -6 14 -19 25 -14 11 -25 26 -25 34 0 8 -7 14 -15 14 -11 0 -15 11 -15
38 -1 20 -7 48 -15 62 -8 14 -14 36 -15 49 0 17 -24 48 -81 103 -44 43 -86 78
-92 79 -7 0 -21 2 -32 5 -34 7 -95 -7 -95 -22 0 -7 -6 -11 -13 -8 -8 3 -18 -6
-25 -21 -8 -16 -20 -25 -35 -25 -20 0 -28 -10 -46 -56 -11 -31 -21 -71 -21
-89 0 -18 -4 -35 -10 -37 -5 -2 -15 -28 -23 -58 -11 -46 -19 -58 -47 -72 -18
-9 -36 -22 -40 -28 -5 -9 -172 -12 -620 -11 -532 0 -614 2 -629 15 -72 67 -81
80 -81 124 0 22 -7 53 -15 68 -8 16 -15 36 -15 44 0 8 -7 33 -14 55 -11 31
-21 41 -45 47 -16 5 -37 18 -46 30 -8 13 -15 19 -15 14 0 -4 -12 2 -26 13 -37
29 -144 25 -144 -5 0 -8 -11 -19 -25 -24 -14 -5 -25 -14 -25 -20 0 -5 -7 -10
-15 -10 -8 0 -15 -5 -15 -11 0 -6 -6 -9 -12 -7 -8 3 -23 -22 -40 -66 -15 -38
-34 -74 -42 -78 -9 -5 -18 -32 -22 -65 -7 -59 -37 -103 -69 -103 -8 0 -14 -6
-12 -12 1 -10 -57 -13 -269 -11 l-272 2 -56 52 c-31 30 -56 59 -56 67 0 7 -4
11 -9 8 -11 -7 -20 54 -27 187 -3 53 -10 97 -15 97 -5 0 -9 -10 -10 -22 -1
-13 -5 -3 -10 21 -5 25 -12 47 -17 50 -12 8 -23 85 -22 154 1 63 -7 88 -21 66
-7 -11 -9 -10 -9 4 0 11 -6 17 -12 14 -14 -4 -35 97 -44 221 -6 76 7 132 31
132 7 0 18 7 25 15 11 13 262 15 2146 15 2127 0 2134 0 2134 -20z m-4350 -105
c0 -8 -4 -15 -10 -15 -5 0 -10 7 -10 15 0 8 5 15 10 15 6 0 10 -7 10 -15z
m8670 -1434 c0 -12 177 -13 199 -1 11 5 44 5 87 0 80 -11 2194 -19 2194 -8 0
4 -19 9 -42 11 l-43 4 48 1 c26 1 55 -2 65 -7 9 -5 43 -17 75 -26 31 -10 57
-24 57 -31 0 -7 4 -14 9 -16 5 -1 11 -41 12 -88 4 -127 16 -167 50 -174 20 -4
30 -14 38 -39 10 -29 16 -33 44 -33 60 0 181 -14 213 -26 40 -14 46 -31 53
-143 5 -68 9 -90 20 -90 16 0 31 -34 23 -50 -3 -5 -2 -7 3 -3 14 13 35 -13 35
-42 0 -24 5 -29 34 -34 18 -4 49 -22 69 -41 35 -34 38 -35 114 -35 131 0 152
-28 152 -206 0 -399 -7 -466 -51 -480 -10 -3 -30 -18 -43 -32 l-25 -27 -2106
0 c-1703 -1 -2111 2 -2131 12 -14 7 -29 13 -34 13 -5 0 -19 10 -31 22 -23 23
-23 28 -28 333 -3 199 -2 319 5 335 10 24 13 25 123 28 75 2 112 6 112 14 0
19 32 48 52 48 11 0 27 15 39 35 12 19 27 35 34 35 8 0 16 35 25 108 19 154
23 163 105 202 29 14 62 20 117 20 74 0 108 13 108 41 0 5 7 9 15 9 8 0 25 11
39 25 14 14 21 25 16 25 -6 0 -2 8 8 18 9 10 22 17 28 15 16 -6 26 74 18 136
-10 74 0 99 46 120 22 10 37 21 33 24 -3 4 -1 7 5 7 7 0 12 -4 12 -9z m623 2
c-13 -2 -33 -2 -45 0 -13 2 -3 4 22 4 25 0 35 -2 23 -4z m-9845 -431 c12 -7
22 -20 22 -30 0 -9 9 -28 20 -42 11 -14 20 -31 20 -37 0 -7 5 -13 10 -13 15 0
12 -31 -5 -64 -17 -32 -20 -93 -5 -98 14 -4 14 -742 0 -746 -5 -2 -10 -13 -10
-24 0 -27 -47 -101 -74 -118 -30 -19 -1229 -26 -1266 -7 -13 7 -35 28 -47 46
l-23 34 0 487 c0 499 5 586 38 605 32 19 88 21 692 20 461 -1 610 -4 628 -13z
m7744 -22 c56 -62 54 -47 53 -565 -1 -434 -2 -483 -18 -512 -11 -20 -22 -30
-31 -27 -8 3 -20 -3 -27 -13 -37 -51 -9 -50 -1091 -51 -561 -1 -1018 2 -1030
7 -13 5 -39 23 -58 41 l-35 31 -2 505 c-2 457 0 510 15 552 16 42 22 48 59 57
26 6 418 9 1088 8 l1048 -2 29 -31z m6768 26 c93 -4 120 -11 120 -31 0 -7 6
-15 13 -17 9 -4 13 -119 15 -523 l3 -518 -28 -29 c-15 -15 -33 -28 -40 -28 -7
0 -13 -4 -13 -9 0 -5 -15 -16 -32 -24 -29 -13 -111 -15 -628 -12 -372 2 -605
7 -621 13 -37 15 -75 53 -82 83 -4 14 -7 245 -7 512 -1 470 0 488 20 532 21
45 31 51 95 57 44 4 1084 -1 1185 -6z m-13960 -726 c0 -127 -4 -200 -10 -200
-6 0 -10 73 -10 200 0 127 4 200 10 200 6 0 10 -73 10 -200z m0 -320 c0 -11
-4 -20 -10 -20 -5 0 -10 9 -10 20 0 11 5 20 10 20 6 0 10 -9 10 -20z m-1044
-648 c17 -7 37 -25 43 -39 9 -19 12 -155 11 -512 -1 -267 -3 -497 -5 -511 -2
-14 -4 -29 -4 -34 -1 -5 -4 -6 -8 -3 -3 4 -11 -1 -18 -10 -8 -11 -33 -17 -86
-21 -78 -5 -93 1 -117 45 -7 11 -32 18 -88 23 -101 10 -186 34 -225 62 -29 22
-35 22 -364 23 -322 0 -334 -1 -362 -21 -34 -25 -135 -51 -234 -60 -56 -6 -78
-12 -95 -29 -12 -12 -36 -27 -53 -34 -28 -12 -36 -11 -89 15 l-57 29 -3 523
c-2 453 0 522 12 522 9 0 26 11 40 25 l26 26 822 -3 c648 -2 830 -6 854 -16z
m6842 -7 c12 -11 22 -25 22 -32 0 -7 6 -13 14 -13 13 0 15 -99 16 -715 0 -706
0 -715 -20 -732 -11 -10 -20 -25 -20 -35 0 -10 -4 -18 -9 -18 -5 0 -11 -9 -14
-19 -3 -14 -17 -21 -48 -26 -24 -3 -395 -5 -824 -3 l-780 3 -42 24 c-31 18
-43 32 -47 56 -4 17 -7 349 -7 737 -1 801 -4 767 72 785 29 7 315 10 854 9
791 -1 811 -1 833 -21z m9081 14 c27 -6 56 -18 63 -26 11 -13 13 -155 11 -747
-3 -720 -6 -786 -35 -786 -5 0 -18 -10 -28 -22 -18 -22 -25 -23 -227 -26 -114
-2 -240 1 -278 7 -39 6 -101 15 -138 21 -37 5 -78 17 -91 25 -13 9 -48 18 -77
21 -30 3 -75 13 -102 21 -39 12 -50 21 -62 50 -8 20 -15 44 -15 54 0 12 -13
24 -35 33 -35 15 -39 20 -49 67 -4 18 -12 25 -27 25 -15 -1 -24 8 -33 34 -6
19 -21 40 -34 46 -13 6 -31 27 -40 45 -9 19 -27 38 -40 44 -12 5 -25 18 -28
27 -3 10 -17 21 -32 24 -55 12 -62 16 -74 42 -10 21 -24 29 -61 36 -26 5 -47
13 -47 17 0 19 -49 59 -73 59 -14 0 -32 7 -41 15 -8 8 -22 15 -30 15 -9 0 -16
7 -16 15 0 8 -8 19 -19 24 -10 6 -22 27 -26 48 -4 24 -9 32 -14 24 -17 -27
-22 49 -22 359 0 325 3 370 26 370 8 0 16 9 20 19 3 11 16 22 28 24 52 10
1598 7 1646 -4z m-8559 -785 c0 -456 -3 -694 -10 -694 -7 0 -10 240 -10 701 0
464 3 698 10 694 7 -4 10 -248 10 -701z m4473 -2657 c-9 -15 -21 4 -15 25 5
21 6 21 12 2 4 -10 5 -22 3 -27z"/>
<path d="M17439 10869 c-13 -11 -24 -25 -24 -30 0 -15 -27 -29 -58 -29 -16 0
-26 -4 -23 -8 3 -5 -4 -29 -15 -53 -32 -68 -36 -74 -45 -71 -18 7 -23 -40 -23
-233 -1 -203 4 -259 20 -233 7 10 9 10 9 1 0 -7 6 -13 14 -13 20 0 39 -26 39
-54 0 -16 7 -26 21 -30 11 -3 114 -6 228 -6 186 0 209 2 225 18 10 10 31 26
46 36 15 9 32 28 37 41 5 12 14 26 19 30 6 3 11 16 12 28 0 21 1 21 9 2 5 -12
8 60 8 180 0 110 -4 187 -8 170 l-7 -30 -8 30 c-4 17 -14 55 -22 85 -9 30 -18
67 -20 83 -4 21 -11 27 -32 27 -15 0 -37 9 -48 20 -15 14 -23 16 -26 7 -4 -8
-6 -6 -6 3 -1 9 -14 23 -30 33 -23 13 -54 17 -149 17 -106 0 -122 -2 -143 -21z
m488 -371 c-2 -13 -4 -3 -4 22 0 25 2 35 4 23 2 -13 2 -33 0 -45z m0 -180 c-2
-18 -4 -6 -4 27 0 33 2 48 4 33 2 -15 2 -42 0 -60z"/>
<path d="M13085 9020 c-4 -12 -24 -32 -46 -46 -21 -13 -39 -30 -39 -37 0 -7
-11 -28 -25 -47 -14 -19 -25 -30 -25 -24 0 5 -4 3 -8 -4 -17 -25 -11 -225 5
-208 9 9 53 -38 53 -56 0 -31 114 -78 190 -78 50 0 61 3 57 14 -4 11 5 16 34
21 29 5 43 14 51 31 6 13 15 24 20 24 4 0 8 7 8 15 0 8 6 15 14 15 20 0 26 32
26 143 0 84 -2 99 -17 104 -26 10 -43 29 -43 48 0 10 -16 23 -40 33 -26 11
-43 26 -49 45 -10 26 -12 27 -85 27 -66 0 -75 -2 -81 -20z"/>
<path d="M14066 9025 c-3 -8 -12 -15 -20 -15 -9 0 -20 -9 -26 -20 -6 -11 -17
-20 -25 -20 -8 0 -19 -8 -24 -17 -6 -10 -11 -12 -11 -5 0 18 -20 15 -20 -4 0
-32 -23 -95 -31 -83 -4 8 -9 3 -14 -12 -4 -13 -14 -29 -21 -37 -19 -19 -18
-91 1 -98 8 -4 15 -15 15 -26 0 -12 11 -31 25 -44 14 -13 25 -31 25 -41 0 -20
50 -49 50 -30 1 7 7 1 15 -13 7 -14 19 -25 27 -26 7 0 21 -2 31 -2 9 -1 17 -7
17 -13 0 -5 -4 -8 -9 -4 -5 3 -12 1 -16 -5 -4 -6 18 -10 61 -10 57 0 65 2 54
14 -9 12 -5 16 27 22 35 7 109 47 124 68 4 4 12 41 18 81 21 127 -9 275 -56
275 -7 0 -21 4 -31 9 -9 5 -25 12 -35 15 -9 3 -22 17 -27 31 -9 22 -15 25 -64
25 -39 0 -55 -4 -60 -15z"/>
<path d="M15002 9009 c-13 -16 -31 -29 -40 -29 -20 -1 -52 -23 -52 -37 0 -6
-13 -20 -30 -33 -20 -15 -30 -32 -30 -49 0 -15 -4 -31 -9 -36 -5 -6 -4 -47 1
-95 8 -74 13 -88 36 -107 15 -12 23 -22 18 -23 -15 0 40 -40 78 -55 19 -8 48
-15 63 -15 26 0 26 -1 7 -15 -17 -13 -15 -14 36 -14 49 0 53 1 36 14 -17 13
-15 14 18 20 20 4 36 11 36 16 0 5 9 9 19 9 11 0 22 4 26 10 3 5 12 7 20 3 11
-3 15 2 15 18 0 30 8 40 45 61 30 17 30 17 33 117 l3 100 -36 15 c-26 11 -37
23 -41 46 -6 29 -20 36 -62 31 -7 -1 -15 5 -18 14 -4 9 -17 21 -30 26 -13 4
-24 15 -24 24 0 11 -11 15 -47 14 -41 0 -52 -5 -71 -30z"/>
<path d="M13104 8508 c-5 -9 125 -15 139 -6 6 3 -22 8 -62 10 -40 1 -75 0 -77
-4z"/>
<path d="M12320 19890 c0 -6 38 -10 95 -10 57 0 95 4 95 10 0 6 -38 10 -95 10
-57 0 -95 -4 -95 -10z"/>
<path d="M6761 19346 c-6 -8 -24 -16 -39 -19 -15 -3 -57 -14 -94 -24 -37 -11
-70 -18 -73 -15 -3 3 -5 -1 -5 -10 0 -21 -30 -45 -60 -50 -17 -2 -30 -14 -41
-37 -9 -18 -26 -39 -39 -46 -13 -7 -24 -21 -25 -31 -1 -11 -7 -56 -14 -101
-22 -138 1 -341 42 -377 13 -12 29 -33 37 -48 7 -16 20 -28 29 -28 9 0 24 -14
33 -30 9 -17 25 -30 34 -30 27 0 93 -34 94 -47 0 -10 35 -13 139 -13 148 0
194 9 226 46 12 14 34 24 55 26 26 2 35 8 35 21 0 9 15 26 33 37 25 15 32 27
32 50 0 20 11 41 34 65 42 43 50 91 42 256 -3 63 -6 120 -6 128 0 7 -6 11 -15
8 -8 -4 -18 -1 -22 6 -14 21 -33 81 -33 105 0 17 -6 22 -24 22 -14 0 -38 13
-55 31 -17 17 -31 28 -31 24 0 -4 -7 1 -16 9 -8 9 -27 16 -42 16 -54 0 -102
13 -102 26 0 8 -8 14 -19 14 -10 0 -24 7 -31 15 -16 19 -64 20 -79 1z"/>
<path d="M16750 19110 c-6 -11 -17 -20 -25 -20 -8 0 -14 -5 -12 -12 1 -6 -15
-16 -36 -21 -21 -5 -41 -17 -44 -26 -2 -9 -10 -27 -15 -41 -6 -14 -14 -32 -17
-40 -3 -8 -6 -184 -7 -390 -2 -318 -5 -376 -17 -385 -8 -6 -20 -29 -26 -51
l-11 -41 -82 -11 c-48 -7 -213 -11 -389 -11 -301 1 -394 -5 -405 -22 -3 -5
-13 -9 -22 -9 -10 0 -22 -10 -27 -22 -6 -13 -20 -24 -31 -26 -17 -2 -24 -13
-30 -50 -9 -52 -8 -129 1 -209 5 -40 11 -53 23 -53 22 0 92 -50 92 -66 0 -11
74 -13 392 -14 221 0 408 -5 429 -10 37 -10 77 -45 66 -57 -4 -4 3 -17 15 -30
l23 -24 -4 -368 c-2 -236 1 -375 7 -387 22 -40 42 -93 42 -108 0 -10 8 -16 21
-16 26 0 105 -46 113 -65 4 -11 21 -15 60 -15 45 0 54 3 59 20 3 12 14 20 26
20 12 0 21 4 21 10 0 5 18 15 40 21 25 8 40 18 40 28 0 9 9 27 20 41 21 27 26
45 10 35 -5 -3 -10 -2 -10 2 0 5 14 14 30 20 l30 11 0 372 c0 372 6 447 37
480 12 13 79 16 436 21 232 3 423 6 425 7 1 1 2 7 2 13 0 16 41 47 70 54 22 5
27 15 46 96 12 49 17 92 12 95 -5 3 -6 14 -3 24 3 10 1 21 -5 25 -5 3 -10 19
-10 35 0 24 -6 32 -32 43 -18 8 -39 25 -47 39 -19 37 -65 42 -476 42 -414 1
-423 3 -444 69 -9 30 -12 144 -11 444 l1 403 -23 0 c-33 0 -48 12 -57 45 -5
21 -16 31 -39 37 -17 5 -37 18 -43 31 -18 33 -28 37 -106 37 -62 0 -74 -3 -83
-20z m327 -932 c-3 -7 -5 -2 -5 12 0 14 2 19 5 13 2 -7 2 -19 0 -25z"/>
<path d="M2728 18812 c20 -13 -53 -40 -128 -46 -93 -9 -181 -27 -174 -37 7
-12 -54 -48 -94 -55 -22 -4 -37 -15 -47 -34 -8 -16 -27 -31 -47 -36 -22 -7
-34 -17 -38 -34 -4 -16 -14 -26 -28 -28 -12 -2 -32 -17 -46 -33 -14 -16 -29
-29 -35 -29 -13 0 -31 -33 -31 -57 0 -10 -16 -32 -35 -48 -19 -17 -35 -38 -35
-48 0 -24 -28 -77 -41 -77 -6 0 -8 -4 -5 -8 3 -5 -4 -16 -15 -25 -12 -10 -19
-29 -19 -50 0 -43 -27 -133 -51 -173 -16 -27 -19 -51 -19 -177 0 -132 2 -148
19 -164 11 -10 22 -30 25 -43 27 -140 38 -173 60 -191 14 -11 32 -41 41 -68 8
-26 27 -58 40 -69 14 -12 25 -28 25 -36 0 -30 22 -63 51 -73 19 -8 29 -18 29
-32 0 -12 3 -21 8 -22 51 -5 72 -16 72 -38 0 -22 27 -41 58 -41 13 0 21 -9 25
-29 6 -31 45 -51 97 -51 16 0 30 -7 34 -15 3 -9 20 -16 43 -16 30 -2 32 -3 11
-6 -50 -8 -30 -21 40 -27 176 -15 202 -18 196 -27 -5 -9 16 -10 126 -10 114 0
131 1 125 11 -4 6 12 10 42 10 26 1 85 6 131 13 62 9 80 15 71 24 -9 9 0 13
35 18 25 4 49 11 52 16 2 5 23 13 45 19 32 9 41 16 46 40 4 23 11 30 28 30 23
0 55 28 55 48 0 6 14 15 32 20 20 5 38 19 48 37 9 17 26 31 38 33 18 3 21 11
24 55 3 49 5 53 40 70 25 12 41 29 52 57 8 22 27 47 41 56 18 12 25 25 25 47
0 57 31 161 53 181 21 17 22 26 22 192 0 169 -1 174 -22 189 -13 9 -23 24 -23
34 0 9 -5 22 -11 28 -6 6 -13 38 -16 72 -5 49 -10 63 -29 76 -24 16 -54 74
-54 105 0 10 -9 20 -19 23 -11 2 -29 25 -40 51 -12 25 -30 50 -41 56 -11 6
-20 18 -20 26 0 8 -20 24 -45 35 -30 13 -45 26 -45 38 0 13 -14 24 -40 35 -23
9 -45 27 -51 40 -8 16 -23 26 -45 31 -18 3 -40 15 -47 25 -8 11 -16 17 -20 14
-3 -3 -11 -3 -18 2 -9 5 -8 9 5 14 11 3 -28 13 -90 23 -152 23 -164 26 -186
41 -14 10 -16 15 -6 19 7 3 -50 6 -127 6 -77 0 -134 -3 -127 -7z m225 -9 c-7
-2 -19 -2 -25 0 -7 3 -2 5 12 5 14 0 19 -2 13 -5z m-12 -490 c16 -14 45 -27
76 -32 41 -6 57 -15 86 -48 21 -22 50 -43 66 -46 19 -4 32 -15 41 -37 7 -17
26 -38 41 -46 16 -8 29 -21 29 -29 0 -9 5 -23 10 -33 6 -9 14 -60 19 -112 6
-68 9 -82 11 -50 2 29 6 12 10 -50 3 -52 3 -104 -1 -115 -6 -16 -8 -13 -8 14
-1 55 -15 25 -22 -47 -8 -85 -31 -147 -55 -147 -9 0 -19 -7 -21 -15 -12 -43
-27 -58 -72 -70 -34 -9 -53 -21 -67 -42 -24 -37 -51 -48 -116 -48 -31 0 -58
-6 -67 -14 -24 -22 -120 -24 -136 -3 -9 13 -28 17 -84 17 -59 0 -71 3 -71 16
0 24 -45 62 -88 74 -30 8 -40 17 -54 50 -11 28 -22 40 -33 38 -12 -2 -22 12
-36 47 -10 28 -19 59 -19 69 0 10 -8 25 -17 32 -16 11 -18 30 -18 139 0 110 2
128 18 136 10 6 17 22 17 38 0 38 34 105 64 125 14 9 28 27 32 41 4 17 16 27
38 33 18 5 49 25 71 45 27 24 52 37 82 42 27 4 43 11 40 18 -8 24 22 36 99 39
94 4 101 2 135 -29z m-614 -495 c-3 -8 -6 -5 -6 6 -1 11 2 17 5 13 3 -3 4 -12
1 -19z"/>
<path d="M11943 18110 c0 -30 2 -43 4 -27 2 15 2 39 0 55 -2 15 -4 2 -4 -28z"/>
<path d="M11140 18040 c0 -5 5 -10 11 -10 5 0 7 5 4 10 -3 6 -8 10 -11 10 -2
0 -4 -4 -4 -10z"/>
<path d="M5615 16810 c3 -5 1 -10 -4 -10 -6 0 -11 -9 -11 -21 0 -11 -4 -18 -9
-15 -5 3 -11 -1 -15 -9 -3 -8 -12 -12 -21 -9 -11 5 -15 -1 -15 -24 0 -17 -7
-38 -16 -46 -8 -9 -13 -20 -10 -25 4 -5 0 -11 -6 -13 -10 -4 -13 -92 -14 -399
0 -362 -2 -394 -17 -393 -9 1 -17 -5 -17 -12 0 -12 -13 -41 -28 -64 -2 -3
-184 -8 -405 -12 -472 -7 -488 -9 -505 -48 -7 -15 -23 -31 -36 -34 -25 -6 -31
-26 -43 -133 -6 -61 15 -170 28 -138 6 16 8 16 8 4 1 -9 8 -19 16 -23 8 -3 15
-12 15 -19 0 -8 20 -22 45 -32 25 -9 50 -25 55 -36 10 -18 27 -19 380 -19 235
0 370 4 372 10 2 6 23 1 50 -12 33 -15 49 -29 53 -47 4 -14 11 -29 17 -33 8
-4 12 -123 12 -385 1 -299 4 -377 14 -375 8 1 12 -8 10 -25 -1 -16 7 -50 17
-76 16 -42 20 -46 29 -30 9 16 10 16 16 -7 4 -19 17 -29 53 -40 26 -8 47 -20
47 -25 0 -6 16 -17 36 -24 31 -11 38 -11 57 6 12 10 26 24 30 31 4 6 17 12 28
12 29 0 81 29 73 41 -3 6 1 16 10 22 26 19 47 130 45 232 -4 148 12 599 21
605 4 3 11 22 15 43 4 22 18 45 33 58 25 19 38 20 317 19 482 -2 505 -1 505
13 0 13 35 48 42 41 2 -2 26 5 53 15 46 17 50 22 63 67 13 48 11 210 -2 244
-4 8 -24 23 -45 34 -23 10 -37 24 -35 31 8 20 -69 26 -451 30 -198 3 -375 7
-393 10 -37 7 -82 50 -82 81 0 12 -7 27 -15 34 -13 11 -15 62 -15 345 0 257 3
334 12 337 9 3 8 9 -5 22 -9 10 -17 32 -17 50 0 18 -7 41 -15 52 -8 10 -15 28
-15 39 0 15 -11 25 -33 33 -19 7 -39 23 -45 37 -11 25 -14 25 -127 25 -75 0
-114 -4 -110 -10z"/>
<path d="M14359 15961 c11 -7 5 -10 -20 -13 -21 -2 -33 -8 -31 -15 1 -9 -10
-13 -33 -13 -19 0 -35 -4 -35 -10 0 -5 -7 -10 -15 -10 -8 0 -12 -6 -9 -14 4
-10 -2 -16 -18 -18 -13 -2 -22 -6 -20 -11 1 -4 -7 -17 -18 -29 -11 -12 -20
-27 -20 -32 0 -6 -13 -17 -30 -24 -23 -10 -30 -20 -30 -41 0 -14 -7 -37 -16
-49 -13 -19 -15 -47 -12 -163 1 -78 7 -143 13 -147 12 -8 35 -71 35 -95 0 -10
6 -14 14 -11 7 3 16 -2 20 -11 3 -9 10 -13 16 -10 6 3 10 -4 10 -17 0 -29 17
-48 43 -48 11 0 22 -11 28 -28 9 -27 16 -30 87 -41 136 -22 207 -24 288 -7 42
9 89 16 105 16 19 0 29 5 29 15 0 8 6 15 13 15 19 1 77 58 77 76 0 8 6 14 13
11 16 -5 37 46 37 89 0 22 5 33 12 31 7 -1 14 8 16 20 2 14 8 20 18 16 12 -4
14 18 14 141 0 91 -4 146 -10 146 -5 0 -10 -6 -11 -12 0 -7 -5 -1 -11 15 -5
15 -14 25 -19 21 -5 -3 -9 -1 -9 5 0 5 6 12 13 14 8 4 8 6 1 6 -7 1 -18 21
-25 45 -12 40 -33 60 -60 58 -3 -1 -6 9 -6 21 -1 43 -3 47 -27 47 -30 0 -82
22 -85 35 -1 6 -8 9 -15 7 -7 -1 -19 5 -26 13 -10 12 -40 15 -159 15 -91 0
-141 -4 -132 -9z m318 -37 c-3 -3 -12 -4 -19 -1 -8 3 -5 6 6 6 11 1 17 -2 13
-5z"/>
<path d="M14020 15508 c0 -64 3 -88 10 -78 13 20 13 170 0 170 -6 0 -10 -37
-10 -92z"/>
<path d="M18290 15442 c-83 -8 -136 -26 -162 -53 -15 -16 -37 -29 -48 -29 -14
0 -24 -8 -28 -22 -6 -23 -6 -23 -12 2 -6 23 -8 22 -19 -16 -6 -23 -18 -45 -26
-48 -8 -3 -15 -12 -15 -21 0 -8 -5 -14 -11 -12 -6 1 -16 -7 -22 -18 -7 -11
-15 -22 -18 -25 -3 -3 -9 -22 -13 -43 -5 -26 -11 -37 -21 -34 -18 7 -25 -35
-25 -150 0 -86 2 -95 20 -100 11 -3 20 -14 20 -25 0 -11 7 -26 15 -34 8 -9 15
-26 15 -39 0 -23 32 -51 48 -42 11 7 27 -15 30 -43 5 -31 2 -29 43 -33 26 -3
35 -9 37 -26 4 -25 22 -28 23 -3 0 14 2 14 8 -3 5 -11 6 -25 4 -31 -2 -7 17
-15 49 -20 64 -10 291 -10 333 0 17 4 40 9 52 12 13 2 22 9 20 14 -1 6 11 18
27 28 37 22 61 44 69 65 3 9 13 17 21 17 8 0 17 14 21 33 9 46 37 96 57 103
16 5 18 20 18 149 0 141 0 143 -25 159 -14 9 -25 23 -25 31 0 8 -4 15 -10 15
-5 0 -13 17 -16 38 -4 26 -13 41 -27 48 -12 5 -28 23 -36 41 -9 21 -25 36 -45
43 -17 6 -38 20 -47 31 -11 15 -29 21 -65 23 -27 2 -56 5 -64 9 -17 7 -114 13
-150 9z"/>
<path d="M1435 15430 c-3 -5 -15 -10 -26 -10 -11 0 -23 -10 -28 -24 -11 -26
-30 -36 -72 -36 -26 0 -29 -3 -29 -34 0 -30 -4 -35 -30 -41 -26 -6 -30 -11
-30 -41 0 -51 -25 -92 -62 -107 -16 -6 -18 -22 -18 -142 0 -128 1 -135 20
-135 13 0 20 -7 20 -20 0 -11 4 -20 8 -20 12 0 32 -47 32 -75 0 -28 19 -35 21
-7 1 12 3 10 7 -6 4 -13 12 -23 17 -22 6 0 12 -14 15 -32 4 -27 11 -34 35 -39
17 -4 26 -7 20 -8 -5 0 7 -12 27 -26 29 -20 49 -25 97 -25 38 0 61 -4 61 -11
0 -8 31 -10 103 -6 141 8 178 15 200 37 10 11 23 20 30 20 7 0 6 4 -3 10 -12
8 -9 10 13 10 38 0 67 17 67 39 0 22 17 37 45 43 11 2 21 12 23 23 8 53 14 66
37 75 13 5 24 17 25 27 1 10 4 72 6 138 5 125 -4 175 -31 175 -8 0 -15 7 -15
15 0 8 -4 23 -9 33 -5 9 -14 29 -22 45 -8 18 -20 27 -36 27 -19 0 -24 7 -29
40 -5 32 -11 40 -27 40 -33 0 -87 23 -87 37 0 7 -13 19 -30 28 -22 11 -65 15
-184 15 -92 0 -157 -4 -161 -10z"/>
<path d="M10162 14743 c-26 -2 -45 -10 -49 -19 -6 -16 -73 -54 -95 -54 -8 0
-22 -13 -31 -30 -10 -16 -24 -30 -32 -30 -17 0 -35 -31 -35 -59 0 -12 -4 -21
-9 -21 -5 0 -12 -19 -16 -42 -4 -24 -10 -35 -12 -25 -8 31 -19 18 -32 -41 -9
-42 -10 -86 -5 -153 5 -52 7 -106 6 -121 -2 -14 2 -29 7 -33 6 -3 11 0 11 7 0
9 3 9 10 -2 8 -12 12 -13 19 -2 5 9 10 -3 15 -36 4 -30 12 -52 21 -56 8 -3 15
-13 15 -23 0 -17 58 -63 80 -63 5 0 17 -11 26 -25 10 -15 26 -25 39 -25 13 0
36 -5 52 -11 35 -15 223 -13 321 2 59 10 72 15 72 30 0 11 5 19 10 19 6 0 10
6 10 14 0 7 14 16 30 20 24 4 30 11 30 30 0 18 9 30 30 41 17 9 34 13 39 10
10 -6 20 43 28 133 2 34 9 62 14 62 5 0 9 35 9 78 0 55 -3 73 -11 62 -7 -11
-8 -5 -3 23 4 23 2 37 -4 37 -6 0 -14 25 -17 55 -7 53 -18 69 -28 43 -3 -8 -6
-6 -6 5 -1 9 -6 17 -12 17 -5 0 -8 4 -5 9 3 5 -8 23 -24 41 -16 18 -28 36 -25
40 3 4 -18 14 -46 20 -29 7 -60 21 -70 31 -9 9 -27 23 -39 29 -23 12 -213 21
-288 13z"/>
<path d="M2979 10896 c-2 -2 -32 -6 -66 -9 -52 -5 -66 -10 -91 -36 -16 -17
-36 -31 -45 -31 -10 0 -23 -15 -31 -35 -10 -23 -22 -35 -34 -35 -17 0 -22 -13
-36 -87 -19 -104 -22 -343 -5 -343 8 0 8 -4 1 -13 -16 -19 19 -120 43 -123 18
-3 35 -19 55 -54 7 -12 44 -16 210 -18 197 -4 256 0 246 17 -7 11 34 48 59 53
15 2 21 12 23 38 2 19 7 39 11 45 4 5 9 48 10 95 1 47 4 104 7 126 3 24 -1 73
-10 115 -16 70 -24 116 -25 148 -1 8 -4 11 -8 8 -8 -9 -43 22 -43 39 0 7 -15
17 -34 24 -18 6 -45 24 -60 40 -23 27 -32 30 -85 30 -33 0 -66 2 -73 5 -8 3
-16 4 -19 1z"/>
<path d="M7822 9490 c0 -14 2 -19 5 -12 2 6 2 18 0 25 -3 6 -5 1 -5 -13z"/>
<path d="M5368 9026 c-10 -7 -18 -18 -18 -23 0 -5 -19 -19 -43 -31 -49 -25
-71 -46 -82 -81 -10 -34 -45 -91 -56 -91 -5 0 -9 -18 -9 -40 0 -27 4 -40 14
-40 18 0 46 -43 46 -71 0 -12 8 -23 20 -26 11 -3 20 -10 20 -16 0 -16 59 -67
65 -57 6 10 15 5 54 -31 23 -20 73 -30 91 -18 12 7 11 9 -5 10 -20 1 -18 1 25
15 13 5 13 6 0 15 -11 8 -8 9 13 6 15 -2 30 0 33 4 3 5 18 9 33 9 32 0 51 16
51 45 0 12 3 25 7 29 12 12 32 99 33 143 0 23 -9 65 -20 93 -11 28 -20 60 -20
70 0 13 -7 20 -20 20 -29 0 -98 37 -112 60 -10 15 -24 20 -58 20 -25 0 -53 -7
-62 -14z"/>
<path d="M6314 9032 c-7 -4 -13 -16 -15 -26 -3 -12 -19 -24 -46 -34 -30 -9
-43 -19 -43 -32 0 -10 -13 -29 -29 -42 -28 -22 -30 -27 -31 -103 -3 -152 -3
-149 30 -162 19 -7 30 -18 30 -30 0 -27 20 -43 53 -43 15 0 26 -4 22 -9 -3 -5
4 -12 15 -16 32 -10 161 -2 168 11 4 6 25 15 47 20 34 8 41 14 45 39 3 17 7
29 10 28 3 -1 15 0 27 3 18 5 22 16 28 66 4 33 4 88 0 123 -5 53 -10 64 -28
70 -12 4 -25 7 -29 6 -5 -1 -8 13 -8 29 0 27 -3 30 -33 30 -34 0 -67 27 -67
55 0 20 -21 30 -31 14 -6 -10 -9 -11 -9 -1 0 13 -87 17 -106 4z"/>
<path d="M7265 9020 c-10 -11 -15 -20 -10 -20 4 0 2 -7 -5 -15 -6 -7 -32 -17
-56 -21 -37 -5 -44 -10 -44 -29 0 -12 -7 -42 -15 -65 -27 -76 -16 -207 25
-290 4 -8 24 -17 44 -20 20 -3 35 -9 34 -14 -9 -29 130 -30 199 -1 37 15 83
58 83 76 0 6 5 7 10 4 28 -17 47 142 28 223 -7 29 -17 53 -22 52 -5 -1 -15 12
-23 28 -9 18 -30 37 -55 48 -22 10 -47 28 -55 41 -21 32 -110 33 -138 3z m30
-478 c-3 -3 -11 0 -18 7 -9 10 -8 11 6 5 10 -3 15 -9 12 -12z"/>
<path d="M6350 8510 c-11 -7 -7 -10 18 -10 17 0 32 5 32 10 0 13 -30 13 -50 0z"/>
<path d="M6410 8510 c0 -5 5 -10 11 -10 5 0 7 5 4 10 -3 6 -8 10 -11 10 -2 0
-4 -4 -4 -10z"/>
<path d="M7325 8510 c-38 -7 -38 -7 18 -9 32 0 57 3 57 9 0 11 -14 11 -75 0z"/>
<path d="M8590 4712 c0 -10 -64 -32 -97 -35 -12 -1 -24 -6 -27 -13 -2 -6 -31
-14 -64 -18 -53 -6 -63 -11 -87 -41 -20 -27 -33 -35 -58 -35 -37 0 -51 -8 -60
-32 -6 -18 -63 -48 -96 -51 -11 -1 -21 -6 -21 -13 0 -17 -35 -44 -58 -44 -12
0 -32 -14 -48 -35 -14 -19 -31 -35 -37 -35 -13 0 -36 -31 -37 -50 0 -8 -10
-20 -22 -25 -13 -6 -28 -26 -35 -45 -7 -19 -12 -30 -13 -25 0 6 -7 2 -15 -9
-7 -10 -18 -15 -24 -12 -6 4 -15 -11 -22 -38 -9 -37 -16 -45 -37 -48 -23 -3
-27 -10 -41 -68 -8 -36 -21 -71 -28 -78 -7 -7 -13 -20 -13 -28 0 -8 -4 -12
-10 -9 -17 10 -28 -74 -36 -277 -3 -71 -10 -128 -15 -128 -5 0 -9 -7 -9 -16 0
-8 4 -13 9 -10 5 3 12 -31 15 -77 15 -198 18 -217 31 -217 7 0 16 -14 20 -30
4 -17 10 -28 15 -25 8 5 16 -26 27 -98 4 -28 9 -37 19 -33 8 3 17 -1 20 -9 4
-8 10 -12 15 -9 5 3 9 -3 9 -13 1 -21 18 -44 45 -59 11 -6 22 -19 24 -29 4
-21 40 -54 59 -55 6 0 12 -9 12 -20 0 -12 15 -29 40 -45 22 -14 40 -32 40 -40
0 -8 12 -17 28 -21 51 -10 70 -23 74 -46 2 -19 10 -24 41 -26 22 -2 37 1 37 8
0 6 17 -1 37 -15 21 -14 46 -25 55 -25 10 0 28 -10 40 -22 19 -19 41 -25 136
-34 143 -15 169 -25 182 -73 5 -20 10 -49 10 -65 0 -49 -31 -241 -41 -250 -5
-6 -9 -27 -9 -48 0 -21 -4 -38 -10 -38 -6 0 -10 -35 -10 -84 0 -77 2 -84 21
-89 12 -3 19 -11 17 -18 -2 -7 3 -21 11 -30 35 -39 42 -49 31 -49 -5 0 -10 -4
-10 -10 0 -5 11 -10 24 -10 35 0 56 -10 56 -27 0 -8 6 -13 13 -10 17 6 49 -12
42 -24 -4 -5 19 -9 54 -9 43 0 61 4 61 13 0 7 22 23 49 36 27 12 51 31 54 42
3 10 11 19 19 19 15 0 43 64 34 79 -4 5 -1 11 5 13 6 2 15 37 19 78 4 41 13
76 19 78 6 2 11 25 11 51 0 58 18 163 31 175 5 6 9 20 9 32 0 13 8 24 19 27
15 3 21 17 26 53 10 75 19 98 43 109 14 6 24 22 28 45 8 42 41 100 57 100 12
0 67 83 67 101 0 6 4 8 9 5 16 -10 42 6 52 30 4 13 15 24 24 24 8 0 15 4 15
10 0 5 13 16 29 24 16 9 31 23 33 33 5 19 37 38 81 47 17 4 27 13 27 24 0 25
20 42 48 42 25 0 82 29 82 42 0 14 54 36 105 43 28 4 62 15 77 26 50 35 113
43 358 42 244 0 305 -8 339 -42 13 -13 38 -20 82 -23 74 -5 125 -26 123 -51
-1 -11 8 -19 25 -23 41 -9 70 -26 76 -44 5 -16 65 -51 108 -64 9 -3 17 -15 17
-26 0 -21 4 -24 53 -34 20 -5 29 -14 33 -36 4 -16 15 -32 25 -35 28 -9 49 -34
49 -58 0 -13 9 -26 23 -32 12 -6 31 -27 42 -47 11 -20 30 -43 42 -49 13 -7 23
-16 23 -21 0 -5 7 -16 15 -24 8 -9 16 -24 16 -35 1 -10 3 -23 4 -29 1 -5 3
-14 4 -19 0 -5 10 -12 20 -16 27 -8 38 -45 52 -179 9 -79 17 -116 25 -116 8 0
15 -19 19 -47 3 -27 9 -61 13 -78 4 -16 4 -77 0 -135 -10 -151 -13 -166 -31
-193 -9 -14 -21 -67 -27 -119 -13 -106 -34 -164 -61 -171 -14 -4 -19 -14 -19
-40 0 -28 -9 -45 -44 -82 -25 -25 -46 -56 -48 -68 -2 -12 -15 -27 -29 -34 -18
-9 -29 -24 -33 -47 -6 -33 -25 -58 -42 -55 -24 4 -36 -2 -30 -17 9 -24 -23
-66 -45 -59 -11 4 -19 2 -19 -4 0 -6 6 -11 13 -12 6 0 0 -5 -16 -11 -15 -5
-25 -14 -21 -19 3 -5 -1 -9 -9 -9 -25 0 -75 -30 -80 -49 -4 -18 -86 -51 -127
-51 -12 0 -20 -5 -18 -12 6 -17 -28 -48 -52 -48 -10 0 -42 -5 -70 -11 -42 -9
-49 -13 -39 -25 9 -11 7 -14 -15 -14 -25 0 -36 -15 -16 -22 5 -1 -11 -3 -38
-4 -26 0 -105 -7 -176 -14 -102 -11 -157 -11 -265 -3 -144 12 -281 38 -281 54
0 5 7 9 17 9 32 0 6 9 -38 14 -52 5 -99 22 -99 35 0 5 -8 8 -17 7 -10 0 -18 6
-18 14 0 19 -21 28 -67 29 -21 1 -38 5 -38 10 0 5 -12 11 -27 13 -18 2 -29 10
-32 23 -4 23 -29 44 -52 45 -16 0 -31 21 -33 45 -1 5 -18 12 -39 16 -21 3 -44
14 -51 24 -7 10 -18 15 -23 12 -6 -4 -14 0 -17 9 -3 8 -2 12 3 9 5 -3 12 -1
15 4 7 10 -26 21 -65 21 -14 0 -40 -13 -59 -30 -19 -17 -47 -34 -64 -38 -16
-4 -33 -14 -37 -22 -3 -8 -13 -27 -20 -43 -9 -20 -15 -24 -21 -15 -13 21 -26
-9 -33 -78 -10 -88 6 -184 30 -184 7 0 20 -16 29 -35 9 -19 24 -35 32 -35 8 0
18 -8 21 -17 11 -29 36 -50 67 -57 16 -4 42 -20 58 -37 16 -16 38 -29 49 -29
11 0 22 -7 25 -15 3 -8 14 -17 24 -20 11 -3 22 -15 25 -26 4 -10 14 -19 24
-19 24 0 88 -27 96 -40 3 -5 14 -10 24 -10 10 0 24 -6 30 -14 13 -16 90 -32
170 -35 24 -1 32 -5 28 -15 -6 -16 16 -28 37 -20 7 3 20 -1 28 -9 41 -41 733
-47 808 -7 10 6 32 10 49 10 17 0 34 7 39 16 10 18 118 43 185 44 30 0 44 7
63 30 15 17 43 34 66 41 23 6 54 25 72 44 19 20 46 36 67 40 25 5 41 16 53 36
9 16 26 29 36 29 10 0 25 9 33 20 8 12 20 20 27 18 6 -2 17 6 23 17 17 28 28
35 60 35 23 0 27 4 27 30 0 24 7 35 29 48 16 9 35 30 43 47 8 18 22 31 36 33
13 2 22 10 22 20 0 33 30 62 63 63 18 0 27 3 21 5 -13 6 39 112 66 136 11 9
20 21 20 26 0 29 44 121 60 125 11 3 20 18 23 38 14 82 20 100 37 109 9 5 20
7 23 4 5 -6 12 20 22 91 7 42 32 101 53 123 6 7 12 25 13 40 0 15 2 52 4 82 3
70 4 482 1 535 -1 22 -3 67 -4 100 -2 52 -5 62 -24 70 -28 12 -35 53 -19 107
18 58 61 78 196 91 92 8 114 14 118 27 5 18 111 50 167 50 24 0 35 7 48 30 9
16 28 34 42 39 14 5 47 30 74 55 27 25 54 46 60 46 6 1 20 15 31 33 11 18 30
33 42 35 13 2 24 13 28 30 3 15 15 36 25 47 10 11 21 30 25 43 3 12 13 22 21
22 9 0 14 11 14 35 0 22 6 38 15 41 8 4 15 12 15 20 0 8 5 14 10 14 6 0 10 7
10 16 0 8 4 13 9 10 12 -8 21 18 21 59 0 18 7 38 14 45 8 6 20 28 27 47 7 22
14 31 19 23 15 -24 20 37 20 240 0 203 -5 264 -20 240 -5 -8 -12 2 -20 26 -7
21 -19 45 -27 52 -7 7 -13 30 -13 50 0 20 -5 44 -10 52 -5 8 -10 11 -10 7 0
-4 -6 -2 -14 5 -8 7 -12 16 -10 19 1 3 -6 13 -17 22 -12 11 -19 29 -19 52 0
24 -5 35 -14 35 -8 0 -18 10 -22 23 -4 12 -10 24 -14 27 -4 3 -17 24 -29 48
-15 28 -28 42 -42 42 -13 0 -24 11 -33 31 -7 17 -23 36 -36 42 -13 7 -30 27
-39 44 -9 18 -24 33 -33 33 -9 0 -23 7 -32 15 -8 8 -22 15 -30 15 -9 0 -23 11
-32 24 -8 14 -29 28 -45 31 -16 4 -46 22 -66 40 -21 19 -49 37 -63 40 -29 8
-60 33 -60 50 0 7 -21 15 -47 19 -68 9 -179 45 -194 62 -9 11 -54 14 -245 14
-136 0 -234 -4 -234 -9 0 -5 -13 -12 -30 -16 -16 -3 -47 -15 -69 -26 -23 -11
-61 -22 -86 -26 -33 -4 -45 -10 -45 -22 0 -23 -29 -63 -41 -55 -19 11 -59 -6
-59 -25 0 -16 -63 -53 -95 -55 -5 -1 -17 -14 -25 -31 -11 -21 -26 -33 -53 -39
-27 -7 -37 -15 -37 -29 0 -11 -12 -45 -27 -76 -25 -50 -28 -53 -34 -31 -5 20
-8 14 -15 -30 -8 -48 -13 -57 -40 -70 -25 -12 -34 -25 -44 -65 -18 -70 -30
-93 -51 -98 -13 -3 -19 -15 -20 -34 -1 -15 -3 -39 -4 -53 -1 -14 -5 -61 -9
-105 -9 -112 -19 -138 -66 -164 -38 -21 -43 -22 -197 -12 -87 5 -214 7 -283 4
-268 -12 -336 -10 -359 11 -12 11 -21 24 -21 29 0 6 -6 18 -14 26 -7 9 -21 70
-30 136 -10 66 -18 128 -20 138 -1 10 -10 27 -19 38 -20 23 -48 98 -54 148 -5
34 -23 61 -40 61 -5 0 -20 18 -33 40 -14 22 -33 42 -43 46 -19 6 -49 56 -45
75 2 7 -8 15 -21 18 -24 6 -34 19 -45 54 -3 11 -16 17 -33 17 -31 0 -58 14
-58 29 0 15 -46 51 -74 58 -32 7 -61 31 -61 50 0 7 -6 13 -12 13 -77 3 -145
29 -157 61 -6 18 -9 19 -19 6 -13 -15 -52 -12 -52 4 0 5 -94 9 -210 9 -115 0
-210 -4 -210 -8z m270 -481 c0 -5 14 -11 30 -14 18 -4 30 -13 30 -22 0 -12 13
-15 63 -15 75 0 102 -15 187 -101 44 -46 60 -69 60 -90 0 -40 10 -59 31 -59
27 0 37 -26 50 -131 18 -151 -1 -280 -50 -334 -10 -11 -25 -38 -32 -60 -16
-47 -31 -65 -53 -65 -10 0 -16 -9 -16 -26 0 -36 -17 -64 -40 -64 -23 0 -61
-30 -54 -42 3 -4 -3 -8 -13 -8 -26 0 -83 -37 -83 -54 0 -7 -6 -13 -12 -12 -7
0 -14 -3 -15 -9 -2 -13 -32 -23 -69 -24 -18 -1 -34 -7 -37 -15 -3 -8 -19 -17
-36 -21 -17 -4 -31 -10 -31 -14 0 -13 -210 -23 -311 -14 -52 4 -86 9 -76 11
23 5 22 18 -4 25 -12 3 -19 10 -16 14 3 5 -17 18 -44 29 -37 14 -54 27 -66 51
-8 19 -24 33 -36 35 -12 2 -23 12 -26 23 -2 11 -9 24 -17 28 -8 4 -14 24 -14
42 0 22 -5 35 -13 35 -45 0 -75 138 -63 290 4 47 7 94 7 104 0 25 36 76 55 76
8 0 14 10 14 22 0 28 21 89 37 106 6 6 18 12 26 12 8 0 17 13 21 30 3 18 12
30 21 30 8 0 15 4 15 9 0 5 10 11 23 13 12 2 21 9 19 17 -5 22 19 41 49 41 16
0 29 5 29 10 0 6 7 10 15 10 18 0 20 20 3 21 -7 0 -3 4 10 10 13 5 20 13 17
19 -4 6 5 10 22 10 61 -1 208 25 206 37 -2 7 19 14 52 18 31 4 58 11 61 16 7
12 74 12 74 0z m2930 -1 c0 -5 13 -10 29 -10 53 0 90 -11 84 -26 -4 -11 8 -14
53 -14 72 -1 134 -14 145 -32 5 -7 14 -13 21 -14 40 -3 41 -4 28 -19 -11 -13
-8 -15 19 -15 17 0 31 -4 31 -10 0 -5 7 -10 16 -10 8 0 13 -3 10 -8 -7 -12 17
-38 44 -47 29 -9 49 -33 50 -57 0 -10 11 -19 29 -23 20 -4 33 -16 42 -38 7
-18 24 -42 39 -54 18 -15 30 -36 34 -64 4 -23 17 -65 31 -93 44 -95 42 -203
-7 -283 -10 -18 -18 -38 -17 -45 5 -39 -4 -70 -26 -93 -14 -14 -30 -25 -35
-25 -6 0 -10 -10 -10 -21 0 -26 -27 -48 -58 -49 -17 0 -27 -9 -35 -30 -6 -17
-19 -30 -28 -30 -25 0 -81 -26 -78 -36 1 -5 -6 -11 -17 -13 -10 -1 -27 -10
-38 -20 -27 -24 -316 -22 -341 3 -9 9 -23 16 -31 16 -8 0 -14 4 -14 9 0 10
-78 41 -103 41 -10 0 -15 4 -12 10 3 5 -6 12 -20 16 -14 3 -25 9 -25 13 0 13
-60 42 -72 35 -6 -4 -8 -3 -5 3 4 6 0 13 -8 17 -8 3 -15 12 -15 21 0 8 -18 27
-40 41 -22 15 -40 32 -40 39 0 7 -13 25 -30 38 -16 14 -30 30 -30 35 0 6 -7
12 -15 16 -8 3 -20 26 -26 51 -7 26 -18 49 -25 52 -8 3 -14 15 -14 27 0 12 -4
26 -9 32 -6 5 -11 63 -12 129 -2 120 1 139 38 185 6 8 18 38 25 65 8 31 23 59
40 74 16 13 28 30 28 37 0 27 36 52 65 46 22 -4 27 -2 23 9 -13 34 22 52 130
66 41 5 55 17 30 26 -7 3 16 8 50 12 41 5 59 11 50 16 -9 6 -2 9 20 9 17 0 32
-4 32 -10z"/>
<path d="M3011 3629 c-14 -5 -21 -15 -18 -23 8 -19 -10 -32 -55 -40 -21 -4
-38 -12 -38 -17 0 -15 -19 -31 -63 -53 -20 -11 -37 -23 -37 -27 0 -14 -74 -59
-97 -59 -17 0 -22 -7 -25 -32 -2 -27 -8 -34 -28 -36 -30 -5 -52 -21 -47 -36 8
-20 -13 -44 -43 -51 -25 -6 -30 -11 -30 -36 0 -30 -7 -36 -49 -42 -18 -3 -25
-11 -27 -31 -2 -16 -9 -36 -17 -45 -8 -9 -17 -24 -20 -33 -4 -10 -11 -18 -18
-18 -13 0 -48 -41 -49 -57 0 -7 -9 -17 -19 -23 -24 -13 -81 -13 -81 -1 0 6
-20 13 -45 17 -46 6 -59 19 -27 27 16 4 16 5 0 6 -10 0 -18 6 -18 11 0 6 -7
10 -15 10 -8 0 -15 5 -15 10 0 6 -7 10 -16 10 -9 0 -18 9 -21 19 -3 14 -17 21
-49 26 -24 3 -42 11 -39 16 4 5 -5 13 -19 19 -15 5 -25 15 -24 22 2 8 -17 15
-52 20 -75 10 -139 25 -115 27 15 1 10 7 -22 26 -28 17 -64 28 -108 32 -36 3
-65 10 -65 14 0 5 -9 9 -20 9 -11 0 -20 6 -20 14 0 23 -13 27 -122 32 -57 3
-141 9 -188 14 -51 6 -133 6 -205 0 -287 -21 -299 -23 -315 -40 -17 -19 -123
-50 -169 -50 -37 0 -62 -10 -55 -21 3 -5 0 -10 -5 -10 -6 -1 -17 -2 -23 -3 -7
-1 -12 -7 -11 -14 3 -11 -16 -16 -117 -30 -52 -7 -55 -9 -57 -37 -1 -17 -11
-36 -23 -44 -11 -7 -20 -19 -20 -27 0 -7 -6 -11 -14 -8 -11 4 -14 -15 -15
-102 -1 -60 1 -105 5 -101 11 10 44 -23 44 -44 0 -19 45 -71 54 -62 3 3 9 -3
13 -13 3 -10 11 -22 17 -26 17 -11 206 -10 206 2 0 5 6 7 14 4 9 -3 17 3 21
16 8 25 43 41 104 46 31 3 49 11 62 29 27 34 79 41 349 48 205 6 351 -12 390
-48 17 -16 43 -25 84 -30 48 -5 65 -13 86 -35 16 -18 46 -34 75 -41 35 -9 52
-19 64 -41 17 -31 47 -43 86 -36 13 3 22 2 20 -2 -6 -9 90 -110 104 -110 6 0
11 -4 11 -8 0 -5 8 -18 18 -30 9 -11 24 -34 34 -50 9 -18 26 -32 40 -34 17 -2
24 -10 26 -30 2 -17 9 -28 18 -28 20 0 51 -30 55 -54 3 -15 19 -23 64 -33 33
-7 64 -18 69 -23 12 -12 46 -13 46 -1 0 4 28 11 62 15 70 7 79 13 81 50 1 14
7 24 12 22 6 -2 19 0 30 4 16 6 24 23 34 76 18 97 31 134 46 134 14 0 25 30
25 73 0 15 7 30 15 33 8 4 15 12 15 20 0 8 6 14 14 14 17 0 48 39 40 51 -9 15
16 50 42 59 15 6 24 17 24 32 0 26 40 88 57 88 7 0 17 9 23 20 6 11 17 20 25
20 8 0 15 9 15 20 0 11 4 19 9 18 5 -2 20 9 34 25 14 15 35 27 47 27 13 0 20
7 20 18 0 25 31 52 58 52 13 0 22 6 22 15 0 19 46 43 99 51 41 7 53 16 57 42
5 28 45 103 59 108 12 5 15 26 15 92 0 47 -3 82 -6 79 -8 -8 -40 32 -54 67 -5
14 -16 26 -25 26 -8 0 -15 5 -15 10 0 6 -6 10 -14 10 -7 0 -16 9 -19 20 -5 18
-13 20 -109 19 -56 0 -114 -5 -127 -10z m-778 -666 c-7 -2 -19 -2 -25 0 -7 3
-2 5 12 5 14 0 19 -2 13 -5z"/>
<path d="M19462 2802 c-60 -3 -63 -4 -68 -32 -6 -28 -27 -45 -44 -35 -11 7
-15 -10 -30 -110 -11 -70 -10 -90 5 -159 10 -43 21 -73 25 -67 4 8 18 2 41
-20 18 -17 45 -33 59 -35 94 -14 131 -15 163 -5 20 7 36 17 34 23 -1 7 17 15
40 20 36 8 43 13 49 41 3 17 16 44 27 59 26 35 38 158 16 158 -13 0 -39 43
-39 63 0 16 -63 72 -95 85 -35 14 -95 19 -183 14z"/>
<path d="M19223 1183 c15 -2 39 -2 55 0 15 2 2 4 -28 4 -30 0 -43 -2 -27 -4z"/>
</g>
</svg>
